<?xml version="1.0" encoding="UTF-8"?><svg xmlns="http://www.w3.org/2000/svg" xmlns:xlink="http://www.w3.org/1999/xlink" contentScriptType="text/ecmascript" width="960pt" zoomAndPan="magnify" contentStyleType="text/css" viewBox="0 0 960 599.999999" height="599.999999pt" preserveAspectRatio="xMidYMid meet" version="1.2"><defs><filter x="0%" y="0%" width="100%" xmlns:xlink="http://www.w3.org/1999/xlink" xlink:type="simple" filterUnits="objectBoundingBox" xlink:actuate="onLoad" id="alpha" height="100%" xlink:show="other" xml:id="alpha"><feColorMatrix values="0 0 0 0 1 0 0 0 0 1 0 0 0 0 1 0 0 0 1 0" type="matrix" in="SourceGraphic"/></filter><mask xml:id="mask0" id="mask0"><g filter="url(#alpha)"><rect x="0" width="960" y="0" height="599.999999" style="fill:rgb(0%,0%,0%);fill-opacity:0.298;stroke:none;"/></g></mask><g xml:id="surface5" id="surface5"><path style=" stroke:none;fill-rule:nonzero;fill:rgb(100%,87.059021%,34.899902%);fill-opacity:1;" d="M 207.011719 105.71875 C 205.957031 107.15625 203.933594 107.464844 202.5 106.410156 C 201.066406 105.363281 200.753906 103.339844 201.804688 101.910156 C 202.859375 100.472656 204.878906 100.160156 206.3125 101.214844 C 205.957031 100.949219 205.601562 100.6875 206.3125 101.214844 C 206.574219 101.402344 206.691406 101.488281 206.71875 101.511719 C 206.671875 101.476562 206.496094 101.347656 206.316406 101.21875 C 207.75 102.269531 208.058594 104.289062 207.011719 105.71875 Z M 199.984375 77.238281 C 201.765625 77.234375 203.210938 78.679688 203.210938 80.457031 C 203.214844 82.234375 201.769531 83.679688 199.988281 83.679688 C 198.210938 83.683594 196.765625 82.242188 196.765625 80.457031 C 196.757812 78.683594 198.207031 77.238281 199.984375 77.238281 Z M 206.898438 100.414062 C 205.320312 99.261719 203.199219 99.371094 201.75 100.550781 L 195.433594 96.011719 L 163.042969 96.027344 L 171.339844 81.464844 L 195.894531 81.453125 C 196.34375 83.296875 198.007812 84.671875 199.988281 84.667969 C 202.3125 84.671875 204.203125 82.777344 204.203125 80.457031 C 204.199219 78.132812 202.308594 76.246094 199.984375 76.246094 C 198.003906 76.253906 196.339844 77.628906 195.894531 79.472656 L 170.183594 79.488281 L 160.761719 96.035156 L 142.222656 96.046875 L 142.222656 99.066406 L 159.269531 110.902344 L 177 110.890625 C 177.4375 112.464844 178.875 113.617188 180.585938 113.617188 C 182.640625 113.617188 184.304688 111.949219 184.304688 109.894531 C 184.300781 107.84375 182.636719 106.175781 180.582031 106.179688 C 178.871094 106.183594 177.433594 107.335938 177 108.910156 L 159.890625 108.921875 L 144.1875 98.023438 L 194.785156 97.984375 L 200.554688 102.125 C 199.777344 103.894531 200.292969 106.023438 201.914062 107.214844 C 203.792969 108.585938 206.429688 108.175781 207.804688 106.304688 C 209.179688 104.433594 208.777344 101.789062 206.898438 100.414062 "/><path style=" stroke:none;fill-rule:nonzero;fill:rgb(100%,87.059021%,34.899902%);fill-opacity:1;" d="M 3.335938 101.21875 C 3.15625 101.347656 2.980469 101.476562 2.933594 101.511719 C 2.960938 101.488281 3.078125 101.402344 3.339844 101.214844 C 4.050781 100.6875 3.695312 100.949219 3.339844 101.214844 C 4.773438 100.160156 6.792969 100.472656 7.847656 101.910156 C 8.898438 103.339844 8.585938 105.363281 7.152344 106.410156 C 5.71875 107.464844 3.691406 107.15625 2.644531 105.71875 C 1.589844 104.289062 1.902344 102.269531 3.335938 101.21875 Z M 12.886719 80.457031 C 12.886719 82.242188 11.441406 83.683594 9.660156 83.679688 C 7.882812 83.679688 6.4375 82.234375 6.441406 80.457031 C 6.441406 78.679688 7.886719 77.234375 9.667969 77.238281 C 11.449219 77.238281 12.890625 78.683594 12.886719 80.457031 Z M 1.84375 106.304688 C 3.21875 108.175781 5.859375 108.585938 7.734375 107.214844 C 9.359375 106.023438 9.875 103.894531 9.101562 102.125 L 14.867188 97.984375 L 65.460938 98.023438 L 49.761719 108.921875 L 32.652344 108.910156 C 32.222656 107.335938 30.78125 106.183594 29.070312 106.179688 C 27.015625 106.175781 25.347656 107.84375 25.347656 109.894531 C 25.347656 111.949219 27.011719 113.617188 29.0625 113.617188 C 30.777344 113.617188 32.214844 112.464844 32.652344 110.890625 L 50.378906 110.902344 L 67.425781 99.066406 L 67.425781 96.046875 L 48.890625 96.035156 L 39.464844 79.488281 L 13.757812 79.472656 C 13.3125 77.628906 11.652344 76.253906 9.667969 76.246094 C 7.339844 76.246094 5.453125 78.132812 5.449219 80.457031 C 5.449219 82.777344 7.335938 84.671875 9.660156 84.667969 C 11.644531 84.671875 13.308594 83.296875 13.753906 81.453125 L 38.3125 81.464844 L 46.609375 96.027344 L 14.21875 96.011719 L 7.902344 100.550781 C 6.449219 99.371094 4.332031 99.261719 2.753906 100.414062 C 0.878906 101.789062 0.472656 104.433594 1.84375 106.304688 "/><path style=" stroke:none;fill-rule:nonzero;fill:rgb(100%,87.059021%,34.899902%);fill-opacity:1;" d="M 109.351562 176.933594 L 109.175781 133.09375 C 108.65625 133.097656 108.136719 133.09375 107.613281 133.078125 L 107.792969 176.953125 C 106.5625 177.308594 105.660156 178.449219 105.671875 179.796875 C 105.695312 181.414062 107.019531 182.707031 108.640625 182.691406 C 110.253906 182.671875 111.554688 181.34375 111.539062 179.726562 C 111.519531 178.382812 110.59375 177.261719 109.351562 176.933594 "/><path style=" stroke:none;fill-rule:nonzero;fill:rgb(100%,87.059021%,34.899902%);fill-opacity:1;" d="M 127.761719 145.5625 C 126.804688 144.617188 125.359375 144.460938 124.238281 145.097656 L 122.242188 143.109375 L 122.425781 129.3125 C 121.941406 129.742188 121.421875 130.128906 120.855469 130.476562 L 120.691406 143.765625 L 123.144531 146.203125 C 122.515625 147.324219 122.671875 148.769531 123.628906 149.71875 C 124.777344 150.859375 126.632812 150.851562 127.769531 149.710938 C 128.914062 148.558594 128.910156 146.703125 127.761719 145.5625 "/><path style=" stroke:none;fill-rule:nonzero;fill:rgb(100%,87.059021%,34.899902%);fill-opacity:1;" d="M 115.359375 166.714844 C 113.957031 166.730469 112.800781 165.601562 112.785156 164.203125 C 112.769531 162.808594 113.898438 161.652344 115.296875 161.632812 C 116.699219 161.617188 117.851562 162.746094 117.867188 164.144531 C 117.882812 165.546875 116.761719 166.699219 115.359375 166.714844 Z M 116.074219 160.941406 L 116.058594 132.363281 C 115.550781 132.484375 115.03125 132.585938 114.503906 132.675781 L 114.511719 160.964844 C 113.058594 161.332031 111.988281 162.652344 112.007812 164.214844 C 112.027344 166.042969 113.539062 167.515625 115.367188 167.492188 C 117.199219 167.472656 118.671875 165.964844 118.648438 164.136719 C 118.628906 162.574219 117.527344 161.277344 116.074219 160.941406 "/><g clip-rule="nonzero"><path style=" stroke:none;fill-rule:nonzero;fill:rgb(100%,87.059021%,34.899902%);fill-opacity:1;" d="M 102.007812 182.507812 L 101.757812 132.636719 C 101.238281 132.574219 100.71875 132.507812 100.203125 132.4375 L 100.445312 182.523438 C 99.210938 182.878906 98.3125 184.019531 98.328125 185.371094 C 98.34375 186.988281 99.671875 188.285156 101.292969 188.265625 C 102.910156 188.246094 104.207031 186.917969 104.191406 185.300781 C 104.175781 183.953125 103.25 182.832031 102.007812 182.507812 "/></g><path style=" stroke:none;fill-rule:nonzero;fill:rgb(100%,87.059021%,34.899902%);fill-opacity:1;" d="M 88.445312 130.257812 C 87.902344 130.140625 87.382812 130.027344 86.894531 129.921875 L 86.738281 146.707031 L 84.785156 148.746094 C 83.652344 148.128906 82.214844 148.320312 81.28125 149.292969 C 80.15625 150.460938 80.199219 152.316406 81.367188 153.4375 C 82.53125 154.550781 84.386719 154.515625 85.507812 153.347656 C 86.441406 152.375 86.5625 150.925781 85.914062 149.824219 L 88.300781 147.328125 L 88.445312 130.257812 "/><path style=" stroke:none;fill-rule:nonzero;fill:rgb(100%,87.059021%,34.899902%);fill-opacity:1;" d="M 94.257812 177.183594 C 92.855469 177.199219 91.703125 176.074219 91.691406 174.675781 C 91.671875 173.273438 92.796875 172.121094 94.199219 172.105469 C 95.601562 172.089844 96.75 173.214844 96.769531 174.609375 C 96.785156 176.011719 95.660156 177.167969 94.257812 177.183594 Z M 94.96875 171.414062 L 94.847656 131.566406 C 94.316406 131.46875 93.796875 131.367188 93.285156 131.269531 L 93.414062 171.429688 C 91.960938 171.796875 90.890625 173.121094 90.910156 174.683594 C 90.929688 176.511719 92.4375 177.984375 94.265625 177.964844 C 96.09375 177.941406 97.570312 176.4375 97.546875 174.609375 C 97.527344 173.042969 96.429688 171.75 94.96875 171.414062 "/><path style=" stroke:none;fill-rule:nonzero;fill:rgb(100%,87.059021%,34.899902%);fill-opacity:1;" d="M 26.855469 60.578125 L 68.308594 81.734375 C 68.554688 81.246094 68.8125 80.757812 69.078125 80.273438 L 27.597656 59.101562 C 27.863281 57.761719 27.21875 56.359375 25.941406 55.71875 C 24.410156 54.949219 22.542969 55.570312 21.769531 57.109375 C 21 58.636719 21.621094 60.507812 23.15625 61.277344 C 24.433594 61.917969 25.941406 61.589844 26.855469 60.578125 "/><path style=" stroke:none;fill-rule:nonzero;fill:rgb(100%,87.059021%,34.899902%);fill-opacity:1;" d="M 33.578125 71.207031 C 34.242188 69.882812 35.863281 69.339844 37.195312 70.007812 C 38.519531 70.667969 39.0625 72.292969 38.398438 73.621094 C 37.730469 74.953125 36.109375 75.488281 34.78125 74.824219 C 33.449219 74.15625 32.90625 72.539062 33.578125 71.207031 Z M 38.671875 74.6875 L 65.636719 88.578125 C 65.777344 88.039062 65.933594 87.503906 66.105469 86.960938 L 39.410156 73.210938 C 39.773438 71.660156 39.042969 70.011719 37.5625 69.269531 C 35.828125 68.398438 33.707031 69.101562 32.835938 70.839844 C 31.96875 72.574219 32.667969 74.695312 34.410156 75.566406 C 35.894531 76.304688 37.648438 75.898438 38.671875 74.6875 "/><path style=" stroke:none;fill-rule:nonzero;fill:rgb(100%,87.059021%,34.899902%);fill-opacity:1;" d="M 166.714844 37.46875 L 129.917969 66.84375 C 130.261719 67.277344 130.609375 67.71875 130.945312 68.167969 L 167.769531 38.769531 C 168.890625 39.570312 170.449219 39.566406 171.578125 38.65625 C 172.921875 37.558594 173.128906 35.582031 172.035156 34.230469 C 170.945312 32.882812 168.964844 32.675781 167.609375 33.769531 C 166.488281 34.683594 166.164062 36.207031 166.714844 37.46875 "/><path style=" stroke:none;fill-rule:nonzero;fill:rgb(100%,87.059021%,34.899902%);fill-opacity:1;" d="M 128.027344 42.894531 C 127.867188 44.332031 128.703125 45.648438 129.984375 46.164062 L 129.640625 49.175781 L 117.898438 58.210938 C 118.582031 58.335938 119.257812 58.519531 119.921875 58.761719 L 131.226562 50.042969 L 131.648438 46.351562 C 133.007812 46.136719 134.121094 45.039062 134.28125 43.605469 C 134.476562 41.875 133.234375 40.320312 131.511719 40.125 C 129.78125 39.929688 128.222656 41.171875 128.027344 42.894531 "/><path style=" stroke:none;fill-rule:nonzero;fill:rgb(100%,87.059021%,34.899902%);fill-opacity:1;" d="M 154.105469 39.230469 C 155.054688 40.402344 154.875 42.121094 153.707031 43.070312 C 152.539062 44.011719 150.816406 43.835938 149.871094 42.667969 C 148.921875 41.5 149.101562 39.78125 150.269531 38.832031 C 151.441406 37.886719 153.15625 38.0625 154.105469 39.230469 Z M 148.769531 42.476562 L 124.710938 61.535156 C 125.152344 61.882812 125.585938 62.253906 126.015625 62.640625 L 149.828125 43.773438 C 151.105469 44.75 152.929688 44.769531 154.234375 43.71875 C 155.761719 42.480469 155.992188 40.230469 154.753906 38.707031 C 153.515625 37.179688 151.265625 36.945312 149.738281 38.179688 C 148.441406 39.238281 148.082031 41.03125 148.769531 42.476562 "/><path style=" stroke:none;fill-rule:nonzero;fill:rgb(100%,87.059021%,34.899902%);fill-opacity:1;" d="M 176.304688 39.933594 L 134.476562 73.382812 C 134.769531 73.867188 135.0625 74.34375 135.347656 74.828125 L 177.359375 41.238281 C 178.484375 42.039062 180.039062 42.035156 181.167969 41.121094 C 182.519531 40.027344 182.726562 38.050781 181.625 36.695312 C 180.53125 35.347656 178.550781 35.144531 177.199219 36.234375 C 176.074219 37.144531 175.75 38.671875 176.304688 39.933594 "/><path style=" stroke:none;fill-rule:nonzero;fill:rgb(100%,87.059021%,34.899902%);fill-opacity:1;" d="M 141.34375 86.167969 C 141.609375 86.707031 141.859375 87.214844 142.097656 87.699219 L 156.335938 76.636719 L 159.355469 76.925781 C 159.59375 78.285156 160.707031 79.371094 162.148438 79.511719 C 163.882812 79.675781 165.417969 78.40625 165.582031 76.675781 C 165.742188 74.949219 164.476562 73.414062 162.746094 73.253906 C 161.308594 73.113281 160.003906 73.972656 159.507812 75.261719 L 155.816406 74.910156 L 141.34375 86.167969 "/><path style=" stroke:none;fill-rule:nonzero;fill:rgb(100%,87.059021%,34.899902%);fill-opacity:1;" d="M 176.988281 50 C 177.9375 51.171875 177.753906 52.890625 176.589844 53.835938 C 175.417969 54.785156 173.699219 54.605469 172.75 53.4375 C 171.800781 52.265625 171.984375 50.550781 173.144531 49.605469 C 174.316406 48.65625 176.039062 48.832031 176.988281 50 Z M 171.652344 53.25 L 138.179688 79.910156 C 138.453125 80.421875 138.714844 80.925781 138.972656 81.425781 L 172.703125 54.546875 C 173.984375 55.523438 175.8125 55.542969 177.109375 54.484375 C 178.640625 53.246094 178.871094 50.996094 177.636719 49.472656 C 176.398438 47.949219 174.148438 47.714844 172.625 48.953125 C 171.320312 50.007812 170.964844 51.796875 171.652344 53.25 "/><path style=" stroke:none;fill-rule:nonzero;fill:rgb(100%,87.059021%,34.899902%);fill-opacity:1;" d="M 108.234375 13.484375 C 106.832031 14.117188 105.179688 13.492188 104.546875 12.089844 C 103.917969 10.6875 104.542969 9.035156 105.945312 8.40625 C 107.347656 7.773438 108.996094 8.402344 109.628906 9.804688 C 110.265625 11.203125 109.636719 12.855469 108.234375 13.484375 Z M 100.136719 -12.207031 C 99.640625 -13.914062 97.859375 -14.890625 96.15625 -14.402344 C 94.449219 -13.90625 93.464844 -12.128906 93.960938 -10.425781 C 94.371094 -9.003906 95.675781 -8.085938 97.085938 -8.101562 L 100.285156 2.949219 L 90.597656 14.933594 L 96.847656 29.390625 L 86.238281 43.023438 L 90.917969 57.28125 L 112.371094 57.292969 L 122.851562 43.820312 L 109.328125 13.8125 C 110.621094 12.804688 111.113281 11.011719 110.410156 9.449219 C 110.484375 9.613281 110.558594 9.777344 110.605469 9.878906 C 110.566406 9.796875 110.507812 9.664062 110.410156 9.449219 C 110.265625 9.121094 110.195312 8.972656 110.175781 8.933594 C 110.203125 8.988281 110.308594 9.214844 110.410156 9.449219 C 109.585938 7.617188 107.421875 6.800781 105.59375 7.625 C 103.761719 8.449219 102.945312 10.613281 103.765625 12.441406 C 104.476562 14.003906 106.15625 14.828125 107.773438 14.519531 L 120.867188 43.585938 L 111.53125 55.582031 L 92.15625 55.574219 L 88.152344 43.355469 L 98.820312 29.640625 L 92.578125 15.207031 L 94.941406 12.277344 L 103.339844 29.078125 L 91.605469 44.164062 L 95.253906 51.769531 L 109.460938 51.753906 L 115.683594 43.71875 L 113.839844 39.460938 C 114.941406 38.574219 115.367188 37.042969 114.785156 35.679688 C 114.082031 34.054688 112.1875 33.308594 110.558594 34.003906 C 108.925781 34.710938 108.175781 36.597656 108.878906 38.230469 C 109.464844 39.589844 110.875 40.328125 112.273438 40.136719 L 113.710938 43.46875 L 108.660156 50 L 96.359375 50.121094 L 93.601562 44.375 L 105.355469 29.277344 L 96.121094 10.816406 L 102.175781 3.328125 L 98.726562 -8.578125 C 99.933594 -9.316406 100.546875 -10.789062 100.136719 -12.207031 "/><path style=" stroke:none;fill-rule:nonzero;fill:rgb(100%,87.059021%,34.899902%);fill-opacity:1;" d="M 50.808594 31.691406 C 50.15625 33.152344 48.4375 33.816406 46.972656 33.167969 C 45.511719 32.519531 44.847656 30.796875 45.496094 29.335938 C 46.144531 27.871094 47.867188 27.210938 49.332031 27.863281 C 50.796875 28.511719 51.457031 30.226562 50.808594 31.691406 Z M 26.652344 17.363281 C 25.085938 16.382812 23.019531 16.859375 22.035156 18.425781 C 21.058594 19.996094 21.527344 22.054688 23.097656 23.035156 C 24.402344 23.855469 26.054688 23.660156 27.136719 22.667969 L 37.3125 29.03125 L 38.117188 45.066406 L 53.027344 51.953125 L 54.265625 69.90625 L 67.8125 77.730469 L 84.476562 62.835938 L 83.253906 45.097656 L 51.882812 31.1875 C 52.1875 29.5 51.320312 27.769531 49.691406 27.042969 C 49.863281 27.125 50.03125 27.191406 50.140625 27.242188 C 50.054688 27.203125 49.914062 27.140625 49.691406 27.042969 C 49.347656 26.890625 49.191406 26.824219 49.152344 26.808594 C 49.207031 26.828125 49.449219 26.933594 49.691406 27.042969 C 47.777344 26.195312 45.53125 27.0625 44.683594 28.972656 C 43.832031 30.886719 44.703125 33.132812 46.613281 33.984375 C 48.25 34.707031 50.128906 34.175781 51.171875 32.816406 L 81.546875 46.289062 L 82.640625 62.09375 L 67.585938 75.542969 L 55.976562 68.835938 L 54.730469 50.773438 L 39.84375 43.902344 L 39.644531 39.984375 L 57.851562 47.199219 L 59.222656 67.0625 L 67.347656 70.441406 L 78.367188 60.558594 L 77.617188 49.996094 L 73.222656 47.96875 C 73.460938 46.519531 72.726562 45.03125 71.328125 44.375 C 69.652344 43.601562 67.660156 44.335938 66.878906 46.011719 C 66.105469 47.691406 66.832031 49.683594 68.515625 50.457031 C 69.914062 51.109375 71.527344 50.703125 72.476562 49.582031 L 75.910156 51.171875 L 76.527344 59.75 L 67.058594 68.390625 L 60.921875 65.839844 L 59.550781 45.953125 L 39.546875 38.03125 L 39.042969 28.011719 L 28.082031 21.15625 C 28.503906 19.75 27.960938 18.179688 26.652344 17.363281 "/><path style=" stroke:none;fill-rule:nonzero;fill:rgb(100%,87.059021%,34.899902%);fill-opacity:1;" d="M 163.210938 153.472656 C 163.710938 151.957031 165.355469 151.121094 166.875 151.621094 C 168.398438 152.121094 169.230469 153.765625 168.730469 155.285156 C 168.230469 156.804688 166.589844 157.632812 165.0625 157.136719 C 163.542969 156.636719 162.710938 154.992188 163.210938 153.472656 Z M 188.679688 165.3125 C 190.335938 166.132812 192.347656 165.453125 193.167969 163.792969 C 193.988281 162.136719 193.308594 160.132812 191.648438 159.308594 C 190.265625 158.628906 188.644531 158.988281 187.664062 160.082031 L 176.910156 154.769531 L 174.503906 138.894531 L 158.976562 133.535156 L 155.945312 115.796875 L 141.683594 109.367188 L 126.589844 125.851562 L 129.589844 143.382812 L 162.191406 154.082031 C 162.058594 155.789062 163.09375 157.425781 164.785156 157.984375 C 164.605469 157.925781 164.433594 157.871094 164.320312 157.832031 C 164.410156 157.859375 164.554688 157.910156 164.785156 157.984375 C 165.140625 158.101562 165.304688 158.152344 165.347656 158.167969 C 165.292969 158.148438 165.039062 158.070312 164.785156 157.984375 C 166.777344 158.636719 168.925781 157.550781 169.578125 155.5625 C 170.230469 153.574219 169.140625 151.429688 167.15625 150.769531 C 165.453125 150.21875 163.636719 150.929688 162.738281 152.390625 L 131.164062 142.023438 L 128.492188 126.40625 L 142.125 111.523438 L 154.347656 117.03125 L 157.402344 134.875 L 172.898438 140.226562 L 173.488281 144.105469 L 154.652344 138.75 L 151.296875 119.121094 L 142.878906 116.574219 L 132.898438 127.507812 L 134.707031 137.941406 L 139.277344 139.523438 C 139.1875 140.988281 140.066406 142.394531 141.523438 142.902344 C 143.269531 143.507812 145.175781 142.578125 145.785156 140.832031 C 146.390625 139.082031 145.464844 137.175781 143.714844 136.570312 C 142.257812 136.066406 140.691406 136.628906 139.859375 137.839844 L 136.285156 136.601562 L 134.8125 128.128906 L 143.371094 118.582031 L 149.730469 120.507812 L 153.082031 140.15625 L 173.785156 146.039062 L 175.289062 155.957031 L 186.875 161.679688 C 186.597656 163.125 187.296875 164.632812 188.679688 165.3125 "/><path style=" stroke:none;fill-rule:nonzero;fill:rgb(100%,87.059021%,34.899902%);fill-opacity:1;" d="M 46.046875 155.984375 C 44.589844 156.472656 43.011719 155.6875 42.515625 154.230469 C 42.023438 152.777344 42.8125 151.195312 44.273438 150.703125 C 45.726562 150.214844 47.3125 151 47.800781 152.457031 C 48.292969 153.910156 47.507812 155.496094 46.046875 155.984375 Z M 25.152344 160.496094 L 36.230469 154.925781 L 37.605469 145.394531 L 57.425781 139.605469 L 60.511719 120.730469 L 66.601562 118.84375 L 74.875 127.941406 L 73.519531 136.082031 L 70.101562 137.296875 C 69.289062 136.140625 67.785156 135.609375 66.390625 136.101562 C 64.71875 136.695312 63.839844 138.53125 64.433594 140.207031 C 65.03125 141.878906 66.867188 142.757812 68.539062 142.164062 C 69.933594 141.664062 70.769531 140.3125 70.671875 138.902344 L 75.046875 137.355469 L 76.707031 127.332031 L 67.0625 116.90625 L 59 119.414062 L 55.910156 138.269531 L 37.875 143.539062 L 38.414062 139.8125 L 53.25 134.570312 L 56.054688 117.429688 L 67.746094 112.054688 L 80.925781 126.246094 L 78.472656 141.246094 L 48.246094 151.414062 C 47.371094 150.023438 45.628906 149.347656 43.996094 149.894531 C 42.097656 150.53125 41.066406 152.605469 41.707031 154.507812 C 42.347656 156.40625 44.414062 157.4375 46.320312 156.796875 C 46.082031 156.878906 45.839844 156.960938 45.785156 156.976562 C 45.828125 156.964844 45.980469 156.914062 46.320312 156.796875 C 46.542969 156.722656 46.679688 156.675781 46.765625 156.648438 C 46.65625 156.683594 46.492188 156.738281 46.320312 156.796875 C 47.941406 156.25 48.921875 154.671875 48.789062 153.035156 L 79.996094 142.539062 L 82.75 125.699219 L 68.15625 109.984375 L 54.511719 116.253906 L 51.726562 133.296875 L 36.871094 138.546875 L 34.667969 153.792969 L 24.382812 158.96875 C 23.4375 157.925781 21.875 157.59375 20.554688 158.257812 C 18.964844 159.054688 18.328125 160.980469 19.132812 162.566406 C 19.925781 164.148438 21.859375 164.789062 23.449219 163.996094 C 24.765625 163.332031 25.425781 161.878906 25.152344 160.496094 "/><path style=" stroke:none;fill-rule:nonzero;fill:rgb(100%,87.059021%,34.899902%);fill-opacity:1;" d="M 104.542969 58.003906 C 84.167969 58.003906 67.597656 74.570312 67.597656 94.933594 C 67.597656 115.296875 84.167969 131.859375 104.542969 131.859375 C 124.917969 131.859375 141.492188 115.296875 141.492188 94.933594 C 141.492188 74.570312 124.917969 58.003906 104.542969 58.003906 Z M 104.542969 134.828125 C 82.535156 134.828125 64.628906 116.929688 64.628906 94.933594 C 64.628906 72.9375 82.535156 55.039062 104.542969 55.039062 C 126.554688 55.039062 144.457031 72.9375 144.457031 94.933594 C 144.457031 116.929688 126.554688 134.828125 104.542969 134.828125 "/></g></defs><g xml:id="surface1" id="surface1"><use transform="matrix(1,0,0,1,773,-0.000000000000034788)" xmlns:xlink="http://www.w3.org/1999/xlink" xlink:href="#surface5" xlink:type="simple" mask="url(#mask0)" xlink:actuate="onLoad" xlink:show="embed"/><path style=" stroke:none;fill-rule:nonzero;fill:rgb(100%,87.059021%,34.899902%);fill-opacity:1;" d="M 873.714844 89.667969 C 873.714844 88.398438 874.75 87.363281 876.023438 87.363281 C 877.296875 87.363281 878.335938 88.398438 878.335938 89.667969 C 878.335938 90.9375 877.296875 91.96875 876.023438 91.96875 C 874.75 91.96875 873.714844 90.9375 873.714844 89.667969 Z M 873.714844 89.667969 "/><path style=" stroke:none;fill-rule:nonzero;fill:rgb(100%,87.059021%,34.899902%);fill-opacity:1;" d="M 867.707031 77.695312 C 867.707031 76.425781 868.742188 75.390625 870.015625 75.390625 C 871.292969 75.390625 872.328125 76.425781 872.328125 77.695312 C 872.328125 78.964844 871.292969 79.996094 870.015625 79.996094 C 868.742188 79.996094 867.707031 78.964844 867.707031 77.695312 Z M 867.707031 77.695312 "/><path style=" stroke:none;fill-rule:nonzero;fill:rgb(100%,87.059021%,34.899902%);fill-opacity:1;" d="M 888.292969 89.15625 C 888.292969 90.425781 887.257812 91.460938 885.984375 91.460938 C 884.710938 91.460938 883.675781 90.425781 883.675781 89.15625 C 883.675781 87.886719 884.710938 86.855469 885.984375 86.855469 C 887.257812 86.855469 888.292969 87.886719 888.292969 89.15625 Z M 888.292969 89.15625 "/><g clip-rule="nonzero"><path style=" stroke:none;fill-rule:nonzero;fill:rgb(100%,87.059021%,34.899902%);fill-opacity:1;" d="M 892.28125 99.941406 C 891.183594 101.261719 890.582031 102.914062 890.582031 104.59375 L 890.582031 121.269531 L 869.402344 121.289062 L 869.402344 113.714844 C 869.402344 112.601562 868.492188 111.691406 867.371094 111.691406 L 861.390625 111.691406 C 859.949219 111.691406 858.773438 110.523438 858.773438 109.082031 L 858.773438 102.417969 L 876.71875 102.417969 L 876.71875 98.222656 L 886.675781 98.222656 L 886.675781 92.773438 C 888.386719 92.449219 889.679688 90.953125 889.679688 89.15625 C 889.679688 87.363281 888.386719 85.867188 886.675781 85.539062 L 886.675781 84.640625 C 888.386719 84.316406 889.679688 82.816406 889.679688 81.023438 C 889.679688 78.992188 888.023438 77.339844 885.984375 77.339844 C 883.945312 77.339844 882.289062 78.992188 882.289062 81.023438 C 882.289062 82.816406 883.582031 84.316406 885.292969 84.640625 L 885.292969 85.539062 C 883.582031 85.867188 882.289062 87.363281 882.289062 89.15625 C 882.289062 90.953125 883.582031 92.449219 885.292969 92.773438 L 885.292969 96.84375 L 876.71875 96.84375 L 876.71875 93.285156 C 878.425781 92.960938 879.722656 91.460938 879.722656 89.667969 C 879.722656 87.636719 878.0625 85.984375 876.023438 85.984375 C 873.984375 85.984375 872.328125 87.636719 872.328125 89.667969 C 872.328125 91.460938 873.625 92.960938 875.332031 93.285156 L 875.332031 96.84375 L 857.441406 96.84375 C 856.691406 96.84375 856.007812 96.429688 855.660156 95.769531 C 855.3125 95.105469 855.363281 94.3125 855.792969 93.699219 L 858.175781 90.285156 C 858.472656 89.859375 858.480469 89.300781 858.191406 88.871094 C 857.960938 88.527344 857.800781 88.144531 857.714844 87.75 L 870.710938 87.75 L 870.710938 81.3125 C 872.417969 80.988281 873.714844 79.488281 873.714844 77.695312 C 873.714844 75.664062 872.054688 74.011719 870.015625 74.011719 C 867.980469 74.011719 866.320312 75.664062 866.320312 77.695312 C 866.320312 79.488281 867.617188 80.988281 869.324219 81.3125 L 869.324219 86.367188 L 857.695312 86.367188 C 857.703125 86.320312 857.710938 86.269531 857.722656 86.222656 L 859.949219 77.148438 C 860.128906 76.402344 860.441406 75.722656 860.871094 75.121094 C 862.746094 72.519531 868.402344 66.589844 880.402344 67.71875 C 885.753906 68.226562 890.109375 70.738281 892.996094 74.984375 C 896.777344 80.542969 897.414062 88.300781 896.097656 92.777344 C 895.132812 96.050781 893.488281 98.480469 892.28125 99.941406 Z M 892.28125 99.941406 "/></g><path style=" stroke:none;fill-rule:nonzero;fill:rgb(100%,87.059021%,34.899902%);fill-opacity:1;" d="M 883.675781 81.023438 C 883.675781 79.753906 884.710938 78.71875 885.984375 78.71875 C 887.257812 78.71875 888.292969 79.753906 888.292969 81.023438 C 888.292969 82.292969 887.257812 83.324219 885.984375 83.324219 C 884.710938 83.324219 883.675781 82.292969 883.675781 81.023438 Z M 883.675781 81.023438 "/><path style=" stroke:none;fill-rule:nonzero;fill:rgb(100%,87.059021%,34.899902%);fill-opacity:1;" d="M 875.332031 98.222656 L 858.773438 98.222656 L 858.773438 101.035156 L 875.332031 101.035156 Z M 875.332031 98.222656 "/></g></svg>