<?xml version="1.0" encoding="UTF-8"?><svg xmlns="http://www.w3.org/2000/svg" xmlns:xlink="http://www.w3.org/1999/xlink" contentScriptType="text/ecmascript" width="960pt" zoomAndPan="magnify" contentStyleType="text/css" viewBox="0 0 960 599.999999" height="599.999999pt" preserveAspectRatio="xMidYMid meet" version="1.2"><defs><filter x="0%" y="0%" width="100%" xmlns:xlink="http://www.w3.org/1999/xlink" xlink:type="simple" filterUnits="objectBoundingBox" xlink:actuate="onLoad" id="alpha" height="100%" xlink:show="other" xml:id="alpha"><feColorMatrix values="0 0 0 0 1 0 0 0 0 1 0 0 0 0 1 0 0 0 1 0" type="matrix" in="SourceGraphic"/></filter><mask xml:id="mask0" id="mask0"><g filter="url(#alpha)"><rect x="0" width="960" y="0" height="599.999999" style="fill:rgb(0%,0%,0%);fill-opacity:0.498;stroke:none;"/></g></mask><g xml:id="surface5" id="surface5"><g clip-rule="nonzero"><path style=" stroke:none;fill-rule:nonzero;fill:rgb(100%,87.059021%,34.899902%);fill-opacity:1;" d="M 716.46875 81.980469 L 716.46875 113.382812 L 735.898438 143.265625 L 735.898438 189.792969 L 719.496094 209.964844 L 719.496094 269.546875 C 721.445312 269.949219 722.914062 271.6875 722.914062 273.757812 C 722.914062 275.828125 721.445312 277.554688 719.496094 277.960938 L 719.496094 524.898438 L 688.0625 573.722656 L 426.109375 573.722656 C 425.707031 575.671875 423.976562 577.140625 421.90625 577.140625 C 419.535156 577.140625 417.609375 575.21875 417.609375 572.84375 C 417.609375 570.472656 419.535156 568.546875 421.90625 568.546875 C 423.976562 568.546875 425.707031 570.019531 426.109375 571.96875 L 687.105469 571.96875 L 717.75 524.382812 L 717.75 277.960938 C 715.800781 277.554688 714.332031 275.828125 714.332031 273.757812 C 714.332031 271.6875 715.800781 269.949219 717.75 269.546875 L 717.75 209.34375 L 734.148438 189.167969 L 734.148438 143.789062 L 714.726562 113.898438 L 714.726562 81.046875 L 731.191406 70.132812 L 864.191406 70.132812 L 864.191406 71.882812 L 731.714844 71.882812 L 716.46875 81.980469 "/></g><path style=" stroke:none;fill-rule:nonzero;fill:rgb(100%,87.059021%,34.899902%);fill-opacity:1;" d="M 694.804688 81.929688 L 694.804688 101.265625 C 696.363281 101.921875 697.453125 103.449219 697.453125 105.238281 C 697.453125 107.609375 695.527344 109.535156 693.15625 109.535156 L 692.804688 109.492188 L 682.105469 127.953125 L 682.105469 177.703125 C 686.246094 178.320312 689.445312 181.851562 689.445312 186.167969 C 689.445312 188.53125 688.480469 190.679688 686.933594 192.234375 L 694.804688 202.890625 L 694.804688 524.992188 L 678.332031 559.714844 L 543.957031 559.714844 C 543.554688 561.664062 541.828125 563.144531 539.757812 563.144531 C 537.375 563.144531 535.449219 561.21875 535.449219 558.835938 C 535.449219 556.464844 537.375 554.539062 539.757812 554.539062 C 541.828125 554.539062 543.554688 556.007812 543.957031 557.960938 L 677.222656 557.960938 L 693.0625 524.796875 L 693.0625 203.46875 L 685.570312 193.335938 C 684.210938 194.226562 682.59375 194.753906 680.859375 194.753906 C 677.449219 194.753906 674.535156 192.75 673.144531 189.878906 L 673.144531 192.636719 L 684.167969 215.179688 L 684.167969 507.953125 C 686.117188 508.355469 687.589844 510.09375 687.589844 512.164062 C 687.589844 514.535156 685.664062 516.453125 683.292969 516.453125 C 680.910156 516.453125 678.984375 514.535156 678.984375 512.164062 C 678.984375 510.09375 680.457031 508.355469 682.414062 507.953125 L 682.414062 215.585938 L 671.390625 193.042969 L 671.390625 124.988281 L 682.40625 105.476562 L 682.226562 81.132812 L 721.636719 45.027344 C 721.25 44.382812 721.015625 43.644531 721.015625 42.84375 C 721.015625 40.472656 722.941406 38.546875 725.3125 38.546875 C 727.382812 38.546875 729.109375 40.019531 729.523438 41.96875 L 864.191406 41.96875 L 864.191406 43.722656 L 729.523438 43.722656 C 729.109375 45.671875 727.382812 47.140625 725.3125 47.140625 C 724.375 47.140625 723.515625 46.832031 722.8125 46.324219 L 683.980469 81.894531 L 684.167969 105.925781 L 673.144531 125.449219 L 673.144531 182.453125 C 674.464844 179.722656 677.164062 177.8125 680.359375 177.625 L 680.359375 127.480469 L 691.078125 108.976562 C 689.761719 108.238281 688.859375 106.84375 688.859375 105.238281 C 688.859375 102.890625 690.734375 101 693.0625 100.949219 L 693.0625 81.097656 L 727.058594 53.554688 L 864.191406 53.554688 L 864.191406 55.304688 L 727.675781 55.304688 L 694.804688 81.929688 "/><path style=" stroke:none;fill-rule:nonzero;fill:rgb(100%,87.059021%,34.899902%);fill-opacity:1;" d="M 643.617188 79.550781 C 643.863281 80.089844 644.011719 80.691406 644.011719 81.328125 C 644.011719 83.097656 642.929688 84.628906 641.390625 85.28125 L 641.390625 131.519531 C 641.621094 131.621094 641.855469 131.734375 642.070312 131.871094 C 644.054688 133.175781 644.605469 135.832031 643.304688 137.816406 C 642.007812 139.8125 639.34375 140.359375 637.359375 139.0625 L 637.265625 138.984375 L 584.160156 164.757812 C 584.964844 165.53125 585.472656 166.625 585.472656 167.835938 C 585.472656 169.839844 584.097656 171.503906 582.242188 171.988281 L 582.242188 254.902344 C 586.476562 255.433594 589.761719 259.011719 589.761719 263.382812 C 589.761719 265.84375 588.710938 268.050781 587.054688 269.613281 L 624.210938 319.890625 L 624.210938 483.863281 L 544.457031 483.863281 C 544.011719 488.1875 540.402344 491.570312 535.957031 491.570312 C 531.214844 491.570312 527.375 487.722656 527.375 482.976562 C 527.375 478.242188 531.214844 474.390625 535.957031 474.390625 C 540.402344 474.390625 544.011719 477.789062 544.457031 482.109375 L 622.457031 482.109375 L 622.457031 320.464844 L 585.664062 270.671875 C 584.355469 271.488281 582.828125 271.976562 581.167969 271.976562 C 576.433594 271.976562 572.582031 268.128906 572.582031 263.382812 C 572.582031 258.882812 576.070312 255.21875 580.488281 254.867188 L 580.488281 172.0625 C 578.445312 171.738281 576.878906 169.976562 576.878906 167.835938 C 576.878906 165.472656 578.804688 163.539062 581.175781 163.539062 C 581.5625 163.539062 581.933594 163.609375 582.300781 163.710938 L 636.019531 137.636719 C 635.21875 136.269531 635.195312 134.527344 636.113281 133.117188 C 636.929688 131.878906 638.261719 131.199219 639.636719 131.175781 L 639.636719 85.617188 C 637.300781 85.574219 635.417969 83.675781 635.417969 81.328125 C 635.417969 78.949219 637.34375 77.03125 639.714844 77.03125 C 640.804688 77.03125 641.792969 77.453125 642.558594 78.132812 L 711.132812 6.871094 L 864.191406 6.871094 L 864.191406 8.625 L 711.882812 8.625 L 643.617188 79.550781 "/><path style=" stroke:none;fill-rule:nonzero;fill:rgb(100%,87.059021%,34.899902%);fill-opacity:1;" d="M 663.054688 81.894531 L 663.054688 196.558594 L 648.859375 211.132812 L 648.859375 241.152344 L 659.890625 251.457031 C 660.554688 251.035156 661.335938 250.785156 662.175781 250.785156 C 664.550781 250.785156 666.472656 252.710938 666.472656 255.082031 C 666.472656 257.152344 665.003906 258.882812 663.054688 259.285156 L 663.054688 525.871094 L 544.644531 525.871094 C 544.207031 530.203125 540.589844 533.578125 536.148438 533.578125 C 531.414062 533.578125 527.5625 529.738281 527.5625 524.992188 C 527.5625 520.25 531.414062 516.410156 536.148438 516.410156 C 540.589844 516.410156 544.207031 519.792969 544.644531 524.117188 L 661.300781 524.117188 L 661.300781 259.292969 C 659.351562 258.890625 657.890625 257.152344 657.890625 255.082031 C 657.890625 254.1875 658.164062 253.355469 658.628906 252.675781 L 647.113281 241.90625 L 647.113281 210.417969 L 661.300781 195.84375 L 661.300781 81.132812 L 718.285156 28.253906 L 864.191406 28.253906 L 864.191406 29.996094 L 718.960938 29.996094 L 663.054688 81.894531 "/><path style=" stroke:none;fill-rule:nonzero;fill:rgb(100%,87.059021%,34.899902%);fill-opacity:1;" d="M 673.144531 81.570312 L 673.144531 109.15625 L 667.910156 122.398438 L 667.910156 194.183594 L 673.144531 209.128906 L 673.144531 533.167969 L 667.625 546.875 L 440.417969 546.875 C 439.96875 551.195312 436.359375 554.589844 431.917969 554.589844 C 427.175781 554.589844 423.332031 550.742188 423.332031 546.007812 C 423.332031 541.261719 427.175781 537.414062 431.917969 537.414062 C 436.359375 537.414062 439.96875 540.796875 440.417969 545.128906 L 666.449219 545.128906 L 671.390625 532.996094 L 671.390625 209.429688 L 666.164062 194.484375 L 666.164062 122.238281 L 671.390625 108.992188 L 671.390625 80.839844 L 718.265625 34.664062 L 864.191406 34.664062 L 864.191406 36.417969 L 718.980469 36.417969 L 673.144531 81.570312 "/><path style=" stroke:none;fill-rule:nonzero;fill:rgb(100%,87.059021%,34.899902%);fill-opacity:1;" d="M 632.597656 12.714844 L 591.503906 12.714844 L 561.617188 32.144531 L 515.09375 32.144531 L 494.925781 15.738281 L 416.320312 15.738281 C 415.882812 20.0625 412.265625 23.449219 407.824219 23.449219 C 405.820312 23.449219 404.007812 22.734375 402.546875 21.582031 L 375.597656 49.515625 L 241.335938 49.515625 L 161.390625 112.765625 L 161.390625 227.660156 C 163.109375 229.027344 163.546875 231.484375 162.328125 233.355469 C 161.019531 235.351562 158.367188 235.902344 156.378906 234.601562 C 156.105469 234.421875 155.863281 234.214844 155.648438 233.992188 L 3.316406 297.640625 L 2.636719 296.03125 L 154.714844 232.488281 C 154.257812 231.25 154.359375 229.832031 155.132812 228.65625 C 156.140625 227.125 157.953125 226.457031 159.636719 226.824219 L 159.636719 111.914062 L 240.484375 47.949219 L 240.722656 47.761719 L 374.859375 47.761719 L 401.292969 20.371094 C 400.027344 18.875 399.238281 16.96875 399.238281 14.863281 C 399.238281 10.117188 403.078125 6.277344 407.824219 6.277344 C 412.265625 6.277344 415.882812 9.664062 416.328125 13.988281 L 495.550781 13.988281 L 515.71875 30.390625 L 561.09375 30.390625 L 590.980469 10.960938 L 631.929688 10.960938 L 697.117188 -47.898438 L 864.191406 -47.898438 L 864.191406 -46.15625 L 697.789062 -46.15625 L 632.597656 12.714844 "/><path style=" stroke:none;fill-rule:nonzero;fill:rgb(100%,87.059021%,34.899902%);fill-opacity:1;" d="M 630.382812 -14.933594 C 631.449219 -13.503906 632.101562 -11.753906 632.101562 -9.835938 C 632.101562 -5.09375 628.25 -1.242188 623.507812 -1.242188 C 619.066406 -1.242188 615.457031 -4.628906 615.007812 -8.949219 L 598.851562 -8.949219 L 576.941406 -21.652344 L 527.160156 -21.652344 C 527.210938 -21.265625 527.277344 -20.871094 527.277344 -20.46875 C 527.277344 -15.714844 523.429688 -11.871094 518.683594 -11.871094 C 515.617188 -11.871094 512.945312 -13.496094 511.425781 -15.921875 L 501.996094 -8.949219 L 462.898438 -8.949219 C 462.492188 -7 460.757812 -5.539062 458.6875 -5.539062 C 456.617188 -5.539062 454.886719 -7 454.484375 -8.949219 L 357.070312 -8.949219 L 339.566406 22.425781 L 204.03125 22.425781 L 121.707031 97.03125 L 121.707031 203.484375 L 3.304688 251.59375 L 2.644531 249.976562 L 119.960938 202.308594 L 119.960938 96.257812 L 203.101562 20.90625 L 203.351562 20.671875 L 338.542969 20.671875 L 356.046875 -10.703125 L 454.484375 -10.703125 C 454.886719 -12.65625 456.617188 -14.125 458.6875 -14.125 C 460.757812 -14.125 462.492188 -12.65625 462.898438 -10.703125 L 501.421875 -10.703125 L 510.652344 -17.527344 C 510.316406 -18.449219 510.109375 -19.425781 510.109375 -20.46875 C 510.109375 -25.203125 513.949219 -29.042969 518.683594 -29.042969 C 522.398438 -29.042969 525.527344 -26.6875 526.730469 -23.40625 L 577.402344 -23.40625 L 599.324219 -10.703125 L 615.007812 -10.703125 C 615.457031 -15.027344 619.066406 -18.421875 623.507812 -18.421875 C 625.707031 -18.421875 627.683594 -17.570312 629.195312 -16.222656 L 690.027344 -70.628906 L 690.277344 -70.851562 L 864.191406 -70.851562 L 864.191406 -69.101562 L 690.949219 -69.101562 L 630.382812 -14.933594 "/><path style=" stroke:none;fill-rule:nonzero;fill:rgb(100%,87.059021%,34.899902%);fill-opacity:1;" d="M 634.910156 22.425781 L 595.191406 22.425781 L 564.195312 38.867188 L 482.859375 38.867188 L 459.074219 65.019531 L 429.957031 65.019531 C 429.519531 69.339844 425.902344 72.726562 421.46875 72.726562 C 417.085938 72.726562 413.519531 69.445312 412.976562 65.207031 L 260.472656 65.207031 C 260.023438 69.53125 256.414062 72.925781 251.972656 72.925781 C 249.445312 72.925781 247.203125 71.808594 245.632812 70.070312 L 174.21875 121.378906 L 174.21875 235.875 L 3.339844 313.511719 L 2.609375 311.921875 L 172.476562 234.742188 L 172.476562 120.484375 L 244.601562 68.652344 C 243.851562 67.382812 243.386719 65.921875 243.386719 64.328125 C 243.386719 59.59375 247.238281 55.746094 251.972656 55.746094 C 256.414062 55.746094 260.035156 59.128906 260.472656 63.453125 L 412.945312 63.453125 C 413.296875 59.035156 416.957031 55.554688 421.46875 55.554688 C 425.902344 55.554688 429.519531 58.941406 429.957031 63.265625 L 458.308594 63.265625 L 482.085938 37.113281 L 563.757812 37.113281 L 594.761719 20.671875 L 634.230469 20.671875 L 697.109375 -37.601562 L 864.191406 -37.601562 L 864.191406 -35.851562 L 697.796875 -35.851562 L 634.910156 22.425781 "/><path style=" stroke:none;fill-rule:nonzero;fill:rgb(100%,87.059021%,34.899902%);fill-opacity:1;" d="M 640.324219 33.761719 L 640.066406 34.011719 L 597.769531 34.011719 L 570.882812 45.585938 L 524.71875 45.585938 L 513.144531 56.421875 L 490.335938 56.421875 L 480.875 64.792969 L 480.460938 64.328125 C 480.917969 65.019531 481.183594 65.835938 481.183594 66.710938 C 481.183594 69.082031 479.257812 71.007812 476.886719 71.007812 C 474.515625 71.007812 472.589844 69.082031 472.589844 66.710938 C 472.589844 64.339844 474.515625 62.414062 476.886719 62.414062 C 477.996094 62.414062 479 62.84375 479.765625 63.539062 L 479.714844 63.488281 L 489.675781 54.679688 L 512.445312 54.679688 L 524.03125 43.84375 L 570.519531 43.84375 L 597.246094 32.324219 L 639.355469 32.257812 L 699.328125 -26.613281 L 699.585938 -26.859375 L 864.191406 -26.859375 L 864.191406 -25.109375 L 700.304688 -25.109375 L 640.324219 33.761719 "/><path style=" stroke:none;fill-rule:nonzero;fill:rgb(100%,87.059021%,34.899902%);fill-opacity:1;" d="M 648.933594 64.75 L 648.675781 65.019531 L 601.214844 65.019531 L 554.941406 114.398438 C 555.34375 115.050781 555.585938 115.816406 555.585938 116.632812 C 555.585938 119.003906 553.660156 120.929688 551.289062 120.929688 C 549.148438 120.929688 547.386719 119.367188 547.0625 117.3125 L 492.253906 117.3125 L 492.253906 115.566406 L 547.136719 115.566406 C 547.621094 113.710938 549.285156 112.335938 551.289062 112.335938 C 552.199219 112.335938 553.050781 112.628906 553.746094 113.117188 L 600.453125 63.265625 L 647.9375 63.265625 L 708.074219 1.964844 L 708.324219 1.695312 L 864.191406 1.695312 L 864.191406 3.449219 L 709.0625 3.449219 L 648.933594 64.75 "/><path style=" stroke:none;fill-rule:nonzero;fill:rgb(100%,87.059021%,34.899902%);fill-opacity:1;" d="M 643.082031 44.125 L 642.832031 44.375 L 599.265625 44.375 L 568.433594 57.839844 L 533.9375 57.917969 L 513.761719 82.195312 L 450.007812 82.195312 C 449.601562 84.15625 447.875 85.625 445.804688 85.625 C 443.425781 85.625 441.507812 83.699219 441.507812 81.328125 C 441.507812 78.949219 443.425781 77.03125 445.804688 77.03125 C 447.875 77.03125 449.601562 78.5 450.007812 80.453125 L 512.945312 80.453125 L 533.113281 56.164062 L 567.898438 56.164062 L 598.742188 42.699219 L 642.113281 42.621094 L 701.355469 -15.550781 L 701.613281 -15.808594 L 864.191406 -15.808594 L 864.191406 -14.054688 L 702.335938 -14.054688 L 643.082031 44.125 "/><path style=" stroke:none;fill-rule:nonzero;fill:rgb(100%,87.059021%,34.899902%);fill-opacity:1;" d="M 648.117188 53.253906 C 648.230469 53.628906 648.300781 54.015625 648.300781 54.429688 C 648.300781 56.792969 646.382812 58.71875 644.011719 58.71875 C 641.941406 58.71875 640.203125 57.25 639.800781 55.304688 L 598.492188 55.304688 L 571.621094 64.964844 L 543.957031 65.007812 C 543.554688 66.96875 541.828125 68.4375 539.757812 68.4375 C 539.335938 68.4375 538.941406 68.351562 538.5625 68.25 L 523.035156 97.519531 L 478.175781 97.519531 L 478.175781 95.765625 L 521.984375 95.765625 L 537.015625 67.425781 C 536.070312 66.640625 535.449219 65.464844 535.449219 64.140625 C 535.449219 61.761719 537.375 59.84375 539.757812 59.84375 C 541.828125 59.84375 543.554688 61.304688 543.957031 63.265625 L 571.164062 63.265625 L 598.046875 53.605469 L 639.800781 53.5625 C 640.203125 51.601562 641.929688 50.132812 644.011719 50.132812 C 645.316406 50.132812 646.46875 50.726562 647.257812 51.644531 L 705.417969 -5.597656 L 864.191406 -5.597656 L 864.191406 -3.847656 L 706.140625 -3.847656 L 648.117188 53.253906 "/><path style=" stroke:none;fill-rule:nonzero;fill:rgb(100%,87.059021%,34.899902%);fill-opacity:1;" d="M 369.898438 1.320312 L 351.226562 34.011719 L 225.503906 34.011719 C 225.101562 35.960938 223.375 37.429688 221.292969 37.429688 C 219.722656 37.429688 218.355469 36.570312 217.609375 35.308594 L 140.636719 99.203125 C 142.148438 100.597656 142.484375 102.917969 141.316406 104.695312 C 140.558594 105.855469 139.332031 106.507812 138.050781 106.613281 L 138.050781 213.222656 L 3.316406 270.269531 L 2.636719 268.652344 L 136.296875 212.0625 L 136.296875 106.378906 C 135.980469 106.269531 135.671875 106.132812 135.371094 105.933594 C 133.382812 104.636719 132.835938 101.980469 134.132812 99.996094 C 135.207031 98.335938 137.226562 97.691406 139.023438 98.269531 L 217.039062 33.503906 L 216.996094 33.132812 C 216.996094 30.761719 218.921875 28.835938 221.292969 28.835938 C 223.375 28.835938 225.101562 30.304688 225.503906 32.257812 L 350.210938 32.257812 L 368.886719 -0.433594 L 447.238281 -0.246094 L 447.230469 0.632812 L 447.230469 1.507812 L 369.898438 1.320312 "/><path style=" stroke:none;fill-rule:nonzero;fill:rgb(100%,87.059021%,34.899902%);fill-opacity:1;" d="M 339.566406 -19.597656 L 322.058594 11.632812 L 255.867188 11.632812 L 255.890625 11.839844 C 255.890625 16.582031 252.042969 20.421875 247.296875 20.421875 C 242.5625 20.421875 238.714844 16.582031 238.714844 11.839844 C 238.714844 7.09375 242.5625 3.253906 247.296875 3.253906 C 251.371094 3.253906 254.757812 6.089844 255.640625 9.878906 L 321.039062 9.878906 L 338.542969 -21.351562 L 423.324219 -21.351562 L 423.324219 -19.597656 L 339.566406 -19.597656 "/><path style=" stroke:none;fill-rule:nonzero;fill:rgb(100%,87.059021%,34.899902%);fill-opacity:1;" d="M 3.324219 236.105469 L 2.628906 234.5 L 98.960938 192.980469 L 98.960938 91.949219 L 250.949219 -42.242188 L 251.199219 -42.457031 L 408.277344 -42.277344 C 408.628906 -46.695312 412.28125 -50.167969 416.792969 -50.167969 C 421.527344 -50.167969 425.378906 -46.328125 425.378906 -41.582031 C 425.378906 -36.839844 421.527344 -32.996094 416.792969 -32.996094 C 412.410156 -32.996094 408.835938 -36.289062 408.3125 -40.523438 L 251.859375 -40.714844 L 100.703125 92.742188 L 100.703125 194.132812 L 3.324219 236.105469 "/><path style=" stroke:none;fill-rule:nonzero;fill:rgb(100%,87.059021%,34.899902%);fill-opacity:1;" d="M 305.851562 -51.542969 L 244.273438 -51.542969 L 90.324219 80.90625 C 91.207031 82.265625 91.742188 83.882812 91.742188 85.617188 C 91.742188 89.949219 88.527344 93.488281 84.367188 94.089844 L 84.367188 184.421875 C 84.761719 184.542969 85.140625 184.699219 85.511719 184.929688 C 87.488281 186.226562 88.046875 188.890625 86.75 190.875 C 85.441406 192.863281 82.785156 193.421875 80.800781 192.113281 C 80.390625 191.847656 80.054688 191.511719 79.769531 191.152344 L 3.332031 225.390625 L 2.617188 223.800781 L 79.003906 189.578125 C 78.714844 188.453125 78.867188 187.214844 79.554688 186.167969 C 80.277344 185.074219 81.410156 184.429688 82.625 184.285156 L 82.625 94.160156 C 78.128906 93.875 74.5625 90.179688 74.5625 85.617188 C 74.5625 80.882812 78.402344 77.03125 83.148438 77.03125 C 85.519531 77.03125 87.660156 77.996094 89.214844 79.542969 L 243.378906 -53.082031 L 243.628906 -53.296875 L 304.5625 -53.296875 L 315.445312 -88.410156 L 433.78125 -88.410156 L 433.78125 -86.65625 L 316.734375 -86.65625 L 305.851562 -51.542969 "/><path style=" stroke:none;fill-rule:nonzero;fill:rgb(100%,87.059021%,34.899902%);fill-opacity:1;" d="M 483.660156 125.03125 C 478.914062 125.03125 475.074219 121.1875 475.074219 116.445312 C 475.074219 111.699219 478.914062 107.859375 483.660156 107.859375 C 488.402344 107.859375 492.253906 111.699219 492.253906 116.445312 C 492.253906 121.1875 488.402344 125.03125 483.660156 125.03125 "/><path style=" stroke:none;fill-rule:nonzero;fill:rgb(100%,87.059021%,34.899902%);fill-opacity:1;" d="M 476.234375 93.050781 C 478.21875 94.347656 478.777344 97.011719 477.480469 98.988281 C 476.175781 100.984375 473.519531 101.535156 471.535156 100.234375 C 469.539062 98.9375 468.988281 96.273438 470.289062 94.289062 C 471.585938 92.304688 474.25 91.746094 476.234375 93.050781 "/><path style=" stroke:none;fill-rule:nonzero;fill:rgb(100%,87.059021%,34.899902%);fill-opacity:1;" d="M 694.996094 -52.417969 C 694.222656 -52.417969 693.515625 -52.632812 692.890625 -52.996094 L 632.265625 1.285156 L 632.015625 1.507812 L 576.15625 1.507812 L 562.957031 11.425781 C 563.484375 12.535156 563.792969 13.753906 563.792969 15.050781 C 563.792969 19.796875 559.941406 23.636719 555.207031 23.636719 C 550.695312 23.636719 547.042969 20.15625 546.691406 15.738281 L 517.265625 15.738281 L 500.328125 1.507812 L 455.824219 1.507812 L 455.824219 -0.246094 L 500.972656 -0.246094 L 517.910156 13.988281 L 546.726562 13.988281 C 547.257812 9.757812 550.824219 6.464844 555.207031 6.464844 C 558.015625 6.464844 560.484375 7.832031 562.046875 9.921875 L 575.574219 -0.246094 L 631.34375 -0.246094 L 691.558594 -54.15625 C 691.027344 -54.867188 690.699219 -55.753906 690.699219 -56.714844 C 690.699219 -59.089844 692.617188 -61.011719 694.996094 -61.011719 C 697.367188 -61.011719 699.292969 -59.089844 699.292969 -56.714844 L 699.285156 -56.65625 L 864.191406 -56.65625 L 864.191406 -54.902344 L 698.871094 -54.902344 C 698.191406 -53.441406 696.714844 -52.417969 694.996094 -52.417969 "/><path style=" stroke:none;fill-rule:nonzero;fill:rgb(100%,87.059021%,34.899902%);fill-opacity:1;" d="M 713.953125 23.835938 C 713.117188 23.835938 712.34375 23.585938 711.691406 23.171875 L 652.226562 81.878906 L 652.226562 194.089844 L 619.476562 213.253906 C 621.136719 214.628906 621.558594 217.054688 620.34375 218.910156 C 619.589844 220.054688 618.386719 220.707031 617.105469 220.816406 L 617.105469 266.519531 L 642.058594 299.695312 C 642.308594 299.640625 642.574219 299.617188 642.84375 299.617188 C 645.214844 299.617188 647.140625 301.53125 647.140625 303.914062 C 647.140625 305.683594 646.054688 307.214844 644.519531 307.867188 L 644.519531 504.867188 L 467.570312 504.867188 C 467.167969 506.816406 465.433594 508.289062 463.371094 508.289062 C 460.988281 508.289062 459.074219 506.363281 459.074219 503.992188 C 459.074219 501.617188 460.988281 499.691406 463.371094 499.691406 C 465.433594 499.691406 467.167969 501.164062 467.570312 503.113281 L 642.765625 503.113281 L 642.765625 308.203125 C 640.425781 308.160156 638.546875 306.257812 638.546875 303.914062 C 638.546875 302.453125 639.277344 301.164062 640.394531 300.390625 L 615.359375 267.105469 L 615.359375 220.601562 C 615.027344 220.492188 614.707031 220.34375 614.398438 220.148438 C 612.414062 218.851562 611.863281 216.1875 613.160156 214.199219 C 614.140625 212.695312 615.910156 212.019531 617.570312 212.335938 L 650.472656 193.085938 L 650.472656 81.148438 L 710.421875 21.980469 C 709.941406 21.28125 709.65625 20.449219 709.65625 19.539062 C 709.65625 17.167969 711.582031 15.242188 713.953125 15.242188 C 715.953125 15.242188 717.621094 16.617188 718.101562 18.472656 L 864.191406 18.472656 L 864.191406 20.226562 L 718.179688 20.226562 C 717.855469 22.269531 716.09375 23.835938 713.953125 23.835938 "/><path style=" stroke:none;fill-rule:nonzero;fill:rgb(100%,87.059021%,34.899902%);fill-opacity:1;" d="M 451.527344 4.929688 C 449.15625 4.929688 447.230469 3.003906 447.230469 0.632812 C 447.230469 -1.742188 449.15625 -3.65625 451.527344 -3.65625 C 453.898438 -3.65625 455.824219 -1.742188 455.824219 0.632812 C 455.824219 3.003906 453.898438 4.929688 451.527344 4.929688 "/></g></defs><g xml:id="surface1" id="surface1"><use transform="matrix(1,0,0,1,265,-0.000000000000034788)" xmlns:xlink="http://www.w3.org/1999/xlink" xlink:href="#surface5" xlink:type="simple" mask="url(#mask0)" xlink:actuate="onLoad" xlink:show="embed"/></g></svg>