<?xml version="1.0" encoding="UTF-8"?><svg xmlns="http://www.w3.org/2000/svg" xmlns:xlink="http://www.w3.org/1999/xlink" contentScriptType="text/ecmascript" width="960pt" zoomAndPan="magnify" contentStyleType="text/css" viewBox="0 0 960 599.999999" height="599.999999pt" preserveAspectRatio="xMidYMid meet" version="1.2"><defs><filter x="0%" y="0%" width="100%" xmlns:xlink="http://www.w3.org/1999/xlink" xlink:type="simple" filterUnits="objectBoundingBox" xlink:actuate="onLoad" id="alpha" height="100%" xlink:show="other" xml:id="alpha"><feColorMatrix values="0 0 0 0 1 0 0 0 0 1 0 0 0 0 1 0 0 0 1 0" type="matrix" in="SourceGraphic"/></filter><mask xml:id="mask0" id="mask0"><g filter="url(#alpha)"><rect x="0" width="960" y="0" height="599.999999" style="fill:rgb(0%,0%,0%);fill-opacity:0.298;stroke:none;"/></g></mask><g xml:id="surface5" id="surface5"><path style=" stroke:none;fill-rule:nonzero;fill:rgb(100%,87.059021%,34.899902%);fill-opacity:1;" d="M 397.242188 232.527344 C 395.21875 235.289062 391.339844 235.878906 388.585938 233.859375 C 385.828125 231.84375 385.230469 227.964844 387.25 225.21875 C 389.269531 222.457031 393.148438 221.859375 395.902344 223.882812 C 395.214844 223.375 394.535156 222.871094 395.902344 223.882812 C 396.402344 224.242188 396.628906 224.410156 396.679688 224.453125 C 396.589844 224.382812 396.25 224.132812 395.910156 223.886719 C 398.660156 225.90625 399.257812 229.78125 397.242188 232.527344 Z M 383.753906 177.851562 C 387.171875 177.839844 389.945312 180.617188 389.953125 184.03125 C 389.957031 187.445312 387.175781 190.21875 383.761719 190.21875 C 380.347656 190.226562 377.574219 187.457031 377.574219 184.03125 C 377.558594 180.628906 380.335938 177.851562 383.753906 177.851562 Z M 397.027344 222.347656 C 393.996094 220.128906 389.925781 220.339844 387.144531 222.605469 L 375.015625 213.894531 L 312.832031 213.921875 L 328.761719 185.96875 L 375.902344 185.945312 C 376.761719 189.480469 379.957031 192.121094 383.761719 192.113281 C 388.226562 192.121094 391.855469 188.488281 391.855469 184.03125 C 391.847656 179.570312 388.21875 175.945312 383.753906 175.949219 C 379.949219 175.957031 376.753906 178.601562 375.898438 182.140625 L 326.546875 182.171875 L 308.453125 213.9375 L 272.867188 213.960938 L 272.867188 219.757812 L 305.59375 242.480469 L 339.625 242.457031 C 340.464844 245.476562 343.226562 247.695312 346.515625 247.695312 C 350.457031 247.695312 353.652344 244.488281 353.648438 240.546875 C 353.644531 236.605469 350.449219 233.410156 346.503906 233.414062 C 343.222656 233.417969 340.457031 235.632812 339.625 238.660156 L 306.785156 238.679688 L 276.636719 217.757812 L 373.777344 217.683594 L 384.84375 225.628906 C 383.355469 229.023438 384.347656 233.109375 387.460938 235.398438 C 391.0625 238.03125 396.128906 237.242188 398.769531 233.652344 C 401.40625 230.058594 400.628906 224.980469 397.027344 222.347656 "/><path style=" stroke:none;fill-rule:nonzero;fill:rgb(100%,87.059021%,34.899902%);fill-opacity:1;" d="M 6.226562 223.886719 C 5.886719 224.132812 5.546875 224.382812 5.460938 224.453125 C 5.511719 224.410156 5.738281 224.242188 6.234375 223.882812 C 7.601562 222.871094 6.921875 223.375 6.234375 223.882812 C 8.992188 221.859375 12.871094 222.457031 14.890625 225.21875 C 16.90625 227.964844 16.3125 231.84375 13.554688 233.859375 C 10.804688 235.878906 6.917969 235.289062 4.898438 232.527344 C 2.878906 229.78125 3.480469 225.90625 6.226562 223.886719 Z M 24.570312 184.03125 C 24.570312 187.457031 21.789062 190.226562 18.375 190.21875 C 14.960938 190.21875 12.183594 187.445312 12.191406 184.03125 C 12.191406 180.617188 14.96875 177.839844 18.386719 177.851562 C 21.804688 177.851562 24.574219 180.628906 24.570312 184.03125 Z M 3.367188 233.652344 C 6.007812 237.242188 11.078125 238.03125 14.671875 235.398438 C 17.792969 233.109375 18.785156 229.023438 17.296875 225.628906 L 28.367188 217.683594 L 125.5 217.757812 L 95.359375 238.679688 L 62.515625 238.660156 C 61.683594 235.632812 58.917969 233.417969 55.636719 233.414062 C 51.695312 233.410156 48.492188 236.605469 48.492188 240.546875 C 48.488281 244.488281 51.683594 247.695312 55.621094 247.695312 C 58.910156 247.695312 61.671875 245.476562 62.515625 242.457031 L 96.542969 242.480469 L 129.269531 219.757812 L 129.269531 213.960938 L 93.6875 213.9375 L 75.589844 182.171875 L 26.238281 182.140625 C 25.386719 178.601562 22.191406 175.957031 18.386719 175.949219 C 13.917969 175.945312 10.292969 179.570312 10.285156 184.03125 C 10.285156 188.488281 13.910156 192.121094 18.375 192.113281 C 22.179688 192.121094 25.375 189.480469 26.234375 185.945312 L 73.378906 185.96875 L 89.304688 213.921875 L 27.125 213.894531 L 14.996094 222.605469 C 12.210938 220.339844 8.140625 220.128906 5.109375 222.347656 C 1.511719 224.980469 0.734375 230.058594 3.367188 233.652344 "/><path style=" stroke:none;fill-rule:nonzero;fill:rgb(100%,87.059021%,34.899902%);fill-opacity:1;" d="M 209.753906 369.25 L 209.421875 285.082031 C 208.425781 285.089844 207.421875 285.082031 206.421875 285.050781 L 206.761719 369.28125 C 204.402344 369.960938 202.671875 372.15625 202.695312 374.746094 C 202.738281 377.847656 205.28125 380.332031 208.394531 380.296875 C 211.492188 380.265625 213.988281 377.714844 213.953125 374.609375 C 213.921875 372.023438 212.140625 369.878906 209.753906 369.25 "/><path style=" stroke:none;fill-rule:nonzero;fill:rgb(100%,87.059021%,34.899902%);fill-opacity:1;" d="M 245.101562 309.019531 C 243.261719 307.203125 240.492188 306.90625 238.339844 308.125 L 234.503906 304.3125 L 234.859375 277.820312 C 233.929688 278.652344 232.929688 279.390625 231.847656 280.058594 L 231.527344 305.570312 L 236.238281 310.253906 C 235.027344 312.40625 235.332031 315.175781 237.167969 317 C 239.371094 319.191406 242.9375 319.175781 245.121094 316.984375 C 247.316406 314.773438 247.308594 311.207031 245.101562 309.019531 "/><path style=" stroke:none;fill-rule:nonzero;fill:rgb(100%,87.059021%,34.899902%);fill-opacity:1;" d="M 221.292969 349.625 C 218.597656 349.660156 216.382812 347.496094 216.351562 344.808594 C 216.320312 342.125 218.484375 339.910156 221.171875 339.875 C 223.863281 339.84375 226.070312 342.003906 226.105469 344.695312 C 226.136719 347.386719 223.984375 349.597656 221.292969 349.625 Z M 222.660156 338.542969 L 222.636719 283.683594 C 221.660156 283.914062 220.660156 284.109375 219.648438 284.28125 L 219.664062 338.585938 C 216.875 339.292969 214.824219 341.828125 214.859375 344.828125 C 214.894531 348.335938 217.792969 351.164062 221.304688 351.117188 C 224.824219 351.082031 227.648438 348.1875 227.609375 344.675781 C 227.566406 341.679688 225.457031 339.191406 222.660156 338.542969 "/><g clip-rule="nonzero"><path style=" stroke:none;fill-rule:nonzero;fill:rgb(100%,87.059021%,34.899902%);fill-opacity:1;" d="M 195.65625 379.945312 L 195.179688 284.203125 C 194.179688 284.089844 193.183594 283.960938 192.191406 283.824219 L 192.660156 379.972656 C 190.289062 380.664062 188.5625 382.851562 188.59375 385.445312 C 188.625 388.550781 191.175781 391.035156 194.289062 391.003906 C 197.394531 390.964844 199.886719 388.414062 199.851562 385.308594 C 199.824219 382.71875 198.042969 380.574219 195.65625 379.945312 "/></g><path style=" stroke:none;fill-rule:nonzero;fill:rgb(100%,87.059021%,34.899902%);fill-opacity:1;" d="M 169.621094 279.640625 C 168.578125 279.414062 167.585938 279.199219 166.644531 278.992188 L 166.347656 311.21875 L 162.597656 315.128906 C 160.425781 313.949219 157.660156 314.3125 155.867188 316.179688 C 153.710938 318.425781 153.789062 321.984375 156.03125 324.136719 C 158.265625 326.273438 161.832031 326.207031 163.980469 323.964844 C 165.773438 322.097656 166.011719 319.3125 164.761719 317.199219 L 169.347656 312.410156 L 169.621094 279.640625 "/><path style=" stroke:none;fill-rule:nonzero;fill:rgb(100%,87.059021%,34.899902%);fill-opacity:1;" d="M 180.78125 369.726562 C 178.089844 369.757812 175.875 367.597656 175.851562 364.914062 C 175.816406 362.21875 177.972656 360.007812 180.664062 359.976562 C 183.359375 359.945312 185.566406 362.109375 185.601562 364.785156 C 185.632812 367.476562 183.46875 369.699219 180.78125 369.726562 Z M 182.144531 358.648438 L 181.914062 282.148438 C 180.898438 281.964844 179.894531 281.769531 178.914062 281.578125 L 179.160156 358.679688 C 176.367188 359.386719 174.3125 361.929688 174.351562 364.921875 C 174.390625 368.4375 177.289062 371.261719 180.796875 371.226562 C 184.308594 371.183594 187.140625 368.289062 187.09375 364.78125 C 187.0625 361.777344 184.949219 359.296875 182.144531 358.648438 "/><path style=" stroke:none;fill-rule:nonzero;fill:rgb(100%,87.059021%,34.899902%);fill-opacity:1;" d="M 51.382812 145.867188 L 130.960938 186.484375 C 131.4375 185.546875 131.929688 184.609375 132.441406 183.675781 L 52.804688 143.03125 C 53.316406 140.464844 52.082031 137.773438 49.628906 136.539062 C 46.683594 135.0625 43.101562 136.257812 41.621094 139.207031 C 40.144531 142.144531 41.335938 145.734375 44.285156 147.210938 C 46.738281 148.4375 49.628906 147.808594 51.382812 145.867188 "/><path style=" stroke:none;fill-rule:nonzero;fill:rgb(100%,87.059021%,34.899902%);fill-opacity:1;" d="M 64.285156 166.273438 C 65.566406 163.726562 68.679688 162.6875 71.234375 163.972656 C 73.777344 165.242188 74.820312 168.359375 73.539062 170.910156 C 72.261719 173.464844 69.148438 174.492188 66.597656 173.214844 C 64.039062 171.933594 63.003906 168.828125 64.285156 166.273438 Z M 74.070312 172.957031 L 125.839844 199.625 C 126.105469 198.589844 126.402344 197.558594 126.738281 196.515625 L 75.488281 170.121094 C 76.179688 167.144531 74.78125 163.980469 71.941406 162.550781 C 68.609375 160.878906 64.535156 162.234375 62.867188 165.566406 C 61.195312 168.898438 62.542969 172.972656 65.882812 174.644531 C 68.734375 176.058594 72.105469 175.28125 74.070312 172.957031 "/><path style=" stroke:none;fill-rule:nonzero;fill:rgb(100%,87.059021%,34.899902%);fill-opacity:1;" d="M 319.882812 101.507812 L 249.238281 157.898438 C 249.902344 158.730469 250.566406 159.574219 251.210938 160.4375 L 321.90625 104 C 324.058594 105.539062 327.054688 105.53125 329.222656 103.78125 C 331.800781 101.679688 332.195312 97.882812 330.097656 95.285156 C 328 92.703125 324.199219 92.304688 321.601562 94.40625 C 319.449219 96.15625 318.824219 99.082031 319.882812 101.507812 "/><path style=" stroke:none;fill-rule:nonzero;fill:rgb(100%,87.059021%,34.899902%);fill-opacity:1;" d="M 245.613281 111.917969 C 245.304688 114.679688 246.910156 117.207031 249.367188 118.199219 L 248.707031 123.976562 L 226.167969 141.328125 C 227.480469 141.5625 228.777344 141.914062 230.054688 142.378906 L 251.753906 125.644531 L 252.558594 118.554688 C 255.171875 118.144531 257.304688 116.035156 257.617188 113.285156 C 257.996094 109.964844 255.605469 106.972656 252.296875 106.601562 C 248.980469 106.230469 245.988281 108.613281 245.613281 111.917969 "/><path style=" stroke:none;fill-rule:nonzero;fill:rgb(100%,87.059021%,34.899902%);fill-opacity:1;" d="M 295.675781 104.886719 C 297.496094 107.132812 297.152344 110.433594 294.910156 112.253906 C 292.671875 114.066406 289.359375 113.730469 287.542969 111.488281 C 285.722656 109.242188 286.070312 105.941406 288.3125 104.121094 C 290.5625 102.300781 293.855469 102.644531 295.675781 104.886719 Z M 285.433594 111.121094 L 239.246094 147.707031 C 240.09375 148.375 240.925781 149.082031 241.746094 149.828125 L 287.460938 113.609375 C 289.917969 115.484375 293.417969 115.523438 295.917969 113.5 C 298.851562 111.125 299.296875 106.804688 296.921875 103.875 C 294.542969 100.945312 290.226562 100.496094 287.292969 102.871094 C 284.800781 104.902344 284.109375 108.339844 285.433594 111.121094 "/><path style=" stroke:none;fill-rule:nonzero;fill:rgb(100%,87.059021%,34.899902%);fill-opacity:1;" d="M 338.292969 106.238281 L 257.992188 170.453125 C 258.554688 171.375 259.117188 172.296875 259.664062 173.226562 L 340.316406 108.742188 C 342.476562 110.277344 345.464844 110.269531 347.625 108.515625 C 350.226562 106.417969 350.617188 102.617188 348.507812 100.019531 C 346.410156 97.433594 342.605469 97.039062 340.011719 99.136719 C 337.855469 100.882812 337.230469 103.8125 338.292969 106.238281 "/><path style=" stroke:none;fill-rule:nonzero;fill:rgb(100%,87.059021%,34.899902%);fill-opacity:1;" d="M 271.175781 194.996094 C 271.683594 196.027344 272.164062 197.007812 272.625 197.929688 L 299.960938 176.699219 L 305.75 177.25 C 306.210938 179.863281 308.351562 181.949219 311.121094 182.214844 C 314.445312 182.53125 317.390625 180.089844 317.710938 176.773438 C 318.019531 173.460938 315.589844 170.511719 312.265625 170.199219 C 309.5 169.929688 306.996094 171.585938 306.046875 174.054688 L 298.957031 173.382812 L 271.175781 194.996094 "/><path style=" stroke:none;fill-rule:nonzero;fill:rgb(100%,87.059021%,34.899902%);fill-opacity:1;" d="M 339.605469 125.5625 C 341.425781 127.808594 341.078125 131.105469 338.839844 132.921875 C 336.585938 134.746094 333.292969 134.402344 331.472656 132.160156 C 329.648438 129.914062 329.996094 126.613281 332.230469 124.800781 C 334.476562 122.984375 337.78125 123.320312 339.605469 125.5625 Z M 329.363281 131.800781 L 265.101562 182.984375 C 265.621094 183.964844 266.128906 184.933594 266.621094 185.886719 L 331.378906 134.289062 C 333.839844 136.164062 337.347656 136.203125 339.839844 134.164062 C 342.777344 131.796875 343.222656 127.476562 340.851562 124.546875 C 338.476562 121.625 334.15625 121.171875 331.234375 123.546875 C 328.722656 125.574219 328.039062 129.011719 329.363281 131.800781 "/><path style=" stroke:none;fill-rule:nonzero;fill:rgb(100%,87.059021%,34.899902%);fill-opacity:1;" d="M 207.613281 55.460938 C 204.921875 56.675781 201.75 55.46875 200.535156 52.785156 C 199.324219 50.09375 200.527344 46.917969 203.21875 45.707031 C 205.90625 44.496094 209.078125 45.699219 210.289062 48.394531 C 211.511719 51.082031 210.308594 54.25 207.613281 55.460938 Z M 192.070312 6.140625 C 191.117188 2.863281 187.695312 0.984375 184.425781 1.925781 C 181.148438 2.875 179.261719 6.285156 180.207031 9.558594 C 180.996094 12.285156 183.503906 14.050781 186.214844 14.015625 L 192.351562 35.234375 L 173.753906 58.242188 L 185.75 86 L 165.386719 112.164062 L 174.371094 139.539062 L 215.550781 139.5625 L 235.671875 113.699219 L 209.710938 56.089844 C 212.195312 54.152344 213.136719 50.707031 211.792969 47.714844 C 211.933594 48.03125 212.074219 48.339844 212.164062 48.535156 C 212.089844 48.375 211.976562 48.125 211.792969 47.714844 C 211.511719 47.085938 211.378906 46.796875 211.34375 46.722656 C 211.390625 46.824219 211.589844 47.265625 211.792969 47.714844 C 210.203125 44.195312 206.054688 42.628906 202.546875 44.210938 C 199.023438 45.792969 197.457031 49.945312 199.039062 53.460938 C 200.398438 56.457031 203.625 58.035156 206.726562 57.445312 L 231.863281 113.246094 L 213.941406 136.277344 L 176.75 136.261719 L 169.058594 112.800781 L 189.539062 86.472656 L 177.554688 58.765625 L 182.089844 53.136719 L 198.21875 85.394531 L 175.691406 114.355469 L 182.695312 128.960938 L 209.964844 128.929688 L 221.910156 113.503906 L 218.375 105.328125 C 220.484375 103.628906 221.308594 100.683594 220.1875 98.070312 C 218.84375 94.949219 215.203125 93.515625 212.074219 94.855469 C 208.941406 96.207031 207.503906 99.832031 208.851562 102.964844 C 209.972656 105.574219 212.683594 106.996094 215.367188 106.625 L 218.128906 113.023438 L 208.429688 125.558594 L 184.8125 125.792969 L 179.523438 114.761719 L 202.085938 85.78125 L 184.355469 50.335938 L 195.984375 35.960938 L 189.363281 13.097656 C 191.675781 11.683594 192.855469 8.859375 192.070312 6.140625 "/><path style=" stroke:none;fill-rule:nonzero;fill:rgb(100%,87.059021%,34.899902%);fill-opacity:1;" d="M 97.371094 90.410156 C 96.117188 93.214844 92.820312 94.492188 90.007812 93.246094 C 87.199219 92 85.921875 88.699219 87.167969 85.890625 C 88.414062 83.082031 91.71875 81.808594 94.53125 83.0625 C 97.34375 84.304688 98.613281 87.601562 97.371094 90.410156 Z M 50.996094 62.90625 C 47.988281 61.023438 44.019531 61.9375 42.132812 64.941406 C 40.253906 67.957031 41.15625 71.910156 44.167969 73.796875 C 46.675781 75.367188 49.847656 74.996094 51.925781 73.089844 L 71.457031 85.304688 L 73 116.089844 L 101.625 129.308594 L 104.003906 163.777344 L 130.011719 178.796875 L 162.003906 150.203125 L 159.652344 116.144531 L 99.433594 89.441406 C 100.015625 86.207031 98.351562 82.878906 95.222656 81.488281 C 95.554688 81.644531 95.875 81.777344 96.085938 81.871094 C 95.917969 81.796875 95.652344 81.675781 95.222656 81.488281 C 94.566406 81.199219 94.265625 81.070312 94.183594 81.035156 C 94.292969 81.078125 94.757812 81.28125 95.222656 81.488281 C 91.546875 79.859375 87.234375 81.527344 85.605469 85.195312 C 83.972656 88.863281 85.644531 93.179688 89.3125 94.8125 C 92.457031 96.199219 96.058594 95.179688 98.0625 92.570312 L 156.378906 118.441406 L 158.480469 148.78125 L 129.578125 174.59375 L 107.292969 161.722656 L 104.894531 127.046875 L 76.320312 113.851562 L 75.9375 106.332031 L 110.886719 120.183594 L 113.523438 158.320312 L 129.117188 164.800781 L 150.269531 145.828125 L 148.832031 125.554688 L 140.394531 121.660156 C 140.859375 118.875 139.445312 116.019531 136.757812 114.765625 C 133.542969 113.277344 129.71875 114.6875 128.21875 117.90625 C 126.734375 121.128906 128.132812 124.949219 131.359375 126.441406 C 134.042969 127.6875 137.144531 126.910156 138.960938 124.757812 L 145.554688 127.808594 L 146.738281 144.28125 L 128.566406 160.867188 L 116.785156 155.972656 L 114.152344 117.792969 L 75.746094 102.582031 L 74.777344 83.347656 L 53.738281 70.1875 C 54.546875 67.488281 53.503906 64.476562 50.996094 62.90625 "/><path style=" stroke:none;fill-rule:nonzero;fill:rgb(100%,87.059021%,34.899902%);fill-opacity:1;" d="M 313.15625 324.207031 C 314.117188 321.296875 317.269531 319.691406 320.195312 320.648438 C 323.117188 321.613281 324.714844 324.765625 323.753906 327.683594 C 322.796875 330.605469 319.640625 332.195312 316.714844 331.238281 C 313.789062 330.285156 312.199219 327.125 313.15625 324.207031 Z M 362.046875 346.9375 C 365.230469 348.507812 369.09375 347.203125 370.664062 344.019531 C 372.238281 340.835938 370.9375 336.992188 367.753906 335.414062 C 365.09375 334.105469 361.984375 334.796875 360.101562 336.898438 L 339.457031 326.695312 L 334.832031 296.222656 L 305.027344 285.929688 L 299.210938 251.875 L 271.828125 239.53125 L 242.851562 271.175781 L 248.609375 304.835938 L 311.199219 325.375 C 310.945312 328.652344 312.933594 331.796875 316.179688 332.867188 C 315.835938 332.75 315.503906 332.648438 315.289062 332.578125 C 315.457031 332.628906 315.734375 332.726562 316.179688 332.867188 C 316.863281 333.09375 317.175781 333.191406 317.261719 333.21875 C 317.148438 333.183594 316.664062 333.035156 316.179688 332.867188 C 320.003906 334.121094 324.128906 332.03125 325.378906 328.222656 C 326.636719 324.402344 324.542969 320.28125 320.730469 319.019531 C 317.457031 317.957031 313.972656 319.328125 312.25 322.128906 L 251.628906 302.222656 L 246.507812 272.246094 L 272.671875 243.667969 L 296.136719 254.25 L 302.003906 288.503906 L 331.75 298.777344 L 332.886719 306.222656 L 296.722656 295.9375 L 290.28125 258.261719 L 274.121094 253.371094 L 254.960938 274.359375 L 258.433594 294.390625 L 267.210938 297.421875 C 267.035156 300.238281 268.722656 302.9375 271.519531 303.914062 C 274.871094 305.074219 278.53125 303.289062 279.703125 299.9375 C 280.867188 296.582031 279.089844 292.917969 275.726562 291.757812 C 272.929688 290.789062 269.925781 291.867188 268.328125 294.191406 L 261.464844 291.820312 L 258.636719 275.550781 L 275.066406 257.226562 L 287.273438 260.917969 L 293.710938 298.636719 L 333.453125 309.933594 L 336.34375 328.976562 L 358.589844 339.960938 C 358.054688 342.734375 359.398438 345.628906 362.046875 346.9375 "/><path style=" stroke:none;fill-rule:nonzero;fill:rgb(100%,87.059021%,34.899902%);fill-opacity:1;" d="M 88.226562 329.027344 C 85.429688 329.964844 82.398438 328.460938 81.449219 325.664062 C 80.503906 322.875 82.019531 319.832031 84.820312 318.890625 C 87.613281 317.953125 90.652344 319.460938 91.59375 322.253906 C 92.542969 325.046875 91.03125 328.089844 88.226562 329.027344 Z M 48.109375 337.6875 L 69.378906 326.992188 L 72.019531 308.695312 L 110.074219 297.585938 L 115.992188 261.351562 L 127.6875 257.722656 L 143.570312 275.191406 L 140.96875 290.816406 L 134.402344 293.148438 C 132.851562 290.929688 129.960938 289.910156 127.285156 290.859375 C 124.070312 292 122.386719 295.519531 123.527344 298.738281 C 124.675781 301.945312 128.195312 303.636719 131.402344 302.492188 C 134.085938 301.539062 135.6875 298.9375 135.5 296.234375 L 143.898438 293.265625 L 147.089844 274.023438 L 128.570312 254.007812 L 113.089844 258.816406 L 107.164062 295.019531 L 72.539062 305.132812 L 73.574219 297.980469 L 102.050781 287.917969 L 107.441406 255.011719 L 129.886719 244.695312 L 155.1875 271.9375 L 150.476562 300.734375 L 92.453125 320.25 C 90.769531 317.582031 87.421875 316.289062 84.292969 317.332031 C 80.640625 318.5625 78.664062 322.539062 79.898438 326.195312 C 81.125 329.839844 85.09375 331.816406 88.75 330.585938 C 88.289062 330.746094 87.828125 330.898438 87.722656 330.929688 C 87.804688 330.90625 88.097656 330.808594 88.75 330.585938 C 89.175781 330.445312 89.441406 330.355469 89.609375 330.300781 C 89.398438 330.367188 89.078125 330.476562 88.75 330.585938 C 91.863281 329.539062 93.75 326.503906 93.488281 323.367188 L 153.402344 303.214844 L 158.691406 270.886719 L 130.671875 240.714844 L 104.476562 252.75 L 99.128906 285.46875 L 70.609375 295.550781 L 66.378906 324.820312 L 46.632812 334.757812 C 44.820312 332.75 41.824219 332.113281 39.289062 333.390625 C 36.238281 334.921875 35.011719 338.621094 36.554688 341.667969 C 38.082031 344.699219 41.789062 345.933594 44.839844 344.40625 C 47.375 343.128906 48.640625 340.339844 48.109375 337.6875 "/><path style=" stroke:none;fill-rule:nonzero;fill:rgb(100%,87.059021%,34.899902%);fill-opacity:1;" d="M 200.527344 140.929688 C 161.414062 140.929688 129.601562 172.734375 129.601562 211.820312 C 129.601562 250.914062 161.414062 282.714844 200.527344 282.714844 C 239.640625 282.714844 271.460938 250.914062 271.460938 211.820312 C 271.460938 172.734375 239.640625 140.929688 200.527344 140.929688 Z M 200.527344 288.410156 C 158.273438 288.410156 123.898438 254.050781 123.898438 211.820312 C 123.898438 169.59375 158.273438 135.234375 200.527344 135.234375 C 242.78125 135.234375 277.15625 169.59375 277.15625 211.820312 C 277.15625 254.050781 242.78125 288.410156 200.527344 288.410156 "/></g></defs><g xml:id="surface1" id="surface1"><use transform="matrix(1,0,0,1,279,104)" xmlns:xlink="http://www.w3.org/1999/xlink" xlink:href="#surface5" xlink:type="simple" mask="url(#mask0)" xlink:actuate="onLoad" xlink:show="embed"/><path style=" stroke:none;fill-rule:nonzero;fill:rgb(100%,87.059021%,34.899902%);fill-opacity:1;" d="M 472.175781 305.714844 C 472.175781 303.277344 474.164062 301.292969 476.613281 301.292969 C 479.058594 301.292969 481.046875 303.277344 481.046875 305.714844 C 481.046875 308.148438 479.058594 310.132812 476.613281 310.132812 C 474.164062 310.132812 472.175781 308.148438 472.175781 305.714844 Z M 472.175781 305.714844 "/><path style=" stroke:none;fill-rule:nonzero;fill:rgb(100%,87.059021%,34.899902%);fill-opacity:1;" d="M 460.644531 282.726562 C 460.644531 280.292969 462.632812 278.308594 465.078125 278.308594 C 467.523438 278.308594 469.515625 280.292969 469.515625 282.726562 C 469.515625 285.164062 467.523438 287.148438 465.078125 287.148438 C 462.632812 287.148438 460.644531 285.164062 460.644531 282.726562 Z M 460.644531 282.726562 "/><path style=" stroke:none;fill-rule:nonzero;fill:rgb(100%,87.059021%,34.899902%);fill-opacity:1;" d="M 500.167969 304.734375 C 500.167969 307.171875 498.179688 309.15625 495.730469 309.15625 C 493.285156 309.15625 491.296875 307.171875 491.296875 304.734375 C 491.296875 302.296875 493.285156 300.316406 495.730469 300.316406 C 498.179688 300.316406 500.167969 302.296875 500.167969 304.734375 Z M 500.167969 304.734375 "/><g clip-rule="nonzero"><path style=" stroke:none;fill-rule:nonzero;fill:rgb(100%,87.059021%,34.899902%);fill-opacity:1;" d="M 507.816406 325.433594 C 505.714844 327.972656 504.554688 331.144531 504.554688 334.367188 L 504.554688 366.378906 L 463.894531 366.417969 L 463.894531 351.878906 C 463.894531 349.738281 462.148438 348 460 348 L 448.519531 348 C 445.746094 348 443.492188 345.75 443.492188 342.988281 L 443.492188 330.191406 L 477.941406 330.191406 L 477.941406 322.140625 L 497.0625 322.140625 L 497.0625 311.679688 C 500.339844 311.054688 502.828125 308.179688 502.828125 304.734375 C 502.828125 301.289062 500.339844 298.414062 497.0625 297.792969 L 497.0625 296.058594 C 500.339844 295.4375 502.828125 292.5625 502.828125 289.117188 C 502.828125 285.21875 499.644531 282.046875 495.730469 282.046875 C 491.820312 282.046875 488.636719 285.21875 488.636719 289.117188 C 488.636719 292.5625 491.121094 295.4375 494.402344 296.058594 L 494.402344 297.792969 C 491.121094 298.414062 488.636719 301.289062 488.636719 304.734375 C 488.636719 308.179688 491.121094 311.054688 494.402344 311.679688 L 494.402344 319.488281 L 477.941406 319.488281 L 477.941406 312.65625 C 481.222656 312.03125 483.707031 309.160156 483.707031 305.714844 C 483.707031 301.8125 480.523438 298.640625 476.613281 298.640625 C 472.699219 298.640625 469.515625 301.8125 469.515625 305.714844 C 469.515625 309.160156 472.003906 312.03125 475.28125 312.65625 L 475.28125 319.488281 L 440.933594 319.488281 C 439.492188 319.488281 438.183594 318.699219 437.515625 317.425781 C 436.847656 316.152344 436.945312 314.628906 437.769531 313.449219 L 442.34375 306.898438 C 442.917969 306.078125 442.925781 305.011719 442.371094 304.183594 C 441.929688 303.523438 441.628906 302.789062 441.457031 302.027344 L 466.410156 302.027344 L 466.410156 289.671875 C 469.6875 289.046875 472.175781 286.175781 472.175781 282.726562 C 472.175781 278.828125 468.992188 275.65625 465.078125 275.65625 C 461.164062 275.65625 457.980469 278.828125 457.980469 282.726562 C 457.980469 286.175781 460.46875 289.046875 463.75 289.671875 L 463.75 299.378906 L 441.421875 299.378906 C 441.441406 299.285156 441.453125 299.191406 441.476562 299.101562 L 445.746094 281.679688 C 446.097656 280.246094 446.695312 278.941406 447.523438 277.789062 C 451.121094 272.792969 461.976562 261.410156 485.015625 263.582031 C 495.289062 264.550781 503.648438 269.371094 509.191406 277.523438 C 516.449219 288.199219 517.675781 303.089844 515.148438 311.683594 C 513.296875 317.96875 510.140625 322.628906 507.816406 325.433594 Z M 507.816406 325.433594 "/></g><path style=" stroke:none;fill-rule:nonzero;fill:rgb(100%,87.059021%,34.899902%);fill-opacity:1;" d="M 491.296875 289.117188 C 491.296875 286.679688 493.285156 284.695312 495.730469 284.695312 C 498.179688 284.695312 500.167969 286.679688 500.167969 289.117188 C 500.167969 291.554688 498.179688 293.539062 495.730469 293.539062 C 493.285156 293.539062 491.296875 291.554688 491.296875 289.117188 Z M 491.296875 289.117188 "/><path style=" stroke:none;fill-rule:nonzero;fill:rgb(100%,87.059021%,34.899902%);fill-opacity:1;" d="M 475.28125 322.140625 L 443.492188 322.140625 L 443.492188 327.539062 L 475.28125 327.539062 Z M 475.28125 322.140625 "/></g></svg>