<?xml version="1.0" encoding="UTF-8" standalone="no"?>
<svg
   contentScriptType="text/ecmascript"
   width="960pt"
   zoomAndPan="magnify"
   contentStyleType="text/css"
   viewBox="0 0 960 599.999999"
   height="599.999999pt"
   preserveAspectRatio="xMidYMid meet"
   version="1.2"
   id="svg74"
   sodipodi:docname="ShowcaseBG.svg"
   inkscape:version="1.1 (c68e22c387, 2021-05-23)"
   xmlns:inkscape="http://www.inkscape.org/namespaces/inkscape"
   xmlns:sodipodi="http://sodipodi.sourceforge.net/DTD/sodipodi-0.dtd"
   xmlns:xlink="http://www.w3.org/1999/xlink"
   xmlns="http://www.w3.org/2000/svg"
   xmlns:svg="http://www.w3.org/2000/svg">
  <sodipodi:namedview
     id="namedview76"
     pagecolor="#ffffff"
     bordercolor="#666666"
     borderopacity="1.0"
     inkscape:pageshadow="2"
     inkscape:pageopacity="0.0"
     inkscape:pagecheckerboard="0"
     inkscape:document-units="pt"
     showgrid="false"
     inkscape:zoom="0.8953125"
     inkscape:cx="639.44154"
     inkscape:cy="400.41885"
     inkscape:window-width="1920"
     inkscape:window-height="1017"
     inkscape:window-x="-8"
     inkscape:window-y="-8"
     inkscape:window-maximized="1"
     inkscape:current-layer="svg74" />
  <defs
     id="defs69">
    <filter
       x="0"
       y="0"
       width="1"
       xlink:type="simple"
       filterUnits="objectBoundingBox"
       xlink:actuate="onLoad"
       id="alpha"
       height="1"
       xlink:show="other"
       xml:id="alpha">
      <feColorMatrix
         values="0 0 0 0 1 0 0 0 0 1 0 0 0 0 1 0 0 0 1 0"
         type="matrix"
         in="SourceGraphic"
         id="feColorMatrix2" />
    </filter>
    <mask
       xml:id="mask0"
       id="mask0">
      <g
         filter="url(#alpha)"
         id="g7">
        <rect
           x="0"
           width="960"
           y="0"
           height="599.999999"
           style="fill:rgb(0%,0%,0%);fill-opacity:0.498;stroke:none;"
           id="rect5" />
      </g>
    </mask>
    <g
       xml:id="surface5"
       id="surface5">
      <g
         clip-rule="nonzero"
         id="g12">
        <path
           style=" stroke:none;fill-rule:nonzero;fill:rgb(100%,87.059021%,34.899902%);fill-opacity:1;"
           d="M 2.015625 192.925781 L 2.015625 186.996094 L 108.871094 186.996094 L 125.890625 169.96875 L 142.214844 169.96875 L 153.914062 158.269531 L 175.558594 158.269531 L 212.753906 121.058594 L 226.671875 121.058594 L 265.128906 82.589844 L 265.128906 64.167969 L 291.972656 37.308594 L 364.03125 37.308594 L 386.363281 59.644531 L 386.363281 92.335938 L 395.773438 101.753906 L 413.617188 101.753906 L 424.730469 90.636719 L 444.585938 90.636719 L 457.917969 77.292969 L 505.96875 77.292969 L 505.96875 83.222656 L 460.375 83.222656 L 447.039062 96.566406 L 427.183594 96.566406 L 416.074219 107.679688 L 393.320312 107.679688 L 380.433594 94.789062 L 380.433594 62.101562 L 361.578125 43.238281 L 294.429688 43.238281 L 271.054688 66.628906 L 271.054688 85.042969 L 229.128906 126.988281 L 215.207031 126.988281 L 178.011719 164.199219 L 156.367188 164.199219 L 144.671875 175.898438 L 128.347656 175.898438 L 111.324219 192.925781 L 2.015625 192.925781 "
           id="path10" />
      </g>
      <g
         clip-rule="nonzero"
         id="g16">
        <path
           style=" stroke:none;fill-rule:nonzero;fill:rgb(100%,87.059021%,34.899902%);fill-opacity:1;"
           d="M 2.015625 133.625 L 2.015625 127.695312 L 68.984375 127.695312 L 111.222656 85.441406 L 212.441406 85.441406 L 275.582031 22.273438 L 373.019531 22.273438 L 396.722656 45.992188 L 396.722656 77.457031 L 432.832031 77.457031 L 445.476562 64.8125 L 505.964844 64.8125 L 505.964844 70.742188 L 447.933594 70.742188 L 435.289062 83.386719 L 390.796875 83.386719 L 390.796875 48.445312 L 370.558594 28.203125 L 278.035156 28.203125 L 214.902344 91.371094 L 113.679688 91.371094 L 71.4375 133.625 L 2.015625 133.625 "
           id="path14" />
      </g>
      <g
         clip-rule="nonzero"
         id="g20">
        <path
           style=" stroke:none;fill-rule:nonzero;fill:rgb(100%,87.059021%,34.899902%);fill-opacity:1;"
           d="M 1.976562 204.28125 L 1.976562 198.351562 L 160.15625 198.351562 L 209.996094 148.484375 L 226.472656 148.484375 L 279.925781 95.007812 L 279.925781 84.484375 L 291.390625 73.019531 L 328.203125 73.019531 L 342.585938 87.40625 L 342.585938 108.847656 L 365.753906 132.027344 L 410.292969 132.027344 L 423.351562 118.964844 L 440.339844 118.964844 L 469.183594 90.105469 L 505.96875 90.105469 L 505.96875 96.035156 L 471.636719 96.035156 L 442.796875 124.894531 L 425.804688 124.894531 L 412.75 137.957031 L 363.292969 137.957031 L 336.65625 111.308594 L 336.65625 89.863281 L 325.75 78.949219 L 293.84375 78.949219 L 285.851562 86.945312 L 285.851562 97.464844 L 228.925781 154.414062 L 212.453125 154.414062 L 162.609375 204.28125 L 1.976562 204.28125 "
           id="path18" />
      </g>
      <g
         clip-rule="nonzero"
         id="g24">
        <path
           style=" stroke:none;fill-rule:nonzero;fill:rgb(100%,87.059021%,34.899902%);fill-opacity:1;"
           d="M 30.074219 164.222656 L 30.074219 161.847656 L 50.914062 161.847656 L 66.121094 177.066406 L 99.113281 177.066406 L 104.546875 182.503906 L 116.371094 182.503906 L 116.371094 184.875 L 103.5625 184.875 L 98.128906 179.4375 L 65.140625 179.4375 L 49.925781 164.222656 L 30.074219 164.222656 "
           id="path22" />
      </g>
      <path
         style=" stroke:none;fill-rule:nonzero;fill:rgb(100%,87.059021%,34.899902%);fill-opacity:1;"
         d="M 131.910156 154.835938 L 147.121094 139.621094 L 181.402344 139.621094 L 206.785156 114.226562 L 224.0625 114.226562 L 249.847656 88.429688 L 262.292969 88.429688 L 262.292969 90.800781 L 250.832031 90.800781 L 225.046875 116.597656 L 207.765625 116.597656 L 182.382812 141.992188 L 148.101562 141.992188 L 133.585938 156.511719 L 131.910156 154.835938 "
         id="path26" />
      <path
         style=" stroke:none;fill-rule:nonzero;fill:rgb(100%,87.059021%,34.899902%);fill-opacity:1;"
         d="M 196.148438 167.71875 L 196.148438 165.347656 L 212.3125 165.347656 L 219.398438 158.257812 L 249.453125 158.257812 L 303.960938 103.730469 L 319.972656 103.730469 L 361.859375 145.636719 L 420.328125 145.636719 L 449.765625 175.089844 L 505.96875 175.089844 L 505.96875 177.460938 L 448.785156 177.460938 L 419.347656 148.007812 L 360.878906 148.007812 L 318.988281 106.101562 L 304.941406 106.101562 L 250.4375 160.632812 L 220.378906 160.632812 L 213.292969 167.71875 L 196.148438 167.71875 "
         id="path28" />
      <g
         clip-rule="nonzero"
         id="g32">
        <path
           style=" stroke:none;fill-rule:nonzero;fill:rgb(100%,87.059021%,34.899902%);fill-opacity:1;"
           d="M 2.015625 112.835938 L 2.015625 110.464844 L 40.046875 110.464844 L 51.761719 122.183594 L 66.902344 122.183594 L 117.992188 71.074219 L 162.722656 71.074219 L 172.628906 80.988281 L 197.296875 80.988281 L 222.871094 55.402344 L 234.046875 55.402344 L 275.9375 13.496094 L 380.429688 13.496094 L 387.152344 6.769531 L 410.453125 6.769531 L 433.242188 29.570312 L 505.964844 29.570312 L 505.964844 31.941406 L 432.257812 31.941406 L 409.46875 9.140625 L 388.136719 9.140625 L 381.414062 15.867188 L 276.921875 15.867188 L 235.027344 57.773438 L 223.851562 57.773438 L 198.277344 83.359375 L 171.648438 83.359375 L 161.742188 73.445312 L 118.976562 73.445312 L 67.882812 124.554688 L 50.78125 124.554688 L 39.066406 112.835938 L 2.015625 112.835938 "
           id="path30" />
      </g>
      <path
         style=" stroke:none;fill-rule:nonzero;fill:rgb(100%,87.059021%,34.899902%);fill-opacity:1;"
         d="M 395.871094 30.292969 L 397.546875 28.617188 L 406.964844 38.03125 L 406.964844 49.722656 L 417.164062 59.933594 L 433.242188 59.933594 L 445.03125 48.140625 L 475.515625 48.140625 L 492.1875 64.824219 L 490.515625 66.503906 L 474.53125 50.511719 L 446.011719 50.511719 L 434.222656 62.304688 L 416.1875 62.304688 L 404.59375 50.707031 L 404.59375 39.015625 L 395.871094 30.292969 "
         id="path34" />
      <path
         style=" stroke:none;fill-rule:nonzero;fill:rgb(100%,87.059021%,34.899902%);fill-opacity:1;"
         d="M 347.414062 108.601562 L 347.414062 86.257812 L 359.226562 74.441406 L 360.902344 76.117188 L 349.785156 87.238281 L 349.785156 107.621094 L 370.152344 127.996094 L 392.324219 127.996094 L 401.15625 119.164062 L 401.15625 111.75 L 408.828125 104.078125 L 410.503906 105.753906 L 403.523438 112.730469 L 403.523438 120.148438 L 393.308594 130.371094 L 369.171875 130.371094 L 347.414062 108.601562 "
         id="path36" />
      <path
         style=" stroke:none;fill-rule:nonzero;fill:rgb(100%,87.059021%,34.899902%);fill-opacity:1;"
         d="M 228.609375 182.246094 L 228.609375 179.875 L 242.675781 179.875 L 249.425781 173.121094 L 249.425781 165.484375 L 305.164062 109.722656 L 321.105469 109.722656 L 328.171875 116.792969 L 328.171875 133.140625 L 345.558594 150.527344 L 405.070312 150.527344 L 424.082031 169.546875 L 434.367188 169.546875 L 444.519531 179.710938 L 469.835938 179.710938 L 478.902344 188.777344 L 505.964844 188.777344 L 505.964844 191.148438 L 477.921875 191.148438 L 468.855469 182.082031 L 443.539062 182.082031 L 433.382812 171.917969 L 423.101562 171.917969 L 404.089844 152.898438 L 344.574219 152.898438 L 325.800781 134.121094 L 325.800781 117.773438 L 320.128906 112.097656 L 306.144531 112.097656 L 251.796875 166.46875 L 251.796875 174.101562 L 243.65625 182.246094 L 228.609375 182.246094 "
         id="path38" />
      <path
         style=" stroke:none;fill-rule:nonzero;fill:rgb(100%,87.059021%,34.899902%);fill-opacity:1;"
         d="M 88.242188 113.816406 L 88.242188 111.441406 L 100.996094 111.441406 L 113.039062 99.390625 L 128.851562 99.390625 L 134.425781 93.808594 L 223.378906 93.808594 L 240.242188 76.9375 L 240.242188 68.765625 L 255.714844 53.285156 L 279.011719 53.285156 L 279.011719 55.660156 L 256.695312 55.660156 L 242.613281 69.75 L 242.613281 77.921875 L 224.359375 96.179688 L 135.40625 96.179688 L 129.832031 101.761719 L 114.019531 101.761719 L 101.976562 113.816406 L 88.242188 113.816406 "
         id="path40" />
      <path
         style=" stroke:none;fill-rule:nonzero;fill:rgb(100%,87.059021%,34.899902%);fill-opacity:1;"
         d="M 138.804688 199.222656 L 155.523438 182.5 L 157.199219 184.175781 L 140.480469 200.898438 L 138.804688 199.222656 "
         id="path42" />
      <path
         style=" stroke:none;fill-rule:nonzero;fill:rgb(100%,87.059021%,34.899902%);fill-opacity:1;"
         d="M 345.636719 59.628906 C 345.636719 56.351562 342.972656 53.683594 339.695312 53.683594 C 336.421875 53.683594 333.757812 56.351562 333.757812 59.628906 C 333.757812 62.902344 336.421875 65.570312 339.695312 65.570312 C 342.972656 65.570312 345.636719 62.902344 345.636719 59.628906 Z M 327.832031 59.628906 C 327.832031 53.082031 333.152344 47.753906 339.695312 47.753906 C 346.238281 47.753906 351.5625 53.082031 351.5625 59.628906 C 351.5625 66.171875 346.238281 71.5 339.695312 71.5 C 333.152344 71.5 327.832031 66.171875 327.832031 59.628906 "
         id="path44" />
      <path
         style=" stroke:none;fill-rule:nonzero;fill:rgb(100%,87.059021%,34.899902%);fill-opacity:1;"
         d="M 165.777344 178.945312 C 165.777344 176.171875 163.519531 173.921875 160.753906 173.921875 C 157.980469 173.921875 155.726562 176.171875 155.726562 178.945312 C 155.726562 181.714844 157.980469 183.96875 160.753906 183.96875 C 163.519531 183.96875 165.777344 181.714844 165.777344 178.945312 Z M 153.359375 178.945312 C 153.359375 174.867188 156.671875 171.550781 160.753906 171.550781 C 164.828125 171.550781 168.144531 174.867188 168.144531 178.945312 C 168.144531 183.023438 164.828125 186.339844 160.753906 186.339844 C 156.671875 186.339844 153.359375 183.023438 153.359375 178.945312 "
         id="path46" />
      <path
         style=" stroke:none;fill-rule:nonzero;fill:rgb(100%,87.059021%,34.899902%);fill-opacity:1;"
         d="M 228.125 185.597656 C 230.410156 185.597656 232.269531 183.746094 232.269531 181.457031 C 232.269531 179.167969 230.410156 177.316406 228.125 177.316406 C 225.835938 177.316406 223.984375 179.167969 223.984375 181.457031 C 223.984375 183.746094 225.835938 185.597656 228.125 185.597656 "
         id="path48" />
      <path
         style=" stroke:none;fill-rule:nonzero;fill:rgb(100%,87.059021%,34.899902%);fill-opacity:1;"
         d="M 132.75 159.816406 C 135.035156 159.816406 136.890625 157.964844 136.890625 155.675781 C 136.890625 153.386719 135.035156 151.535156 132.75 151.535156 C 130.460938 151.535156 128.609375 153.386719 128.609375 155.675781 C 128.609375 157.964844 130.460938 159.816406 132.75 159.816406 "
         id="path50" />
      <path
         style=" stroke:none;fill-rule:nonzero;fill:rgb(100%,87.059021%,34.899902%);fill-opacity:1;"
         d="M 360.0625 79.421875 C 362.351562 79.421875 364.207031 77.566406 364.207031 75.28125 C 364.207031 72.992188 362.351562 71.132812 360.0625 71.132812 C 357.777344 71.132812 355.921875 72.992188 355.921875 75.28125 C 355.921875 77.566406 357.777344 79.421875 360.0625 79.421875 "
         id="path52" />
      <path
         style=" stroke:none;fill-rule:nonzero;fill:rgb(100%,87.059021%,34.899902%);fill-opacity:1;"
         d="M 396.710938 33.386719 C 399 33.386719 400.855469 31.535156 400.855469 29.246094 C 400.855469 26.957031 399 25.101562 396.710938 25.101562 C 394.425781 25.101562 392.570312 26.957031 392.570312 29.246094 C 392.570312 31.535156 394.425781 33.386719 396.710938 33.386719 "
         id="path54" />
      <path
         style=" stroke:none;fill-rule:nonzero;fill:rgb(100%,87.059021%,34.899902%);fill-opacity:1;"
         d="M 407.882812 22.210938 C 410.175781 22.210938 412.027344 20.355469 412.027344 18.070312 C 412.027344 15.78125 410.175781 13.921875 407.882812 13.921875 C 405.59375 13.921875 403.742188 15.78125 403.742188 18.070312 C 403.742188 20.355469 405.59375 22.210938 407.882812 22.210938 "
         id="path56" />
      <g
         clip-rule="nonzero"
         id="g60">
        <path
           style=" stroke:none;fill-rule:nonzero;fill:rgb(100%,87.059021%,34.899902%);fill-opacity:1;"
           d="M 420.785156 9.304688 C 423.074219 9.304688 424.929688 7.445312 424.929688 5.160156 C 424.929688 2.871094 423.074219 1.019531 420.785156 1.019531 C 418.5 1.019531 416.648438 2.871094 416.648438 5.160156 C 416.648438 7.445312 418.5 9.304688 420.785156 9.304688 "
           id="path58" />
      </g>
      <path
         style=" stroke:none;fill-rule:nonzero;fill:rgb(100%,87.059021%,34.899902%);fill-opacity:1;"
         d="M 298.269531 73.890625 L 315.488281 56.664062 L 332.125 56.664062 L 332.125 62.59375 L 317.941406 62.59375 L 302.460938 78.082031 L 298.269531 73.890625 "
         id="path62" />
      <path
         style=" stroke:none;fill-rule:nonzero;fill:rgb(100%,87.059021%,34.899902%);fill-opacity:1;"
         d="M 420.347656 6.394531 L 422.023438 4.71875 L 441.269531 23.972656 L 456.410156 23.972656 L 463.996094 16.386719 L 505.964844 16.386719 L 505.964844 18.757812 L 464.976562 18.757812 L 457.390625 26.347656 L 440.289062 26.347656 L 420.347656 6.394531 "
         id="path64" />
      <path
         style=" stroke:none;fill-rule:nonzero;fill:rgb(100%,87.059021%,34.899902%);fill-opacity:1;"
         d="M 407.042969 18.90625 L 408.71875 17.230469 L 420.925781 29.4375 L 420.925781 41.195312 L 424.996094 45.269531 L 431.597656 45.269531 L 446.371094 30.484375 L 448.046875 32.160156 L 432.574219 47.640625 L 424.011719 47.640625 L 418.554688 42.179688 L 418.554688 30.417969 L 407.042969 18.90625 "
         id="path66" />
    </g>
    <clipPath
       clipPathUnits="userSpaceOnUse"
       id="clipPath182">
      <rect
         style="fill:#152f75;stroke-width:0.773557"
         id="rect184"
         width="493.69427"
         height="330.89005"
         x="467.14343"
         y="200.20943" />
    </clipPath>
  </defs>
  <g
     xml:id="surface1"
     id="surface1"
     clip-path="url(#clipPath182)"
     transform="translate(1.6753927)">
    <use
       transform="translate(453,261)"
       xlink:href="#surface5"
       xlink:type="simple"
       mask="url(#mask0)"
       xlink:actuate="onLoad"
       xlink:show="embed"
       id="use71"
       x="0"
       y="0"
       width="100%"
       height="100%" />
  </g>
</svg>
