<?xml version="1.0" encoding="UTF-8"?><svg xmlns="http://www.w3.org/2000/svg" xmlns:xlink="http://www.w3.org/1999/xlink" contentScriptType="text/ecmascript" width="960pt" zoomAndPan="magnify" contentStyleType="text/css" viewBox="0 0 960 599.999999" height="599.999999pt" preserveAspectRatio="xMidYMid meet" version="1.2"><defs><filter x="0%" y="0%" width="100%" xmlns:xlink="http://www.w3.org/1999/xlink" xlink:type="simple" filterUnits="objectBoundingBox" xlink:actuate="onLoad" id="alpha" height="100%" xlink:show="other" xml:id="alpha"><feColorMatrix values="0 0 0 0 1 0 0 0 0 1 0 0 0 0 1 0 0 0 1 0" type="matrix" in="SourceGraphic"/></filter><mask xml:id="mask0" id="mask0"><g filter="url(#alpha)"><rect x="0" width="960" y="0" height="599.999999" style="fill:rgb(0%,0%,0%);fill-opacity:0.498;stroke:none;"/></g></mask><g xml:id="surface5" id="surface5"><path style=" stroke:none;fill-rule:nonzero;fill:rgb(100%,87.059021%,34.899902%);fill-opacity:1;" d="M 334.828125 5.601562 C 364.996094 17.433594 389.863281 38.449219 406.746094 66.378906 C 422.421875 92.316406 430.710938 122.941406 430.710938 154.9375 C 430.710938 186.929688 422.421875 217.554688 406.746094 243.492188 C 389.863281 271.421875 364.996094 292.4375 334.828125 304.269531 L 334.570312 303.605469 C 393.433594 280.523438 429.996094 223.554688 429.996094 154.9375 C 429.996094 86.320312 393.433594 29.351562 334.570312 6.265625 L 334.828125 5.601562 "/><path style=" stroke:none;fill-rule:nonzero;fill:rgb(100%,87.059021%,34.899902%);fill-opacity:1;" d="M 357.558594 57.300781 C 383.710938 80.921875 398.710938 116.511719 398.710938 154.9375 C 398.710938 193.359375 383.710938 228.945312 357.558594 252.570312 L 357.078125 252.042969 C 383.085938 228.550781 398 193.160156 398 154.9375 C 398 116.714844 383.085938 81.320312 357.078125 57.828125 L 357.558594 57.300781 "/><path style=" stroke:none;fill-rule:nonzero;fill:rgb(100%,87.059021%,34.899902%);fill-opacity:1;" d="M 316.757812 47.234375 C 338.515625 55.769531 356.449219 70.925781 368.628906 91.074219 C 379.933594 109.777344 385.910156 131.859375 385.910156 154.933594 C 385.910156 178.007812 379.933594 200.089844 368.628906 218.796875 C 356.453125 238.945312 338.515625 254.101562 316.757812 262.636719 L 316.496094 261.96875 C 358.875 245.351562 385.195312 204.339844 385.195312 154.933594 C 385.195312 105.53125 358.875 64.519531 316.496094 47.902344 L 316.757812 47.234375 "/><path style=" stroke:none;fill-rule:nonzero;fill:rgb(100%,87.059021%,34.899902%);fill-opacity:1;" d="M 359.660156 33.851562 C 378.457031 47.488281 393.15625 65.550781 403.351562 87.542969 C 412.875 108.089844 417.910156 131.394531 417.910156 154.9375 C 417.910156 178.476562 412.875 201.78125 403.351562 222.328125 C 393.15625 244.320312 378.457031 262.382812 359.660156 276.019531 L 359.242188 275.441406 C 395.53125 249.117188 417.195312 204.070312 417.195312 154.9375 C 417.199219 105.800781 395.53125 60.75 359.242188 34.429688 L 359.660156 33.851562 "/><path style=" stroke:none;fill-rule:nonzero;fill:rgb(100%,87.059021%,34.899902%);fill-opacity:1;" d="M 340.851562 37.203125 C 361.199219 48.824219 377.867188 66.304688 389.050781 87.761719 C 399.558594 107.921875 405.109375 131.148438 405.109375 154.933594 C 405.109375 178.71875 399.558594 201.945312 389.050781 222.109375 C 377.867188 243.5625 361.199219 261.050781 340.851562 272.667969 L 340.5 272.046875 C 380.507812 249.203125 404.398438 205.417969 404.398438 154.933594 C 404.398438 104.449219 380.507812 60.667969 340.5 37.824219 L 340.851562 37.203125 "/><path style=" stroke:none;fill-rule:nonzero;fill:rgb(100%,87.059021%,34.899902%);fill-opacity:1;" d="M 363.8125 73.175781 C 382.191406 95.097656 392.3125 124.136719 392.3125 154.933594 C 392.3125 185.734375 382.191406 214.773438 363.8125 236.695312 L 363.269531 236.238281 C 400.84375 191.40625 400.84375 118.464844 363.269531 73.632812 L 363.8125 73.175781 "/><path style=" stroke:none;fill-rule:nonzero;fill:rgb(100%,87.059021%,34.899902%);fill-opacity:1;" d="M 365.433594 98.511719 C 384.21875 132.785156 384.21875 177.082031 365.433594 211.359375 L 364.8125 211.015625 C 383.476562 176.949219 383.476562 132.921875 364.8125 98.855469 L 365.433594 98.511719 "/><path style=" stroke:none;fill-rule:nonzero;fill:rgb(100%,87.059021%,34.899902%);fill-opacity:1;" d="M 335.789062 81.578125 C 355.4375 99.332031 366.710938 126.066406 366.710938 154.933594 C 366.710938 183.804688 355.4375 210.542969 335.789062 228.292969 L 335.3125 227.761719 C 354.8125 210.144531 365.996094 183.601562 365.996094 154.933594 C 365.996094 126.269531 354.8125 99.722656 335.3125 82.109375 L 335.789062 81.578125 "/><path style=" stroke:none;fill-rule:nonzero;fill:rgb(100%,87.059021%,34.899902%);fill-opacity:1;" d="M 369.269531 125.429688 C 374.425781 144.730469 374.425781 165.140625 369.269531 184.445312 L 368.578125 184.261719 C 373.703125 165.074219 373.703125 144.792969 368.578125 125.613281 L 369.269531 125.429688 "/><path style=" stroke:none;fill-rule:nonzero;fill:rgb(100%,87.059021%,34.899902%);fill-opacity:1;" d="M 300.503906 68.949219 C 336.832031 80.269531 360.308594 114.023438 360.308594 154.933594 C 360.308594 195.847656 336.832031 229.601562 300.503906 240.925781 L 300.292969 240.242188 C 336.320312 229.011719 359.597656 195.527344 359.597656 154.933594 C 359.597656 114.34375 336.320312 80.855469 300.292969 69.628906 L 300.503906 68.949219 "/><path style=" stroke:none;fill-rule:nonzero;fill:rgb(100%,87.059021%,34.899902%);fill-opacity:1;" d="M 341.617188 123.664062 C 349.519531 143.539062 349.519531 166.335938 341.617188 186.207031 L 340.953125 185.945312 C 348.789062 166.238281 348.789062 143.632812 340.953125 123.925781 L 341.617188 123.664062 "/><path style=" stroke:none;fill-rule:nonzero;fill:rgb(100%,87.059021%,34.899902%);fill-opacity:1;" d="M 314.019531 105.859375 C 327.167969 117.738281 334.710938 135.625 334.710938 154.9375 C 334.710938 174.246094 327.167969 192.132812 314.019531 204.011719 L 313.542969 203.480469 C 326.539062 191.738281 333.996094 174.046875 333.996094 154.9375 C 333.996094 135.828125 326.539062 118.132812 313.542969 106.390625 L 314.019531 105.859375 "/><path style=" stroke:none;fill-rule:nonzero;fill:rgb(100%,87.059021%,34.899902%);fill-opacity:1;" d="M 320.371094 141.644531 C 322.425781 150.339844 322.425781 159.53125 320.371094 168.226562 L 319.675781 168.058594 C 321.707031 159.472656 321.707031 150.398438 319.675781 141.808594 L 320.371094 141.644531 "/><path style=" stroke:none;fill-rule:nonzero;fill:rgb(100%,87.059021%,34.899902%);fill-opacity:1;" d="M 334.363281 98.851562 C 346.96875 113.890625 353.910156 133.808594 353.910156 154.933594 C 353.910156 176.0625 346.96875 195.980469 334.363281 211.019531 L 333.816406 210.558594 C 359.523438 179.886719 359.523438 129.980469 333.816406 99.3125 L 334.363281 98.851562 "/><path style=" stroke:none;fill-rule:nonzero;fill:rgb(100%,87.059021%,34.899902%);fill-opacity:1;" d="M 327.265625 110.886719 C 336.191406 123.121094 341.109375 138.761719 341.109375 154.9375 C 341.109375 171.109375 336.191406 186.753906 327.265625 198.984375 L 326.6875 198.5625 C 344.84375 173.691406 344.84375 136.179688 326.6875 111.308594 L 327.265625 110.886719 "/><path style=" stroke:none;fill-rule:nonzero;fill:rgb(100%,87.059021%,34.899902%);fill-opacity:1;" d="M 309.667969 110.714844 C 321.515625 121.417969 328.3125 137.535156 328.3125 154.9375 C 328.3125 172.335938 321.515625 188.453125 309.667969 199.152344 L 309.191406 198.625 C 320.886719 188.058594 327.597656 172.136719 327.597656 154.9375 C 327.597656 137.738281 320.886719 121.8125 309.191406 111.246094 L 309.667969 110.714844 "/><path style=" stroke:none;fill-rule:nonzero;fill:rgb(100%,87.059021%,34.899902%);fill-opacity:1;" d="M 270.023438 109.390625 C 301.273438 109.390625 315.507812 133 315.507812 154.9375 C 315.507812 166.859375 311.46875 177.976562 304.140625 186.238281 C 295.867188 195.554688 284.070312 200.476562 270.023438 200.476562 L 270.023438 199.765625 C 283.859375 199.765625 295.472656 194.921875 303.605469 185.761719 C 310.820312 177.632812 314.796875 166.6875 314.796875 154.9375 C 314.796875 133.347656 300.789062 110.105469 270.023438 110.105469 L 270.023438 109.390625 "/><path style=" stroke:none;fill-rule:nonzero;fill:rgb(100%,87.059021%,34.899902%);fill-opacity:1;" d="M 306.136719 139.167969 C 310.121094 149.191406 310.121094 160.683594 306.136719 170.707031 L 305.476562 170.441406 C 309.394531 160.585938 309.394531 149.285156 305.476562 139.429688 L 306.136719 139.167969 "/><path style=" stroke:none;fill-rule:nonzero;fill:rgb(100%,87.059021%,34.899902%);fill-opacity:1;" d="M 296.34375 134.6875 C 304.769531 146.230469 304.769531 163.640625 296.34375 175.183594 L 295.769531 174.761719 C 304.019531 163.460938 304.019531 146.410156 295.769531 135.109375 L 296.34375 134.6875 "/><path style=" stroke:none;fill-rule:nonzero;fill:rgb(100%,87.059021%,34.899902%);fill-opacity:1;" d="M 289.453125 150.445312 C 290.058594 153.382812 290.058594 156.484375 289.453125 159.421875 L 288.753906 159.277344 C 289.339844 156.4375 289.339844 153.433594 288.753906 150.59375 L 289.453125 150.445312 "/><path style=" stroke:none;fill-rule:nonzero;fill:rgb(100%,87.059021%,34.899902%);fill-opacity:1;" d="M 282.253906 131.21875 C 290.921875 135.363281 296.308594 144.453125 296.308594 154.933594 C 296.308594 165.417969 290.921875 174.507812 282.253906 178.652344 L 281.941406 178.007812 C 290.367188 173.984375 295.597656 165.140625 295.597656 154.933594 C 295.597656 144.730469 290.367188 135.886719 281.941406 131.859375 L 282.253906 131.21875 "/><path style=" stroke:none;fill-rule:nonzero;fill:rgb(100%,87.059021%,34.899902%);fill-opacity:1;" d="M 277.464844 143.410156 C 281.25 145.757812 283.511719 150.066406 283.511719 154.933594 C 283.511719 159.804688 281.25 164.113281 277.464844 166.460938 L 277.089844 165.855469 C 280.664062 163.640625 282.796875 159.558594 282.796875 154.933594 C 282.796875 150.316406 280.664062 146.234375 277.089844 144.015625 L 277.464844 143.410156 "/><path style=" stroke:none;fill-rule:nonzero;fill:rgb(100%,87.059021%,34.899902%);fill-opacity:1;" d="M 276.300781 151.488281 C 277.382812 153.617188 277.382812 156.257812 276.300781 158.382812 L 275.667969 158.058594 C 276.644531 156.132812 276.644531 153.738281 275.667969 151.8125 L 276.300781 151.488281 "/><g clip-rule="nonzero"><path style=" stroke:none;fill-rule:nonzero;fill:rgb(100%,87.059021%,34.899902%);fill-opacity:1;" d="M 369.402344 1.167969 C 394.9375 17.003906 415.820312 40.101562 429.789062 67.953125 C 442.953125 94.203125 449.910156 124.28125 449.910156 154.933594 C 449.910156 185.589844 442.953125 215.667969 429.789062 241.917969 C 415.820312 269.769531 394.9375 292.863281 369.402344 308.699219 L 369.027344 308.097656 C 419.226562 276.960938 449.199219 219.707031 449.199219 154.933594 C 449.199219 90.164062 419.226562 32.910156 369.027344 1.773438 L 369.402344 1.167969 "/></g><path style=" stroke:none;fill-rule:nonzero;fill:rgb(100%,87.059021%,34.899902%);fill-opacity:1;" d="M 267.078125 234.597656 C 268.394531 234.660156 269.726562 234.691406 271.046875 234.691406 L 271.046875 235.492188 C 269.714844 235.492188 268.363281 235.460938 267.039062 235.394531 Z M 259.175781 233.8125 C 260.480469 234.007812 261.808594 234.175781 263.117188 234.304688 L 263.039062 235.101562 C 261.714844 234.964844 260.375 234.800781 259.058594 234.605469 Z M 251.386719 232.25 C 252.667969 232.574219 253.96875 232.867188 255.261719 233.128906 L 255.105469 233.914062 C 253.800781 233.652344 252.484375 233.351562 251.195312 233.023438 Z M 243.789062 229.90625 C 245.027344 230.355469 246.296875 230.785156 247.5625 231.171875 L 247.332031 231.9375 C 246.046875 231.542969 244.765625 231.113281 243.515625 230.65625 Z M 236.460938 226.804688 C 237.644531 227.378906 238.867188 227.933594 240.085938 228.449219 L 239.777344 229.1875 C 238.542969 228.664062 237.308594 228.105469 236.113281 227.527344 Z M 229.480469 222.992188 C 230.601562 223.683594 231.757812 224.351562 232.921875 224.988281 L 232.539062 225.6875 C 231.363281 225.046875 230.191406 224.371094 229.0625 223.671875 Z M 222.917969 218.503906 C 223.96875 219.300781 225.054688 220.085938 226.140625 220.832031 L 225.691406 221.492188 C 224.59375 220.738281 223.496094 219.949219 222.433594 219.140625 Z M 216.832031 213.382812 C 217.804688 214.289062 218.804688 215.171875 219.808594 216.019531 L 219.296875 216.632812 C 218.277344 215.777344 217.269531 214.882812 216.289062 213.972656 Z M 211.285156 207.695312 C 212.167969 208.6875 213.074219 209.667969 213.988281 210.609375 L 213.417969 211.167969 C 212.496094 210.21875 211.578125 209.230469 210.6875 208.226562 Z M 206.335938 201.484375 C 207.101562 202.550781 207.910156 203.617188 208.734375 204.648438 L 208.109375 205.148438 C 207.277344 204.105469 206.464844 203.03125 205.6875 201.953125 Z M 202.023438 194.816406 C 202.6875 195.960938 203.382812 197.101562 204.097656 198.203125 L 203.425781 198.636719 C 202.707031 197.523438 202 196.371094 201.332031 195.214844 Z M 198.394531 187.753906 C 198.9375 188.953125 199.519531 190.15625 200.121094 191.332031 L 199.414062 191.695312 C 198.800781 190.507812 198.214844 189.292969 197.667969 188.085938 Z M 195.492188 180.363281 C 195.914062 181.609375 196.371094 182.871094 196.855469 184.097656 L 196.109375 184.394531 C 195.621094 183.148438 195.160156 181.878906 194.734375 180.617188 Z M 193.339844 172.710938 C 193.636719 174.003906 193.964844 175.296875 194.320312 176.566406 L 193.554688 176.785156 C 193.195312 175.5 192.859375 174.191406 192.5625 172.890625 Z M 191.964844 164.878906 C 192.128906 166.203125 192.332031 167.523438 192.554688 168.8125 L 191.769531 168.953125 C 191.539062 167.648438 191.339844 166.3125 191.171875 164.980469 Z M 191.375 156.953125 C 191.40625 158.269531 191.472656 159.605469 191.570312 160.921875 L 190.773438 160.984375 C 190.675781 159.652344 190.609375 158.304688 190.574219 156.972656 Z M 190.765625 148.945312 L 191.5625 149 C 191.464844 150.308594 191.402344 151.644531 191.371094 152.972656 L 190.570312 152.953125 C 190.601562 151.613281 190.667969 150.265625 190.765625 148.945312 Z M 191.746094 140.972656 L 192.53125 141.109375 C 192.304688 142.402344 192.109375 143.726562 191.949219 145.042969 L 191.15625 144.945312 C 191.320312 143.617188 191.519531 142.277344 191.746094 140.972656 Z M 193.515625 133.140625 L 194.285156 133.355469 C 193.929688 134.625 193.601562 135.925781 193.3125 137.210938 L 192.53125 137.035156 C 192.828125 135.734375 193.15625 134.421875 193.515625 133.140625 Z M 196.0625 125.515625 L 196.808594 125.804688 C 196.328125 127.039062 195.867188 128.300781 195.453125 129.554688 L 194.695312 129.300781 C 195.117188 128.03125 195.578125 126.757812 196.0625 125.515625 Z M 199.367188 118.179688 L 200.078125 118.542969 C 199.476562 119.722656 198.894531 120.925781 198.351562 122.132812 L 197.621094 121.804688 C 198.171875 120.585938 198.757812 119.371094 199.367188 118.179688 Z M 203.382812 111.214844 L 204.054688 111.648438 C 203.335938 112.757812 202.636719 113.90625 201.980469 115.046875 L 201.289062 114.648438 C 201.953125 113.492188 202.660156 112.339844 203.382812 111.214844 Z M 208.070312 104.691406 L 208.691406 105.191406 C 207.867188 106.222656 207.0625 107.292969 206.292969 108.359375 L 205.644531 107.894531 C 206.421875 106.8125 207.238281 105.734375 208.070312 104.691406 Z M 213.378906 98.664062 L 213.949219 99.222656 C 213.023438 100.171875 212.113281 101.152344 211.246094 102.140625 L 210.648438 101.609375 C 211.523438 100.617188 212.441406 99.625 213.378906 98.664062 Z M 219.246094 93.195312 L 219.761719 93.808594 C 218.753906 94.660156 217.75 95.546875 216.785156 96.441406 L 216.242188 95.859375 C 217.214844 94.949219 218.226562 94.054688 219.246094 93.195312 Z M 225.628906 88.339844 L 226.082031 89 C 224.996094 89.742188 223.914062 90.523438 222.859375 91.324219 L 222.378906 90.6875 C 223.441406 89.882812 224.535156 89.089844 225.628906 88.339844 Z M 232.457031 84.144531 L 232.839844 84.84375 C 231.691406 85.476562 230.539062 86.148438 229.410156 86.835938 L 228.992188 86.15625 C 230.132812 85.457031 231.296875 84.777344 232.457031 84.144531 Z M 239.664062 80.652344 L 239.976562 81.386719 C 238.769531 81.894531 237.554688 82.449219 236.367188 83.023438 L 236.019531 82.304688 C 237.21875 81.722656 238.449219 81.167969 239.664062 80.652344 Z M 247.191406 77.894531 L 247.425781 78.65625 C 246.167969 79.046875 244.902344 79.476562 243.664062 79.929688 L 243.390625 79.179688 C 244.636719 78.71875 245.917969 78.289062 247.191406 77.894531 Z M 254.960938 75.90625 L 255.121094 76.6875 C 253.824219 76.953125 252.523438 77.25 251.25 77.578125 L 251.050781 76.800781 C 252.335938 76.472656 253.652344 76.171875 254.960938 75.90625 Z M 262.894531 74.703125 L 262.972656 75.5 C 261.65625 75.632812 260.332031 75.796875 259.03125 75.996094 L 258.914062 75.203125 C 260.226562 75.003906 261.566406 74.835938 262.894531 74.703125 Z M 270.902344 74.292969 L 270.902344 75.09375 C 269.585938 75.097656 268.25 75.132812 266.933594 75.199219 L 266.890625 74.402344 C 268.222656 74.332031 269.574219 74.296875 270.902344 74.292969 "/><path style=" stroke:none;fill-rule:nonzero;fill:rgb(100%,87.059021%,34.899902%);fill-opacity:1;" d="M 271.046875 85.21875 L 271.046875 87.359375 C 233.855469 87.359375 203.597656 117.65625 203.597656 154.894531 C 203.597656 192.132812 233.855469 222.429688 271.046875 222.429688 L 271.046875 224.570312 C 232.679688 224.570312 201.457031 193.3125 201.457031 154.894531 C 201.457031 116.472656 232.679688 85.21875 271.046875 85.21875 "/><path style=" stroke:none;fill-rule:nonzero;fill:rgb(100%,87.059021%,34.899902%);fill-opacity:1;" d="M 271.046875 101.050781 C 300.699219 101.050781 324.824219 125.207031 324.824219 154.894531 C 324.824219 184.582031 300.699219 208.734375 271.046875 208.734375 C 241.394531 208.734375 217.273438 184.582031 217.273438 154.894531 L 222.277344 154.894531 C 222.277344 181.820312 244.15625 203.726562 271.046875 203.726562 C 297.941406 203.726562 319.816406 181.820312 319.816406 154.894531 C 319.816406 127.96875 297.941406 106.0625 271.046875 106.0625 C 260.550781 106.0625 250.546875 109.351562 242.125 115.574219 L 239.15625 111.542969 C 248.445312 104.679688 259.472656 101.050781 271.046875 101.050781 "/><path style=" stroke:none;fill-rule:nonzero;fill:rgb(100%,87.059021%,34.899902%);fill-opacity:1;" d="M 170.050781 154.894531 L 174.324219 154.894531 C 174.324219 208.296875 217.714844 251.738281 271.046875 251.738281 L 271.046875 256.019531 C 215.355469 256.019531 170.050781 210.65625 170.050781 154.894531 "/><path style=" stroke:none;fill-rule:nonzero;fill:rgb(100%,87.059021%,34.899902%);fill-opacity:1;" d="M 98.492188 140.933594 L 230.207031 140.933594 L 243.796875 154.539062 L 271.046875 154.539062 L 271.046875 155.25 L 243.5 155.25 L 229.914062 141.644531 L 100.210938 141.644531 L 125.511719 166.980469 L 125.511719 190.113281 L 56.597656 190.113281 L 56.597656 189.398438 L 124.800781 189.398438 L 124.800781 167.277344 L 98.492188 140.933594 "/><path style=" stroke:none;fill-rule:nonzero;fill:rgb(100%,87.059021%,34.899902%);fill-opacity:1;" d="M 76.90625 124.742188 L 112.410156 124.742188 L 125.386719 137.738281 L 232.347656 137.738281 L 245.933594 151.339844 L 271.046875 151.339844 L 271.046875 152.054688 L 245.636719 152.054688 L 232.050781 138.453125 L 125.09375 138.453125 L 112.117188 125.457031 L 77.617188 125.457031 L 77.617188 158.898438 L 7.070312 158.898438 L 7.070312 158.1875 L 76.90625 158.1875 L 76.90625 124.742188 "/><path style=" stroke:none;fill-rule:nonzero;fill:rgb(100%,87.059021%,34.899902%);fill-opacity:1;" d="M 35.21875 109.492188 L 139.046875 109.492188 L 159.710938 130.183594 L 271.046875 130.183594 L 271.046875 130.894531 L 159.417969 130.894531 L 138.75 110.207031 L 35.21875 110.207031 L 35.21875 109.492188 "/><path style=" stroke:none;fill-rule:nonzero;fill:rgb(100%,87.059021%,34.899902%);fill-opacity:1;" d="M 65.042969 167.148438 L 76.085938 178.207031 L 75.582031 178.710938 L 64.539062 167.652344 L 65.042969 167.148438 "/><path style=" stroke:none;fill-rule:nonzero;fill:rgb(100%,87.059021%,34.899902%);fill-opacity:1;" d="M 59.519531 167.148438 L 70.5625 178.207031 L 70.058594 178.710938 L 59.015625 167.652344 L 59.519531 167.148438 "/><path style=" stroke:none;fill-rule:nonzero;fill:rgb(100%,87.059021%,34.899902%);fill-opacity:1;" d="M 53.996094 167.148438 L 65.042969 178.207031 L 64.539062 178.710938 L 53.492188 167.652344 L 53.996094 167.148438 "/><g clip-rule="nonzero"><path style=" stroke:none;fill-rule:nonzero;fill:rgb(100%,87.059021%,34.899902%);fill-opacity:1;" d="M 4.621094 154.570312 L 8.589844 158.542969 L 4.621094 162.515625 L 0.652344 158.542969 L 4.621094 154.570312 "/></g><path style=" stroke:none;fill-rule:nonzero;fill:rgb(100%,87.059021%,34.899902%);fill-opacity:1;" d="M 54.503906 185.785156 L 58.46875 189.757812 L 54.503906 193.726562 L 50.535156 189.757812 L 54.503906 185.785156 "/><path style=" stroke:none;fill-rule:nonzero;fill:rgb(100%,87.059021%,34.899902%);fill-opacity:1;" d="M 35.21875 154.570312 L 39.183594 158.542969 L 35.21875 162.515625 L 31.25 158.542969 L 35.21875 154.570312 "/><path style=" stroke:none;fill-rule:nonzero;fill:rgb(100%,87.059021%,34.899902%);fill-opacity:1;" d="M 77.304688 121.128906 L 81.273438 125.097656 L 77.304688 129.074219 L 73.335938 125.097656 L 77.304688 121.128906 "/><path style=" stroke:none;fill-rule:nonzero;fill:rgb(100%,87.059021%,34.899902%);fill-opacity:1;" d="M 124.707031 185.785156 L 128.679688 189.757812 L 124.707031 193.726562 L 120.742188 189.757812 L 124.707031 185.785156 "/><path style=" stroke:none;fill-rule:nonzero;fill:rgb(100%,87.059021%,34.899902%);fill-opacity:1;" d="M 139.058594 105.878906 L 143.03125 109.847656 L 139.058594 113.820312 L 135.09375 109.847656 L 139.058594 105.878906 "/><path style=" stroke:none;fill-rule:nonzero;fill:rgb(100%,87.059021%,34.899902%);fill-opacity:1;" d="M 248.976562 126.566406 L 252.945312 130.539062 L 248.976562 134.511719 L 245.007812 130.539062 L 248.976562 126.566406 "/><path style=" stroke:none;fill-rule:nonzero;fill:rgb(100%,87.059021%,34.899902%);fill-opacity:1;" d="M 33.304688 105.878906 L 37.269531 109.847656 L 33.304688 113.820312 L 29.335938 109.847656 L 33.304688 105.878906 "/><path style=" stroke:none;fill-rule:nonzero;fill:rgb(100%,87.059021%,34.899902%);fill-opacity:1;" d="M 112.214844 254.582031 C 116.140625 254.582031 119.339844 251.382812 119.339844 247.449219 C 119.339844 243.515625 116.140625 240.316406 112.214844 240.316406 C 108.28125 240.316406 105.085938 243.515625 105.085938 247.449219 C 105.085938 251.382812 108.28125 254.582031 112.214844 254.582031 Z M 112.214844 239.601562 C 116.535156 239.601562 120.050781 243.121094 120.050781 247.449219 C 120.050781 251.777344 116.535156 255.296875 112.214844 255.296875 C 107.890625 255.296875 104.375 251.777344 104.375 247.449219 C 104.375 243.121094 107.890625 239.601562 112.214844 239.601562 "/><path style=" stroke:none;fill-rule:nonzero;fill:rgb(100%,87.059021%,34.899902%);fill-opacity:1;" d="M 111.855469 237.460938 L 112.570312 237.460938 L 112.570312 239.957031 L 111.855469 239.957031 L 111.855469 237.460938 "/><path style=" stroke:none;fill-rule:nonzero;fill:rgb(100%,87.059021%,34.899902%);fill-opacity:1;" d="M 111.855469 255.117188 L 112.570312 255.117188 L 112.570312 257.617188 L 111.855469 257.617188 L 111.855469 255.117188 "/><path style=" stroke:none;fill-rule:nonzero;fill:rgb(100%,87.059021%,34.899902%);fill-opacity:1;" d="M 102.148438 247.179688 L 104.640625 247.179688 L 104.640625 247.894531 L 102.148438 247.894531 L 102.148438 247.179688 "/><path style=" stroke:none;fill-rule:nonzero;fill:rgb(100%,87.059021%,34.899902%);fill-opacity:1;" d="M 119.785156 247.179688 L 122.277344 247.179688 L 122.277344 247.894531 L 119.785156 247.894531 L 119.785156 247.179688 "/><path style=" stroke:none;fill-rule:nonzero;fill:rgb(100%,87.059021%,34.899902%);fill-opacity:1;" d="M 190.949219 73.359375 C 194.878906 73.359375 198.074219 70.15625 198.074219 66.226562 C 198.074219 62.289062 194.878906 59.089844 190.949219 59.089844 C 187.019531 59.089844 183.820312 62.289062 183.820312 66.226562 C 183.820312 70.15625 187.019531 73.359375 190.949219 73.359375 Z M 190.949219 58.378906 C 195.269531 58.378906 198.785156 61.898438 198.785156 66.226562 C 198.785156 70.550781 195.269531 74.074219 190.949219 74.074219 C 186.628906 74.074219 183.109375 70.550781 183.109375 66.226562 C 183.109375 61.898438 186.628906 58.378906 190.949219 58.378906 "/><path style=" stroke:none;fill-rule:nonzero;fill:rgb(100%,87.059021%,34.899902%);fill-opacity:1;" d="M 190.589844 56.238281 L 191.304688 56.238281 L 191.304688 58.734375 L 190.589844 58.734375 L 190.589844 56.238281 "/><path style=" stroke:none;fill-rule:nonzero;fill:rgb(100%,87.059021%,34.899902%);fill-opacity:1;" d="M 190.589844 73.894531 L 191.304688 73.894531 L 191.304688 76.390625 L 190.589844 76.390625 L 190.589844 73.894531 "/><path style=" stroke:none;fill-rule:nonzero;fill:rgb(100%,87.059021%,34.899902%);fill-opacity:1;" d="M 180.882812 65.957031 L 183.375 65.957031 L 183.375 66.671875 L 180.882812 66.671875 L 180.882812 65.957031 "/><path style=" stroke:none;fill-rule:nonzero;fill:rgb(100%,87.059021%,34.899902%);fill-opacity:1;" d="M 198.519531 65.957031 L 201.011719 65.957031 L 201.011719 66.671875 L 198.519531 66.671875 L 198.519531 65.957031 "/><path style=" stroke:none;fill-rule:nonzero;fill:rgb(100%,87.059021%,34.899902%);fill-opacity:1;" d="M 97.617188 66.871094 L 98.121094 67.375 L 88.796875 76.707031 L 98.121094 86.039062 L 97.617188 86.542969 L 87.792969 76.707031 L 97.617188 66.871094 "/><path style=" stroke:none;fill-rule:nonzero;fill:rgb(100%,87.059021%,34.899902%);fill-opacity:1;" d="M 98.308594 84.589844 C 98.898438 85.179688 98.898438 86.144531 98.308594 86.734375 C 97.722656 87.324219 96.757812 87.324219 96.167969 86.734375 C 95.578125 86.144531 95.578125 85.179688 96.167969 84.589844 C 96.757812 84 97.722656 84 98.308594 84.589844 "/><path style=" stroke:none;fill-rule:nonzero;fill:rgb(100%,87.059021%,34.899902%);fill-opacity:1;" d="M 98.9375 66.050781 C 99.527344 66.636719 99.527344 67.601562 98.9375 68.191406 C 98.351562 68.785156 97.386719 68.785156 96.796875 68.191406 C 96.207031 67.601562 96.207031 66.636719 96.796875 66.050781 C 97.386719 65.460938 98.351562 65.460938 98.9375 66.050781 "/><path style=" stroke:none;fill-rule:nonzero;fill:rgb(100%,87.059021%,34.899902%);fill-opacity:1;" d="M 154.632812 213.347656 L 164.457031 223.1875 L 154.632812 233.019531 L 154.128906 232.515625 L 163.449219 223.1875 L 154.128906 213.851562 L 154.632812 213.347656 "/><path style=" stroke:none;fill-rule:nonzero;fill:rgb(100%,87.059021%,34.899902%);fill-opacity:1;" d="M 153.9375 215.300781 C 153.351562 214.710938 153.351562 213.746094 153.9375 213.160156 C 154.527344 212.566406 155.492188 212.566406 156.082031 213.160156 C 156.667969 213.746094 156.667969 214.710938 156.082031 215.300781 C 155.492188 215.890625 154.527344 215.890625 153.9375 215.300781 "/><path style=" stroke:none;fill-rule:nonzero;fill:rgb(100%,87.059021%,34.899902%);fill-opacity:1;" d="M 153.308594 233.839844 C 152.722656 233.253906 152.722656 232.289062 153.308594 231.699219 C 153.898438 231.105469 154.863281 231.105469 155.453125 231.699219 C 156.039062 232.289062 156.039062 233.253906 155.453125 233.839844 C 154.863281 234.429688 153.898438 234.429688 153.308594 233.839844 "/></g></defs><g xml:id="surface1" id="surface1"><use transform="matrix(1,0,0,1,575,319)" xmlns:xlink="http://www.w3.org/1999/xlink" xlink:href="#surface5" xlink:type="simple" mask="url(#mask0)" xlink:actuate="onLoad" xlink:show="embed"/><g clip-rule="nonzero"><path style=" stroke:none;fill-rule:nonzero;fill:rgb(13.729858%,12.159729%,12.548828%);fill-opacity:1;" d="M 620.066406 485.652344 C 619.761719 485.652344 619.515625 485.40625 619.515625 485.101562 L 619.515625 473.75 C 619.515625 473.445312 619.761719 473.199219 620.066406 473.199219 C 620.367188 473.199219 620.613281 473.445312 620.613281 473.75 L 620.613281 485.101562 C 620.613281 485.40625 620.367188 485.652344 620.066406 485.652344 "/></g><g clip-rule="nonzero"><path style=" stroke:none;fill-rule:nonzero;fill:rgb(13.729858%,12.159729%,12.548828%);fill-opacity:1;" d="M 625.742188 479.972656 L 614.386719 479.972656 C 614.085938 479.972656 613.839844 479.730469 613.839844 479.425781 C 613.839844 479.121094 614.085938 478.878906 614.386719 478.878906 L 625.742188 478.878906 C 626.046875 478.878906 626.289062 479.121094 626.289062 479.425781 C 626.289062 479.730469 626.046875 479.972656 625.742188 479.972656 "/></g><g clip-rule="nonzero"><path style=" stroke:none;fill-rule:nonzero;fill:rgb(0%,0%,0%);fill-opacity:1;" d="M 620.921875 518.554688 L 624.671875 514.773438 C 624.773438 514.671875 624.773438 514.507812 624.671875 514.40625 C 624.570312 514.304688 624.410156 514.304688 624.308594 514.40625 L 620.558594 518.1875 L 616.808594 514.40625 C 616.707031 514.304688 616.546875 514.304688 616.445312 514.40625 C 616.34375 514.507812 616.34375 514.671875 616.445312 514.773438 L 620.195312 518.554688 L 616.445312 522.335938 C 616.34375 522.4375 616.34375 522.605469 616.445312 522.707031 C 616.496094 522.757812 616.5625 522.78125 616.625 522.78125 C 616.691406 522.78125 616.757812 522.757812 616.808594 522.707031 L 620.558594 518.921875 L 624.308594 522.707031 C 624.359375 522.757812 624.425781 522.78125 624.492188 522.78125 C 624.554688 522.78125 624.621094 522.757812 624.671875 522.707031 C 624.773438 522.605469 624.773438 522.4375 624.671875 522.335938 Z M 620.921875 518.554688 "/></g><g clip-rule="nonzero"><path style=" stroke:none;fill-rule:nonzero;fill:rgb(0%,0%,0%);fill-opacity:1;" d="M 620.921875 532.464844 L 624.671875 528.683594 C 624.773438 528.582031 624.773438 528.417969 624.671875 528.316406 C 624.570312 528.214844 624.410156 528.214844 624.308594 528.316406 L 620.558594 532.097656 L 616.808594 528.316406 C 616.707031 528.214844 616.546875 528.214844 616.445312 528.316406 C 616.34375 528.417969 616.34375 528.582031 616.445312 528.683594 L 620.195312 532.464844 L 616.445312 536.246094 C 616.34375 536.347656 616.34375 536.511719 616.445312 536.617188 C 616.496094 536.664062 616.5625 536.691406 616.625 536.691406 C 616.691406 536.691406 616.757812 536.664062 616.808594 536.617188 L 620.558594 532.832031 L 624.308594 536.617188 C 624.359375 536.664062 624.425781 536.691406 624.492188 536.691406 C 624.554688 536.691406 624.621094 536.664062 624.671875 536.617188 C 624.773438 536.515625 624.773438 536.347656 624.671875 536.246094 Z M 620.921875 532.464844 "/></g><g clip-rule="nonzero"><path style=" stroke:none;fill-rule:nonzero;fill:rgb(0%,0%,0%);fill-opacity:1;" d="M 620.921875 548.378906 L 624.671875 544.59375 C 624.773438 544.492188 624.773438 544.328125 624.671875 544.226562 C 624.570312 544.125 624.410156 544.125 624.308594 544.226562 L 620.558594 548.007812 L 616.808594 544.226562 C 616.707031 544.125 616.546875 544.125 616.445312 544.226562 C 616.34375 544.328125 616.34375 544.492188 616.445312 544.59375 L 620.195312 548.378906 L 616.445312 552.160156 C 616.34375 552.261719 616.34375 552.425781 616.445312 552.527344 C 616.496094 552.578125 616.5625 552.605469 616.625 552.605469 C 616.691406 552.605469 616.757812 552.578125 616.808594 552.527344 L 620.558594 548.746094 L 624.308594 552.527344 C 624.359375 552.578125 624.425781 552.605469 624.492188 552.605469 C 624.554688 552.605469 624.621094 552.578125 624.671875 552.527344 C 624.773438 552.425781 624.773438 552.261719 624.671875 552.160156 Z M 620.921875 548.378906 "/></g><g clip-rule="nonzero"><path style=" stroke:none;fill-rule:nonzero;fill:rgb(0%,0%,0%);fill-opacity:1;" d="M 620.921875 564.8125 L 624.671875 561.03125 C 624.773438 560.929688 624.773438 560.765625 624.671875 560.664062 C 624.570312 560.5625 624.410156 560.5625 624.308594 560.664062 L 620.558594 564.445312 L 616.808594 560.664062 C 616.707031 560.5625 616.546875 560.5625 616.445312 560.664062 C 616.34375 560.765625 616.34375 560.929688 616.445312 561.03125 L 620.195312 564.8125 L 616.445312 568.597656 C 616.34375 568.699219 616.34375 568.863281 616.445312 568.964844 C 616.496094 569.015625 616.5625 569.039062 616.625 569.039062 C 616.691406 569.039062 616.757812 569.015625 616.808594 568.964844 L 620.558594 565.183594 L 624.308594 568.964844 C 624.359375 569.015625 624.425781 569.039062 624.492188 569.039062 C 624.554688 569.039062 624.621094 569.015625 624.671875 568.964844 C 624.773438 568.863281 624.773438 568.699219 624.671875 568.597656 Z M 620.921875 564.8125 "/></g></g></svg>