<?xml version="1.0" encoding="UTF-8"?>
<svg xmlns="http://www.w3.org/2000/svg" xmlns:xlink="http://www.w3.org/1999/xlink" width="375pt" height="374.999991pt" viewBox="0 0 375 374.999991" version="1.2">
<defs>
<clipPath id="clip1">
  <path d="M 145.304688 150 L 225 150 L 225 253.878906 L 145.304688 253.878906 Z M 145.304688 150 "/>
</clipPath>
<clipPath id="clip2">
  <path d="M 168 162.730469 L 211.488281 162.730469 L 211.488281 206.230469 L 168 206.230469 Z M 168 162.730469 "/>
</clipPath>
</defs>
<g id="surface1">
<path style=" stroke:none;fill-rule:nonzero;fill:rgb(100%,8.628845%,8.628845%);fill-opacity:1;" d="M 180.386719 193.179688 C 180.386719 190.746094 182.359375 188.761719 184.78125 188.761719 C 187.207031 188.761719 189.175781 190.746094 189.175781 193.179688 C 189.175781 195.617188 187.207031 197.601562 184.78125 197.601562 C 182.359375 197.601562 180.386719 195.617188 180.386719 193.179688 Z M 180.386719 193.179688 "/>
<path style=" stroke:none;fill-rule:nonzero;fill:rgb(100%,8.628845%,8.628845%);fill-opacity:1;" d="M 168.960938 170.195312 C 168.960938 167.761719 170.933594 165.777344 173.355469 165.777344 C 175.78125 165.777344 177.75 167.761719 177.75 170.195312 C 177.75 172.632812 175.78125 174.617188 173.355469 174.617188 C 170.933594 174.617188 168.960938 172.632812 168.960938 170.195312 Z M 168.960938 170.195312 "/>
<path style=" stroke:none;fill-rule:nonzero;fill:rgb(100%,8.628845%,8.628845%);fill-opacity:1;" d="M 208.121094 192.203125 C 208.121094 194.640625 206.152344 196.625 203.726562 196.625 C 201.304688 196.625 199.332031 194.640625 199.332031 192.203125 C 199.332031 189.765625 201.304688 187.785156 203.726562 187.785156 C 206.152344 187.785156 208.121094 189.765625 208.121094 192.203125 Z M 208.121094 192.203125 "/>
<g clip-path="url(#clip1)" clip-rule="nonzero">
<path style=" stroke:none;fill-rule:nonzero;fill:rgb(100%,8.628845%,8.628845%);fill-opacity:1;" d="M 215.703125 212.902344 C 213.617188 215.441406 212.46875 218.613281 212.46875 221.835938 L 212.46875 253.847656 L 172.183594 253.886719 L 172.183594 239.347656 C 172.183594 237.207031 170.453125 235.46875 168.324219 235.46875 L 156.949219 235.46875 C 154.203125 235.46875 151.96875 233.21875 151.96875 230.457031 L 151.96875 217.660156 L 186.101562 217.660156 L 186.101562 209.609375 L 205.046875 209.609375 L 205.046875 199.148438 C 208.292969 198.523438 210.757812 195.648438 210.757812 192.203125 C 210.757812 188.757812 208.292969 185.882812 205.046875 185.261719 L 205.046875 183.527344 C 208.292969 182.90625 210.757812 180.03125 210.757812 176.585938 C 210.757812 172.6875 207.605469 169.511719 203.726562 169.511719 C 199.851562 169.511719 196.695312 172.6875 196.695312 176.585938 C 196.695312 180.03125 199.160156 182.90625 202.410156 183.527344 L 202.410156 185.261719 C 199.160156 185.882812 196.695312 188.757812 196.695312 192.203125 C 196.695312 195.648438 199.160156 198.523438 202.410156 199.148438 L 202.410156 206.957031 L 186.101562 206.957031 L 186.101562 200.125 C 189.351562 199.5 191.8125 196.628906 191.8125 193.179688 C 191.8125 189.28125 188.660156 186.109375 184.78125 186.109375 C 180.90625 186.109375 177.75 189.28125 177.75 193.179688 C 177.75 196.628906 180.214844 199.5 183.464844 200.125 L 183.464844 206.957031 L 149.433594 206.957031 C 148.003906 206.957031 146.707031 206.167969 146.046875 204.894531 C 145.386719 203.621094 145.480469 202.097656 146.296875 200.917969 L 150.832031 194.367188 C 151.398438 193.546875 151.410156 192.480469 150.859375 191.652344 C 150.421875 190.992188 150.121094 190.257812 149.953125 189.496094 L 174.675781 189.496094 L 174.675781 177.140625 C 177.921875 176.515625 180.386719 173.644531 180.386719 170.195312 C 180.386719 166.296875 177.234375 163.125 173.355469 163.125 C 169.480469 163.125 166.324219 166.296875 166.324219 170.195312 C 166.324219 173.644531 168.789062 176.515625 172.039062 177.140625 L 172.039062 186.847656 L 149.917969 186.847656 C 149.9375 186.753906 149.949219 186.660156 149.96875 186.570312 L 154.203125 169.148438 C 154.546875 167.714844 155.140625 166.410156 155.960938 165.257812 C 159.527344 160.261719 170.285156 148.878906 193.113281 151.046875 C 203.289062 152.019531 211.570312 156.839844 217.0625 164.992188 C 224.253906 175.667969 225.46875 190.558594 222.964844 199.152344 C 221.132812 205.4375 218.003906 210.097656 215.703125 212.902344 Z M 215.703125 212.902344 "/>
</g>
<path style=" stroke:none;fill-rule:nonzero;fill:rgb(100%,8.628845%,8.628845%);fill-opacity:1;" d="M 199.332031 176.585938 C 199.332031 174.148438 201.304688 172.164062 203.726562 172.164062 C 206.152344 172.164062 208.121094 174.148438 208.121094 176.585938 C 208.121094 179.023438 206.152344 181.003906 203.726562 181.003906 C 201.304688 181.003906 199.332031 179.023438 199.332031 176.585938 Z M 199.332031 176.585938 "/>
<path style=" stroke:none;fill-rule:nonzero;fill:rgb(100%,8.628845%,8.628845%);fill-opacity:1;" d="M 183.464844 209.609375 L 151.96875 209.609375 L 151.96875 215.007812 L 183.464844 215.007812 Z M 183.464844 209.609375 "/>
<path style=" stroke:none;fill-rule:nonzero;fill:rgb(100%,8.628845%,8.628845%);fill-opacity:1;" d="M 187.8125 156.523438 C 186.839844 156.523438 185.871094 156.570312 184.898438 156.664062 C 183.929688 156.761719 182.96875 156.902344 182.015625 157.09375 C 181.058594 157.285156 180.117188 157.519531 179.183594 157.800781 C 178.253906 158.085938 177.335938 158.414062 176.4375 158.785156 C 175.539062 159.15625 174.660156 159.574219 173.800781 160.03125 C 172.941406 160.492188 172.109375 160.992188 171.296875 161.53125 C 170.488281 162.074219 169.707031 162.652344 168.957031 163.269531 C 168.203125 163.886719 167.480469 164.539062 166.792969 165.230469 C 166.105469 165.917969 165.453125 166.636719 164.835938 167.390625 C 164.214844 168.144531 163.636719 168.925781 163.097656 169.734375 C 162.554688 170.542969 162.054688 171.378906 161.597656 172.238281 C 161.136719 173.09375 160.722656 173.972656 160.347656 174.875 C 159.976562 175.773438 159.648438 176.6875 159.367188 177.621094 C 159.082031 178.550781 158.847656 179.496094 158.65625 180.449219 C 158.46875 181.40625 158.324219 182.367188 158.230469 183.335938 C 158.132812 184.304688 158.085938 185.277344 158.085938 186.25 C 158.085938 187.222656 158.132812 188.195312 158.230469 189.164062 C 158.324219 190.132812 158.46875 191.09375 158.65625 192.050781 C 158.847656 193.003906 159.082031 193.949219 159.367188 194.878906 C 159.648438 195.8125 159.976562 196.726562 160.347656 197.625 C 160.722656 198.527344 161.136719 199.40625 161.597656 200.261719 C 162.054688 201.121094 162.554688 201.957031 163.097656 202.765625 C 163.636719 203.574219 164.214844 204.355469 164.835938 205.109375 C 165.453125 205.863281 166.105469 206.582031 166.792969 207.269531 C 167.480469 207.957031 168.203125 208.613281 168.957031 209.230469 C 169.707031 209.847656 170.488281 210.425781 171.296875 210.96875 C 172.109375 211.507812 172.941406 212.007812 173.800781 212.46875 C 174.660156 212.925781 175.539062 213.34375 176.4375 213.714844 C 177.335938 214.085938 178.253906 214.414062 179.183594 214.699219 C 180.117188 214.980469 181.058594 215.214844 182.015625 215.40625 C 182.96875 215.597656 183.929688 215.738281 184.898438 215.835938 C 185.871094 215.929688 186.839844 215.976562 187.8125 215.976562 C 188.789062 215.976562 189.757812 215.929688 190.726562 215.835938 C 191.695312 215.738281 192.660156 215.597656 193.613281 215.40625 C 194.570312 215.214844 195.511719 214.980469 196.445312 214.699219 C 197.375 214.414062 198.289062 214.085938 199.191406 213.714844 C 200.089844 213.34375 200.96875 212.925781 201.828125 212.46875 C 202.6875 212.007812 203.519531 211.507812 204.328125 210.96875 C 205.140625 210.425781 205.921875 209.847656 206.671875 209.230469 C 207.425781 208.613281 208.144531 207.957031 208.835938 207.269531 C 209.523438 206.582031 210.175781 205.863281 210.792969 205.109375 C 211.410156 204.355469 211.992188 203.574219 212.53125 202.765625 C 213.074219 201.957031 213.574219 201.121094 214.03125 200.261719 C 214.492188 199.40625 214.90625 198.527344 215.277344 197.625 C 215.652344 196.726562 215.980469 195.8125 216.261719 194.878906 C 216.542969 193.949219 216.78125 193.003906 216.96875 192.050781 C 217.160156 191.09375 217.304688 190.132812 217.398438 189.164062 C 217.492188 188.195312 217.542969 187.222656 217.542969 186.25 C 217.542969 185.277344 217.492188 184.304688 217.398438 183.335938 C 217.304688 182.367188 217.160156 181.40625 216.96875 180.449219 C 216.78125 179.496094 216.542969 178.550781 216.261719 177.621094 C 215.980469 176.6875 215.652344 175.773438 215.277344 174.875 C 214.90625 173.972656 214.492188 173.09375 214.03125 172.238281 C 213.574219 171.378906 213.074219 170.542969 212.53125 169.734375 C 211.992188 168.925781 211.410156 168.144531 210.792969 167.390625 C 210.175781 166.636719 209.523438 165.917969 208.835938 165.230469 C 208.144531 164.539062 207.425781 163.886719 206.671875 163.269531 C 205.921875 162.652344 205.140625 162.074219 204.328125 161.53125 C 203.519531 160.992188 202.6875 160.492188 201.828125 160.03125 C 200.96875 159.574219 200.089844 159.15625 199.191406 158.785156 C 198.289062 158.414062 197.375 158.085938 196.445312 157.800781 C 195.511719 157.519531 194.570312 157.285156 193.613281 157.09375 C 192.660156 156.902344 191.695312 156.761719 190.726562 156.664062 C 189.757812 156.570312 188.789062 156.523438 187.8125 156.523438 Z M 187.8125 156.523438 "/>
<path style=" stroke:none;fill-rule:nonzero;fill:rgb(100%,8.628845%,8.628845%);fill-opacity:1;" d="M 209.84375 215.976562 C 209.84375 215.5 209.652344 215.023438 209.273438 214.554688 C 208.890625 214.085938 208.328125 213.628906 207.582031 213.1875 C 206.832031 212.746094 205.917969 212.324219 204.832031 211.925781 C 203.75 211.527344 202.515625 211.160156 201.136719 210.820312 C 199.757812 210.484375 198.253906 210.179688 196.632812 209.914062 C 195.007812 209.648438 193.296875 209.421875 191.492188 209.242188 C 189.6875 209.058594 187.832031 208.917969 185.914062 208.824219 C 184 208.730469 182.066406 208.683594 180.117188 208.683594 C 178.164062 208.683594 176.230469 208.730469 174.316406 208.824219 C 172.402344 208.917969 170.542969 209.058594 168.738281 209.242188 C 166.9375 209.421875 165.222656 209.648438 163.601562 209.914062 C 161.976562 210.179688 160.476562 210.484375 159.09375 210.820312 C 157.714844 211.160156 156.484375 211.527344 155.398438 211.925781 C 154.3125 212.324219 153.398438 212.746094 152.652344 213.1875 C 151.90625 213.628906 151.339844 214.085938 150.960938 214.554688 C 150.578125 215.023438 150.390625 215.5 150.390625 215.976562 C 150.390625 216.457031 150.578125 216.929688 150.960938 217.398438 C 151.339844 217.871094 151.90625 218.324219 152.652344 218.765625 C 153.398438 219.210938 154.3125 219.628906 155.398438 220.027344 C 156.484375 220.425781 157.714844 220.792969 159.09375 221.132812 C 160.476562 221.472656 161.976562 221.773438 163.601562 222.039062 C 165.222656 222.304688 166.9375 222.53125 168.738281 222.714844 C 170.542969 222.898438 172.402344 223.035156 174.316406 223.128906 C 176.230469 223.222656 178.164062 223.269531 180.117188 223.269531 C 182.066406 223.269531 184 223.222656 185.914062 223.128906 C 187.832031 223.035156 189.6875 222.898438 191.492188 222.714844 C 193.296875 222.53125 195.007812 222.304688 196.632812 222.039062 C 198.253906 221.773438 199.757812 221.472656 201.136719 221.132812 C 202.515625 220.792969 203.75 220.425781 204.832031 220.027344 C 205.917969 219.628906 206.832031 219.210938 207.582031 218.765625 C 208.328125 218.324219 208.890625 217.871094 209.273438 217.398438 C 209.652344 216.929688 209.84375 216.457031 209.84375 215.976562 Z M 209.84375 215.976562 "/>
<path style=" stroke:none;fill-rule:nonzero;fill:rgb(100%,8.628845%,8.628845%);fill-opacity:1;" d="M 209.84375 223.269531 C 209.84375 222.789062 209.652344 222.316406 209.273438 221.847656 C 208.890625 221.375 208.328125 220.921875 207.582031 220.476562 C 206.832031 220.035156 205.917969 219.617188 204.832031 219.21875 C 203.75 218.820312 202.515625 218.453125 201.136719 218.113281 C 199.757812 217.773438 198.253906 217.472656 196.632812 217.207031 C 195.007812 216.941406 193.296875 216.714844 191.492188 216.53125 C 189.6875 216.347656 187.832031 216.210938 185.914062 216.117188 C 184 216.023438 182.066406 215.976562 180.117188 215.976562 C 178.164062 215.976562 176.230469 216.023438 174.316406 216.117188 C 172.402344 216.210938 170.542969 216.347656 168.738281 216.53125 C 166.9375 216.714844 165.222656 216.941406 163.601562 217.207031 C 161.976562 217.472656 160.476562 217.773438 159.09375 218.113281 C 157.714844 218.453125 156.484375 218.820312 155.398438 219.21875 C 154.3125 219.617188 153.398438 220.035156 152.652344 220.476562 C 151.90625 220.921875 151.339844 221.375 150.960938 221.847656 C 150.578125 222.316406 150.390625 222.789062 150.390625 223.269531 C 150.390625 223.746094 150.578125 224.222656 150.960938 224.691406 C 151.339844 225.160156 151.90625 225.617188 152.652344 226.058594 C 153.398438 226.5 154.3125 226.921875 155.398438 227.320312 C 156.484375 227.71875 157.714844 228.085938 159.09375 228.425781 C 160.476562 228.761719 161.976562 229.066406 163.601562 229.332031 C 165.222656 229.597656 166.9375 229.820312 168.738281 230.003906 C 170.542969 230.1875 172.402344 230.328125 174.316406 230.421875 C 176.230469 230.515625 178.164062 230.558594 180.117188 230.558594 C 182.066406 230.558594 184 230.515625 185.914062 230.421875 C 187.832031 230.328125 189.6875 230.1875 191.492188 230.003906 C 193.296875 229.820312 195.007812 229.597656 196.632812 229.332031 C 198.253906 229.066406 199.757812 228.761719 201.136719 228.425781 C 202.515625 228.085938 203.75 227.71875 204.832031 227.320312 C 205.917969 226.921875 206.832031 226.5 207.582031 226.058594 C 208.328125 225.617188 208.890625 225.160156 209.273438 224.691406 C 209.652344 224.222656 209.84375 223.746094 209.84375 223.269531 Z M 209.84375 223.269531 "/>
<path style=" stroke:none;fill-rule:nonzero;fill:rgb(100%,8.628845%,8.628845%);fill-opacity:1;" d="M 209.84375 203.476562 C 209.84375 202.910156 209.796875 202.347656 209.703125 201.785156 C 209.605469 201.226562 209.464844 200.667969 209.273438 200.113281 C 209.085938 199.5625 208.847656 199.015625 208.566406 198.476562 C 208.28125 197.933594 207.957031 197.402344 207.582031 196.882812 C 207.210938 196.363281 206.792969 195.851562 206.335938 195.355469 C 205.875 194.855469 205.375 194.375 204.835938 193.90625 C 204.292969 193.433594 203.714844 192.984375 203.097656 192.546875 C 202.480469 192.109375 201.828125 191.691406 201.136719 191.292969 C 200.449219 190.894531 199.730469 190.515625 198.976562 190.160156 C 198.222656 189.800781 197.441406 189.464844 196.632812 189.152344 C 195.824219 188.839844 194.988281 188.546875 194.132812 188.28125 C 193.273438 188.015625 192.394531 187.773438 191.492188 187.558594 C 190.59375 187.34375 189.679688 187.152344 188.746094 186.988281 C 187.816406 186.824219 186.871094 186.6875 185.917969 186.578125 C 184.960938 186.46875 184 186.386719 183.03125 186.332031 C 182.0625 186.277344 181.089844 186.25 180.117188 186.25 C 179.144531 186.25 178.171875 186.277344 177.203125 186.332031 C 176.234375 186.386719 175.273438 186.46875 174.316406 186.578125 C 173.363281 186.6875 172.421875 186.824219 171.488281 186.988281 C 170.558594 187.152344 169.640625 187.34375 168.742188 187.558594 C 167.84375 187.773438 166.964844 188.015625 166.105469 188.28125 C 165.246094 188.546875 164.410156 188.839844 163.601562 189.152344 C 162.792969 189.464844 162.011719 189.800781 161.257812 190.160156 C 160.507812 190.515625 159.785156 190.894531 159.097656 191.292969 C 158.410156 191.691406 157.753906 192.109375 157.136719 192.546875 C 156.519531 192.984375 155.941406 193.433594 155.398438 193.90625 C 154.859375 194.375 154.359375 194.855469 153.902344 195.355469 C 153.441406 195.851562 153.027344 196.363281 152.652344 196.882812 C 152.28125 197.402344 151.953125 197.933594 151.671875 198.476562 C 151.386719 199.015625 151.152344 199.5625 150.960938 200.113281 C 150.773438 200.667969 150.628906 201.226562 150.535156 201.785156 C 150.4375 202.347656 150.390625 202.910156 150.390625 203.476562 C 150.390625 204.039062 150.4375 204.601562 150.535156 205.164062 C 150.628906 205.726562 150.773438 206.28125 150.960938 206.835938 C 151.152344 207.390625 151.386719 207.9375 151.671875 208.476562 C 151.953125 209.015625 152.28125 209.546875 152.652344 210.066406 C 153.027344 210.589844 153.441406 211.097656 153.902344 211.597656 C 154.359375 212.09375 154.859375 212.578125 155.398438 213.046875 C 155.941406 213.515625 156.519531 213.96875 157.136719 214.40625 C 157.753906 214.839844 158.410156 215.257812 159.097656 215.65625 C 159.785156 216.054688 160.507812 216.433594 161.257812 216.792969 C 162.011719 217.152344 162.792969 217.488281 163.601562 217.800781 C 164.410156 218.113281 165.246094 218.402344 166.105469 218.667969 C 166.964844 218.933594 167.84375 219.175781 168.742188 219.390625 C 169.640625 219.609375 170.558594 219.796875 171.488281 219.960938 C 172.421875 220.125 173.363281 220.261719 174.316406 220.371094 C 175.273438 220.480469 176.234375 220.566406 177.203125 220.621094 C 178.171875 220.675781 179.144531 220.703125 180.117188 220.703125 C 181.089844 220.703125 182.0625 220.675781 183.03125 220.621094 C 184 220.566406 184.960938 220.480469 185.917969 220.371094 C 186.871094 220.261719 187.816406 220.125 188.746094 219.960938 C 189.679688 219.796875 190.59375 219.609375 191.492188 219.390625 C 192.394531 219.175781 193.273438 218.933594 194.132812 218.667969 C 194.988281 218.402344 195.824219 218.113281 196.632812 217.800781 C 197.441406 217.488281 198.222656 217.152344 198.976562 216.792969 C 199.730469 216.433594 200.449219 216.054688 201.136719 215.65625 C 201.828125 215.257812 202.480469 214.839844 203.097656 214.40625 C 203.714844 213.96875 204.292969 213.515625 204.835938 213.046875 C 205.375 212.578125 205.875 212.09375 206.335938 211.597656 C 206.792969 211.097656 207.210938 210.589844 207.582031 210.066406 C 207.957031 209.546875 208.28125 209.015625 208.566406 208.476562 C 208.847656 207.9375 209.085938 207.390625 209.273438 206.835938 C 209.464844 206.28125 209.605469 205.726562 209.703125 205.164062 C 209.796875 204.601562 209.84375 204.039062 209.84375 203.476562 Z M 209.84375 203.476562 "/>
<path style=" stroke:none;fill-rule:nonzero;fill:rgb(100%,8.628845%,8.628845%);fill-opacity:1;" d="M 209.09375 186.246094 C 209.09375 185.683594 209.046875 185.121094 208.953125 184.558594 C 208.855469 183.996094 208.714844 183.441406 208.523438 182.886719 C 208.335938 182.332031 208.097656 181.785156 207.816406 181.246094 C 207.53125 180.707031 207.207031 180.175781 206.832031 179.65625 C 206.460938 179.132812 206.042969 178.625 205.585938 178.128906 C 205.125 177.628906 204.625 177.144531 204.085938 176.675781 C 203.542969 176.207031 202.964844 175.753906 202.347656 175.320312 C 201.730469 174.882812 201.078125 174.464844 200.386719 174.066406 C 199.699219 173.667969 198.980469 173.289062 198.226562 172.929688 C 197.472656 172.574219 196.691406 172.238281 195.882812 171.921875 C 195.074219 171.609375 194.238281 171.320312 193.382812 171.054688 C 192.523438 170.789062 191.644531 170.546875 190.742188 170.332031 C 189.84375 170.117188 188.929688 169.925781 187.996094 169.761719 C 187.066406 169.597656 186.121094 169.460938 185.167969 169.351562 C 184.210938 169.242188 183.25 169.160156 182.28125 169.101562 C 181.3125 169.046875 180.339844 169.019531 179.367188 169.019531 C 178.394531 169.019531 177.421875 169.046875 176.453125 169.101562 C 175.484375 169.160156 174.523438 169.242188 173.566406 169.351562 C 172.613281 169.460938 171.671875 169.597656 170.738281 169.761719 C 169.808594 169.925781 168.890625 170.117188 167.992188 170.332031 C 167.09375 170.546875 166.214844 170.789062 165.355469 171.054688 C 164.496094 171.320312 163.660156 171.609375 162.851562 171.921875 C 162.042969 172.238281 161.261719 172.574219 160.507812 172.929688 C 159.757812 173.289062 159.035156 173.667969 158.347656 174.066406 C 157.660156 174.464844 157.003906 174.882812 156.386719 175.320312 C 155.769531 175.753906 155.191406 176.207031 154.648438 176.675781 C 154.109375 177.144531 153.609375 177.628906 153.152344 178.128906 C 152.691406 178.625 152.277344 179.132812 151.902344 179.65625 C 151.53125 180.175781 151.203125 180.707031 150.921875 181.246094 C 150.636719 181.785156 150.402344 182.332031 150.210938 182.886719 C 150.023438 183.441406 149.878906 183.996094 149.785156 184.558594 C 149.6875 185.121094 149.640625 185.683594 149.640625 186.246094 C 149.640625 186.8125 149.6875 187.375 149.785156 187.9375 C 149.878906 188.5 150.023438 189.054688 150.210938 189.609375 C 150.402344 190.164062 150.636719 190.707031 150.921875 191.25 C 151.203125 191.789062 151.53125 192.320312 151.902344 192.839844 C 152.277344 193.363281 152.691406 193.871094 153.152344 194.367188 C 153.609375 194.867188 154.109375 195.351562 154.648438 195.820312 C 155.191406 196.289062 155.769531 196.742188 156.386719 197.175781 C 157.003906 197.613281 157.660156 198.03125 158.347656 198.429688 C 159.035156 198.828125 159.757812 199.207031 160.507812 199.566406 C 161.261719 199.921875 162.042969 200.257812 162.851562 200.570312 C 163.660156 200.886719 164.496094 201.175781 165.355469 201.441406 C 166.214844 201.707031 167.09375 201.949219 167.992188 202.164062 C 168.890625 202.378906 169.808594 202.570312 170.738281 202.734375 C 171.671875 202.898438 172.613281 203.035156 173.566406 203.144531 C 174.523438 203.253906 175.484375 203.335938 176.453125 203.394531 C 177.421875 203.449219 178.394531 203.476562 179.367188 203.476562 C 180.339844 203.476562 181.3125 203.449219 182.28125 203.394531 C 183.25 203.335938 184.210938 203.253906 185.167969 203.144531 C 186.121094 203.035156 187.066406 202.898438 187.996094 202.734375 C 188.929688 202.570312 189.84375 202.378906 190.742188 202.164062 C 191.644531 201.949219 192.523438 201.707031 193.382812 201.441406 C 194.238281 201.175781 195.074219 200.886719 195.882812 200.570312 C 196.691406 200.257812 197.472656 199.921875 198.226562 199.566406 C 198.980469 199.207031 199.699219 198.828125 200.386719 198.429688 C 201.078125 198.03125 201.730469 197.613281 202.347656 197.175781 C 202.964844 196.742188 203.542969 196.289062 204.085938 195.820312 C 204.625 195.351562 205.125 194.867188 205.585938 194.367188 C 206.042969 193.871094 206.460938 193.363281 206.832031 192.839844 C 207.207031 192.320312 207.53125 191.789062 207.816406 191.25 C 208.097656 190.710938 208.335938 190.164062 208.523438 189.609375 C 208.714844 189.054688 208.855469 188.5 208.953125 187.9375 C 209.046875 187.375 209.09375 186.8125 209.09375 186.246094 Z M 209.09375 186.246094 "/>
<g clip-path="url(#clip2)" clip-rule="nonzero">
<path style=" stroke:none;fill-rule:nonzero;fill:rgb(100%,100%,100%);fill-opacity:1;" d="M 210.65625 201.324219 L 206.578125 205.398438 C 205.75 206.230469 204.40625 206.230469 203.574219 205.398438 L 190.125 191.949219 C 189.910156 191.734375 189.5625 191.734375 189.347656 191.949219 L 175.894531 205.398438 C 175.066406 206.230469 173.71875 206.230469 172.890625 205.398438 L 168.816406 201.324219 C 167.984375 200.492188 167.984375 199.148438 168.816406 198.320312 L 182.265625 184.867188 C 182.480469 184.652344 182.480469 184.304688 182.265625 184.089844 L 168.816406 170.636719 C 167.984375 169.808594 167.984375 168.464844 168.816406 167.636719 L 172.890625 163.558594 C 173.71875 162.730469 175.066406 162.730469 175.894531 163.558594 L 189.347656 177.011719 C 189.5625 177.226562 189.910156 177.226562 190.125 177.011719 L 203.574219 163.558594 C 204.40625 162.730469 205.75 162.730469 206.578125 163.558594 L 210.65625 167.636719 C 211.484375 168.464844 211.484375 169.808594 210.65625 170.636719 L 197.203125 184.089844 C 196.988281 184.304688 196.988281 184.652344 197.203125 184.867188 L 210.65625 198.320312 C 211.484375 199.148438 211.484375 200.492188 210.65625 201.324219 "/>
</g>
</g>
</svg>
