<?xml version="1.0" encoding="UTF-8"?>
<svg xmlns="http://www.w3.org/2000/svg" xmlns:xlink="http://www.w3.org/1999/xlink" width="375pt" height="374.999991pt" viewBox="0 0 375 374.999991" version="1.2">
<defs>
<clipPath id="clip1">
  <path d="M 145.664062 147 L 225 147 L 225 250.960938 L 145.664062 250.960938 Z M 145.664062 147 "/>
</clipPath>
</defs>
<g id="surface1">
<path style=" stroke:none;fill-rule:nonzero;fill:rgb(0%,0%,0%);fill-opacity:1;" d="M 180.589844 190.320312 C 180.589844 187.878906 182.554688 185.894531 184.964844 185.894531 C 187.378906 185.894531 189.339844 187.878906 189.339844 190.320312 C 189.339844 192.757812 187.378906 194.746094 184.964844 194.746094 C 182.554688 194.746094 180.589844 192.757812 180.589844 190.320312 Z M 180.589844 190.320312 "/>
<path style=" stroke:none;fill-rule:nonzero;fill:rgb(0%,0%,0%);fill-opacity:1;" d="M 169.214844 167.304688 C 169.214844 164.867188 171.179688 162.882812 173.589844 162.882812 C 176.003906 162.882812 177.964844 164.867188 177.964844 167.304688 C 177.964844 169.746094 176.003906 171.730469 173.589844 171.730469 C 171.179688 171.730469 169.214844 169.746094 169.214844 167.304688 Z M 169.214844 167.304688 "/>
<path style=" stroke:none;fill-rule:nonzero;fill:rgb(0%,0%,0%);fill-opacity:1;" d="M 208.199219 189.339844 C 208.199219 191.78125 206.238281 193.765625 203.824219 193.765625 C 201.414062 193.765625 199.449219 191.78125 199.449219 189.339844 C 199.449219 186.898438 201.414062 184.914062 203.824219 184.914062 C 206.238281 184.914062 208.199219 186.898438 208.199219 189.339844 Z M 208.199219 189.339844 "/>
<g clip-path="url(#clip1)" clip-rule="nonzero">
<path style=" stroke:none;fill-rule:nonzero;fill:rgb(0%,0%,0%);fill-opacity:1;" d="M 215.746094 210.066406 C 213.671875 212.609375 212.527344 215.785156 212.527344 219.007812 L 212.527344 251.0625 L 172.425781 251.097656 L 172.425781 236.542969 C 172.425781 234.398438 170.703125 232.65625 168.582031 232.65625 L 157.257812 232.65625 C 154.523438 232.65625 152.300781 230.40625 152.300781 227.640625 L 152.300781 214.828125 L 186.277344 214.828125 L 186.277344 206.769531 L 205.136719 206.769531 L 205.136719 196.292969 C 208.371094 195.667969 210.824219 192.789062 210.824219 189.339844 C 210.824219 185.890625 208.371094 183.011719 205.136719 182.386719 L 205.136719 180.65625 C 208.371094 180.03125 210.824219 177.152344 210.824219 173.703125 C 210.824219 169.796875 207.6875 166.621094 203.824219 166.621094 C 199.964844 166.621094 196.824219 169.796875 196.824219 173.703125 C 196.824219 177.152344 199.28125 180.03125 202.511719 180.65625 L 202.511719 182.386719 C 199.28125 183.011719 196.824219 185.890625 196.824219 189.339844 C 196.824219 192.789062 199.28125 195.667969 202.511719 196.292969 L 202.511719 204.113281 L 186.277344 204.113281 L 186.277344 197.269531 C 189.511719 196.648438 191.964844 193.769531 191.964844 190.320312 C 191.964844 186.414062 188.828125 183.238281 184.964844 183.238281 C 181.105469 183.238281 177.964844 186.414062 177.964844 190.320312 C 177.964844 193.769531 180.421875 196.648438 183.652344 197.269531 L 183.652344 204.113281 L 149.777344 204.113281 C 148.355469 204.113281 147.0625 203.320312 146.40625 202.046875 C 145.746094 200.773438 145.84375 199.246094 146.65625 198.066406 L 151.167969 191.503906 C 151.734375 190.683594 151.742188 189.617188 151.195312 188.785156 C 150.761719 188.125 150.460938 187.390625 150.292969 186.632812 L 174.902344 186.632812 L 174.902344 174.257812 C 178.136719 173.632812 180.589844 170.757812 180.589844 167.304688 C 180.589844 163.402344 177.453125 160.226562 173.589844 160.226562 C 169.730469 160.226562 166.589844 163.402344 166.589844 167.304688 C 166.589844 170.757812 169.046875 173.632812 172.277344 174.257812 L 172.277344 183.976562 L 150.257812 183.976562 C 150.277344 183.882812 150.289062 183.792969 150.3125 183.699219 L 154.523438 166.253906 C 154.867188 164.824219 155.457031 163.511719 156.273438 162.363281 C 159.824219 157.359375 170.53125 145.960938 193.257812 148.132812 C 203.390625 149.105469 211.632812 153.933594 217.101562 162.097656 C 224.261719 172.78125 225.472656 187.695312 222.976562 196.296875 C 221.152344 202.589844 218.039062 207.257812 215.746094 210.066406 Z M 215.746094 210.066406 "/>
</g>
<path style=" stroke:none;fill-rule:nonzero;fill:rgb(0%,0%,0%);fill-opacity:1;" d="M 199.449219 173.703125 C 199.449219 171.261719 201.414062 169.277344 203.824219 169.277344 C 206.238281 169.277344 208.199219 171.261719 208.199219 173.703125 C 208.199219 176.144531 206.238281 178.128906 203.824219 178.128906 C 201.414062 178.128906 199.449219 176.144531 199.449219 173.703125 Z M 199.449219 173.703125 "/>
<path style=" stroke:none;fill-rule:nonzero;fill:rgb(0%,0%,0%);fill-opacity:1;" d="M 183.652344 206.769531 L 152.300781 206.769531 L 152.300781 212.171875 L 183.652344 212.171875 Z M 183.652344 206.769531 "/>
</g>
</svg>
