<?xml version="1.0" encoding="UTF-8"?>
<svg xmlns="http://www.w3.org/2000/svg" xmlns:xlink="http://www.w3.org/1999/xlink" width="375pt" height="374.999991pt" viewBox="0 0 375 374.999991" version="1.2">
<defs>
<clipPath id="clip1">
  <path d="M 147.554688 136 L 227 136 L 227 240.0625 L 147.554688 240.0625 Z M 147.554688 136 "/>
</clipPath>
</defs>
<g id="surface1">
<path style=" stroke:none;fill-rule:nonzero;fill:rgb(100%,87.059021%,34.899902%);fill-opacity:1;" d="M 182.636719 179.367188 C 182.636719 176.929688 184.609375 174.945312 187.03125 174.945312 C 189.457031 174.945312 191.425781 176.929688 191.425781 179.367188 C 191.425781 181.804688 189.457031 183.789062 187.03125 183.789062 C 184.609375 183.789062 182.636719 181.804688 182.636719 179.367188 Z M 182.636719 179.367188 "/>
<path style=" stroke:none;fill-rule:nonzero;fill:rgb(100%,87.059021%,34.899902%);fill-opacity:1;" d="M 171.210938 156.382812 C 171.210938 153.945312 173.183594 151.960938 175.605469 151.960938 C 178.03125 151.960938 180 153.945312 180 156.382812 C 180 158.820312 178.03125 160.804688 175.605469 160.804688 C 173.183594 160.804688 171.210938 158.820312 171.210938 156.382812 Z M 171.210938 156.382812 "/>
<path style=" stroke:none;fill-rule:nonzero;fill:rgb(100%,87.059021%,34.899902%);fill-opacity:1;" d="M 210.371094 178.390625 C 210.371094 180.828125 208.402344 182.808594 205.976562 182.808594 C 203.554688 182.808594 201.582031 180.828125 201.582031 178.390625 C 201.582031 175.953125 203.554688 173.96875 205.976562 173.96875 C 208.402344 173.96875 210.371094 175.953125 210.371094 178.390625 Z M 210.371094 178.390625 "/>
<g clip-path="url(#clip1)" clip-rule="nonzero">
<path style=" stroke:none;fill-rule:nonzero;fill:rgb(100%,87.059021%,34.899902%);fill-opacity:1;" d="M 217.953125 199.089844 C 215.867188 201.628906 214.71875 204.800781 214.71875 208.019531 L 214.71875 240.035156 L 174.433594 240.070312 L 174.433594 225.535156 C 174.433594 223.394531 172.703125 221.652344 170.574219 221.652344 L 159.199219 221.652344 C 156.453125 221.652344 154.21875 219.40625 154.21875 216.644531 L 154.21875 203.847656 L 188.351562 203.847656 L 188.351562 195.796875 L 207.296875 195.796875 L 207.296875 185.332031 C 210.542969 184.710938 213.007812 181.835938 213.007812 178.390625 C 213.007812 174.941406 210.542969 172.070312 207.296875 171.445312 L 207.296875 169.714844 C 210.542969 169.089844 213.007812 166.21875 213.007812 162.773438 C 213.007812 158.871094 209.855469 155.699219 205.976562 155.699219 C 202.101562 155.699219 198.945312 158.871094 198.945312 162.773438 C 198.945312 166.21875 201.410156 169.089844 204.660156 169.714844 L 204.660156 171.445312 C 201.410156 172.070312 198.945312 174.941406 198.945312 178.390625 C 198.945312 181.835938 201.410156 184.710938 204.660156 185.332031 L 204.660156 193.144531 L 188.351562 193.144531 L 188.351562 186.308594 C 191.601562 185.6875 194.0625 182.8125 194.0625 179.367188 C 194.0625 175.46875 190.910156 172.296875 187.03125 172.296875 C 183.15625 172.296875 180 175.46875 180 179.367188 C 180 182.8125 182.464844 185.6875 185.714844 186.308594 L 185.714844 193.144531 L 151.683594 193.144531 C 150.253906 193.144531 148.957031 192.351562 148.296875 191.078125 C 147.636719 189.808594 147.730469 188.285156 148.546875 187.105469 L 153.082031 180.550781 C 153.648438 179.734375 153.660156 178.667969 153.109375 177.835938 C 152.671875 177.175781 152.371094 176.445312 152.203125 175.683594 L 176.925781 175.683594 L 176.925781 163.324219 C 180.171875 162.703125 182.636719 159.828125 182.636719 156.382812 C 182.636719 152.484375 179.484375 149.3125 175.605469 149.3125 C 171.730469 149.3125 168.574219 152.484375 168.574219 156.382812 C 168.574219 159.828125 171.039062 162.703125 174.289062 163.324219 L 174.289062 173.03125 L 152.167969 173.03125 C 152.1875 172.941406 152.199219 172.847656 152.21875 172.757812 L 156.453125 155.332031 C 156.796875 153.902344 157.390625 152.59375 158.210938 151.445312 C 161.777344 146.449219 172.535156 135.0625 195.363281 137.234375 C 205.539062 138.203125 213.820312 143.027344 219.3125 151.179688 C 226.503906 161.851562 227.71875 176.746094 225.214844 185.339844 C 223.382812 191.621094 220.253906 196.285156 217.953125 199.089844 Z M 217.953125 199.089844 "/>
</g>
<path style=" stroke:none;fill-rule:nonzero;fill:rgb(100%,87.059021%,34.899902%);fill-opacity:1;" d="M 201.582031 162.773438 C 201.582031 160.335938 203.554688 158.351562 205.976562 158.351562 C 208.402344 158.351562 210.371094 160.335938 210.371094 162.773438 C 210.371094 165.207031 208.402344 167.191406 205.976562 167.191406 C 203.554688 167.191406 201.582031 165.207031 201.582031 162.773438 Z M 201.582031 162.773438 "/>
<path style=" stroke:none;fill-rule:nonzero;fill:rgb(100%,87.059021%,34.899902%);fill-opacity:1;" d="M 185.714844 195.796875 L 154.21875 195.796875 L 154.21875 201.195312 L 185.714844 201.195312 Z M 185.714844 195.796875 "/>
</g>
</svg>
