<?xml version="1.0" encoding="UTF-8"?>
<svg xmlns="http://www.w3.org/2000/svg" xmlns:xlink="http://www.w3.org/1999/xlink" width="375pt" height="374.999991pt" viewBox="0 0 375 374.999991" version="1.2">
<defs>
<clipPath id="clip1">
  <path d="M 147.554688 136 L 227 136 L 227 240.0625 L 147.554688 240.0625 Z M 147.554688 136 "/>
</clipPath>
<clipPath id="clip2">
  <path d="M 169.28125 151.699219 L 212.78125 151.699219 L 212.78125 195 L 169.28125 195 Z M 169.28125 151.699219 "/>
</clipPath>
</defs>
<g id="surface1">
<path style=" stroke:none;fill-rule:nonzero;fill:rgb(100%,87.059021%,34.899902%);fill-opacity:1;" d="M 182.636719 179.367188 C 182.636719 176.929688 184.609375 174.945312 187.03125 174.945312 C 189.457031 174.945312 191.425781 176.929688 191.425781 179.367188 C 191.425781 181.804688 189.457031 183.789062 187.03125 183.789062 C 184.609375 183.789062 182.636719 181.804688 182.636719 179.367188 Z M 182.636719 179.367188 "/>
<path style=" stroke:none;fill-rule:nonzero;fill:rgb(100%,87.059021%,34.899902%);fill-opacity:1;" d="M 171.210938 156.382812 C 171.210938 153.945312 173.183594 151.960938 175.605469 151.960938 C 178.03125 151.960938 180 153.945312 180 156.382812 C 180 158.820312 178.03125 160.804688 175.605469 160.804688 C 173.183594 160.804688 171.210938 158.820312 171.210938 156.382812 Z M 171.210938 156.382812 "/>
<path style=" stroke:none;fill-rule:nonzero;fill:rgb(100%,87.059021%,34.899902%);fill-opacity:1;" d="M 210.371094 178.390625 C 210.371094 180.828125 208.402344 182.808594 205.976562 182.808594 C 203.554688 182.808594 201.582031 180.828125 201.582031 178.390625 C 201.582031 175.953125 203.554688 173.96875 205.976562 173.96875 C 208.402344 173.96875 210.371094 175.953125 210.371094 178.390625 Z M 210.371094 178.390625 "/>
<g clip-path="url(#clip1)" clip-rule="nonzero">
<path style=" stroke:none;fill-rule:nonzero;fill:rgb(100%,87.059021%,34.899902%);fill-opacity:1;" d="M 217.953125 199.089844 C 215.867188 201.628906 214.71875 204.800781 214.71875 208.019531 L 214.71875 240.035156 L 174.433594 240.070312 L 174.433594 225.535156 C 174.433594 223.394531 172.703125 221.652344 170.574219 221.652344 L 159.199219 221.652344 C 156.453125 221.652344 154.21875 219.40625 154.21875 216.644531 L 154.21875 203.847656 L 188.351562 203.847656 L 188.351562 195.796875 L 207.296875 195.796875 L 207.296875 185.332031 C 210.542969 184.710938 213.007812 181.835938 213.007812 178.390625 C 213.007812 174.941406 210.542969 172.070312 207.296875 171.445312 L 207.296875 169.714844 C 210.542969 169.089844 213.007812 166.21875 213.007812 162.773438 C 213.007812 158.871094 209.855469 155.699219 205.976562 155.699219 C 202.101562 155.699219 198.945312 158.871094 198.945312 162.773438 C 198.945312 166.21875 201.410156 169.089844 204.660156 169.714844 L 204.660156 171.445312 C 201.410156 172.070312 198.945312 174.941406 198.945312 178.390625 C 198.945312 181.835938 201.410156 184.710938 204.660156 185.332031 L 204.660156 193.144531 L 188.351562 193.144531 L 188.351562 186.308594 C 191.601562 185.6875 194.0625 182.8125 194.0625 179.367188 C 194.0625 175.46875 190.910156 172.296875 187.03125 172.296875 C 183.15625 172.296875 180 175.46875 180 179.367188 C 180 182.8125 182.464844 185.6875 185.714844 186.308594 L 185.714844 193.144531 L 151.683594 193.144531 C 150.253906 193.144531 148.957031 192.351562 148.296875 191.078125 C 147.636719 189.808594 147.730469 188.285156 148.546875 187.105469 L 153.082031 180.550781 C 153.648438 179.734375 153.660156 178.667969 153.109375 177.835938 C 152.671875 177.175781 152.371094 176.445312 152.203125 175.683594 L 176.925781 175.683594 L 176.925781 163.324219 C 180.171875 162.703125 182.636719 159.828125 182.636719 156.382812 C 182.636719 152.484375 179.484375 149.3125 175.605469 149.3125 C 171.730469 149.3125 168.574219 152.484375 168.574219 156.382812 C 168.574219 159.828125 171.039062 162.703125 174.289062 163.324219 L 174.289062 173.03125 L 152.167969 173.03125 C 152.1875 172.941406 152.199219 172.847656 152.21875 172.757812 L 156.453125 155.332031 C 156.796875 153.902344 157.390625 152.59375 158.210938 151.445312 C 161.777344 146.449219 172.535156 135.0625 195.363281 137.234375 C 205.539062 138.203125 213.820312 143.027344 219.3125 151.179688 C 226.503906 161.851562 227.71875 176.746094 225.214844 185.339844 C 223.382812 191.621094 220.253906 196.285156 217.953125 199.089844 Z M 217.953125 199.089844 "/>
</g>
<path style=" stroke:none;fill-rule:nonzero;fill:rgb(100%,87.059021%,34.899902%);fill-opacity:1;" d="M 201.582031 162.773438 C 201.582031 160.335938 203.554688 158.351562 205.976562 158.351562 C 208.402344 158.351562 210.371094 160.335938 210.371094 162.773438 C 210.371094 165.207031 208.402344 167.191406 205.976562 167.191406 C 203.554688 167.191406 201.582031 165.207031 201.582031 162.773438 Z M 201.582031 162.773438 "/>
<path style=" stroke:none;fill-rule:nonzero;fill:rgb(100%,87.059021%,34.899902%);fill-opacity:1;" d="M 185.714844 195.796875 L 154.21875 195.796875 L 154.21875 201.195312 L 185.714844 201.195312 Z M 185.714844 195.796875 "/>
<path style=" stroke:none;fill-rule:nonzero;fill:rgb(100%,87.059021%,34.899902%);fill-opacity:1;" d="M 190.0625 142.707031 C 189.089844 142.707031 188.121094 142.757812 187.148438 142.851562 C 186.179688 142.945312 185.21875 143.089844 184.265625 143.28125 C 183.308594 143.46875 182.367188 143.707031 181.433594 143.988281 C 180.503906 144.269531 179.585938 144.597656 178.6875 144.972656 C 177.789062 145.34375 176.910156 145.757812 176.050781 146.21875 C 175.191406 146.675781 174.359375 147.175781 173.546875 147.71875 C 172.738281 148.257812 171.957031 148.839844 171.207031 149.457031 C 170.453125 150.074219 169.730469 150.726562 169.042969 151.414062 C 168.355469 152.105469 167.703125 152.824219 167.085938 153.578125 C 166.464844 154.328125 165.886719 155.109375 165.347656 155.921875 C 164.804688 156.730469 164.304688 157.5625 163.847656 158.421875 C 163.386719 159.28125 162.972656 160.160156 162.597656 161.058594 C 162.226562 161.960938 161.898438 162.875 161.617188 163.804688 C 161.332031 164.738281 161.097656 165.679688 160.90625 166.636719 C 160.71875 167.589844 160.574219 168.554688 160.480469 169.523438 C 160.382812 170.492188 160.335938 171.460938 160.335938 172.4375 C 160.335938 173.410156 160.382812 174.378906 160.480469 175.351562 C 160.574219 176.320312 160.71875 177.28125 160.90625 178.234375 C 161.097656 179.191406 161.332031 180.132812 161.617188 181.066406 C 161.898438 181.996094 162.226562 182.914062 162.597656 183.8125 C 162.972656 184.710938 163.386719 185.589844 163.847656 186.449219 C 164.304688 187.308594 164.804688 188.140625 165.347656 188.953125 C 165.886719 189.761719 166.464844 190.542969 167.085938 191.292969 C 167.703125 192.046875 168.355469 192.769531 169.042969 193.457031 C 169.730469 194.144531 170.453125 194.796875 171.207031 195.414062 C 171.957031 196.035156 172.738281 196.613281 173.546875 197.152344 C 174.359375 197.695312 175.191406 198.195312 176.050781 198.652344 C 176.910156 199.113281 177.789062 199.527344 178.6875 199.902344 C 179.585938 200.273438 180.503906 200.601562 181.433594 200.882812 C 182.367188 201.167969 183.308594 201.402344 184.265625 201.59375 C 185.21875 201.78125 186.179688 201.925781 187.148438 202.019531 C 188.121094 202.117188 189.089844 202.164062 190.0625 202.164062 C 191.039062 202.164062 192.007812 202.117188 192.976562 202.019531 C 193.945312 201.925781 194.910156 201.78125 195.863281 201.59375 C 196.820312 201.402344 197.761719 201.167969 198.695312 200.882812 C 199.625 200.601562 200.539062 200.273438 201.441406 199.902344 C 202.339844 199.527344 203.21875 199.113281 204.078125 198.652344 C 204.9375 198.195312 205.769531 197.695312 206.578125 197.152344 C 207.390625 196.613281 208.171875 196.035156 208.921875 195.414062 C 209.675781 194.796875 210.394531 194.144531 211.085938 193.457031 C 211.773438 192.769531 212.425781 192.046875 213.042969 191.292969 C 213.660156 190.542969 214.242188 189.761719 214.78125 188.953125 C 215.324219 188.140625 215.824219 187.308594 216.28125 186.449219 C 216.742188 185.589844 217.15625 184.710938 217.527344 183.8125 C 217.902344 182.914062 218.230469 181.996094 218.511719 181.066406 C 218.792969 180.132812 219.03125 179.191406 219.21875 178.234375 C 219.410156 177.28125 219.554688 176.320312 219.648438 175.351562 C 219.742188 174.378906 219.792969 173.410156 219.792969 172.4375 C 219.792969 171.460938 219.742188 170.492188 219.648438 169.523438 C 219.554688 168.554688 219.410156 167.589844 219.21875 166.636719 C 219.03125 165.679688 218.792969 164.738281 218.511719 163.804688 C 218.230469 162.875 217.902344 161.960938 217.527344 161.058594 C 217.15625 160.160156 216.742188 159.28125 216.28125 158.421875 C 215.824219 157.5625 215.324219 156.730469 214.78125 155.921875 C 214.242188 155.109375 213.660156 154.328125 213.042969 153.578125 C 212.425781 152.824219 211.773438 152.105469 211.085938 151.414062 C 210.394531 150.726562 209.675781 150.074219 208.921875 149.457031 C 208.171875 148.839844 207.390625 148.257812 206.578125 147.71875 C 205.769531 147.175781 204.9375 146.675781 204.078125 146.21875 C 203.21875 145.757812 202.339844 145.34375 201.441406 144.972656 C 200.539062 144.597656 199.625 144.269531 198.695312 143.988281 C 197.761719 143.707031 196.820312 143.46875 195.863281 143.28125 C 194.910156 143.089844 193.945312 142.945312 192.976562 142.851562 C 192.007812 142.757812 191.039062 142.707031 190.0625 142.707031 Z M 190.0625 142.707031 "/>
<path style=" stroke:none;fill-rule:nonzero;fill:rgb(100%,87.059021%,34.899902%);fill-opacity:1;" d="M 212.09375 202.164062 C 212.09375 201.683594 211.902344 201.210938 211.523438 200.742188 C 211.140625 200.269531 210.578125 199.816406 209.832031 199.371094 C 209.082031 198.929688 208.167969 198.511719 207.082031 198.113281 C 206 197.714844 204.765625 197.34375 203.386719 197.007812 C 202.007812 196.667969 200.503906 196.367188 198.882812 196.101562 C 197.257812 195.835938 195.546875 195.609375 193.742188 195.425781 C 191.9375 195.242188 190.082031 195.105469 188.164062 195.011719 C 186.25 194.917969 184.316406 194.871094 182.367188 194.871094 C 180.414062 194.871094 178.480469 194.917969 176.566406 195.011719 C 174.652344 195.105469 172.792969 195.242188 170.988281 195.425781 C 169.1875 195.609375 167.472656 195.835938 165.851562 196.101562 C 164.226562 196.367188 162.726562 196.667969 161.34375 197.007812 C 159.964844 197.34375 158.734375 197.714844 157.648438 198.113281 C 156.5625 198.511719 155.648438 198.929688 154.902344 199.371094 C 154.15625 199.816406 153.589844 200.269531 153.210938 200.742188 C 152.828125 201.210938 152.640625 201.683594 152.640625 202.164062 C 152.640625 202.640625 152.828125 203.117188 153.210938 203.585938 C 153.589844 204.054688 154.15625 204.511719 154.902344 204.953125 C 155.648438 205.394531 156.5625 205.816406 157.648438 206.214844 C 158.734375 206.613281 159.964844 206.980469 161.34375 207.320312 C 162.726562 207.65625 164.226562 207.960938 165.851562 208.226562 C 167.472656 208.492188 169.1875 208.714844 170.988281 208.898438 C 172.792969 209.082031 174.652344 209.222656 176.566406 209.316406 C 178.480469 209.40625 180.414062 209.453125 182.367188 209.453125 C 184.316406 209.453125 186.25 209.40625 188.164062 209.316406 C 190.082031 209.222656 191.9375 209.082031 193.742188 208.898438 C 195.546875 208.714844 197.257812 208.492188 198.882812 208.226562 C 200.503906 207.960938 202.007812 207.65625 203.386719 207.320312 C 204.765625 206.980469 206 206.613281 207.082031 206.214844 C 208.167969 205.816406 209.082031 205.394531 209.832031 204.953125 C 210.578125 204.511719 211.140625 204.054688 211.523438 203.585938 C 211.902344 203.117188 212.09375 202.640625 212.09375 202.164062 Z M 212.09375 202.164062 "/>
<path style=" stroke:none;fill-rule:nonzero;fill:rgb(100%,87.059021%,34.899902%);fill-opacity:1;" d="M 212.09375 209.453125 C 212.09375 208.976562 211.902344 208.5 211.523438 208.03125 C 211.140625 207.5625 210.578125 207.105469 209.832031 206.664062 C 209.082031 206.222656 208.167969 205.800781 207.082031 205.402344 C 206 205.003906 204.765625 204.636719 203.386719 204.296875 C 202.007812 203.960938 200.503906 203.65625 198.882812 203.390625 C 197.257812 203.125 195.546875 202.902344 193.742188 202.71875 C 191.9375 202.535156 190.082031 202.398438 188.164062 202.304688 C 186.25 202.210938 184.316406 202.164062 182.367188 202.164062 C 180.414062 202.164062 178.480469 202.210938 176.566406 202.304688 C 174.652344 202.398438 172.792969 202.535156 170.988281 202.71875 C 169.1875 202.902344 167.472656 203.125 165.851562 203.390625 C 164.226562 203.65625 162.726562 203.960938 161.34375 204.296875 C 159.964844 204.636719 158.734375 205.003906 157.648438 205.402344 C 156.5625 205.800781 155.648438 206.222656 154.902344 206.664062 C 154.15625 207.105469 153.589844 207.5625 153.210938 208.03125 C 152.828125 208.5 152.640625 208.976562 152.640625 209.453125 C 152.640625 209.933594 152.828125 210.40625 153.210938 210.878906 C 153.589844 211.347656 154.15625 211.804688 154.902344 212.246094 C 155.648438 212.6875 156.5625 213.109375 157.648438 213.503906 C 158.734375 213.902344 159.964844 214.273438 161.34375 214.609375 C 162.726562 214.949219 164.226562 215.25 165.851562 215.515625 C 167.472656 215.785156 169.1875 216.007812 170.988281 216.191406 C 172.792969 216.375 174.652344 216.511719 176.566406 216.605469 C 178.480469 216.699219 180.414062 216.746094 182.367188 216.746094 C 184.316406 216.746094 186.25 216.699219 188.164062 216.605469 C 190.082031 216.511719 191.9375 216.375 193.742188 216.191406 C 195.546875 216.007812 197.257812 215.785156 198.882812 215.515625 C 200.503906 215.25 202.007812 214.949219 203.386719 214.609375 C 204.765625 214.273438 206 213.902344 207.082031 213.503906 C 208.167969 213.109375 209.082031 212.6875 209.832031 212.246094 C 210.578125 211.804688 211.140625 211.347656 211.523438 210.878906 C 211.902344 210.40625 212.09375 209.933594 212.09375 209.453125 Z M 212.09375 209.453125 "/>
<path style=" stroke:none;fill-rule:nonzero;fill:rgb(100%,87.059021%,34.899902%);fill-opacity:1;" d="M 212.09375 189.660156 C 212.09375 189.097656 212.046875 188.535156 211.953125 187.972656 C 211.855469 187.410156 211.714844 186.855469 211.523438 186.300781 C 211.335938 185.746094 211.097656 185.199219 210.816406 184.660156 C 210.53125 184.121094 210.207031 183.589844 209.832031 183.070312 C 209.460938 182.546875 209.042969 182.039062 208.585938 181.539062 C 208.125 181.042969 207.625 180.558594 207.085938 180.089844 C 206.542969 179.621094 205.964844 179.167969 205.347656 178.734375 C 204.730469 178.296875 204.078125 177.878906 203.386719 177.480469 C 202.699219 177.082031 201.980469 176.703125 201.226562 176.34375 C 200.472656 175.988281 199.691406 175.652344 198.882812 175.335938 C 198.074219 175.023438 197.238281 174.734375 196.382812 174.46875 C 195.523438 174.203125 194.644531 173.960938 193.742188 173.746094 C 192.84375 173.53125 191.929688 173.339844 190.996094 173.175781 C 190.066406 173.011719 189.121094 172.875 188.167969 172.765625 C 187.210938 172.65625 186.25 172.570312 185.28125 172.515625 C 184.3125 172.460938 183.339844 172.433594 182.367188 172.433594 C 181.394531 172.433594 180.421875 172.460938 179.453125 172.515625 C 178.484375 172.570312 177.523438 172.65625 176.566406 172.765625 C 175.613281 172.875 174.671875 173.011719 173.738281 173.175781 C 172.808594 173.339844 171.890625 173.53125 170.992188 173.746094 C 170.09375 173.960938 169.214844 174.203125 168.355469 174.46875 C 167.496094 174.734375 166.660156 175.023438 165.851562 175.335938 C 165.042969 175.652344 164.261719 175.988281 163.507812 176.34375 C 162.757812 176.703125 162.035156 177.082031 161.347656 177.480469 C 160.660156 177.878906 160.003906 178.296875 159.386719 178.734375 C 158.769531 179.167969 158.191406 179.621094 157.648438 180.089844 C 157.109375 180.558594 156.609375 181.042969 156.152344 181.539062 C 155.691406 182.039062 155.277344 182.546875 154.902344 183.070312 C 154.53125 183.589844 154.203125 184.121094 153.921875 184.660156 C 153.636719 185.199219 153.402344 185.746094 153.210938 186.300781 C 153.023438 186.855469 152.878906 187.410156 152.785156 187.972656 C 152.6875 188.535156 152.640625 189.097656 152.640625 189.660156 C 152.640625 190.226562 152.6875 190.789062 152.785156 191.351562 C 152.878906 191.910156 153.023438 192.46875 153.210938 193.023438 C 153.402344 193.574219 153.636719 194.121094 153.921875 194.664062 C 154.203125 195.203125 154.53125 195.734375 154.902344 196.253906 C 155.277344 196.777344 155.691406 197.285156 156.152344 197.78125 C 156.609375 198.28125 157.109375 198.761719 157.648438 199.234375 C 158.191406 199.703125 158.769531 200.15625 159.386719 200.589844 C 160.003906 201.027344 160.660156 201.445312 161.347656 201.84375 C 162.035156 202.242188 162.757812 202.621094 163.507812 202.980469 C 164.261719 203.335938 165.042969 203.671875 165.851562 203.984375 C 166.660156 204.300781 167.496094 204.589844 168.355469 204.855469 C 169.214844 205.121094 170.09375 205.363281 170.992188 205.578125 C 171.890625 205.792969 172.808594 205.984375 173.738281 206.148438 C 174.671875 206.3125 175.613281 206.449219 176.566406 206.558594 C 177.523438 206.667969 178.484375 206.75 179.453125 206.804688 C 180.421875 206.863281 181.394531 206.890625 182.367188 206.890625 C 183.339844 206.890625 184.3125 206.863281 185.28125 206.804688 C 186.25 206.75 187.210938 206.667969 188.167969 206.558594 C 189.121094 206.449219 190.066406 206.3125 190.996094 206.148438 C 191.929688 205.984375 192.84375 205.792969 193.742188 205.578125 C 194.644531 205.363281 195.523438 205.121094 196.382812 204.855469 C 197.238281 204.589844 198.074219 204.300781 198.882812 203.984375 C 199.691406 203.671875 200.472656 203.335938 201.226562 202.980469 C 201.980469 202.621094 202.699219 202.242188 203.386719 201.84375 C 204.078125 201.445312 204.730469 201.027344 205.347656 200.589844 C 205.964844 200.15625 206.542969 199.703125 207.085938 199.234375 C 207.625 198.761719 208.125 198.28125 208.585938 197.78125 C 209.042969 197.285156 209.460938 196.777344 209.832031 196.253906 C 210.207031 195.734375 210.53125 195.203125 210.816406 194.664062 C 211.097656 194.121094 211.335938 193.574219 211.523438 193.023438 C 211.714844 192.46875 211.855469 191.910156 211.953125 191.351562 C 212.046875 190.789062 212.09375 190.226562 212.09375 189.660156 Z M 212.09375 189.660156 "/>
<path style=" stroke:none;fill-rule:nonzero;fill:rgb(100%,87.059021%,34.899902%);fill-opacity:1;" d="M 211.34375 172.433594 C 211.34375 171.871094 211.296875 171.308594 211.203125 170.746094 C 211.105469 170.183594 210.964844 169.625 210.773438 169.074219 C 210.585938 168.519531 210.347656 167.972656 210.066406 167.433594 C 209.78125 166.894531 209.457031 166.363281 209.082031 165.839844 C 208.710938 165.320312 208.292969 164.808594 207.835938 164.3125 C 207.375 163.816406 206.875 163.332031 206.335938 162.863281 C 205.792969 162.394531 205.214844 161.941406 204.597656 161.503906 C 203.980469 161.070312 203.328125 160.652344 202.636719 160.253906 C 201.949219 159.851562 201.230469 159.476562 200.476562 159.117188 C 199.722656 158.757812 198.941406 158.421875 198.132812 158.109375 C 197.324219 157.796875 196.488281 157.507812 195.632812 157.242188 C 194.773438 156.976562 193.894531 156.734375 192.992188 156.519531 C 192.09375 156.300781 191.179688 156.113281 190.246094 155.949219 C 189.316406 155.785156 188.371094 155.648438 187.417969 155.539062 C 186.460938 155.425781 185.5 155.34375 184.53125 155.289062 C 183.5625 155.234375 182.589844 155.207031 181.617188 155.207031 C 180.644531 155.207031 179.671875 155.234375 178.703125 155.289062 C 177.734375 155.34375 176.773438 155.425781 175.816406 155.539062 C 174.863281 155.648438 173.921875 155.785156 172.988281 155.949219 C 172.058594 156.113281 171.140625 156.300781 170.242188 156.519531 C 169.34375 156.734375 168.464844 156.976562 167.605469 157.242188 C 166.746094 157.507812 165.910156 157.796875 165.101562 158.109375 C 164.292969 158.421875 163.511719 158.757812 162.757812 159.117188 C 162.007812 159.476562 161.285156 159.851562 160.597656 160.253906 C 159.910156 160.652344 159.253906 161.070312 158.636719 161.503906 C 158.019531 161.941406 157.441406 162.394531 156.898438 162.863281 C 156.359375 163.332031 155.859375 163.816406 155.402344 164.3125 C 154.941406 164.808594 154.527344 165.320312 154.152344 165.839844 C 153.78125 166.363281 153.453125 166.894531 153.171875 167.433594 C 152.886719 167.972656 152.652344 168.519531 152.460938 169.074219 C 152.273438 169.625 152.128906 170.183594 152.035156 170.746094 C 151.9375 171.308594 151.890625 171.871094 151.890625 172.433594 C 151.890625 173 151.9375 173.5625 152.035156 174.121094 C 152.128906 174.683594 152.273438 175.242188 152.460938 175.792969 C 152.652344 176.347656 152.886719 176.894531 153.171875 177.433594 C 153.453125 177.976562 153.78125 178.503906 154.152344 179.027344 C 154.527344 179.546875 154.941406 180.058594 155.402344 180.554688 C 155.859375 181.050781 156.359375 181.535156 156.898438 182.003906 C 157.441406 182.472656 158.019531 182.925781 158.636719 183.363281 C 159.253906 183.800781 159.910156 184.214844 160.597656 184.617188 C 161.285156 185.015625 162.007812 185.394531 162.757812 185.75 C 163.511719 186.109375 164.292969 186.445312 165.101562 186.757812 C 165.910156 187.070312 166.746094 187.363281 167.605469 187.628906 C 168.464844 187.894531 169.34375 188.132812 170.242188 188.351562 C 171.140625 188.566406 172.058594 188.757812 172.988281 188.917969 C 173.921875 189.082031 174.863281 189.21875 175.816406 189.332031 C 176.773438 189.441406 177.734375 189.523438 178.703125 189.578125 C 179.671875 189.632812 180.644531 189.660156 181.617188 189.660156 C 182.589844 189.660156 183.5625 189.632812 184.53125 189.578125 C 185.5 189.523438 186.460938 189.441406 187.417969 189.332031 C 188.371094 189.21875 189.316406 189.082031 190.246094 188.917969 C 191.179688 188.757812 192.09375 188.566406 192.992188 188.351562 C 193.894531 188.132812 194.773438 187.894531 195.632812 187.628906 C 196.488281 187.363281 197.324219 187.070312 198.132812 186.757812 C 198.941406 186.445312 199.722656 186.109375 200.476562 185.75 C 201.230469 185.394531 201.949219 185.015625 202.636719 184.617188 C 203.328125 184.214844 203.980469 183.800781 204.597656 183.363281 C 205.214844 182.925781 205.792969 182.472656 206.335938 182.003906 C 206.875 181.535156 207.375 181.050781 207.835938 180.554688 C 208.292969 180.058594 208.710938 179.546875 209.082031 179.027344 C 209.457031 178.503906 209.78125 177.976562 210.066406 177.433594 C 210.347656 176.894531 210.585938 176.347656 210.773438 175.792969 C 210.964844 175.242188 211.105469 174.683594 211.203125 174.121094 C 211.296875 173.5625 211.34375 173 211.34375 172.433594 Z M 211.34375 172.433594 "/>
<g clip-path="url(#clip2)" clip-rule="nonzero">
<path style=" stroke:none;fill-rule:nonzero;fill:rgb(100%,100%,100%);fill-opacity:1;" d="M 211.949219 190.289062 L 207.875 194.367188 C 207.046875 195.195312 205.699219 195.195312 204.871094 194.367188 L 191.417969 180.914062 C 191.203125 180.699219 190.855469 180.699219 190.640625 180.914062 L 177.191406 194.367188 C 176.359375 195.195312 175.015625 195.195312 174.1875 194.367188 L 170.109375 190.289062 C 169.28125 189.460938 169.28125 188.117188 170.109375 187.289062 L 183.5625 173.835938 C 183.777344 173.621094 183.777344 173.273438 183.5625 173.058594 L 170.109375 159.605469 C 169.28125 158.777344 169.28125 157.433594 170.109375 156.601562 L 174.1875 152.527344 C 175.015625 151.695312 176.359375 151.695312 177.191406 152.527344 L 190.640625 165.976562 C 190.855469 166.191406 191.203125 166.191406 191.417969 165.976562 L 204.871094 152.527344 C 205.699219 151.695312 207.046875 151.695312 207.875 152.527344 L 211.949219 156.601562 C 212.78125 157.433594 212.78125 158.777344 211.949219 159.605469 L 198.5 173.058594 C 198.285156 173.273438 198.285156 173.621094 198.5 173.835938 L 211.949219 187.289062 C 212.78125 188.117188 212.78125 189.460938 211.949219 190.289062 "/>
</g>
</g>
</svg>
