<!--?xml version="1.0" encoding="UTF-8"?-->
<svg xmlns="http://www.w3.org/2000/svg" xmlns:xlink="http://www.w3.org/1999/xlink" width="100%" height="100%" viewBox="0 0 375 374.999991" version="1.2">
<defs>
<filter id="alpha" filterUnits="objectBoundingBox" x="0%" y="0%" width="100%" height="100%">
  <feColorMatrix type="matrix" in="SourceGraphic" values="0 0 0 0 1 0 0 0 0 1 0 0 0 0 1 0 0 0 1 0"></feColorMatrix>
</filter>
<mask id="mask0">
  <g filter="url(#alpha)">
<rect x="0" y="0" width="375" height="374.999991" style="fill: rgb(0, 0, 0); fill-opacity: 0.298; stroke: none;" class="svg-elem-1"></rect>
  </g>
</mask>
<clipPath id="clip2">
  <path d="M 175 265 L 187 265 L 187 365.65625 L 175 365.65625 Z M 175 265 " class="svg-elem-2"></path>
</clipPath>
<clipPath id="clip3">
  <path d="M 154 1.15625 L 220 1.15625 L 220 131 L 154 131 Z M 154 1.15625 " class="svg-elem-3"></path>
</clipPath>
<clipPath id="clip1">
  <rect x="0" y="0" width="375" height="367" class="svg-elem-4"></rect>
</clipPath>
<g id="surface5" clip-path="url(#clip1)">
<path style="stroke: none; fill-rule: nonzero; fill: rgb(255, 222, 89); fill-opacity: 1;" d="M 370.84375 217.585938 C 368.953125 220.164062 365.324219 220.714844 362.753906 218.828125 C 360.175781 216.945312 359.617188 213.316406 361.503906 210.75 C 363.394531 208.171875 367.019531 207.613281 369.589844 209.503906 C 368.949219 209.027344 368.3125 208.558594 369.589844 209.503906 C 370.058594 209.839844 370.269531 209.996094 370.316406 210.035156 C 370.234375 209.972656 369.917969 209.738281 369.597656 209.507812 C 372.171875 211.394531 372.726562 215.015625 370.84375 217.585938 Z M 358.238281 166.480469 C 361.433594 166.472656 364.027344 169.066406 364.03125 172.257812 C 364.035156 175.449219 361.4375 178.039062 358.246094 178.039062 C 355.050781 178.046875 352.460938 175.460938 352.460938 172.257812 C 352.449219 169.078125 355.042969 166.480469 358.238281 166.480469 Z M 370.640625 208.066406 C 367.808594 205.996094 364.003906 206.191406 361.40625 208.3125 L 350.070312 200.167969 L 291.953125 200.195312 L 306.84375 174.070312 L 350.898438 174.046875 C 351.703125 177.351562 354.6875 179.820312 358.246094 179.8125 C 362.417969 179.820312 365.808594 176.425781 365.808594 172.257812 C 365.800781 168.089844 362.410156 164.703125 358.238281 164.707031 C 354.679688 164.714844 351.695312 167.183594 350.894531 170.492188 L 304.769531 170.519531 L 287.859375 200.207031 L 254.601562 200.230469 L 254.601562 205.648438 L 285.1875 226.882812 L 316.996094 226.863281 C 317.78125 229.6875 320.359375 231.757812 323.433594 231.757812 C 327.117188 231.757812 330.105469 228.765625 330.101562 225.078125 C 330.097656 221.394531 327.109375 218.40625 323.425781 218.414062 C 320.355469 218.417969 317.773438 220.488281 316.996094 223.3125 L 286.300781 223.335938 L 258.125 203.777344 L 348.910156 203.710938 L 359.257812 211.136719 C 357.863281 214.308594 358.792969 218.128906 361.703125 220.265625 C 365.070312 222.726562 369.800781 221.992188 372.269531 218.636719 C 374.734375 215.277344 374.011719 210.53125 370.640625 208.066406 " class="svg-elem-5"></path>
<path style="stroke: none; fill-rule: nonzero; fill: rgb(255, 222, 89); fill-opacity: 1;" d="M 5.402344 209.507812 C 5.082031 209.738281 4.765625 209.972656 4.683594 210.035156 C 4.734375 209.996094 4.945312 209.839844 5.410156 209.503906 C 6.683594 208.558594 6.050781 209.027344 5.410156 209.503906 C 7.984375 207.613281 11.609375 208.171875 13.496094 210.75 C 15.382812 213.316406 14.824219 216.945312 12.25 218.828125 C 9.675781 220.714844 6.046875 220.164062 4.160156 217.585938 C 2.273438 215.015625 2.832031 211.394531 5.402344 209.507812 Z M 22.542969 172.257812 C 22.542969 175.460938 19.945312 178.046875 16.753906 178.039062 C 13.5625 178.039062 10.96875 175.449219 10.972656 172.257812 C 10.972656 169.066406 13.570312 166.472656 16.765625 166.480469 C 19.957031 166.480469 22.546875 169.078125 22.542969 172.257812 Z M 2.730469 218.636719 C 5.195312 221.992188 9.933594 222.726562 13.292969 220.265625 C 16.210938 218.128906 17.136719 214.308594 15.746094 211.136719 L 26.089844 203.710938 L 116.875 203.777344 L 88.703125 223.335938 L 58.007812 223.3125 C 57.230469 220.488281 54.648438 218.417969 51.578125 218.414062 C 47.894531 218.40625 44.902344 221.394531 44.902344 225.078125 C 44.898438 228.765625 47.886719 231.757812 51.566406 231.757812 C 54.636719 231.757812 57.21875 229.6875 58.007812 226.863281 L 89.8125 226.882812 L 120.398438 205.648438 L 120.398438 200.230469 L 87.140625 200.207031 L 70.226562 170.519531 L 24.101562 170.492188 C 23.308594 167.183594 20.324219 164.714844 16.765625 164.707031 C 12.589844 164.703125 9.203125 168.089844 9.195312 172.257812 C 9.195312 176.425781 12.582031 179.820312 16.753906 179.8125 C 20.3125 179.820312 23.296875 177.351562 24.097656 174.046875 L 68.160156 174.070312 L 83.046875 200.195312 L 24.929688 200.167969 L 13.597656 208.3125 C 10.992188 206.191406 7.1875 205.996094 4.355469 208.066406 C 0.992188 210.53125 0.269531 215.277344 2.730469 218.636719 " class="svg-elem-6"></path>
<path style="stroke: none; fill-rule: nonzero; fill: rgb(255, 222, 89); fill-opacity: 1;" d="M 195.617188 345.363281 L 195.304688 266.699219 C 194.375 266.707031 193.4375 266.699219 192.503906 266.671875 L 192.820312 345.398438 C 190.613281 346.03125 188.996094 348.085938 189.023438 350.503906 C 189.0625 353.402344 191.4375 355.726562 194.347656 355.691406 C 197.242188 355.660156 199.574219 353.277344 199.542969 350.375 C 199.511719 347.960938 197.847656 345.953125 195.617188 345.363281 " class="svg-elem-7"></path>
<path style="stroke: none; fill-rule: nonzero; fill: rgb(255, 222, 89); fill-opacity: 1;" d="M 228.652344 289.074219 C 226.933594 287.375 224.347656 287.101562 222.332031 288.238281 L 218.75 284.671875 L 219.082031 259.914062 C 218.214844 260.691406 217.277344 261.382812 216.265625 262.007812 L 215.964844 285.847656 L 220.371094 290.226562 C 219.238281 292.238281 219.519531 294.828125 221.238281 296.53125 C 223.296875 298.578125 226.628906 298.566406 228.671875 296.515625 C 230.722656 294.453125 230.714844 291.117188 228.652344 289.074219 " class="svg-elem-8"></path>
<path style="stroke: none; fill-rule: nonzero; fill: rgb(255, 222, 89); fill-opacity: 1;" d="M 206.398438 327.023438 C 203.882812 327.054688 201.8125 325.035156 201.78125 322.523438 C 201.753906 320.015625 203.777344 317.945312 206.289062 317.914062 C 208.804688 317.882812 210.867188 319.902344 210.898438 322.417969 C 210.929688 324.933594 208.914062 327 206.398438 327.023438 Z M 207.679688 316.667969 L 207.65625 265.394531 C 206.742188 265.609375 205.8125 265.792969 204.863281 265.953125 L 204.878906 316.707031 C 202.269531 317.367188 200.355469 319.738281 200.386719 322.542969 C 200.421875 325.820312 203.132812 328.464844 206.410156 328.421875 C 209.699219 328.386719 212.339844 325.679688 212.304688 322.398438 C 212.265625 319.597656 210.292969 317.273438 207.679688 316.667969 " class="svg-elem-9"></path>
<g clip-path="url(#clip2)" clip-rule="nonzero">
<path style="stroke: none; fill-rule: nonzero; fill: rgb(255, 222, 89); fill-opacity: 1;" d="M 182.441406 355.359375 L 181.996094 265.882812 C 181.0625 265.773438 180.128906 265.652344 179.203125 265.523438 L 179.640625 355.390625 C 177.425781 356.03125 175.8125 358.078125 175.839844 360.503906 C 175.867188 363.40625 178.253906 365.730469 181.164062 365.695312 C 184.066406 365.660156 186.394531 363.277344 186.363281 360.375 C 186.335938 357.957031 184.671875 355.949219 182.441406 355.359375 " class="svg-elem-10"></path>
</g>
<path style="stroke: none; fill-rule: nonzero; fill: rgb(255, 222, 89); fill-opacity: 1;" d="M 158.109375 261.613281 C 157.132812 261.402344 156.207031 261.203125 155.324219 261.011719 L 155.050781 291.132812 L 151.546875 294.785156 C 149.511719 293.683594 146.929688 294.023438 145.253906 295.765625 C 143.242188 297.863281 143.3125 301.191406 145.410156 303.203125 C 147.496094 305.203125 150.828125 305.136719 152.835938 303.042969 C 154.515625 301.300781 154.734375 298.695312 153.566406 296.71875 L 157.855469 292.242188 L 158.109375 261.613281 " class="svg-elem-11"></path>
<path style="stroke: none; fill-rule: nonzero; fill: rgb(255, 222, 89); fill-opacity: 1;" d="M 168.539062 345.8125 C 166.023438 345.839844 163.953125 343.820312 163.929688 341.316406 C 163.898438 338.796875 165.914062 336.730469 168.429688 336.699219 C 170.949219 336.667969 173.011719 338.691406 173.042969 341.195312 C 173.070312 343.710938 171.050781 345.785156 168.539062 345.8125 Z M 169.8125 335.457031 L 169.597656 263.960938 C 168.648438 263.789062 167.710938 263.605469 166.796875 263.425781 L 167.023438 335.488281 C 164.414062 336.148438 162.496094 338.523438 162.53125 341.324219 C 162.566406 344.605469 165.273438 347.25 168.554688 347.210938 C 171.835938 347.171875 174.484375 344.46875 174.441406 341.191406 C 174.40625 338.382812 172.4375 336.066406 169.8125 335.457031 " class="svg-elem-12"></path>
<path style="stroke: none; fill-rule: nonzero; fill: rgb(255, 222, 89); fill-opacity: 1;" d="M 47.601562 136.589844 L 121.976562 174.550781 C 122.421875 173.675781 122.882812 172.796875 123.363281 171.925781 L 48.933594 133.9375 C 49.410156 131.539062 48.257812 129.023438 45.964844 127.871094 C 43.214844 126.492188 39.863281 127.609375 38.480469 130.363281 C 37.101562 133.109375 38.210938 136.464844 40.96875 137.84375 C 43.261719 138.992188 45.964844 138.40625 47.601562 136.589844 " class="svg-elem-13"></path>
<path style="stroke: none; fill-rule: nonzero; fill: rgb(255, 222, 89); fill-opacity: 1;" d="M 59.664062 155.660156 C 60.859375 153.28125 63.769531 152.3125 66.15625 153.511719 C 68.53125 154.699219 69.507812 157.613281 68.3125 159.996094 C 67.117188 162.382812 64.207031 163.34375 61.824219 162.152344 C 59.429688 160.953125 58.464844 158.046875 59.664062 155.660156 Z M 68.808594 161.90625 L 117.191406 186.832031 C 117.4375 185.863281 117.71875 184.902344 118.03125 183.925781 L 70.132812 159.257812 C 70.78125 156.476562 69.472656 153.519531 66.816406 152.183594 C 63.703125 150.621094 59.894531 151.886719 58.335938 155 C 56.773438 158.117188 58.035156 161.921875 61.15625 163.484375 C 63.820312 164.804688 66.972656 164.082031 68.808594 161.90625 " class="svg-elem-14"></path>
<path style="stroke: none; fill-rule: nonzero; fill: rgb(255, 222, 89); fill-opacity: 1;" d="M 298.542969 95.128906 L 232.519531 147.832031 C 233.140625 148.613281 233.757812 149.398438 234.363281 150.207031 L 300.433594 97.460938 C 302.445312 98.898438 305.246094 98.890625 307.269531 97.257812 C 309.683594 95.289062 310.050781 91.742188 308.089844 89.316406 C 306.132812 86.902344 302.578125 86.527344 300.148438 88.492188 C 298.136719 90.128906 297.554688 92.863281 298.542969 95.128906 " class="svg-elem-15"></path>
<path style="stroke: none; fill-rule: nonzero; fill: rgb(255, 222, 89); fill-opacity: 1;" d="M 229.128906 104.863281 C 228.84375 107.441406 230.34375 109.804688 232.636719 110.730469 L 232.023438 116.128906 L 210.957031 132.347656 C 212.183594 132.566406 213.398438 132.894531 214.589844 133.332031 L 234.871094 117.6875 L 235.621094 111.0625 C 238.0625 110.679688 240.058594 108.707031 240.351562 106.136719 C 240.703125 103.035156 238.472656 100.238281 235.378906 99.890625 C 232.277344 99.542969 229.480469 101.769531 229.128906 104.863281 " class="svg-elem-16"></path>
<path style="stroke: none; fill-rule: nonzero; fill: rgb(255, 222, 89); fill-opacity: 1;" d="M 275.917969 98.289062 C 277.621094 100.386719 277.300781 103.472656 275.203125 105.171875 C 273.109375 106.867188 270.015625 106.554688 268.320312 104.457031 C 266.617188 102.359375 266.941406 99.277344 269.039062 97.574219 C 271.140625 95.875 274.21875 96.191406 275.917969 98.289062 Z M 266.347656 104.113281 L 223.179688 138.308594 C 223.972656 138.933594 224.75 139.597656 225.519531 140.292969 L 268.242188 106.441406 C 270.539062 108.191406 273.8125 108.226562 276.148438 106.335938 C 278.886719 104.117188 279.304688 100.078125 277.082031 97.34375 C 274.859375 94.605469 270.828125 94.1875 268.085938 96.40625 C 265.753906 98.304688 265.109375 101.515625 266.347656 104.113281 " class="svg-elem-17"></path>
<path style="stroke: none; fill-rule: nonzero; fill: rgb(255, 222, 89); fill-opacity: 1;" d="M 315.746094 99.550781 L 240.699219 159.566406 C 241.226562 160.429688 241.75 161.292969 242.265625 162.160156 L 317.640625 101.890625 C 319.660156 103.328125 322.453125 103.320312 324.472656 101.679688 C 326.902344 99.71875 327.269531 96.167969 325.296875 93.738281 C 323.335938 91.324219 319.78125 90.957031 317.355469 92.914062 C 315.339844 94.546875 314.757812 97.285156 315.746094 99.550781 " class="svg-elem-18"></path>
<path style="stroke: none; fill-rule: nonzero; fill: rgb(255, 222, 89); fill-opacity: 1;" d="M 253.019531 182.507812 C 253.496094 183.46875 253.945312 184.386719 254.378906 185.25 L 279.925781 165.40625 L 285.335938 165.921875 C 285.765625 168.363281 287.765625 170.3125 290.351562 170.558594 C 293.460938 170.855469 296.214844 168.578125 296.515625 165.472656 C 296.800781 162.378906 294.53125 159.625 291.425781 159.332031 C 288.839844 159.078125 286.5 160.628906 285.613281 162.933594 L 278.988281 162.308594 L 253.019531 182.507812 " class="svg-elem-19"></path>
<path style="stroke: none; fill-rule: nonzero; fill: rgb(255, 222, 89); fill-opacity: 1;" d="M 316.976562 117.613281 C 318.675781 119.710938 318.351562 122.792969 316.261719 124.488281 C 314.15625 126.195312 311.074219 125.875 309.375 123.777344 C 307.671875 121.679688 307.996094 118.597656 310.082031 116.902344 C 312.183594 115.203125 315.273438 115.515625 316.976562 117.613281 Z M 307.402344 123.441406 L 247.34375 171.277344 C 247.832031 172.195312 248.304688 173.101562 248.765625 173.992188 L 309.289062 125.769531 C 311.585938 127.519531 314.867188 127.558594 317.195312 125.652344 C 319.941406 123.4375 320.355469 119.398438 318.140625 116.664062 C 315.921875 113.933594 311.882812 113.511719 309.152344 115.730469 C 306.808594 117.625 306.167969 120.835938 307.402344 123.441406 " class="svg-elem-20"></path>
<g clip-path="url(#clip3)" clip-rule="nonzero">
<path style="stroke: none; fill-rule: nonzero; fill: rgb(255, 222, 89); fill-opacity: 1;" d="M 193.617188 52.09375 C 191.101562 53.230469 188.136719 52.101562 187 49.59375 C 185.871094 47.078125 186.992188 44.109375 189.511719 42.980469 C 192.023438 41.847656 194.988281 42.96875 196.117188 45.488281 C 197.257812 48 196.132812 50.964844 193.617188 52.09375 Z M 179.089844 5.996094 C 178.199219 2.933594 175 1.179688 171.945312 2.058594 C 168.882812 2.945312 167.121094 6.132812 168.003906 9.191406 C 168.738281 11.742188 171.082031 13.390625 173.617188 13.359375 L 179.351562 33.191406 L 161.972656 54.695312 L 173.183594 80.636719 L 154.148438 105.089844 L 162.546875 130.675781 L 201.035156 130.695312 L 219.839844 106.523438 L 195.578125 52.683594 C 197.898438 50.871094 198.777344 47.652344 197.523438 44.855469 C 197.65625 45.148438 197.785156 45.4375 197.871094 45.621094 C 197.796875 45.472656 197.695312 45.238281 197.523438 44.855469 C 197.257812 44.265625 197.132812 44 197.101562 43.925781 C 197.148438 44.023438 197.335938 44.433594 197.523438 44.855469 C 196.039062 41.566406 192.15625 40.101562 188.882812 41.578125 C 185.589844 43.058594 184.125 46.941406 185.601562 50.222656 C 186.875 53.027344 189.890625 54.503906 192.785156 53.949219 L 216.28125 106.101562 L 199.53125 127.628906 L 164.769531 127.613281 L 157.582031 105.683594 L 176.722656 81.078125 L 165.523438 55.183594 L 169.761719 49.925781 L 184.835938 80.070312 L 163.78125 107.136719 L 170.328125 120.789062 L 195.816406 120.757812 L 206.980469 106.339844 L 203.675781 98.699219 C 205.648438 97.113281 206.414062 94.363281 205.367188 91.917969 C 204.113281 89 200.710938 87.660156 197.785156 88.914062 C 194.859375 90.175781 193.515625 93.566406 194.773438 96.492188 C 195.824219 98.933594 198.355469 100.257812 200.863281 99.910156 L 203.445312 105.894531 L 194.378906 117.609375 L 172.308594 117.828125 L 167.363281 107.515625 L 188.449219 80.429688 L 171.878906 47.304688 L 182.75 33.871094 L 176.558594 12.503906 C 178.71875 11.179688 179.824219 8.539062 179.089844 5.996094 " class="svg-elem-21"></path>
</g>
<path style="stroke: none; fill-rule: nonzero; fill: rgb(255, 222, 89); fill-opacity: 1;" d="M 90.582031 84.757812 C 89.410156 87.378906 86.332031 88.574219 83.703125 87.410156 C 81.078125 86.246094 79.886719 83.160156 81.050781 80.535156 C 82.214844 77.910156 85.300781 76.722656 87.929688 77.894531 C 90.558594 79.050781 91.746094 82.136719 90.582031 84.757812 Z M 47.242188 59.050781 C 44.429688 57.292969 40.722656 58.148438 38.957031 60.957031 C 37.199219 63.773438 38.042969 67.46875 40.859375 69.230469 C 43.207031 70.699219 46.167969 70.351562 48.109375 68.574219 L 66.363281 79.988281 L 67.808594 108.761719 L 94.558594 121.117188 L 96.785156 153.332031 L 121.089844 167.363281 L 150.988281 140.644531 L 148.792969 108.8125 L 92.511719 83.855469 C 93.054688 80.832031 91.5 77.71875 88.574219 76.421875 C 88.886719 76.566406 89.1875 76.6875 89.382812 76.777344 C 89.226562 76.710938 88.976562 76.597656 88.574219 76.421875 C 87.960938 76.148438 87.683594 76.03125 87.605469 75.996094 C 87.707031 76.039062 88.140625 76.226562 88.574219 76.421875 C 85.140625 74.898438 81.109375 76.457031 79.589844 79.882812 C 78.0625 83.3125 79.625 87.347656 83.054688 88.871094 C 85.988281 90.167969 89.359375 89.214844 91.230469 86.777344 L 145.734375 110.957031 L 147.695312 139.3125 L 120.6875 163.4375 L 99.855469 151.40625 L 97.617188 119 L 70.910156 106.667969 L 70.550781 99.640625 L 103.214844 112.585938 L 105.679688 148.226562 L 120.253906 154.285156 L 140.023438 136.554688 L 138.679688 117.605469 L 130.796875 113.964844 C 131.226562 111.363281 129.90625 108.691406 127.394531 107.519531 C 124.390625 106.128906 120.816406 107.449219 119.414062 110.457031 C 118.027344 113.46875 119.332031 117.039062 122.351562 118.433594 C 124.859375 119.601562 127.753906 118.871094 129.453125 116.859375 L 135.617188 119.710938 L 136.722656 135.105469 L 119.738281 150.605469 L 108.730469 146.035156 L 106.269531 110.351562 L 70.371094 96.132812 L 69.46875 78.15625 L 49.804688 65.859375 C 50.5625 63.335938 49.585938 60.519531 47.242188 59.050781 " class="svg-elem-22"></path>
<path style="stroke: none; fill-rule: nonzero; fill: rgb(255, 222, 89); fill-opacity: 1;" d="M 292.257812 303.269531 C 293.152344 300.546875 296.101562 299.046875 298.835938 299.945312 C 301.566406 300.84375 303.058594 303.789062 302.164062 306.515625 C 301.265625 309.246094 298.316406 310.734375 295.582031 309.839844 C 292.847656 308.949219 291.359375 305.996094 292.257812 303.269531 Z M 337.949219 324.511719 C 340.925781 325.980469 344.535156 324.761719 346.003906 321.785156 C 347.476562 318.8125 346.257812 315.21875 343.28125 313.742188 C 340.800781 312.519531 337.890625 313.167969 336.128906 315.128906 L 316.835938 305.59375 L 312.515625 277.113281 L 284.660156 267.492188 L 279.222656 235.664062 L 253.632812 224.128906 L 226.550781 253.707031 L 231.929688 285.164062 L 290.429688 304.363281 C 290.1875 307.425781 292.050781 310.363281 295.082031 311.363281 C 294.761719 311.253906 294.449219 311.160156 294.25 311.089844 C 294.40625 311.140625 294.664062 311.230469 295.082031 311.363281 C 295.722656 311.574219 296.015625 311.667969 296.09375 311.691406 C 295.988281 311.660156 295.535156 311.519531 295.082031 311.363281 C 298.65625 312.535156 302.511719 310.582031 303.679688 307.019531 C 304.855469 303.449219 302.898438 299.597656 299.335938 298.421875 C 296.277344 297.429688 293.019531 298.707031 291.410156 301.328125 L 234.753906 282.722656 L 229.964844 254.707031 L 254.421875 227.996094 L 276.351562 237.882812 L 281.832031 269.898438 L 309.636719 279.503906 L 310.695312 286.460938 L 276.898438 276.847656 L 270.878906 241.636719 L 255.773438 237.066406 L 237.867188 256.679688 L 241.113281 275.402344 L 249.316406 278.234375 C 249.152344 280.867188 250.730469 283.390625 253.34375 284.300781 C 256.476562 285.386719 259.898438 283.71875 260.988281 280.585938 C 262.078125 277.449219 260.417969 274.027344 257.273438 272.941406 C 254.660156 272.035156 251.851562 273.042969 250.359375 275.21875 L 243.949219 273 L 241.304688 257.792969 L 256.65625 240.667969 L 268.066406 244.117188 L 274.082031 279.371094 L 311.226562 289.925781 L 313.929688 307.726562 L 334.71875 317.992188 C 334.21875 320.582031 335.472656 323.289062 337.949219 324.511719 " class="svg-elem-23"></path>
<path style="stroke: none; fill-rule: nonzero; fill: rgb(255, 222, 89); fill-opacity: 1;" d="M 82.039062 307.773438 C 79.425781 308.652344 76.589844 307.246094 75.703125 304.628906 C 74.820312 302.023438 76.238281 299.179688 78.851562 298.300781 C 81.464844 297.425781 84.304688 298.832031 85.1875 301.441406 C 86.070312 304.054688 84.65625 306.898438 82.039062 307.773438 Z M 44.546875 315.867188 L 64.421875 305.871094 L 66.890625 288.773438 L 102.457031 278.386719 L 107.988281 244.523438 L 118.917969 241.132812 L 133.761719 257.457031 L 131.332031 272.0625 L 125.195312 274.242188 C 123.742188 272.167969 121.042969 271.214844 118.542969 272.101562 C 115.539062 273.167969 113.964844 276.457031 115.03125 279.464844 C 116.101562 282.460938 119.394531 284.042969 122.390625 282.972656 C 124.898438 282.082031 126.394531 279.652344 126.21875 277.125 L 134.066406 274.351562 L 137.050781 256.363281 L 119.742188 237.660156 L 105.277344 242.15625 L 99.734375 275.988281 L 67.375 285.441406 L 68.34375 278.757812 L 94.960938 269.351562 L 99.996094 238.597656 L 120.972656 228.957031 L 144.621094 254.417969 L 140.214844 281.332031 L 85.984375 299.570312 C 84.414062 297.078125 81.285156 295.867188 78.359375 296.84375 C 74.949219 297.992188 73.101562 301.710938 74.253906 305.125 C 75.402344 308.53125 79.109375 310.378906 82.527344 309.230469 C 82.097656 309.378906 81.664062 309.523438 81.566406 309.550781 C 81.640625 309.53125 81.917969 309.441406 82.527344 309.230469 C 82.925781 309.101562 83.175781 309.015625 83.328125 308.964844 C 83.132812 309.027344 82.832031 309.128906 82.527344 309.230469 C 85.4375 308.253906 87.199219 305.417969 86.953125 302.480469 L 142.953125 283.648438 L 147.894531 253.433594 L 121.707031 225.238281 L 97.222656 236.484375 L 92.226562 267.066406 L 65.570312 276.484375 L 61.621094 303.84375 L 43.164062 313.128906 C 41.46875 311.253906 38.667969 310.660156 36.300781 311.851562 C 33.449219 313.28125 32.304688 316.742188 33.746094 319.585938 C 35.171875 322.421875 38.636719 323.574219 41.488281 322.144531 C 43.855469 320.953125 45.042969 318.347656 44.546875 315.867188 " class="svg-elem-24"></path>
<path style="stroke: none; fill-rule: nonzero; fill: rgb(255, 222, 89); fill-opacity: 1;" d="M 186.992188 131.976562 C 150.4375 131.976562 120.707031 161.699219 120.707031 198.230469 C 120.707031 234.769531 150.4375 264.488281 186.992188 264.488281 C 223.550781 264.488281 253.289062 234.769531 253.289062 198.230469 C 253.289062 161.699219 223.550781 131.976562 186.992188 131.976562 Z M 186.992188 269.8125 C 147.503906 269.8125 115.378906 237.699219 115.378906 198.230469 C 115.378906 158.765625 147.503906 126.652344 186.992188 126.652344 C 226.484375 126.652344 258.609375 158.765625 258.609375 198.230469 C 258.609375 237.699219 226.484375 269.8125 186.992188 269.8125 " class="svg-elem-25"></path>
</g>
</defs>
<g id="surface1">
<use xlink:href="#surface5" transform="matrix(1,0,0,1,0.000000000000000056,4)" mask="url(#mask0)"></use>
</g>
</svg>
