<?xml version="1.0" encoding="UTF-8"?>
<svg xmlns="http://www.w3.org/2000/svg" xmlns:xlink="http://www.w3.org/1999/xlink" width="375pt" height="374.999991pt" viewBox="0 0 375 374.999991" version="1.2">
<defs>
<clipPath id="clip1">
  <path d="M 145.304688 147 L 225 147 L 225 250.960938 L 145.304688 250.960938 Z M 145.304688 147 "/>
</clipPath>
</defs>
<g id="surface1">
<path style=" stroke:none;fill-rule:nonzero;fill:rgb(100%,87.059021%,34.899902%);fill-opacity:1;" d="M 180.386719 190.265625 C 180.386719 187.828125 182.359375 185.84375 184.78125 185.84375 C 187.207031 185.84375 189.175781 187.828125 189.175781 190.265625 C 189.175781 192.703125 187.207031 194.683594 184.78125 194.683594 C 182.359375 194.683594 180.386719 192.703125 180.386719 190.265625 Z M 180.386719 190.265625 "/>
<path style=" stroke:none;fill-rule:nonzero;fill:rgb(100%,87.059021%,34.899902%);fill-opacity:1;" d="M 168.960938 167.28125 C 168.960938 164.84375 170.933594 162.859375 173.355469 162.859375 C 175.78125 162.859375 177.75 164.84375 177.75 167.28125 C 177.75 169.71875 175.78125 171.699219 173.355469 171.699219 C 170.933594 171.699219 168.960938 169.71875 168.960938 167.28125 Z M 168.960938 167.28125 "/>
<path style=" stroke:none;fill-rule:nonzero;fill:rgb(100%,87.059021%,34.899902%);fill-opacity:1;" d="M 208.121094 189.285156 C 208.121094 191.722656 206.152344 193.707031 203.726562 193.707031 C 201.304688 193.707031 199.332031 191.722656 199.332031 189.285156 C 199.332031 186.847656 201.304688 184.867188 203.726562 184.867188 C 206.152344 184.867188 208.121094 186.847656 208.121094 189.285156 Z M 208.121094 189.285156 "/>
<g clip-path="url(#clip1)" clip-rule="nonzero">
<path style=" stroke:none;fill-rule:nonzero;fill:rgb(100%,87.059021%,34.899902%);fill-opacity:1;" d="M 215.703125 209.988281 C 213.617188 212.527344 212.46875 215.699219 212.46875 218.917969 L 212.46875 250.933594 L 172.183594 250.96875 L 172.183594 236.429688 C 172.183594 234.292969 170.453125 232.550781 168.324219 232.550781 L 156.949219 232.550781 C 154.203125 232.550781 151.96875 230.304688 151.96875 227.539062 L 151.96875 214.742188 L 186.101562 214.742188 L 186.101562 206.691406 L 205.046875 206.691406 L 205.046875 196.230469 C 208.292969 195.605469 210.757812 192.734375 210.757812 189.285156 C 210.757812 185.839844 208.292969 182.964844 205.046875 182.34375 L 205.046875 180.613281 C 208.292969 179.988281 210.757812 177.113281 210.757812 173.667969 C 210.757812 169.769531 207.605469 166.597656 203.726562 166.597656 C 199.851562 166.597656 196.695312 169.769531 196.695312 173.667969 C 196.695312 177.113281 199.160156 179.988281 202.410156 180.613281 L 202.410156 182.34375 C 199.160156 182.964844 196.695312 185.839844 196.695312 189.285156 C 196.695312 192.734375 199.160156 195.605469 202.410156 196.230469 L 202.410156 204.042969 L 186.101562 204.042969 L 186.101562 197.207031 C 189.351562 196.585938 191.8125 193.710938 191.8125 190.265625 C 191.8125 186.367188 188.660156 183.191406 184.78125 183.191406 C 180.90625 183.191406 177.75 186.367188 177.75 190.265625 C 177.75 193.710938 180.214844 196.585938 183.464844 197.207031 L 183.464844 204.042969 L 151.96875 204.042969 L 151.96875 204.039062 L 149.433594 204.039062 C 148.003906 204.039062 146.707031 203.25 146.046875 201.976562 C 145.386719 200.703125 145.480469 199.179688 146.296875 198.003906 L 150.832031 191.449219 C 151.398438 190.628906 151.410156 189.566406 150.859375 188.734375 C 150.421875 188.074219 150.121094 187.339844 149.953125 186.582031 L 174.675781 186.582031 L 174.675781 174.222656 C 177.921875 173.601562 180.386719 170.726562 180.386719 167.28125 C 180.386719 163.378906 177.234375 160.207031 173.355469 160.207031 C 169.480469 160.207031 166.324219 163.378906 166.324219 167.28125 C 166.324219 170.726562 168.789062 173.601562 172.039062 174.222656 L 172.039062 183.929688 L 149.917969 183.929688 C 149.9375 183.835938 149.949219 183.746094 149.96875 183.652344 L 154.203125 166.230469 C 154.546875 164.800781 155.140625 163.492188 155.960938 162.34375 C 159.527344 157.347656 170.285156 145.960938 193.113281 148.132812 C 203.289062 149.101562 211.570312 153.921875 217.0625 162.078125 C 224.253906 172.75 225.46875 187.644531 222.964844 196.234375 C 221.132812 202.519531 218.003906 207.183594 215.703125 209.988281 Z M 215.703125 209.988281 "/>
</g>
<path style=" stroke:none;fill-rule:nonzero;fill:rgb(100%,87.059021%,34.899902%);fill-opacity:1;" d="M 199.332031 173.667969 C 199.332031 171.230469 201.304688 169.25 203.726562 169.25 C 206.152344 169.25 208.121094 171.230469 208.121094 173.667969 C 208.121094 176.105469 206.152344 178.089844 203.726562 178.089844 C 201.304688 178.089844 199.332031 176.105469 199.332031 173.667969 Z M 199.332031 173.667969 "/>
<path style=" stroke:none;fill-rule:nonzero;fill:rgb(100%,87.059021%,34.899902%);fill-opacity:1;" d="M 183.464844 206.691406 L 151.96875 206.691406 L 151.96875 212.089844 L 183.464844 212.089844 Z M 183.464844 206.691406 "/>
</g>
</svg>
