<?xml version="1.0" encoding="UTF-8"?>
<svg xmlns="http://www.w3.org/2000/svg" xmlns:xlink="http://www.w3.org/1999/xlink" width="75pt" height="74.999997pt" viewBox="0 0 75 74.999997" version="1.2">
<defs>
<clipPath id="clip1">
  <path d="M 10.648438 7.5 L 64.648438 7.5 L 64.648438 67.5 L 10.648438 67.5 Z M 10.648438 7.5 "/>
</clipPath>
</defs>
<g id="surface1">
<g clip-path="url(#clip1)" clip-rule="nonzero">
<path style=" stroke:none;fill-rule:nonzero;fill:rgb(0.779724%,46.669006%,74.119568%);fill-opacity:1;" d="M 64.949219 7.5 L 10.65625 7.5 L 15.445312 61.183594 L 37.804688 67.5 L 60.160156 61.183594 Z M 64.949219 7.5 "/>
</g>
<path style=" stroke:none;fill-rule:nonzero;fill:rgb(1.179504%,60.778809%,89.7995%);fill-opacity:1;" d="M 37.804688 12.238281 L 37.804688 62.605469 L 55.6875 57.550781 L 59.679688 12.238281 Z M 37.804688 12.238281 "/>
<path style=" stroke:none;fill-rule:nonzero;fill:rgb(100%,100%,100%);fill-opacity:1;" d="M 52.335938 20.132812 L 37.804688 20.132812 L 37.804688 26.449219 L 45.628906 26.449219 L 45.148438 32.761719 L 37.804688 32.761719 L 37.804688 39.078125 L 44.828125 39.078125 L 44.351562 46.183594 L 37.804688 48.394531 L 37.804688 55.027344 L 50.417969 50.921875 L 51.535156 32.761719 Z M 52.335938 20.132812 "/>
<path style=" stroke:none;fill-rule:nonzero;fill:rgb(93.328857%,93.328857%,93.328857%);fill-opacity:1;" d="M 37.804688 20.132812 L 37.804688 26.449219 L 23.589844 26.449219 L 23.113281 20.132812 Z M 30.457031 32.761719 L 30.777344 39.078125 L 37.804688 39.078125 L 37.804688 32.761719 Z M 31.097656 42.238281 L 24.707031 42.238281 L 25.1875 50.921875 L 37.804688 55.027344 L 37.804688 48.394531 L 31.253906 46.183594 Z M 31.097656 42.238281 "/>
</g>
</svg>
