<?xml version="1.0" encoding="UTF-8" standalone="no"?>
<svg
   contentScriptType="text/ecmascript"
   width="150.63283pt"
   zoomAndPan="magnify"
   contentStyleType="text/css"
   viewBox="0 0 150.63282 287.96435"
   height="287.96436pt"
   preserveAspectRatio="xMidYMid meet"
   version="1.2"
   id="svg256"
   sodipodi:docname="HomeBGBottom.svg"
   inkscape:version="1.1 (c68e22c387, 2021-05-23)"
   xmlns:inkscape="http://www.inkscape.org/namespaces/inkscape"
   xmlns:sodipodi="http://sodipodi.sourceforge.net/DTD/sodipodi-0.dtd"
   xmlns:xlink="http://www.w3.org/1999/xlink"
   xmlns="http://www.w3.org/2000/svg"
   xmlns:svg="http://www.w3.org/2000/svg">
  <sodipodi:namedview
     id="namedview258"
     pagecolor="#ffffff"
     bordercolor="#666666"
     borderopacity="1.0"
     inkscape:pageshadow="2"
     inkscape:pageopacity="0.0"
     inkscape:pagecheckerboard="0"
     inkscape:document-units="pt"
     showgrid="false"
     fit-margin-top="0"
     fit-margin-left="0"
     fit-margin-right="0"
     fit-margin-bottom="0"
     inkscape:zoom="1.6612489"
     inkscape:cx="94.206234"
     inkscape:cy="207.37411"
     inkscape:window-width="1920"
     inkscape:window-height="1017"
     inkscape:window-x="-8"
     inkscape:window-y="-8"
     inkscape:window-maximized="1"
     inkscape:current-layer="svg256" />
  <defs
     id="defs249">
    <filter
       x="0"
       y="0"
       width="1"
       xlink:type="simple"
       filterUnits="objectBoundingBox"
       xlink:actuate="onLoad"
       id="alpha"
       height="1"
       xlink:show="other"
       xml:id="alpha">
      <feColorMatrix
         values="0 0 0 0 1 0 0 0 0 1 0 0 0 0 1 0 0 0 1 0"
         type="matrix"
         in="SourceGraphic"
         id="feColorMatrix2" />
    </filter>
    <mask
       xml:id="mask0"
       id="mask0">
      <g
         filter="url(#alpha)"
         id="g7">
        <rect
           x="0"
           width="960"
           y="0"
           height="600"
           style="fill:#000000;fill-opacity:0.498;stroke:none"
           id="rect5" />
      </g>
    </mask>
    <g
       xml:id="surface5"
       id="surface5">
      <path
         style="fill:#ffde57;fill-opacity:1;fill-rule:nonzero;stroke:none"
         d="m 153.99219,403.85156 h -4.7461 v -85.41797 l -13.63281,-13.60547 v -13.04687 l -9.37109,-9.35156 V 265.125 L 96.445312,235.39453 v -11.125 L 65.644531,193.52734 H 50.890625 L 29.386719,172.06641 V 114.46484 L 47.273438,96.613281 h 26.171874 l 7.542969,-7.523437 V 74.824219 L 72.085938,65.941406 V 50.070312 L 61.402344,39.410156 V 1 h 4.75 v 36.449219 l 10.679687,10.660156 v 15.871094 l 8.902344,8.882812 v 18.1875 L 75.414062,101.35156 H 49.238281 l -15.105469,15.07422 v 53.67578 l 18.726563,18.6875 h 14.75 l 33.585935,33.51172 v 11.13281 l 29.79297,29.73047 v 17.30078 l 9.37109,9.35157 v 13.05078 l 13.63282,13.60547 v 87.3789"
         id="path10" />
      <g
         clip-rule="nonzero"
         id="g14">
        <path
           style="fill:#ffde57;fill-opacity:1;fill-rule:nonzero;stroke:none"
           d="m 106.51172,403.85156 h -4.75 V 350.32031 L 67.925781,316.55469 V 235.64062 L 17.347656,185.16797 V 107.28125 L 36.335938,88.332031 H 61.53125 V 59.464844 L 51.40625,49.355469 V 1.003906 h 4.75 v 46.390625 l 10.125,10.109375 v 35.5625 H 38.304688 L 22.09375,109.24609 v 73.96094 l 50.582031,50.46875 v 80.91406 l 33.835939,33.76953 v 55.49219"
           id="path12" />
      </g>
      <g
         clip-rule="nonzero"
         id="g18">
        <path
           style="fill:#ffde57;fill-opacity:1;fill-rule:nonzero;stroke:none"
           d="m 163.08594,403.88281 h -4.75 V 277.4375 L 118.41016,237.59766 V 224.42578 L 75.585938,181.69531 h -8.425782 l -9.179687,-9.16406 V 143.10547 L 69.5,131.60937 H 86.667969 L 105.23047,113.08594 V 77.480469 L 94.769531,67.046875 V 53.464844 L 71.664062,30.40625 V 1 h 4.746094 V 28.445312 L 99.519531,51.5 v 13.582031 l 10.457029,10.4375 V 115.05469 L 88.640625,136.34766 H 71.464844 l -8.738282,8.71875 v 25.5039 l 6.402344,6.39063 h 8.425782 l 45.601562,45.5039 v 13.16797 l 39.92969,39.84375 v 128.40625"
           id="path16" />
      </g>
      <path
         style="fill:#ffde57;fill-opacity:1;fill-rule:nonzero;stroke:none"
         d="m 123.49219,300.01562 -12.1836,-12.15625 V 260.45312 L 90.976562,240.16406 v -13.8125 l -20.65625,-20.61328 v -9.94922 h 1.898438 v 9.16406 L 92.875,225.56641 v 13.8125 l 20.33203,20.28906 v 27.40625 l 11.62891,11.60156 -1.34375,1.33984"
         id="path20" />
      <path
         style="fill:#ffde57;fill-opacity:1;fill-rule:nonzero;stroke:none"
         d="m 133.80859,248.66797 h -1.89843 v -12.92188 l -5.67578,-5.66406 V 206.05469 L 82.570312,162.48437 V 149.68359 L 116.12891,116.19922 V 69.460938 l 23.58203,-23.53125 V 1 h 1.89843 v 45.714844 l -23.58203,23.53125 v 46.738286 l -33.55859,33.48437 v 11.23047 l 43.66406,43.57031 v 24.02734 l 5.67578,5.66407 v 13.70703"
         id="path22" />
      <g
         clip-rule="nonzero"
         id="g26">
        <path
           style="fill:#ffde57;fill-opacity:1;fill-rule:nonzero;stroke:none"
           d="m 89.863281,403.85156 h -1.898437 v -30.39844 l 9.382812,-9.36718 V 351.98437 L 56.421875,311.14062 v -35.7539 l 7.9375,-7.91797 V 247.75 L 43.875,227.30469 v -8.9336 L 10.316406,184.88281 V 101.35547 L 4.933594,95.980469 v -18.625 L 23.1875,59.140625 V 1.003906 h 1.898438 V 59.925781 L 6.832031,78.140625 v 17.054687 l 5.382813,5.374998 v 83.52735 l 33.558594,33.48828 v 8.9375 l 20.484374,20.4414 v 21.28907 l -7.9375,7.91406 v 34.1914 l 40.925782,40.83985 v 13.66797 l -9.382813,9.37109 v 29.61328"
           id="path24" />
      </g>
      <path
         style="fill:#ffde57;fill-opacity:1;fill-rule:nonzero;stroke:none"
         d="m 23.765625,89.011719 -1.339844,-1.339844 7.539063,-7.527344 h 9.363281 L 47.5,71.988281 V 59.140625 L 38.058594,49.714844 V 25.347656 l 13.359375,-13.328125 1.34375,1.335938 -12.804688,12.777343 v 22.796876 l 9.445313,9.425781 v 14.414062 l -9.289063,9.269531 H 30.75 l -6.984375,6.972657"
         id="path28" />
      <path
         style="fill:#ffde57;fill-opacity:1;fill-rule:nonzero;stroke:none"
         d="M 86.472656,127.75 H 68.582031 l -9.464843,-9.44531 1.34375,-1.33985 8.90625,8.88672 H 85.6875 l 16.31641,-16.28125 V 91.847656 l -7.074222,-7.058594 h -5.9375 l -6.144532,-6.132812 1.34375,-1.339844 5.585938,5.578125 h 5.9375 l 8.187496,8.167969 v 19.29297 L 86.472656,127.75"
         id="path30" />
      <path
         style="fill:#ffde57;fill-opacity:1;fill-rule:nonzero;stroke:none"
         d="m 145.44141,222.71875 h -1.89844 v -11.24609 l -5.41016,-5.39454 h -6.11328 L 87.371094,161.52344 v -12.7461 l 5.660156,-5.64843 h 13.08984 l 13.92188,-13.89454 V 81.65625 L 135.27344,66.460938 V 58.238281 L 143.41016,50.125 V 29.886719 l 7.26171,-7.25 V 1.003906 h 1.89844 v 22.417969 l -7.25781,7.246094 V 50.90625 l -8.14063,8.117188 v 8.222656 l -15.22656,15.195312 v 47.574214 l -15.03906,15.01172 H 93.816406 l -4.546875,4.53125 v 11.17969 l 43.539059,43.44141 h 6.11328 l 6.51954,6.50781 v 12.03125"
         id="path32" />
      <path
         style="fill:#ffde57;fill-opacity:1;fill-rule:nonzero;stroke:none"
         d="m 90.644531,334.92578 h -1.898437 v -10.19531 l -9.648438,-9.62891 V 302.46484 L 74.625,298.00781 V 226.89844 L 61.117188,213.41797 H 54.574219 L 42.179688,201.05078 v -18.625 h 1.898437 v 17.83984 l 11.28125,11.25782 h 6.542969 l 14.621094,14.58984 v 71.10938 l 4.472656,4.45703 v 12.63672 l 9.648437,9.6289 v 10.98047"
         id="path34" />
      <path
         style="fill:#ffde57;fill-opacity:1;fill-rule:nonzero;stroke:none"
         d="m 47.257812,129.16797 c -2.625,0 -4.761718,2.1289 -4.761718,4.75 0,2.61719 2.136718,4.74609 4.761718,4.74609 2.621094,0 4.757813,-2.1289 4.757813,-4.74609 0,-2.6211 -2.136719,-4.75 -4.757813,-4.75 z m 0,14.23437 c -5.242187,0 -9.507812,-4.2539 -9.507812,-9.48437 0,-5.23047 4.265625,-9.48438 9.507812,-9.48438 5.238282,0 9.503907,4.25391 9.503907,9.48438 0,5.23047 -4.265625,9.48437 -9.503907,9.48437"
         id="path36" />
      <path
         style="fill:#ffde57;fill-opacity:1;fill-rule:nonzero;stroke:none"
         d="m 63.105469,117.63672 c 0,-1.82813 -1.484375,-3.3125 -3.316407,-3.3125 -1.832031,0 -3.320312,1.48437 -3.320312,3.3125 0,1.82812 1.488281,3.30859 3.320312,3.30859 1.832032,0 3.316407,-1.48047 3.316407,-3.30859"
         id="path38" />
      <path
         style="fill:#ffde57;fill-opacity:1;fill-rule:nonzero;stroke:none"
         d="m 26.246094,88.339844 c 0,-1.832032 -1.484375,-3.3125 -3.316406,-3.3125 -1.832032,0 -3.320313,1.480468 -3.320313,3.3125 0,1.828125 1.488281,3.3125 3.320313,3.3125 1.832031,0 3.316406,-1.484375 3.316406,-3.3125"
         id="path40" />
      <path
         style="fill:#ffde57;fill-opacity:1;fill-rule:nonzero;stroke:none"
         d="m 17.292969,79.410156 c 0,-1.832031 -1.480469,-3.3125 -3.3125,-3.3125 -1.835938,0 -3.320313,1.480469 -3.320313,3.3125 0,1.828125 1.484375,3.308594 3.320313,3.308594 1.832031,0 3.3125,-1.480469 3.3125,-3.308594"
         id="path42" />
      <g
         clip-rule="nonzero"
         id="g46">
        <path
           style="fill:#ffde57;fill-opacity:1;fill-rule:nonzero;stroke:none"
           d="m 6.960938,69.09375 c 0,-1.828125 -1.488282,-3.3125 -3.320313,-3.3125 -1.832031,0 -3.316406,1.484375 -3.316406,3.3125 0,1.832031 1.484375,3.3125 3.316406,3.3125 1.832031,0 3.320313,-1.480469 3.320313,-3.3125"
           id="path44" />
      </g>
      <path
         style="fill:#ffde57;fill-opacity:1;fill-rule:nonzero;stroke:none"
         d="M 58.675781,167.03125 44.882812,153.26953 v -13.30078 h 4.746094 v 11.33594 l 12.40625,12.3789 -3.359375,3.34766"
         id="path48" />
      <path
         style="fill:#ffde57;fill-opacity:1;fill-rule:nonzero;stroke:none"
         d="M 4.632812,69.445312 3.289062,68.105469 18.707031,52.722656 V 40.617188 l -6.074219,-6.0625 V 1.003906 h 1.898438 v 32.765625 l 6.074219,6.0625 v 13.675781 l -15.972657,15.9375"
         id="path50" />
      <path
         style="fill:#ffde57;fill-opacity:1;fill-rule:nonzero;stroke:none"
         d="m 14.648438,80.082031 -1.339844,-1.339843 9.773437,-9.757813 H 32.5 l 3.257812,-3.253906 V 60.453125 L 23.917969,48.644531 25.261719,47.304688 37.65625,59.671875 v 6.84375 l -4.371094,4.363281 h -9.417968 l -9.21875,9.203125"
         id="path52" />
    </g>
    <mask
       xml:id="mask1"
       id="mask1">
      <g
         filter="url(#alpha)"
         id="g57">
        <rect
           x="0"
           width="960"
           y="0"
           height="600"
           style="fill:#000000;fill-opacity:0.498;stroke:none"
           id="rect55" />
      </g>
    </mask>
    <g
       xml:id="surface8"
       id="surface8">
      <g
         clip-rule="nonzero"
         id="g62">
        <path
           style="fill:#ffde57;fill-opacity:1;fill-rule:nonzero;stroke:none"
           d="m 44.683594,13.917969 c 0,1.296875 1.050781,2.351562 2.351562,2.355469 1.296875,0.0039 2.355469,-1.050782 2.355469,-2.351563 0,0 0,0 0,-0.0039 0,-1.160157 -0.847656,-2.125 -1.957031,-2.3125 l 0.01563,-10.625 h -0.78125 l -0.01953,10.621093 c -1.109376,0.1875 -1.960938,1.148438 -1.964844,2.3125 0,0.0039 0,0.0039 0,0.0039"
           id="path60" />
      </g>
      <g
         clip-rule="nonzero"
         id="g66">
        <path
           style="fill:#ffde57;fill-opacity:1;fill-rule:nonzero;stroke:none"
           d="m 36.886719,45.285156 c 0,1.300782 1.050781,2.355469 2.351562,2.359375 1.300781,0 2.355469,-1.054687 2.359375,-2.351562 0,0 0,-0.0039 0,-0.0039 0,-1.164062 -0.847656,-2.125 -1.960937,-2.3125 L 39.65625,30.152344 51.835938,18.011719 51.863281,0.980469 H 51.078125 L 51.050781,17.6875 38.875,29.824219 38.851562,42.976562 c -1.109374,0.183594 -1.960937,1.144532 -1.964843,2.308594"
           id="path64" />
      </g>
      <g
         clip-rule="nonzero"
         id="g70">
        <path
           style="fill:#ffde57;fill-opacity:1;fill-rule:nonzero;stroke:none"
           d="m 23.0625,38.28125 c 0,1.300781 1.050781,2.351562 2.347656,2.355469 1.300782,0 2.355469,-1.050781 2.355469,-2.351563 0,-0.0039 0,-0.0039 0,-0.0078 0,-1.015625 -0.652344,-1.878906 -1.5625,-2.203125 L 26.222655,23.539074 38.398437,11.39845 38.414057,0.980481 h -0.78125 L 37.613281,11.070312 25.4375,23.214844 25.417969,35.929688 c -1.300781,0 -2.355469,1.050781 -2.355469,2.347656 0,0.0039 0,0.0039 0,0.0039"
           id="path68" />
      </g>
      <g
         clip-rule="nonzero"
         id="g74">
        <path
           style="fill:#ffde57;fill-opacity:1;fill-rule:nonzero;stroke:none"
           d="m 22.441406,59.066406 c 0,1.296875 1.050782,2.355469 2.351563,2.355469 1.296875,0.0039 2.355469,-1.050781 2.355469,-2.351563 0,0 0,-0.0039 0,-0.0039 0,-0.402344 -0.113282,-0.777344 -0.292969,-1.109375 l 3.828125,-3.816406 0.04687,-28.246094 12.175781,-12.140625 0.01953,-12.773437 h -0.78125 L 42.121094,13.429688 29.945312,25.566406 29.902344,53.8125 26.375,57.332031 C 25.957031,56.953125 25.40625,56.714844 24.796875,56.714844 23.5,56.710938 22.441406,57.761719 22.441406,59.0625 c 0,0.0039 0,0.0039 0,0.0039"
           id="path72" />
      </g>
      <g
         clip-rule="nonzero"
         id="g78">
        <path
           style="fill:#ffde57;fill-opacity:1;fill-rule:nonzero;stroke:none"
           d="m 91.84375,107.79297 c 0,1.30078 1.050781,2.35156 2.347656,2.35156 1.300782,0.004 2.355469,-1.04687 2.355469,-2.34765 0,0 0,-0.004 0,-0.004 0,-1.16406 -0.84375,-2.125 -1.957031,-2.3125 L 94.640625,75.789062 120.5625,49.941406 120.52734,0.980469 h -0.78515 l 0.0352,48.632812 -25.925778,25.847657 -0.04297,30.019532 c -1.113282,0.18359 -1.964844,1.14453 -1.964844,2.30859 0,0 0,0 0,0.004"
           id="path76" />
      </g>
      <g
         clip-rule="nonzero"
         id="g82">
        <path
           style="fill:#ffde57;fill-opacity:1;fill-rule:nonzero;stroke:none"
           d="m 84.046875,139.16016 c 0,1.30078 1.050781,2.35546 2.351563,2.35546 1.296874,0.004 2.351562,-1.05078 2.355468,-2.35156 0,-1.16406 -0.847656,-2.125 -1.957031,-2.3164 l 0.01953,-12.82032 12.175782,-12.14453 0.05469,-34.124998 25.921873,-25.851562 -0.0352,-50.925781 h -0.78125 l 0.0352,50.601562 -25.925779,25.847657 -0.05078,34.128902 -12.179688,12.14454 -0.01953,13.14453 c -1.113281,0.1875 -1.964844,1.14453 -1.964844,2.3125"
           id="path80" />
      </g>
      <g
         clip-rule="nonzero"
         id="g86">
        <path
           style="fill:#ffde57;fill-opacity:1;fill-rule:nonzero;stroke:none"
           d="m 77.871094,69.308594 c 0,1.296875 1.046875,2.351562 2.347656,2.355468 1.296875,0 2.355469,-1.050781 2.355469,-2.351562 0,0 0,-0.0039 0,-0.0039 0,-0.507813 -0.164063,-0.972656 -0.433594,-1.359375 l 24.789065,-24.71875 -0.0312,-42.25 h -0.78516 l 0.0352,41.921875 -24.562502,24.496094 c -0.382813,-0.277344 -0.851563,-0.441407 -1.359376,-0.445313 -1.300781,0 -2.355468,1.050781 -2.355468,2.351563 0,0 0,0.0039 0,0.0039"
           id="path84" />
      </g>
      <g
         clip-rule="nonzero"
         id="g90">
        <path
           style="fill:#ffde57;fill-opacity:1;fill-rule:nonzero;stroke:none"
           d="m 70.21875,132.16016 c 0,1.29687 1.050781,2.34765 2.351562,2.35156 1.296876,0 2.355469,-1.05078 2.355469,-2.35156 0,0 0,-0.004 0,-0.004 0,-1.02344 -0.65625,-1.88281 -1.566406,-2.20703 l 0.01953,-12.53516 12.175782,-12.14062 0.05469,-34.128909 L 111.53516,45.292969 111.5,0.980469 h -0.78516 l 0.0352,43.988281 -25.925781,25.851562 -0.05078,34.124998 -12.175782,12.14063 -0.02344,12.71875 c -1.300781,-0.004 -2.351563,1.04687 -2.355469,2.34765 0,0.004 0,0.004 0,0.008"
           id="path88" />
      </g>
      <g
         clip-rule="nonzero"
         id="g94">
        <path
           style="fill:#ffde57;fill-opacity:1;fill-rule:nonzero;stroke:none"
           d="m 69.597656,152.94141 c 0,1.30078 1.050782,2.35156 2.351563,2.35546 1.296875,0 2.355469,-1.05078 2.359375,-2.35156 0,-0.40625 -0.113282,-0.78125 -0.292969,-1.11328 L 77.84375,148.01172 77.89062,119.76953 90.066406,107.62891 90.117188,73.5 116.04297,47.648438 116.00391,0.980469 h -0.78125 l 0.0352,46.34375 -25.921872,25.851562 -0.05859,34.124999 -12.175782,12.14063 -0.03906,28.24609 -3.53125,3.51953 c -0.417969,-0.38281 -0.964844,-0.61719 -1.574219,-0.62109 -1.300781,0 -2.355469,1.05078 -2.359375,2.35156 0,0 0,0.004 0,0.004"
           id="path92" />
      </g>
      <g
         clip-rule="nonzero"
         id="g98">
        <path
           style="fill:#ffde57;fill-opacity:1;fill-rule:nonzero;stroke:none"
           d="m 63.167969,24.707031 11.785156,11.75 0.07813,51.476563 -8.09375,9.753906 c -0.28125,-0.117188 -0.585938,-0.183594 -0.90625,-0.179688 -1.300781,0 -2.351562,1.050782 -2.351562,2.351563 0,0.0039 0,0.0039 0,0.0039 0,1.300775 1.054687,2.351555 2.355468,2.351555 1.300782,-0.004 2.351563,-1.05859 2.351563,-2.355461 0,0 0,-0.0039 0,-0.0039 0,-0.695313 -0.308594,-1.3125 -0.785157,-1.742188 l 8.21875,-9.894531 -0.08203,-52.085938 -11.785156,-11.75 0.01563,-23.402343 h -0.785156 l -0.01563,23.726562"
           id="path96" />
      </g>
      <g
         clip-rule="nonzero"
         id="g102">
        <path
           style="fill:#ffde57;fill-opacity:1;fill-rule:nonzero;stroke:none"
           d="m 55.53125,40.316406 8.566406,8.597656 c -0.273437,0.382813 -0.4375,0.851563 -0.441406,1.359376 0,0 0,0.0039 0,0.0039 0,1.296875 1.054688,2.351562 2.351562,2.351562 1.300782,0 2.355469,-1.050781 2.359376,-2.347656 0,0 0,-0.0039 0,-0.0039 0,-1.300782 -1.054688,-2.351563 -2.351563,-2.355469 -0.507813,0 -0.976563,0.164063 -1.363281,0.433594 L 56.550781,40.226562 56.523438,0.980469 H 55.6875 l -0.15625,39.335937"
           id="path100" />
      </g>
      <path
         style="fill:#ffde57;fill-opacity:1;fill-rule:nonzero;stroke:none"
         d="m 59.425781,34.402344 c 0,0.0039 0,0.0039 0,0.0039 0.0039,1.300781 1.054688,2.351562 2.355469,2.351562 0.558594,-0.0039 1.066406,-0.207031 1.472656,-0.535156 l 7.355469,7.339844 0.0625,39.339844 -3.917969,4.71875 c -0.277344,-0.183594 -0.585937,-0.320313 -0.925781,-0.375 h -0.78125 c -1.113281,0.1875 -1.957031,1.148437 -1.957031,2.3125 0,0 0,0.0039 0,0.0039 0,0.644531 0.261718,1.226562 0.679687,1.652344 l 0.25,0.207031 c 0.398438,0.304687 0.886719,0.492187 1.425781,0.492187 1.296876,-0.0039 2.347657,-1.054687 2.347657,-2.355468 0,0 0,0 0,-0.0039 0,-0.523438 -0.179688,-1.003907 -0.472657,-1.390626 l 4.136719,-4.980468 -0.0625,-39.949219 -7.621093,-7.597656 c 0.222656,-0.359375 0.359374,-0.78125 0.359374,-1.230469 0,-0.0039 0,-0.0039 0,-0.0078 -0.0039,-1.300782 -1.058593,-2.351563 -2.359374,-2.347657 -1.296876,0 -2.347657,1.054688 -2.347657,2.351563"
         id="path104" />
      <path
         style="fill:#ffde57;fill-opacity:1;fill-rule:nonzero;stroke:none"
         d="m 95.328125,249.91406 c 0,1.16406 0.84375,2.125 1.957031,2.3125 l -0.06641,41.875 h 0.785156 l 0.06641,-41.875 c 1.113282,-0.18359 1.960938,-1.14453 1.960938,-2.30859 0,0 0,-0.004 0,-0.004 0,-1.29687 -1.050781,-2.35156 -2.347656,-2.35547 -1.300782,0 -2.355469,1.05078 -2.355469,2.35157 0,0 0,0.004 0,0.004"
         id="path106" />
      <path
         style="fill:#ffde57;fill-opacity:1;fill-rule:nonzero;stroke:none"
         d="m 106.64844,175.06641 0.0859,119.03906 0.78515,-0.004 -0.0898,-118.70703 25.92578,-25.85156 0.0469,-30.01563 c 1.10938,-0.18359 1.96094,-1.14453 1.96485,-2.30859 0,-0.004 0,-0.004 0,-0.004 0,-1.30078 -1.05078,-2.35546 -2.35157,-2.35546 -1.29687,-0.004 -2.35156,1.04687 -2.35546,2.34765 0,0.004 0,0.004 0,0.004 0,1.16406 0.84765,2.125 1.95703,2.3125 l -0.0469,29.69531 -25.92187,25.84766"
         id="path108" />
      <path
         style="fill:#ffde57;fill-opacity:1;fill-rule:nonzero;stroke:none"
         d="m 102.23828,173.09766 0.0859,121.00781 0.78516,-0.004 -0.0859,-120.67578 25.92187,-25.85156 0.0547,-34.12891 12.17578,-12.14062 0.0234,-13.14844 c 1.10937,-0.183594 1.96094,-1.144531 1.96484,-2.308594 0,-0.0039 0,-0.0039 0,-0.0039 0,-1.300781 -1.05078,-2.351562 -2.35156,-2.355469 -1.29688,0 -2.35547,1.050781 -2.35938,2.351563 0,1.167968 0.84766,2.125 1.96094,2.316406 l -0.0195,12.820314 -12.17578,12.14453 -0.0547,34.12891 -25.92578,25.84766"
         id="path110" />
      <path
         style="fill:#ffde57;fill-opacity:1;fill-rule:nonzero;stroke:none"
         d="m 120.27734,181.77344 0.0898,112.33203 0.78515,-0.004 -0.0898,-112 24.55859,-24.49219 c 0.38672,0.27344 0.85547,0.44141 1.35938,0.44141 1.30078,0 2.35547,-1.05078 2.35937,-2.35156 0,0 0,-0.004 0,-0.004 0,-1.29687 -1.05078,-2.35156 -2.35156,-2.35156 -1.29687,-0.004 -2.35156,1.05078 -2.35547,2.34766 0,0 0,0.004 0,0.004 0,0.50781 0.16406,0.97656 0.4375,1.35938 l -24.79297,24.71875"
         id="path112" />
      <path
         style="fill:#ffde57;fill-opacity:1;fill-rule:nonzero;stroke:none"
         d="m 115.67578,179.71094 0.0898,114.39453 0.78125,-0.004 -0.0898,-114.0625 25.92578,-25.85156 0.0547,-34.12891 12.17578,-12.14062 0.0195,-12.714845 c 1.30078,0 2.35547,-1.050781 2.35938,-2.351563 0,0 0,-0.0039 0,-0.0039 0,-1.296875 -1.05469,-2.351562 -2.35157,-2.351562 -1.30078,-0.0039 -2.35546,1.050781 -2.35546,2.347656 0,0.0039 0,0.0039 0,0.0078 0,1.019532 0.65625,1.878907 1.5625,2.203126 l -0.0195,12.539058 -12.17578,12.14063 -0.0547,34.1289 -25.92188,25.84766"
         id="path114" />
      <path
         style="fill:#ffde57;fill-opacity:1;fill-rule:nonzero;stroke:none"
         d="m 111.16797,177.35547 0.0898,116.75 0.78516,-0.004 -0.0937,-116.41797 25.92578,-25.85156 0.0547,-34.1289 12.17578,-12.14063 0.043,-28.246094 3.53125,-3.519531 c 0.41797,0.382813 0.96484,0.621094 1.57422,0.621094 1.29687,0 2.35546,-1.050781 2.35546,-2.351563 0,-1.300781 -1.05078,-2.355468 -2.34765,-2.355468 -1.30078,-0.0039 -2.35547,1.046874 -2.35938,2.351562 0,0.402344 0.11328,0.78125 0.29297,1.113281 l -3.82812,3.816407 -0.0469,28.242192 -12.17578,12.14453 -0.0547,34.125 -25.92187,25.85156"
         id="path116" />
      <path
         style="fill:#ffde57;fill-opacity:1;fill-rule:nonzero;stroke:none"
         d="m 9.609375,58.777344 c 0.00391,1.167968 0.851563,2.128906 1.964844,2.3125 l 0.06641,43.351566 12.960937,12.92578 0.05859,34.1289 25.921875,25.84766 -0.08984,116.76172 0.785156,-0.004 0.08984,-117.08203 -25.925782,-25.85156 -0.05078,-34.125 -12.964844,-12.92578 -0.06641,-43.027346 c 1.109375,-0.191406 1.957031,-1.152344 1.957031,-2.3125 0,-0.0039 0,-0.0039 0,-0.0039 -0.0039,-1.300782 -1.058594,-2.355469 -2.359375,-2.351563 -1.296875,0 -2.347656,1.054687 -2.347656,2.355469"
         id="path118" />
      <path
         style="fill:#ffde57;fill-opacity:1;fill-rule:nonzero;stroke:none"
         d="m 26.566406,117.39844 c 0,0 0,0.004 0,0.004 0,1.16407 0.851563,2.1211 1.964844,2.3086 l 0.04687,30.01562 25.925781,25.85156 -0.08984,118.52735 0.785157,-0.004 0.08984,-118.85156 -25.925781,-25.84766 -0.04687,-29.6914 c 1.109375,-0.19141 1.957032,-1.14844 1.957032,-2.3125 0,-0.004 0,-0.004 0,-0.004 -0.0039,-1.30078 -1.058594,-2.35156 -2.359376,-2.34765 -1.296874,0 -2.347656,1.05078 -2.347656,2.35156"
         id="path120" />
      <path
         style="fill:#ffde57;fill-opacity:1;fill-rule:nonzero;stroke:none"
         d="m 9.078125,155.46875 c 0.00391,1.30469 1.058594,2.35547 2.359375,2.35156 0.507812,0 0.972656,-0.16406 1.359375,-0.4414 l 24.558594,24.49218 -0.08984,112.23438 0.785156,-0.004 0.08984,-112.55859 -24.792969,-24.71875 c 0.273438,-0.38281 0.4375,-0.85156 0.4375,-1.35547 0,-0.004 0,-0.004 0,-0.004 -0.0039,-1.30078 -1.058594,-2.35547 -2.355468,-2.35156 -1.300782,0.004 -2.351563,1.05859 -2.351563,2.35547"
         id="path122" />
      <path
         style="fill:#ffde57;fill-opacity:1;fill-rule:nonzero;stroke:none"
         d="m 96.429688,170.57812 c 0,0 0,0.004 0,0.004 0,1.30078 1.054687,2.35156 2.355468,2.35156 0.507813,0 0.972656,-0.16797 1.359374,-0.4414 l 0.55469,-0.55469 c 0.26953,-0.38672 0.43359,-0.85156 0.43359,-1.35938 0,0 0,0 0,-0.004 0,-0.35938 -0.0859,-0.69531 -0.23047,-1 l 23.44141,-23.375 0.0508,-34.12891 12.17578,-12.140622 0.0469,-28.246094 3.33593,-3.328125 c 0.42969,0.5 1.0586,0.820312 1.76563,0.820312 1.30078,0 2.35547,-1.050781 2.35547,-2.351562 0,-1.300781 -1.05078,-2.355469 -2.34766,-2.355469 -1.30078,-0.0039 -2.35547,1.050781 -2.35937,2.347656 0,0.304688 0.0625,0.585938 0.16406,0.851563 l -3.69922,3.691406 -0.043,28.242187 -12.17968,12.140628 -0.0508,34.1289 -23.10937,23.04688 c -0.42969,-0.42969 -1.019532,-0.69531 -1.671876,-0.69141 -1.296875,0 -2.347656,1.05469 -2.347656,2.35156"
         id="path124" />
      <path
         style="fill:#ffde57;fill-opacity:1;fill-rule:nonzero;stroke:none"
         d="m 1.429688,93.109375 c 0,0 0,0 0,0.0039 0,1.300781 1.054687,2.351563 2.355468,2.347657 l 0.019532,12.718748 12.179687,12.14062 0.05078,34.125 25.925782,25.85156 -0.08984,113.8086 0.785156,-0.004 0.08984,-114.1289 -25.925782,-25.85157 -0.05469,-34.1289 L 4.589844,107.85156 4.570312,95.316406 c 0.910157,-0.324218 1.5625,-1.183594 1.5625,-2.207031 0,0 0,-0.0039 0,-0.0039 0,-1.300781 -1.054687,-2.355469 -2.351562,-2.351563 -1.300781,0.0039 -2.351562,1.058594 -2.351562,2.355469"
         id="path126" />
      <path
         style="fill:#ffde57;fill-opacity:1;fill-rule:nonzero;stroke:none"
         d="m 18.769531,87.007812 c 0,0 0,0.0039 0,0.0039 0.0039,1.164062 0.855469,2.125 1.964844,2.308593 l 0.01953,13.148435 12.179688,12.14063 0.05469,34.1289 25.921875,25.85156 -0.02734,38.57813 -0.05859,-0.0586 v 1.10547 l 0.05859,0.0586 v 0.0508 h 0.05078 l 8.34375,8.32031 c -0.160156,0.32031 -0.261719,0.67578 -0.261719,1.05859 0.0039,1.30079 1.058594,2.35157 2.359375,2.35157 0.507812,0 0.976562,-0.16797 1.359375,-0.44141 l 0.550781,-0.55469 c 0.273438,-0.38672 0.4375,-0.85156 0.4375,-1.35937 0,0 0,-0.004 0,-0.004 -0.0039,-1.29687 -1.058594,-2.35156 -2.355468,-2.34765 -0.628907,0 -1.199219,0.25 -1.621094,0.65625 l -8.078125,-8.05469 0.02734,-39.6875 -25.925781,-25.85156 -0.05078,-34.125 -12.179688,-12.14453 -0.01953,-12.820315 c 1.109375,-0.1875 1.957031,-1.152343 1.957031,-2.316406 0,-1.300781 -1.054687,-2.355468 -2.355468,-2.351562 -1.296875,0.0039 -2.351563,1.054687 -2.351563,2.355468"
         id="path128" />
      <g
         clip-rule="nonzero"
         id="g132">
        <path
           style="fill:#ffde57;fill-opacity:1;fill-rule:nonzero;stroke:none"
           d="m 0.808594,73.300781 c 0,0.0039 0,0.0039 0,0.0039 0.003906,1.300781 1.058594,2.355468 2.359375,2.351562 0.605469,0 1.15625,-0.238281 1.574219,-0.621094 l 3.527343,3.523438 0.042969,28.242183 12.175781,12.14063 0.05469,34.1289 25.925781,25.85156 -0.09375,115.1836 0.789062,-0.004 0.08984,-115.50781 -25.925781,-25.84766 -0.05469,-34.1289 L 9.097656,106.47656 9.054688,78.230469 5.226562,74.414062 C 5.40625,74.082031 5.515625,73.703125 5.515625,73.296875 5.511719,72 4.457031,70.945312 3.160156,70.949219 c -1.300781,0 -2.351562,1.054687 -2.351562,2.351562"
           id="path130" />
      </g>
      <path
         style="fill:#ffde57;fill-opacity:1;fill-rule:nonzero;stroke:none"
         d="m 70.867188,259.99219 0.01953,34.10937 h 0.785156 l -0.01953,-33.78125 11.785156,-11.75 0.08203,-52.08594 -8.222656,-9.89843 c 0.480469,-0.42969 0.789063,-1.04688 0.789063,-1.73828 0,0 0,0 0,-0.004 0,-1.29688 -1.054688,-2.35156 -2.351563,-2.35547 -1.300781,0 -2.355469,1.05078 -2.355469,2.35156 0,0 0,0.004 0,0.004 0,1.30078 1.050782,2.35156 2.347656,2.35156 0.324219,0 0.628907,-0.0625 0.910157,-0.17969 l 8.09375,9.75 -0.07813,51.48047 -11.785156,11.7461"
         id="path134" />
      <path
         style="fill:#ffde57;fill-opacity:1;fill-rule:nonzero;stroke:none"
         d="m 73.519531,267.625 c 0,1.29687 1.050781,2.35156 2.351563,2.35547 0.648437,0 1.234375,-0.26172 1.664062,-0.6875 l 5.574219,6.71094 -0.02734,18.09765 h 0.785157 l 0.02734,-18.38281 -5.898437,-7.09766 c 0.144531,-0.30468 0.230468,-0.63672 0.230468,-0.99218 0,0 0,-0.004 0,-0.004 0,-1.30078 -1.050781,-2.35156 -2.347656,-2.35547 -1.300781,0 -2.359375,1.05078 -2.359375,2.35156 0,0 0,0 0,0.004"
         id="path136" />
      <path
         style="fill:#ffde57;fill-opacity:1;fill-rule:nonzero;stroke:none"
         d="m 105.12891,155.82031 c 0,1.29688 1.05078,2.35156 2.34765,2.35156 1.30078,0.004 2.35547,-1.04687 2.35938,-2.34765 0,0 0,-0.004 0,-0.004 0,-0.5039 -0.16406,-0.97265 -0.4375,-1.35937 l 10.65234,-10.61719 0.0664,-44.328125 7.0664,-7.046875 c 0.41797,0.378906 0.96485,0.617188 1.57422,0.617188 1.30078,0.0039 2.35156,-1.046876 2.35547,-2.347657 0,0 0,-0.0039 0,-0.0039 0,-1.296875 -1.05078,-2.351563 -2.34766,-2.355469 -1.30078,0 -2.35546,1.050782 -2.35937,2.351563 0,0.40625 0.11328,0.78125 0.29297,1.113281 l -7.36328,7.34375 -0.0703,44.328124 -10.42188,10.39454 c -0.38281,-0.27735 -0.85156,-0.44141 -1.35937,-0.44532 -1.29688,0 -2.35547,1.05078 -2.35547,2.35157 0,0 0,0 0,0.004"
         id="path138" />
      <path
         style="fill:#ffde57;fill-opacity:1;fill-rule:nonzero;stroke:none"
         d="m 53.742188,148.80469 43.859374,44.0039 -0.05469,33.80078 -5.105469,5.09375 0.152344,62.40235 0.785156,-0.004 -0.15625,-62.07031 5.105469,-5.09375 0.05859,-34.45313 -43.859375,-44.0039 0.02734,-16.9375 10.992187,-10.95703 c 0.417969,0.3789 0.964844,0.61328 1.574219,0.61719 1.296875,0 2.351562,-1.05079 2.355468,-2.35157 0,0 0,-0.004 0,-0.004 0,-1.29688 -1.050781,-2.35157 -2.347656,-2.35157 -1.300781,-0.004 -2.355468,1.05079 -2.359375,2.35157 0,0 0,0.004 0,0.004 0,0.40235 0.113281,0.77735 0.292969,1.10938 L 53.76952,131.21866 53.74218,148.8046"
         id="path140" />
      <path
         style="fill:#ffde57;fill-opacity:1;fill-rule:nonzero;stroke:none"
         d="m 49.035156,148.79687 43.855469,44.00391 -0.05078,33.80078 -5.105469,5.09375 0.15625,62.41016 0.78125,-0.004 -0.15625,-62.07812 5.109375,-5.09375 0.05078,-34.45313 -43.855469,-44.0039 0.02734,-16.9375 12.960938,-12.92188 0.01563,-8.04687 c 1.109375,-0.1875 1.960937,-1.14844 1.964843,-2.3125 0,0 0,-0.004 0,-0.004 0,-1.30078 -1.050781,-2.35156 -2.351562,-2.35547 -1.300781,0 -2.355469,1.05078 -2.355469,2.35156 0,0.004 0,0.004 0,0.008 0,1.16015 0.847657,2.12109 1.957031,2.30859 l -0.01172,7.72266 -12.964844,12.92578 -0.02734,17.58593"
         id="path142" />
      <path
         style="fill:#ffde57;fill-opacity:1;fill-rule:nonzero;stroke:none"
         d="m 63.226562,244.38672 0.199219,49.71484 h 0.789063 l 0.03516,-49.6289 8.101562,-8.12891 c 0.386719,0.27344 0.851563,0.4375 1.359376,0.4375 1.300781,-0.004 2.355468,-1.05859 2.355468,-2.35547 0,-0.004 0,-0.004 0,-0.004 -0.0039,-1.29687 -1.058594,-2.35156 -2.359375,-2.34765 -1.296875,0 -2.351562,1.05469 -2.351562,2.35156 0,0 0,0.004 0,0.004 0,0.50781 0.167969,0.97656 0.441406,1.35937 l -8.570313,8.59766"
         id="path144" />
      <path
         style="fill:#ffde57;fill-opacity:1;fill-rule:nonzero;stroke:none"
         d="m 17.859375,67.988281 c 0,1.300781 1.054687,2.355469 2.355469,2.351563 0.707031,-0.0039 1.335937,-0.324219 1.765625,-0.820313 l 3.335937,3.328125 0.04297,28.246094 12.179687,12.14063 0.05078,34.1289 25.925781,25.85156 -0.01953,28.50782 c -1.148438,0.15625 -2.039063,1.1289 -2.039063,2.32031 0,0.004 0,0.004 0,0.008 0,0.50781 0.164063,0.97656 0.4375,1.35938 l 0.558594,0.55468 c 0.382813,0.27344 0.851563,0.4375 1.359375,0.4336 1.296875,0 2.351562,-1.05469 2.351562,-2.35547 -0.0039,-1.13672 -0.8125,-2.08594 -1.886718,-2.30078 l 0.02344,-28.85547 -25.925781,-25.84766 -0.05469,-34.13281 -12.175781,-12.14062 -0.04297,-28.246099 -3.699218,-3.6875 c 0.101562,-0.261719 0.160156,-0.546875 0.160156,-0.847656 0,-1.300781 -1.054688,-2.351563 -2.355469,-2.351563 -1.296875,0.0039 -2.347656,1.054688 -2.347656,2.355469"
         id="path146" />
      <path
         style="fill:#ffde57;fill-opacity:1;fill-rule:nonzero;stroke:none"
         d="m 43.449219,148.00391 44.640625,44.78906 -0.03125,21.05859 c -1.113282,0.1875 -1.964844,1.14844 -1.964844,2.3125 0,0.004 0,0.004 0,0.008 0,1.29688 1.050781,2.34766 2.347656,2.35157 1.296875,0 2.355469,-1.05078 2.355469,-2.35157 0,-1.16406 -0.84375,-2.1289 -1.957031,-2.3164 L 88.875,192.46875 44.234375,147.67969 44.320312,93.480469 62.976562,74.875 c 0.429688,0.496094 1.058594,0.820312 1.765626,0.820312 1.300781,0.0039 2.355468,-1.050781 2.355468,-2.347656 0,-0.0039 0,-0.0039 0,-0.0039 0,-1.300781 -1.050781,-2.355469 -2.347656,-2.355469 -1.300781,0 -2.355469,1.050781 -2.359375,2.347657 0,0.0039 0,0.0078 0,0.0078 0,0.296875 0.0625,0.582031 0.164063,0.84375 L 43.535156,93.152338 43.449216,148.0039"
         id="path148" />
      <path
         style="fill:#ffde57;fill-opacity:1;fill-rule:nonzero;stroke:none"
         d="m 101.59766,83.46875 c 0,1.296875 1.05468,2.351562 2.35156,2.355469 0.60547,0 1.15625,-0.238281 1.57422,-0.617188 l 9,9.03125 -0.0703,44.695309 c -1.08985,0.19922 -1.92188,1.14844 -1.92579,2.30078 0,1.30079 1.05079,2.35547 2.35157,2.35938 1.29687,0 2.35156,-1.05469 2.35547,-2.35156 0,-0.004 0,-0.004 0,-0.008 0,-1.16015 -0.84766,-2.12109 -1.95704,-2.3125 h -0.0391 l 0.0703,-45.003901 -9.29687,-9.332031 c 0.17969,-0.332032 0.29297,-0.707032 0.29297,-1.113282 0,0 0,0 0,-0.0039 0,-1.296875 -1.05078,-2.351562 -2.34766,-2.351562 -1.30078,-0.0039 -2.35547,1.050781 -2.35937,2.347656 0,0 0,0.0039 0,0.0039"
         id="path150" />
      <path
         style="fill:#ffde57;fill-opacity:1;fill-rule:nonzero;stroke:none"
         d="m 67.125,250.30078 c 0,1.29688 1.046875,2.35156 2.347656,2.35156 1.300782,0.004 2.355469,-1.05078 2.355469,-2.34765 0,-0.004 0,-0.004 0,-0.004 0,-0.45703 -0.132813,-0.875 -0.355469,-1.23437 l 7.621094,-7.60157 0.05859,-39.94531 -4.128906,-4.98047 c 0.289062,-0.39062 0.46875,-0.86719 0.46875,-1.39453 0,0 0,0 0,-0.004 0,-1.29687 -1.050782,-2.35156 -2.347657,-2.35156 -0.539062,0 -1.03125,0.1875 -1.425781,0.48828 l -0.253906,0.21094 c -0.417969,0.42578 -0.675782,1.00781 -0.679688,1.64844 0,0.004 0,0.004 0,0.004 0,1.16407 0.847656,2.12891 1.957032,2.31641 h 0.785156 c 0.339844,-0.0586 0.648437,-0.19141 0.921875,-0.375 l 3.921875,4.71875 -0.0625,39.33984 -7.359375,7.33594 c -0.402344,-0.32422 -0.910157,-0.53125 -1.46875,-0.53125 -1.300781,0 -2.355469,1.05078 -2.355469,2.35156 0,0 0,0 0,0.004"
         id="path152" />
      <g
         clip-rule="nonzero"
         id="g156">
        <path
           style="fill:#ffde57;fill-opacity:1;fill-rule:nonzero;stroke:none"
           d="m 48.503906,16.273438 c 1.296875,0.0039 2.351563,-1.050782 2.355469,-2.351563 0,-1.164063 -0.84375,-2.125 -1.957031,-2.316406 l 0.01563,-10.625 h -0.78125 l -0.01953,10.621093 c -1.113282,0.1875 -1.960938,1.148438 -1.964844,2.3125 0,1.300782 1.050781,2.355469 2.351562,2.359376"
           id="path154" />
      </g>
      <g
         clip-rule="nonzero"
         id="g160">
        <path
           style="fill:#ffde57;fill-opacity:1;fill-rule:nonzero;stroke:none"
           d="m 40.320312,42.976562 c -1.109374,0.183594 -1.960937,1.144532 -1.964843,2.308594 0,1.300782 1.050781,2.355469 2.351562,2.359375 1.300781,0 2.355469,-1.054687 2.355469,-2.351562 C 43.0664,44.125 42.21875,43.164062 41.105469,42.976562 L 41.125,30.152344 53.304688,18.011719 53.332031,0.980469 h -0.785156 l -0.02734,16.703125 -12.175781,12.140625 -0.02344,13.152343"
           id="path158" />
      </g>
      <g
         clip-rule="nonzero"
         id="g164">
        <path
           style="fill:#ffde57;fill-opacity:1;fill-rule:nonzero;stroke:none"
           d="m 26.878906,40.636719 c 1.300782,0 2.355469,-1.050781 2.355469,-2.351563 0.0039,-1.019531 -0.652344,-1.882812 -1.5625,-2.210937 L 27.691405,23.539062 39.867187,11.398438 39.882807,0.980469 H 39.097651 L 39.082021,11.070312 26.90624,23.214844 26.88671,35.929688 c -1.300781,0 -2.355469,1.050781 -2.355469,2.347656 -0.0039,1.300781 1.046875,2.355468 2.347656,2.359375"
           id="path162" />
      </g>
      <g
         clip-rule="nonzero"
         id="g168">
        <path
           style="fill:#ffde57;fill-opacity:1;fill-rule:nonzero;stroke:none"
           d="m 26.261719,61.421875 c 1.296875,0.0039 2.355469,-1.050781 2.355469,-2.351563 0,-0.402343 -0.109376,-0.78125 -0.292969,-1.113281 L 32.152344,54.140625 32.199219,25.894531 44.375,13.753906 44.394531,0.980469 h -0.785156 l -0.01953,12.449219 -12.175782,12.136718 -0.04297,28.246094 -3.53125,3.519531 C 27.425781,56.953125 26.875,56.714844 26.265625,56.714844 c -1.300781,-0.0039 -2.355469,1.046875 -2.355469,2.347656 -0.0039,1.300781 1.050782,2.359375 2.351563,2.359375"
           id="path166" />
      </g>
      <g
         clip-rule="nonzero"
         id="g172">
        <path
           style="fill:#ffde57;fill-opacity:1;fill-rule:nonzero;stroke:none"
           d="m 95.320312,75.460938 -0.04687,30.019532 c -1.109376,0.18359 -1.960938,1.14453 -1.964844,2.30859 0,1.30078 1.050781,2.35547 2.351562,2.35547 1.300782,0.004 2.355469,-1.04687 2.355469,-2.34765 0.0039,-1.16407 -0.84375,-2.12891 -1.957031,-2.31641 l 0.04687,-29.691408 25.925782,-25.847656 -0.0352,-48.960937 h -0.78515 l 0.0352,48.632812 -25.925779,25.847657"
           id="path170" />
      </g>
      <g
         clip-rule="nonzero"
         id="g176">
        <path
           style="fill:#ffde57;fill-opacity:1;fill-rule:nonzero;stroke:none"
           d="M 99.730469,77.429688 99.675781,111.55859 87.5,123.70313 87.47656,136.84766 c -1.109374,0.1875 -1.960937,1.14453 -1.964843,2.3125 0,1.29687 1.054687,2.35546 2.351562,2.35546 1.300781,0.004 2.355469,-1.05078 2.359375,-2.35156 0,-1.16406 -0.847656,-2.125 -1.957031,-2.3164 l 0.01953,-12.82032 12.175787,-12.14453 0.0547,-34.124998 25.92187,-25.851562 -0.0352,-50.925781 h -0.78125 l 0.0312,50.601562 -25.921874,25.847657"
           id="path174" />
      </g>
      <g
         clip-rule="nonzero"
         id="g180">
        <path
           style="fill:#ffde57;fill-opacity:1;fill-rule:nonzero;stroke:none"
           d="m 81.6875,71.664062 c 1.296875,0 2.355469,-1.050781 2.355469,-2.351562 0,-0.507812 -0.164063,-0.976562 -0.433594,-1.359375 l 24.789065,-24.722656 -0.0352,-42.25 h -0.78125 l 0.0352,41.921875 -24.562502,24.496094 c -0.386719,-0.277344 -0.851563,-0.441407 -1.359376,-0.445313 -1.300781,0 -2.355468,1.050781 -2.359374,2.351563 0,1.300781 1.050781,2.355468 2.351562,2.359374"
           id="path178" />
      </g>
      <g
         clip-rule="nonzero"
         id="g184">
        <path
           style="fill:#ffde57;fill-opacity:1;fill-rule:nonzero;stroke:none"
           d="m 86.292969,70.820312 -0.05469,34.124998 -12.175781,12.14063 -0.01953,12.71875 c -1.300781,-0.004 -2.351563,1.04687 -2.355469,2.34765 -0.0039,1.30078 1.050781,2.35547 2.351562,2.35938 1.296876,0 2.351563,-1.05078 2.355469,-2.35156 0,-1.02344 -0.652343,-1.88672 -1.566406,-2.21094 l 0.01953,-12.53516 12.175782,-12.14062 0.05469,-34.128909 25.925784,-25.851562 -0.0352,-44.3125 h -0.78516 l 0.0352,43.988281 -25.92578,25.851562"
           id="path182" />
      </g>
      <g
         clip-rule="nonzero"
         id="g188">
        <path
           style="fill:#ffde57;fill-opacity:1;fill-rule:nonzero;stroke:none"
           d="M 90.800781,73.175781 90.746094,107.30078 78.570312,119.44141 78.527344,147.6875 75,151.20703 c -0.417969,-0.38281 -0.96875,-0.61719 -1.578125,-0.62109 -1.296875,0 -2.351563,1.05078 -2.355469,2.35156 0,1.30078 1.050782,2.35547 2.351563,2.35937 1.300781,0 2.351562,-1.05078 2.355469,-2.35156 0,-0.40625 -0.113282,-0.78125 -0.292969,-1.11328 L 79.3125,148.01172 79.355469,119.76953 91.53125,107.62891 91.585938,73.5 117.50781,47.648438 117.47266,0.980469 h -0.78516 l 0.0391,46.34375 -25.925779,25.851562"
           id="path186" />
      </g>
      <g
         clip-rule="nonzero"
         id="g192">
        <path
           style="fill:#ffde57;fill-opacity:1;fill-rule:nonzero;stroke:none"
           d="M 76.5,87.933594 68.402344,97.6875 C 68.125,97.570312 67.820312,97.503906 67.5,97.507812 c -1.300781,0 -2.355469,1.054688 -2.351562,2.355469 0,1.300779 1.054687,2.351559 2.355468,2.351559 1.300782,-0.004 2.351563,-1.05859 2.351563,-2.359371 -0.0039,-0.695313 -0.308594,-1.3125 -0.785157,-1.742188 L 77.285156,88.21875 77.207026,36.132812 65.42187,24.382812 65.4375,0.980469 h -0.789062 l -0.01172,23.726562 11.785156,11.75 L 76.5,87.933594"
           id="path190" />
      </g>
      <g
         clip-rule="nonzero"
         id="g196">
        <path
           style="fill:#ffde57;fill-opacity:1;fill-rule:nonzero;stroke:none"
           d="m 65.125,50.273438 c 0,1.296874 1.050781,2.355468 2.351562,2.355468 1.296876,0 2.351563,-1.050781 2.355469,-2.347656 0,-1.300781 -1.050781,-2.355469 -2.347656,-2.359375 -0.511719,0 -0.976563,0.164063 -1.363281,0.433594 L 58.019531,40.226562 57.992188,0.980469 H 57.15625 L 57,40.316406 l 8.566406,8.597656 c -0.273437,0.382813 -0.4375,0.851563 -0.441406,1.359376"
           id="path194" />
      </g>
      <path
         style="fill:#ffde57;fill-opacity:1;fill-rule:nonzero;stroke:none"
         d="m 63.25,36.757812 c 0.558594,-0.0039 1.066406,-0.207031 1.472656,-0.535156 l 7.355469,7.339844 0.0625,39.339844 -3.921875,4.71875 c -0.273438,-0.183594 -0.582031,-0.320313 -0.921875,-0.375 h -0.78125 c -1.113281,0.191406 -1.960937,1.152344 -1.960937,2.316406 0,0.644531 0.261718,1.226562 0.683593,1.652344 l 0.25,0.207031 c 0.398438,0.304687 0.886719,0.492187 1.425781,0.492187 1.300782,-0.0039 2.351563,-1.058593 2.347657,-2.359374 0,-0.523438 -0.179688,-1.003907 -0.472657,-1.390626 l 4.136719,-4.980468 -0.0625,-39.949219 -7.621093,-7.597656 c 0.222656,-0.359375 0.359374,-0.785157 0.359374,-1.238281 -0.0039,-1.300782 -1.058593,-2.351563 -2.359374,-2.347657 -1.300782,0 -2.351563,1.054688 -2.347657,2.355469 0,1.300781 1.054688,2.351562 2.355469,2.351562"
         id="path198" />
      <path
         style="fill:#ffde57;fill-opacity:1;fill-rule:nonzero;stroke:none"
         d="m 99.152344,247.55859 c -1.300782,0 -2.355469,1.05078 -2.359375,2.35157 0,1.16406 0.847656,2.1289 1.960937,2.3164 l -0.06641,41.87891 h 0.785156 l 0.06641,-41.87891 c 1.109378,-0.18359 1.960938,-1.14453 1.960938,-2.30859 0.004,-1.30078 -1.04687,-2.35547 -2.347656,-2.35938"
         id="path200" />
      <path
         style="fill:#ffde57;fill-opacity:1;fill-rule:nonzero;stroke:none"
         d="m 134.82422,149.54297 0.0469,-30.01563 c 1.10938,-0.18359 1.96094,-1.14453 1.96485,-2.30859 0,-1.30469 -1.05078,-2.35937 -2.35157,-2.35937 -1.30078,-0.004 -2.35546,1.04687 -2.35546,2.34765 -0.004,1.16797 0.84375,2.12891 1.95703,2.31641 l -0.0469,29.69531 -25.92578,25.84766 0.0898,119.03906 h 0.78125 l -0.0859,-118.71094 25.92578,-25.85156"
         id="path202" />
      <path
         style="fill:#ffde57;fill-opacity:1;fill-rule:nonzero;stroke:none"
         d="m 130.41406,147.57422 0.0547,-34.12891 12.17578,-12.14062 0.0195,-13.14844 c 1.11328,-0.183594 1.96485,-1.144531 1.96875,-2.308594 0,-1.300781 -1.05469,-2.355468 -2.35156,-2.359375 -1.30078,0 -2.35547,1.050781 -2.35938,2.351563 0,1.164062 0.84766,2.125 1.96094,2.316406 l -0.0234,12.82031 -12.17578,12.14453 -0.0508,34.12891 -25.92578,25.84766 0.082,121.00781 h 0.78907 l -0.0859,-120.67969 25.92187,-25.85156"
         id="path204" />
      <path
         style="fill:#ffde57;fill-opacity:1;fill-rule:nonzero;stroke:none"
         d="m 148.45703,153.34375 c -1.29687,-0.004 -2.35156,1.05078 -2.35547,2.34766 0,0.50781 0.16406,0.97656 0.4375,1.36328 l -24.79297,24.71875 0.0898,112.33203 h 0.78515 l -0.0898,-112.00391 24.55859,-24.49219 c 0.38672,0.27344 0.85547,0.44141 1.35938,0.44141 1.30078,0 2.35547,-1.05078 2.35937,-2.35156 0.004,-1.29688 -1.05078,-2.35547 -2.35156,-2.35547"
         id="path206" />
      <path
         style="fill:#ffde57;fill-opacity:1;fill-rule:nonzero;stroke:none"
         d="m 156.10547,90.496094 c -1.29688,-0.0039 -2.35156,1.050781 -2.35156,2.347656 -0.004,1.023438 0.64843,1.886719 1.5625,2.210938 l -0.0195,12.539062 -12.17578,12.14063 -0.0547,34.1289 -25.92578,25.84766 0.0898,114.39453 h 0.78516 l -0.0898,-114.06641 25.92578,-25.85156 0.0547,-34.12891 12.17578,-12.14062 0.0195,-12.714845 c 1.30078,0 2.35547,-1.050781 2.35547,-2.351563 0.004,-1.296874 -1.05078,-2.355468 -2.35156,-2.355468"
         id="path208" />
      <g
         clip-rule="nonzero"
         id="g212">
        <path
           style="fill:#ffde57;fill-opacity:1;fill-rule:nonzero;stroke:none"
           d="m 139.34375,151.83203 0.0547,-34.1289 12.17578,-12.14063 0.043,-28.246094 3.52734,-3.519531 c 0.42188,0.382813 0.96875,0.621094 1.57813,0.621094 1.29687,0 2.35156,-1.050781 2.35546,-2.351563 0,-1.300781 -1.05078,-2.355468 -2.34765,-2.355468 -1.30078,-0.0039 -2.35547,1.046874 -2.35938,2.351562 0,0.402344 0.11328,0.78125 0.29297,1.113281 l -3.83203,3.816407 -0.043,28.242192 -12.17578,12.14453 -0.0547,34.1289 -25.92187,25.84766 0.0898,116.75 h 0.78516 l -0.0937,-116.42188 25.92578,-25.85156"
           id="path210" />
      </g>
      <path
         style="fill:#ffde57;fill-opacity:1;fill-rule:nonzero;stroke:none"
         d="M 26.855469,117.04297 13.894531,104.11719 13.828125,61.089844 c 1.109375,-0.191406 1.957031,-1.152344 1.957031,-2.316406 -0.0039,-1.300782 -1.058594,-2.355469 -2.359375,-2.351563 -1.296875,0 -2.351562,1.058594 -2.347656,2.355469 0,1.167968 0.851563,2.128906 1.960937,2.3125 l 0.07031,43.351566 12.960937,12.92578 0.05469,34.1289 25.925781,25.84766 -0.08984,116.76172 h 0.785156 l 0.08594,-117.08594 -25.921875,-25.85156 -0.05469,-34.125"
         id="path214" />
      <path
         style="fill:#ffde57;fill-opacity:1;fill-rule:nonzero;stroke:none"
         d="m 30.785156,119.71094 c 1.109375,-0.19141 1.957032,-1.15235 1.953125,-2.31641 0,-1.30078 -1.054687,-2.35156 -2.355469,-2.35156 -1.296874,0.004 -2.351562,1.05859 -2.347656,2.35937 0,1.16407 0.851563,2.1211 1.964844,2.3086 l 0.04687,30.01562 25.925781,25.85156 -0.08984,118.52735 h 0.785157 L 56.753906,175.25 30.832031,149.40234 l -0.04687,-29.6914"
         id="path216" />
      <path
         style="fill:#ffde57;fill-opacity:1;fill-rule:nonzero;stroke:none"
         d="m 15.253906,155.46484 c -0.0039,-1.30078 -1.058594,-2.35547 -2.355468,-2.35156 -1.300782,0.004 -2.355469,1.05859 -2.351563,2.35547 0.0039,1.30469 1.058594,2.35547 2.359375,2.35156 0.503906,0 0.972656,-0.16406 1.359375,-0.4414 l 24.558594,24.49218 -0.08984,112.23438 h 0.785156 l 0.08984,-112.5625 -24.792969,-24.71875 c 0.273438,-0.38672 0.4375,-0.85156 0.4375,-1.35938"
         id="path218" />
      <path
         style="fill:#ffde57;fill-opacity:1;fill-rule:nonzero;stroke:none"
         d="m 125.8125,146.19922 0.0508,-34.12891 12.17578,-12.140622 0.0469,-28.246094 3.33203,-3.328125 c 0.43359,0.5 1.0625,0.820312 1.76953,0.820312 1.29687,0 2.35156,-1.050781 2.35547,-2.351562 0,-1.296875 -1.05078,-2.355469 -2.34766,-2.355469 -1.30078,-0.0039 -2.35547,1.050781 -2.35937,2.347656 0,0.304688 0.0625,0.585938 0.16406,0.851563 l -3.69922,3.691406 -0.043,28.242187 -12.17968,12.140628 -0.0547,34.1289 -23.10938,23.04688 c -0.42578,-0.42969 -1.01562,-0.69531 -1.66797,-0.69141 -1.300778,0 -2.351559,1.05469 -2.351559,2.35547 0.0039,1.30078 1.058594,2.35156 2.359379,2.35156 0.50781,0 0.97265,-0.16797 1.35937,-0.4414 l 0.55469,-0.55469 c 0.26953,-0.38672 0.4375,-0.85547 0.43359,-1.36328 0,-0.35938 -0.0859,-0.69531 -0.23437,-1 l 23.44531,-23.375"
         id="path220" />
      <path
         style="fill:#ffde57;fill-opacity:1;fill-rule:nonzero;stroke:none"
         d="M 18.234375,119.99219 6.058594,107.85156 6.039062,95.316406 c 0.910157,-0.324218 1.566407,-1.1875 1.5625,-2.210937 0,-1.300781 -1.054687,-2.355469 -2.355468,-2.351563 -1.296875,0.0039 -2.351563,1.058594 -2.347656,2.359375 0,1.300781 1.054687,2.351563 2.355468,2.347657 l 0.019532,12.718752 12.175781,12.14062 0.05469,34.125 25.925782,25.85156 -0.08984,113.8086 h 0.78125 l 0.08984,-114.13281 -25.921876,-25.85157 -0.05469,-34.1289"
         id="path222" />
      <path
         style="fill:#ffde57;fill-opacity:1;fill-rule:nonzero;stroke:none"
         d="m 68.484375,223.70312 c 0.0039,1.30079 1.058594,2.35157 2.359375,2.35157 0.507812,0 0.972656,-0.16797 1.359375,-0.44141 l 0.550781,-0.55469 c 0.273438,-0.38672 0.4375,-0.85547 0.4375,-1.36328 -0.0039,-1.29687 -1.058594,-2.35156 -2.355468,-2.34765 -0.632813,0 -1.199219,0.25 -1.625,0.65625 l -8.074219,-8.05469 0.02734,-39.6875 -25.925781,-25.85156 -0.05469,-34.125 -12.175782,-12.14453 -0.01953,-12.820318 c 1.109375,-0.1875 1.957031,-1.152343 1.957031,-2.316406 0,-1.300781 -1.058593,-2.355468 -2.355468,-2.351562 -1.300782,0.0039 -2.351563,1.058594 -2.351563,2.359375 0.0039,1.164062 0.855469,2.125 1.964844,2.308593 l 0.01953,13.148438 12.179688,12.14063 0.05078,34.1289 25.925781,25.85156 -0.02734,38.57813 -0.05859,-0.0586 v 1.10547 l 0.05859,0.0586 v 0.0508 h 0.05078 l 8.34375,8.32031 c -0.164063,0.32031 -0.261719,0.67578 -0.261719,1.05859"
         id="path224" />
      <path
         style="fill:#ffde57;fill-opacity:1;fill-rule:nonzero;stroke:none"
         d="M 22.742188,118.61719 10.566406,106.47656 10.519531,78.230469 6.691406,74.414062 C 6.871094,74.082031 6.984375,73.703125 6.984375,73.296875 6.980469,72 5.925781,70.945312 4.625,70.949219 c -1.296875,0 -2.347656,1.058593 -2.347656,2.355469 0,1.300781 1.058594,2.355468 2.355468,2.351562 0.609376,0 1.15625,-0.238281 1.578126,-0.621094 l 3.527343,3.523438 0.042969,28.242186 12.175781,12.14063 0.05469,34.1289 25.925781,25.85156 -0.09375,115.1836 h 0.785156 l 0.08984,-115.51172 -25.921875,-25.84766 -0.05469,-34.1289"
         id="path226" />
      <path
         style="fill:#ffde57;fill-opacity:1;fill-rule:nonzero;stroke:none"
         d="m 84.902344,248.57031 0.08203,-52.08594 -8.21875,-9.89843 c 0.480469,-0.42969 0.785156,-1.04688 0.785156,-1.73828 0.0039,-1.30079 -1.050781,-2.35547 -2.347656,-2.35938 -1.300781,0 -2.355469,1.05078 -2.355469,2.35156 -0.0039,1.30078 1.046875,2.35547 2.347656,2.35547 0.324219,0 0.628907,-0.0625 0.90625,-0.17969 l 8.097657,9.75 -0.07813,51.48047 -11.785156,11.7461 0.01953,34.11328 h 0.785156 l -0.01953,-33.78516 11.78125,-11.75"
         id="path228" />
      <path
         style="fill:#ffde57;fill-opacity:1;fill-rule:nonzero;stroke:none"
         d="m 79.695312,267.62891 c 0,-1.30079 -1.050781,-2.35547 -2.347656,-2.35938 -1.300781,0 -2.359375,1.05078 -2.359375,2.35156 0,1.29688 1.050781,2.35547 2.351563,2.35938 0.644531,0 1.234375,-0.26172 1.664062,-0.6875 l 5.574219,6.71094 -0.03125,18.10156 h 0.785156 l 0.03125,-18.38672 -5.898437,-7.09766 c 0.140625,-0.30468 0.226562,-0.63672 0.230468,-0.99218"
         id="path230" />
      <path
         style="fill:#ffde57;fill-opacity:1;fill-rule:nonzero;stroke:none"
         d="m 120.80469,99.1875 -0.0703,44.32812 -10.42188,10.39454 c -0.38281,-0.27735 -0.85156,-0.44141 -1.35937,-0.44532 -1.30079,0 -2.35547,1.05078 -2.35547,2.35157 -0.004,1.29687 1.04687,2.35546 2.34765,2.35546 1.30078,0.004 2.35547,-1.04687 2.35938,-2.34765 0,-0.50781 -0.16797,-0.97656 -0.44141,-1.36328 l 10.65625,-10.61719 0.0664,-44.328125 7.0664,-7.046875 c 0.41407,0.378906 0.96485,0.617188 1.57422,0.617188 1.30078,0.0039 2.35156,-1.046876 2.35547,-2.347657 0.004,-1.300781 -1.05078,-2.355469 -2.34766,-2.359375 -1.30078,0 -2.35546,1.050782 -2.35937,2.351563 0,0.40625 0.10938,0.78125 0.29297,1.113281 l -7.36328,7.34375"
         id="path232" />
      <path
         style="fill:#ffde57;fill-opacity:1;fill-rule:nonzero;stroke:none"
         d="m 99.796875,226.9375 0.05469,-34.45313 -43.855468,-44.0039 0.02734,-16.9375 10.992187,-10.95703 c 0.414063,0.3789 0.964844,0.61328 1.570313,0.61719 1.300781,0 2.355468,-1.05079 2.359374,-2.35157 0.0039,-1.29687 -1.050781,-2.35547 -2.351562,-2.35547 -1.296875,-0.004 -2.351562,1.05079 -2.355469,2.35157 0,0.40625 0.109375,0.77734 0.289063,1.11328 l -11.289063,11.25781 -0.02734,17.58594 43.855468,44.0039 -0.05078,33.80078 -5.105469,5.09375 0.152344,62.40235 h 0.785156 l -0.15625,-62.07422 5.105469,-5.09375"
         id="path234" />
      <path
         style="fill:#ffde57;fill-opacity:1;fill-rule:nonzero;stroke:none"
         d="m 95.09375,226.92969 0.05078,-34.45313 -43.855469,-44.0039 0.02734,-16.9375 12.960938,-12.92188 0.01172,-8.04687 c 1.113282,-0.1875 1.964844,-1.14844 1.964844,-2.3125 0.0039,-1.30078 -1.046875,-2.35547 -2.347656,-2.35938 -1.300781,0 -2.355469,1.05078 -2.355469,2.35156 -0.0039,1.16797 0.84375,2.12891 1.957031,2.31641 l -0.01172,7.72266 -12.964844,12.92578 -0.02734,17.58593 43.855469,44.00391 -0.05078,33.80078 -5.109375,5.09375 0.160156,62.41016 h 0.78125 l -0.15625,-62.08203 5.109375,-5.09375"
         id="path236" />
      <path
         style="fill:#ffde57;fill-opacity:1;fill-rule:nonzero;stroke:none"
         d="m 75.179688,236.78125 c 1.300781,-0.004 2.351562,-1.05859 2.351562,-2.35938 0,-1.29687 -1.058594,-2.35156 -2.355469,-2.34765 -1.300781,0 -2.355469,1.05859 -2.351562,2.35547 0,0.50781 0.164062,0.97656 0.441406,1.35937 l -8.570313,8.59766 0.199219,49.71875 h 0.789063 l 0.03516,-49.63281 8.101562,-8.12891 c 0.386719,0.27344 0.851563,0.4375 1.359376,0.4375"
         id="path238" />
      <path
         style="fill:#ffde57;fill-opacity:1;fill-rule:nonzero;stroke:none"
         d="m 21.683594,70.339844 c 0.707031,-0.0039 1.335937,-0.324219 1.765625,-0.820313 l 3.335937,3.328125 0.04297,28.246094 12.179687,12.14063 0.05078,34.1289 25.925781,25.85156 -0.01953,28.50782 c -1.152344,0.15625 -2.042969,1.13281 -2.039063,2.32812 0,0.50781 0.164063,0.97656 0.4375,1.35938 l 0.554688,0.55468 c 0.386719,0.27344 0.855469,0.4375 1.363281,0.4336 1.296875,0 2.351562,-1.05469 2.351562,-2.35547 -0.0039,-1.13672 -0.8125,-2.08594 -1.886718,-2.30078 l 0.02344,-28.85547 -25.925781,-25.84766 -0.05469,-34.13281 -12.175781,-12.14062 -0.04297,-28.246099 -3.699218,-3.6875 c 0.09766,-0.261719 0.160156,-0.546875 0.160156,-0.847656 0,-1.300781 -1.058594,-2.351563 -2.355469,-2.351563 -1.300781,0.0039 -2.351562,1.058594 -2.351562,2.355469 0.0039,1.300781 1.058593,2.355469 2.359375,2.351563"
         id="path240" />
      <path
         style="fill:#ffde57;fill-opacity:1;fill-rule:nonzero;stroke:none"
         d="m 92.265625,216.17187 c 0.0039,-1.16406 -0.847656,-2.1289 -1.957031,-2.3164 L 90.34375,192.46875 45.703125,147.67969 45.789062,93.480469 64.445312,74.875 c 0.429688,0.496094 1.058594,0.820312 1.765626,0.820312 1.296874,0.0039 2.355468,-1.050781 2.355468,-2.347656 0.0039,-1.300781 -1.050781,-2.359375 -2.347656,-2.359375 -1.300781,-0.0039 -2.355469,1.050781 -2.359375,2.347657 0,0.300781 0.05859,0.589843 0.164063,0.851562 l -19.019532,18.964844 -0.08594,54.851566 44.640625,44.78906 -0.03125,21.05859 c -1.113282,0.1875 -1.964844,1.14844 -1.964844,2.3125 -0.0039,1.30078 1.046875,2.35547 2.34375,2.35938 1.300781,0 2.359375,-1.05078 2.359375,-2.35157"
         id="path242" />
      <path
         style="fill:#ffde57;fill-opacity:1;fill-rule:nonzero;stroke:none"
         d="m 105.42188,81.117188 c -1.29688,-0.0039 -2.35547,1.050781 -2.35547,2.347656 0,1.300781 1.05078,2.355468 2.34765,2.359375 0.60938,0 1.16016,-0.238281 1.57813,-0.617188 l 9,9.03125 -0.0703,44.695309 c -1.09375,0.19922 -1.92579,1.14844 -1.92579,2.30078 0,1.29688 1.05079,2.35547 2.34766,2.35938 1.30078,0 2.35547,-1.05469 2.35938,-2.35156 0,-1.16797 -0.84766,-2.12891 -1.95704,-2.32032 h -0.0391 l 0.0703,-45.003901 -9.30078,-9.332031 c 0.1836,-0.332032 0.29688,-0.707032 0.29688,-1.113282 0,-1.300781 -1.05078,-2.355468 -2.35156,-2.355468"
         id="path244" />
      <path
         style="fill:#ffde57;fill-opacity:1;fill-rule:nonzero;stroke:none"
         d="m 73.296875,250.30469 c 0.0039,-0.45703 -0.132813,-0.87891 -0.355469,-1.23828 l 7.621094,-7.60157 0.05859,-39.94531 -4.132813,-4.98047 c 0.292969,-0.39062 0.472657,-0.86719 0.472657,-1.39453 0.0039,-1.29687 -1.050782,-2.35547 -2.351563,-2.35547 -0.535156,0 -1.027344,0.1875 -1.421875,0.48828 l -0.253906,0.21094 c -0.417969,0.42578 -0.679688,1.00781 -0.679688,1.64844 -0.0039,1.16797 0.847656,2.13281 1.960938,2.32031 h 0.78125 c 0.339844,-0.0586 0.648437,-0.19141 0.921875,-0.375 l 3.921875,4.71875 -0.0625,39.33984 -7.359375,7.33594 c -0.402344,-0.32422 -0.910157,-0.53125 -1.46875,-0.53125 -1.300781,0 -2.355469,1.05078 -2.359375,2.35156 0,1.30079 1.050781,2.35547 2.351562,2.35547 1.300782,0.004 2.355469,-1.05078 2.355469,-2.34765"
         id="path246" />
    </g>
    <clipPath
       clipPathUnits="userSpaceOnUse"
       id="clipPath364">
      <rect
         style="fill:#152f75;stroke-width:0.75"
         id="rect366"
         width="272.63751"
         height="317.87308"
         x="496.75394"
         y="281.46597" />
    </clipPath>
    <clipPath
       clipPathUnits="userSpaceOnUse"
       id="clipPath606">
      <rect
         style="fill:#152f75;stroke-width:0.753555"
         id="rect608"
         width="150.63283"
         height="287.96436"
         x="545.80859"
         y="311.43195" />
    </clipPath>
  </defs>
  <g
     xml:id="surface1"
     id="surface1"
     clip-path="url(#clipPath606)"
     transform="translate(-545.80859,-311.43195)">
    <use
       transform="translate(551,386)"
       xlink:href="#surface5"
       xlink:type="simple"
       mask="url(#mask0)"
       xlink:actuate="onLoad"
       xlink:show="embed"
       id="use251"
       x="0"
       y="0"
       width="100%"
       height="100%" />
    <use
       transform="translate(545,310)"
       xlink:href="#surface8"
       xlink:type="simple"
       mask="url(#mask1)"
       xlink:actuate="onLoad"
       xlink:show="embed"
       id="use253"
       x="0"
       y="0"
       width="100%"
       height="100%" />
  </g>
</svg>
