<?xml version="1.0" encoding="UTF-8" standalone="no"?>
<svg
   contentScriptType="text/ecmascript"
   width="162.75781pt"
   zoomAndPan="magnify"
   contentStyleType="text/css"
   viewBox="0 0 162.75781 203.73022"
   height="203.73022pt"
   preserveAspectRatio="xMidYMid meet"
   version="1.2"
   id="svg136"
   sodipodi:docname="HomeBGTop.svg"
   inkscape:version="1.1 (c68e22c387, 2021-05-23)"
   xmlns:inkscape="http://www.inkscape.org/namespaces/inkscape"
   xmlns:sodipodi="http://sodipodi.sourceforge.net/DTD/sodipodi-0.dtd"
   xmlns:xlink="http://www.w3.org/1999/xlink"
   xmlns="http://www.w3.org/2000/svg"
   xmlns:svg="http://www.w3.org/2000/svg">
  <sodipodi:namedview
     id="namedview138"
     pagecolor="#ffffff"
     bordercolor="#666666"
     borderopacity="1.0"
     inkscape:pageshadow="2"
     inkscape:pageopacity="0.0"
     inkscape:pagecheckerboard="0"
     inkscape:document-units="pt"
     showgrid="false"
     inkscape:zoom="1.2667276"
     inkscape:cx="74.996393"
     inkscape:cy="152.36109"
     inkscape:window-width="1271"
     inkscape:window-height="1040"
     inkscape:window-x="517"
     inkscape:window-y="201"
     inkscape:window-maximized="0"
     inkscape:current-layer="svg136"
     fit-margin-top="0"
     fit-margin-left="0"
     fit-margin-right="0"
     fit-margin-bottom="0" />
  <defs
     id="defs129">
    <filter
       x="0"
       y="0"
       width="1"
       xlink:type="simple"
       filterUnits="objectBoundingBox"
       xlink:actuate="onLoad"
       id="alpha"
       height="1"
       xlink:show="other"
       xml:id="alpha">
      <feColorMatrix
         values="0 0 0 0 1 0 0 0 0 1 0 0 0 0 1 0 0 0 1 0"
         type="matrix"
         in="SourceGraphic"
         id="feColorMatrix2" />
    </filter>
    <mask
       xml:id="mask0"
       id="mask0">
      <g
         filter="url(#alpha)"
         id="g7">
        <rect
           x="0"
           width="960"
           y="0"
           height="600"
           style="fill:#000000;fill-opacity:0.498;stroke:none"
           id="rect5" />
      </g>
    </mask>
    <g
       xml:id="surface5"
       id="surface5">
      <g
         clip-rule="nonzero"
         id="g12">
        <path
           style="fill:#ffde57;fill-opacity:1;fill-rule:nonzero;stroke:none"
           d="m 39.097656,219.80078 h -1.207031 v -18.75 L 14.675781,184.07812 v -77.16796 l 12.75,-12.765629 V 48 L 11.324219,39.164062 v -59.292968 h 1.207031 v 58.578125 l 16.101562,8.832031 v 47.363281 l -12.75,12.765629 v 76.05468 l 23.214844,16.97266 v 19.36328"
           id="path10" />
      </g>
      <g
         clip-rule="nonzero"
         id="g16">
        <path
           style="fill:#ffde57;fill-opacity:1;fill-rule:nonzero;stroke:none"
           d="M 29.839844,219.80078 H 28.632812 V 170.28906 L 0.859375,151.64062 V 20.195312 l 17.710937,-8.273437 v -32.050781 h 1.207032 V 12.691406 L 2.066406,20.964844 V 150.99609 l 27.773438,18.64844 v 50.15625"
           id="path14" />
      </g>
      <g
         clip-rule="nonzero"
         id="g20">
        <path
           style="fill:#ffde57;fill-opacity:1;fill-rule:nonzero;stroke:none"
           d="M 44.332031,219.80078 H 43.125 V 32.597656 L 25.816406,21.503906 v -41.632812 h 1.207032 V 20.84375 L 44.332031,31.9375 v 187.86328"
           id="path18" />
      </g>
      <g
         clip-rule="nonzero"
         id="g24">
        <path
           style="fill:#ffde57;fill-opacity:1;fill-rule:nonzero;stroke:none"
           d="m 53.589844,219.80078 h -1.207032 v -53.14453 l 26.5625,-18.19141 V 100.13672 L 34.46875,66.425781 v -86.554687 h 1.207031 v 85.953125 l 44.476563,33.710937 v 49.566404 l -26.5625,18.19141 v 52.50781"
           id="path22" />
      </g>
      <g
         clip-rule="nonzero"
         id="g28">
        <path
           style="fill:#ffde57;fill-opacity:1;fill-rule:nonzero;stroke:none"
           d="M 69.6875,219.80078 H 68.480469 V 117.11328 L 49.5625,101.73438 V -20.128906 h 1.207031 V 101.16016 l 18.917969,15.375 v 103.26562"
           id="path26" />
      </g>
      <g
         clip-rule="nonzero"
         id="g32">
        <path
           style="fill:#ffde57;fill-opacity:1;fill-rule:nonzero;stroke:none"
           d="m 79.75,219.80078 h -1.207031 v -23.96094 l 0.273437,-0.17968 25.085934,-16.46875 V 85.664062 L 59.023438,52.320312 v -72.449218 h 1.207031 v 71.84375 l 44.878911,33.34375 V 179.84375 L 79.75,196.49219 v 23.30859"
           id="path30" />
      </g>
      <path
         style="fill:#ffde57;fill-opacity:1;fill-rule:nonzero;stroke:none"
         d="m 15.085938,16.046875 c 0,1.742187 -1.414063,3.160156 -3.15625,3.160156 -1.746094,0 -3.15625,-1.417969 -3.15625,-3.160156 0,-1.746094 1.410156,-3.160156 3.15625,-3.160156 1.742187,0 3.15625,1.414062 3.15625,3.160156"
         id="path34" />
      <path
         style="fill:#ffde57;fill-opacity:1;fill-rule:nonzero;stroke:none"
         d="m 77.472656,62.644531 c 0,1.746094 -1.414062,3.160157 -3.15625,3.160157 -1.742187,0 -3.152344,-1.414063 -3.152344,-3.160157 0,-1.746093 1.410157,-3.160156 3.152344,-3.160156 1.742188,0 3.15625,1.414063 3.15625,3.160156"
         id="path36" />
      <path
         style="fill:#ffde57;fill-opacity:1;fill-rule:nonzero;stroke:none"
         d="m 46.882812,123.75 c 0,1.74609 -1.414062,3.16016 -3.15625,3.16016 -1.742187,0 -3.15625,-1.41407 -3.15625,-3.16016 0,-1.74609 1.414063,-3.16016 3.15625,-3.16016 1.742188,0 3.15625,1.41407 3.15625,3.16016"
         id="path38" />
      <path
         style="fill:#ffde57;fill-opacity:1;fill-rule:nonzero;stroke:none"
         d="m 99.007812,185.51953 c 0,1.74609 -1.414062,3.16016 -3.15625,3.16016 -1.742187,0 -3.15625,-1.41407 -3.15625,-3.16016 0,-1.74609 1.414063,-3.16016 3.15625,-3.16016 1.742188,0 3.15625,1.41407 3.15625,3.16016"
         id="path40" />
      <path
         style="fill:#ffde57;fill-opacity:1;fill-rule:nonzero;stroke:none"
         d="m 64.191406,162.18359 c 0,1.7461 -1.414062,3.16016 -3.15625,3.16016 -1.742187,0 -3.15625,-1.41406 -3.15625,-3.16016 0,-1.74218 1.414063,-3.15625 3.15625,-3.15625 1.742188,0 3.15625,1.41407 3.15625,3.15625"
         id="path42" />
      <path
         style="fill:#ffde57;fill-opacity:1;fill-rule:nonzero;stroke:none"
         d="m 32.390625,193.89453 c 0,1.74219 -1.410156,3.15625 -3.152344,3.15625 -1.746093,0 -3.15625,-1.41406 -3.15625,-3.15625 0,-1.74609 1.410157,-3.16016 3.15625,-3.16016 1.742188,0 3.152344,1.41407 3.152344,3.16016"
         id="path44" />
      <g
         clip-rule="nonzero"
         id="g48">
        <path
           style="fill:#ffde57;fill-opacity:1;fill-rule:nonzero;stroke:none"
           d="M 74.921875,219.80078 H 73.714844 V -20.128906 h 1.207031 V 219.80078"
           id="path46" />
      </g>
      <g
         clip-rule="nonzero"
         id="g52">
        <path
           style="fill:#ffde57;fill-opacity:1;fill-rule:nonzero;stroke:none"
           d="M 61.640625,219.80078 H 60.429688 V 137.84375 L 38.292969,120.27734 V -20.128906 H 39.5 V 119.69141 l 22.140625,17.5664 v 82.54297"
           id="path50" />
      </g>
      <g
         clip-rule="nonzero"
         id="g56">
        <path
           style="fill:#ffde57;fill-opacity:1;fill-rule:nonzero;stroke:none"
           d="M 96.253906,219.80078 H 95.046875 V 89.363281 l -13.585937,-9.625 v -99.867187 h 1.207031 v 99.242187 l 13.585937,9.625 V 219.80078"
           id="path54" />
      </g>
      <g
         clip-rule="nonzero"
         id="g60">
        <path
           style="fill:#ffde57;fill-opacity:1;fill-rule:nonzero;stroke:none"
           d="M 87.800781,219.80078 H 86.59375 V 82.972656 l 17.30859,-16.78125 v -86.320312 h 1.20704 V 66.707031 L 87.800781,83.484375 V 219.80078"
           id="path58" />
      </g>
    </g>
    <mask
       xml:id="mask1"
       id="mask1">
      <g
         filter="url(#alpha)"
         id="g65">
        <rect
           x="0"
           width="960"
           y="0"
           height="600"
           style="fill:#000000;fill-opacity:0.498;stroke:none"
           id="rect63" />
      </g>
    </mask>
    <g
       xml:id="surface8"
       id="surface8">
      <g
         clip-rule="nonzero"
         id="g70">
        <path
           style="fill:#ffde57;fill-opacity:1;fill-rule:nonzero;stroke:none"
           d="m 154.30078,403.57031 h -4.75 V 318.15234 L 135.91797,304.54687 V 291.5 l -9.37109,-9.35156 V 264.84375 L 96.753906,235.11328 V 223.98437 L 65.949219,193.24609 H 51.195312 L 29.691406,171.78516 V 114.18359 L 47.578125,96.332031 h 26.175781 l 7.539063,-7.523437 V 74.542969 L 72.390625,65.660156 V 49.789062 L 61.707031,39.128906 V 0.71875 h 4.75 v 36.449219 l 10.683594,10.660156 v 15.871094 l 8.898437,8.882812 v 18.1875 L 75.71875,101.07031 H 49.542969 L 34.4375,116.14453 v 53.67578 l 18.730469,18.6875 H 67.914062 L 101.5,222.01953 v 11.13281 l 29.79687,29.73047 v 17.30078 l 9.36719,9.35157 v 13.05078 l 13.63672,13.60547 v 87.3789"
           id="path68" />
      </g>
      <g
         clip-rule="nonzero"
         id="g74">
        <path
           style="fill:#ffde57;fill-opacity:1;fill-rule:nonzero;stroke:none"
           d="m 106.81641,403.57031 h -4.75 V 350.03906 L 68.234375,316.27344 V 235.35937 L 17.652344,184.88672 V 107 L 36.644531,88.050781 H 61.839844 V 59.183594 L 51.710938,49.074219 V 0.722656 h 4.75 v 46.390625 l 10.125,10.109375 v 35.5625 H 38.609375 L 22.398438,108.96484 v 73.96094 l 50.582031,50.46875 v 80.91406 l 33.835941,33.76563 v 55.49609"
           id="path72" />
      </g>
      <g
         clip-rule="nonzero"
         id="g78">
        <path
           style="fill:#ffde57;fill-opacity:1;fill-rule:nonzero;stroke:none"
           d="m 163.39062,403.60156 h -4.74609 V 277.15625 L 118.71484,237.3125 V 224.14453 L 75.890625,181.41406 H 67.464844 L 58.285156,172.25 v -29.42578 l 11.519532,-11.4961 H 86.976562 L 105.53516,112.80469 V 77.199219 L 95.074219,66.761719 V 53.183594 L 71.96875,30.125 V 0.71875 h 4.746094 V 28.164062 L 99.824219,51.21875 v 13.582031 l 10.460941,10.4375 V 114.77344 L 88.945312,136.06641 H 71.773438 l -8.742188,8.71875 v 25.5039 l 6.402344,6.38672 h 8.425781 l 45.601565,45.50781 v 13.16797 l 39.92968,39.84375 v 128.40625"
           id="path76" />
      </g>
      <g
         clip-rule="nonzero"
         id="g82">
        <path
           style="fill:#ffde57;fill-opacity:1;fill-rule:nonzero;stroke:none"
           d="m 123.80078,299.73437 -12.1875,-12.15625 V 260.17187 L 91.28125,239.88281 v -13.8125 L 70.625,205.45703 v -9.94922 h 1.898438 v 9.16406 l 20.65625,20.61329 v 13.8125 l 20.335942,20.28906 v 27.40625 l 11.625,11.60156 -1.33985,1.33984"
           id="path80" />
      </g>
      <g
         clip-rule="nonzero"
         id="g86">
        <path
           style="fill:#ffde57;fill-opacity:1;fill-rule:nonzero;stroke:none"
           d="m 134.11328,248.38281 h -1.89844 v -12.91797 l -5.67578,-5.66406 V 205.77344 L 82.875,162.20312 v -12.80078 l 33.55859,-33.48437 V 69.179688 l 23.58203,-23.53125 V 0.71875 h 1.89844 v 45.714844 l -23.58203,23.53125 V 116.70313 L 84.777344,150.1875 v 11.23047 l 43.664066,43.57031 v 24.02734 l 5.67187,5.66407 v 13.70312"
           id="path84" />
      </g>
      <g
         clip-rule="nonzero"
         id="g90">
        <path
           style="fill:#ffde57;fill-opacity:1;fill-rule:nonzero;stroke:none"
           d="m 90.167969,403.57031 h -1.898438 v -30.39844 l 9.382813,-9.36718 V 351.70312 L 56.726562,310.85937 v -35.75781 l 7.9375,-7.91406 v -19.72266 l -20.484374,-20.4414 v -8.9336 L 10.625,184.60156 V 101.07422 L 5.238281,95.699219 v -18.625 L 23.492188,58.859375 V 0.722656 h 1.902343 V 59.640625 L 7.136719,77.859375 v 17.054687 l 5.386719,5.374998 v 83.52735 l 33.554687,33.48828 v 8.9375 l 20.484375,20.4414 v 21.28907 l -7.9375,7.91406 v 34.1875 l 40.929688,40.84375 v 13.66797 l -9.386719,9.36718 v 29.61719"
           id="path88" />
      </g>
      <path
         style="fill:#ffde57;fill-opacity:1;fill-rule:nonzero;stroke:none"
         d="m 24.074219,88.730469 -1.34375,-1.339844 7.539062,-7.527344 h 9.363281 l 8.175782,-8.15625 V 58.859375 L 38.363281,49.433594 V 25.066406 l 13.359375,-13.328125 1.34375,1.335938 -12.804687,12.777343 v 22.796876 l 9.445312,9.425781 v 14.414062 l -9.289062,9.269531 h -9.359375 l -6.984375,6.972657"
         id="path92" />
      <path
         style="fill:#ffde57;fill-opacity:1;fill-rule:nonzero;stroke:none"
         d="M 86.777344,127.46484 H 68.886719 l -9.460938,-9.4414 1.339844,-1.33985 8.90625,8.88672 H 85.992188 L 102.30859,109.28906 V 91.566406 l -7.074215,-7.058594 h -5.9375 L 83.15625,78.375 l 1.339844,-1.339844 5.585937,5.578125 h 5.941407 l 8.183592,8.167969 v 19.29297 l -17.429686,17.39062"
         id="path94" />
      <g
         clip-rule="nonzero"
         id="g98">
        <path
           style="fill:#ffde57;fill-opacity:1;fill-rule:nonzero;stroke:none"
           d="m 145.74609,222.43359 h -1.89843 v -11.24218 l -5.41016,-5.39844 h -6.10938 L 87.675781,161.23828 v -12.74219 l 5.660157,-5.64843 h 13.089842 l 13.92578,-13.89844 V 81.375 l 15.22656,-15.195312 v -8.222657 l 8.14063,-8.117187 V 29.601562 l 7.25781,-7.246093 V 0.722656 h 1.89844 v 22.417969 l -7.25781,7.246094 V 50.625 l -8.13672,8.117188 v 8.222656 L 122.25,82.160156 v 47.574214 l -15.03906,15.00782 H 94.121094 l -4.546875,4.53515 v 11.17969 l 43.539061,43.44141 h 6.11328 l 6.51953,6.50781 v 12.02734"
           id="path96" />
      </g>
      <g
         clip-rule="nonzero"
         id="g102">
        <path
           style="fill:#ffde57;fill-opacity:1;fill-rule:nonzero;stroke:none"
           d="m 90.953125,334.64453 h -1.902344 v -10.19531 l -9.648437,-9.62891 v -12.64062 l -4.46875,-4.45313 V 226.61719 L 61.421875,213.13672 H 54.878906 L 42.484375,200.76953 v -18.625 h 1.898437 v 17.83984 l 11.285157,11.25782 h 6.542969 l 14.621093,14.58984 v 71.10938 l 4.46875,4.45703 v 12.63672 l 9.652344,9.6289 v 10.98047"
           id="path100" />
      </g>
      <path
         style="fill:#ffde57;fill-opacity:1;fill-rule:nonzero;stroke:none"
         d="m 47.5625,128.88672 c -2.621094,0 -4.757812,2.1289 -4.757812,4.75 0,2.61719 2.136718,4.74609 4.757812,4.74609 2.621094,0 4.757812,-2.1289 4.757812,-4.74609 0,-2.6211 -2.136718,-4.75 -4.757812,-4.75 z m 0,14.23047 c -5.242188,0 -9.507812,-4.25 -9.507812,-9.48047 0,-5.23047 4.265624,-9.48828 9.507812,-9.48828 5.242188,0 9.507812,4.25781 9.507812,9.48828 0,5.23047 -4.265624,9.48047 -9.507812,9.48047"
         id="path104" />
      <g
         clip-rule="nonzero"
         id="g108">
        <path
           style="fill:#ffde57;fill-opacity:1;fill-rule:nonzero;stroke:none"
           d="m 148.43359,222.82422 c 0,-1.82813 -1.48437,-3.3125 -3.3164,-3.3125 -1.83203,0 -3.31641,1.48437 -3.31641,3.3125 0,1.82812 1.48438,3.30859 3.31641,3.30859 1.83203,0 3.3164,-1.48047 3.3164,-3.30859"
           id="path106" />
      </g>
      <path
         style="fill:#ffde57;fill-opacity:1;fill-rule:nonzero;stroke:none"
         d="m 63.410156,117.35547 c 0,-1.82813 -1.484375,-3.3125 -3.316406,-3.3125 -1.832031,0 -3.316406,1.48437 -3.316406,3.3125 0,1.82812 1.484375,3.30859 3.316406,3.30859 1.832031,0 3.316406,-1.48047 3.316406,-3.30859"
         id="path110" />
      <path
         style="fill:#ffde57;fill-opacity:1;fill-rule:nonzero;stroke:none"
         d="m 26.550781,88.058594 c 0,-1.832032 -1.484375,-3.3125 -3.316406,-3.3125 -1.832031,0 -3.320313,1.480468 -3.320313,3.3125 0,1.828125 1.488282,3.308594 3.320313,3.308594 1.832031,0 3.316406,-1.480469 3.316406,-3.308594"
         id="path112" />
      <path
         style="fill:#ffde57;fill-opacity:1;fill-rule:nonzero;stroke:none"
         d="m 17.601562,79.128906 c 0,-1.832031 -1.484374,-3.3125 -3.316406,-3.3125 -1.832031,0 -3.320312,1.480469 -3.320312,3.3125 0,1.828125 1.488281,3.308594 3.320312,3.308594 1.832032,0 3.316406,-1.480469 3.316406,-3.308594"
         id="path114" />
      <g
         clip-rule="nonzero"
         id="g118">
        <path
           style="fill:#ffde57;fill-opacity:1;fill-rule:nonzero;stroke:none"
           d="m 7.265625,68.8125 c 0,-1.828125 -1.488281,-3.3125 -3.320313,-3.3125 -1.832031,0 -3.3125,1.484375 -3.3125,3.3125 0,1.828125 1.480469,3.308594 3.3125,3.308594 1.832032,0 3.320313,-1.480469 3.320313,-3.308594"
           id="path116" />
      </g>
      <path
         style="fill:#ffde57;fill-opacity:1;fill-rule:nonzero;stroke:none"
         d="M 58.984375,166.75 45.1875,152.98828 V 139.6875 h 4.75 v 11.33594 l 12.402344,12.3789 -3.355469,3.34766"
         id="path120" />
      <g
         clip-rule="nonzero"
         id="g124">
        <path
           style="fill:#ffde57;fill-opacity:1;fill-rule:nonzero;stroke:none"
           d="M 4.9375,69.164062 3.59375,67.824219 19.011719,52.441406 V 40.335938 L 12.9375,34.273438 V 0.722656 h 1.898438 v 32.765625 l 6.078124,6.0625 V 53.222656 L 4.9375,69.164062"
           id="path122" />
      </g>
      <path
         style="fill:#ffde57;fill-opacity:1;fill-rule:nonzero;stroke:none"
         d="m 14.957031,79.800781 -1.34375,-1.339843 9.773438,-9.757813 h 9.417969 L 36.0625,65.449219 v -5.277344 l -11.839844,-11.8125 1.34375,-1.339844 12.398438,12.371094 v 6.84375 l -4.375,4.363281 h -9.417969 l -9.214844,9.203125"
         id="path126" />
    </g>
    <clipPath
       clipPathUnits="userSpaceOnUse"
       id="clipPath460">
      <rect
         style="fill:#152f75;stroke-width:0.75"
         id="rect462"
         width="250.89006"
         height="240.41885"
         x="99.267014"
         y="-14.240838" />
    </clipPath>
    <clipPath
       clipPathUnits="userSpaceOnUse"
       id="clipPath896">
      <rect
         style="fill:#152f75;stroke-width:0.691327"
         id="rect898"
         width="227.35748"
         height="220.84465"
         x="106.00328"
         y="5.9207678" />
    </clipPath>
    <clipPath
       clipPathUnits="userSpaceOnUse"
       id="clipPath1080">
      <rect
         style="fill:#152f75;stroke-width:0.746853"
         id="rect1082"
         width="191.83289"
         height="203.73022"
         x="133.83089"
         y="23.035202" />
    </clipPath>
  </defs>
  <g
     xml:id="surface1"
     id="surface1"
     clip-path="url(#clipPath1080)"
     transform="translate(-148.63281,-23.035202)">
    <use
       transform="translate(185)"
       xlink:href="#surface5"
       xlink:type="simple"
       mask="url(#mask0)"
       xlink:actuate="onLoad"
       xlink:show="embed"
       id="use131"
       x="0"
       y="0"
       width="100%"
       height="100%" />
    <use
       transform="translate(148)"
       xlink:href="#surface8"
       xlink:type="simple"
       mask="url(#mask1)"
       xlink:actuate="onLoad"
       xlink:show="embed"
       id="use133"
       x="0"
       y="0"
       width="100%"
       height="100%" />
  </g>
</svg>
