<?xml version="1.0" encoding="UTF-8"?>
<svg xmlns="http://www.w3.org/2000/svg" xmlns:xlink="http://www.w3.org/1999/xlink" width="375pt" height="374.999991pt" viewBox="0 0 375 374.999991" version="1.2">
<defs>
<clipPath id="clip1">
  <path d="M 112.5 112.5 L 262.5 112.5 L 262.5 262.5 L 112.5 262.5 Z M 112.5 112.5 "/>
</clipPath>
</defs>
<g id="surface1">
<g clip-path="url(#clip1)" clip-rule="nonzero">
<path style=" stroke:none;fill-rule:nonzero;fill:rgb(0%,0%,0%);fill-opacity:1;" d="M 187.398438 112.398438 C 165.238281 112.398438 145.28125 122.082031 131.570312 137.394531 C 131.269531 137.710938 131.003906 138.054688 130.769531 138.425781 C 130.539062 138.792969 130.347656 139.183594 130.191406 139.59375 C 130.039062 140 129.929688 140.421875 129.859375 140.851562 C 129.789062 141.28125 129.761719 141.714844 129.78125 142.152344 C 129.796875 142.585938 129.859375 143.015625 129.964844 143.441406 C 130.066406 143.863281 130.210938 144.273438 130.398438 144.667969 C 130.582031 145.0625 130.808594 145.433594 131.066406 145.785156 C 131.328125 146.132812 131.621094 146.453125 131.945312 146.746094 C 132.269531 147.035156 132.621094 147.292969 132.996094 147.511719 C 133.375 147.734375 133.769531 147.914062 134.179688 148.058594 C 134.59375 148.199219 135.015625 148.296875 135.449219 148.355469 C 135.882812 148.410156 136.316406 148.425781 136.75 148.394531 C 137.1875 148.363281 137.613281 148.289062 138.035156 148.175781 C 138.453125 148.058594 138.859375 147.902344 139.25 147.703125 C 139.636719 147.507812 140.003906 147.273438 140.34375 147 C 140.6875 146.730469 141 146.429688 141.28125 146.097656 C 152.632812 133.417969 169.027344 125.441406 187.398438 125.441406 C 221.691406 125.441406 249.355469 153.101562 249.355469 187.398438 C 249.355469 221.691406 221.691406 249.355469 187.398438 249.355469 C 169.03125 249.355469 152.636719 241.378906 141.28125 228.699219 C 141 228.367188 140.6875 228.066406 140.34375 227.792969 C 140.003906 227.523438 139.636719 227.289062 139.25 227.09375 C 138.859375 226.894531 138.453125 226.738281 138.035156 226.621094 C 137.613281 226.503906 137.1875 226.433594 136.75 226.402344 C 136.316406 226.371094 135.882812 226.386719 135.449219 226.441406 C 135.015625 226.5 134.59375 226.597656 134.179688 226.738281 C 133.769531 226.878906 133.375 227.0625 132.996094 227.28125 C 132.621094 227.503906 132.269531 227.757812 131.945312 228.050781 C 131.621094 228.339844 131.328125 228.660156 131.066406 229.011719 C 130.808594 229.363281 130.582031 229.734375 130.398438 230.128906 C 130.210938 230.523438 130.066406 230.933594 129.964844 231.355469 C 129.859375 231.78125 129.796875 232.210938 129.78125 232.644531 C 129.761719 233.082031 129.789062 233.515625 129.859375 233.945312 C 129.929688 234.375 130.039062 234.796875 130.191406 235.203125 C 130.347656 235.613281 130.539062 236 130.769531 236.371094 C 131.003906 236.742188 131.269531 237.082031 131.570312 237.398438 C 145.285156 252.714844 165.242188 262.398438 187.398438 262.398438 C 228.742188 262.398438 262.398438 228.742188 262.398438 187.398438 C 262.398438 146.054688 228.742188 112.398438 187.398438 112.398438 Z M 141.824219 157.988281 C 140.976562 158.011719 140.164062 158.195312 139.386719 158.535156 C 138.613281 158.878906 137.929688 159.351562 137.339844 159.960938 L 115.09375 182.207031 C 114.691406 182.511719 114.328125 182.859375 114.007812 183.25 C 113.6875 183.636719 113.414062 184.058594 113.191406 184.507812 C 112.96875 184.960938 112.800781 185.433594 112.683594 185.925781 C 112.570312 186.414062 112.515625 186.914062 112.515625 187.417969 C 112.515625 187.921875 112.574219 188.417969 112.691406 188.910156 C 112.808594 189.398438 112.980469 189.871094 113.207031 190.320312 C 113.429688 190.773438 113.707031 191.191406 114.027344 191.578125 C 114.351562 191.964844 114.714844 192.3125 115.117188 192.613281 L 137.339844 214.835938 C 137.640625 215.148438 137.96875 215.429688 138.324219 215.675781 C 138.679688 215.921875 139.058594 216.132812 139.457031 216.304688 C 139.855469 216.476562 140.265625 216.609375 140.691406 216.699219 C 141.113281 216.789062 141.542969 216.835938 141.976562 216.839844 C 142.410156 216.84375 142.839844 216.804688 143.265625 216.722656 C 143.691406 216.644531 144.105469 216.519531 144.507812 216.355469 C 144.910156 216.191406 145.292969 215.992188 145.652344 215.75 C 146.015625 215.511719 146.347656 215.238281 146.65625 214.929688 C 146.960938 214.625 147.234375 214.289062 147.476562 213.929688 C 147.714844 213.566406 147.917969 213.183594 148.082031 212.785156 C 148.246094 212.382812 148.367188 211.96875 148.449219 211.542969 C 148.53125 211.117188 148.570312 210.683594 148.566406 210.25 C 148.5625 209.816406 148.515625 209.390625 148.425781 208.964844 C 148.332031 208.539062 148.203125 208.128906 148.03125 207.730469 C 147.859375 207.332031 147.648438 206.953125 147.402344 206.597656 C 147.152344 206.242188 146.875 205.914062 146.5625 205.613281 L 134.867188 193.917969 L 194.125 193.917969 C 194.554688 193.925781 194.984375 193.890625 195.410156 193.808594 C 195.832031 193.730469 196.246094 193.609375 196.648438 193.449219 C 197.046875 193.289062 197.429688 193.089844 197.792969 192.851562 C 198.152344 192.617188 198.488281 192.347656 198.796875 192.042969 C 199.101562 191.738281 199.378906 191.410156 199.621094 191.050781 C 199.863281 190.691406 200.066406 190.3125 200.234375 189.914062 C 200.398438 189.515625 200.527344 189.105469 200.609375 188.683594 C 200.695312 188.257812 200.738281 187.832031 200.738281 187.398438 C 200.738281 186.964844 200.695312 186.539062 200.609375 186.113281 C 200.527344 185.691406 200.398438 185.28125 200.234375 184.878906 C 200.066406 184.480469 199.863281 184.105469 199.621094 183.746094 C 199.378906 183.386719 199.101562 183.058594 198.796875 182.753906 C 198.488281 182.449219 198.152344 182.179688 197.792969 181.941406 C 197.429688 181.707031 197.046875 181.507812 196.648438 181.347656 C 196.246094 181.183594 195.832031 181.066406 195.410156 180.984375 C 194.984375 180.90625 194.554688 180.871094 194.125 180.875 L 134.867188 180.875 L 146.5625 169.183594 C 147.03125 168.726562 147.425781 168.207031 147.738281 167.628906 C 148.054688 167.054688 148.277344 166.445312 148.40625 165.800781 C 148.539062 165.15625 148.570312 164.507812 148.503906 163.851562 C 148.4375 163.199219 148.277344 162.570312 148.019531 161.964844 C 147.765625 161.359375 147.425781 160.804688 147 160.300781 C 146.578125 159.800781 146.089844 159.371094 145.535156 159.015625 C 144.984375 158.660156 144.390625 158.398438 143.757812 158.222656 C 143.125 158.046875 142.480469 157.96875 141.824219 157.988281 Z M 141.824219 157.988281 "/>
</g>
</g>
</svg>
