<?xml version="1.0" encoding="UTF-8" standalone="no"?>
<svg
   contentScriptType="text/ecmascript"
   width="960pt"
   zoomAndPan="magnify"
   contentStyleType="text/css"
   viewBox="0 0 960 599.999999"
   height="599.999999pt"
   preserveAspectRatio="xMidYMid meet"
   version="1.2"
   id="svg44"
   sodipodi:docname="MainBG.svg"
   inkscape:version="1.1 (c68e22c387, 2021-05-23)"
   xmlns:inkscape="http://www.inkscape.org/namespaces/inkscape"
   xmlns:sodipodi="http://sodipodi.sourceforge.net/DTD/sodipodi-0.dtd"
   xmlns:xlink="http://www.w3.org/1999/xlink"
   xmlns="http://www.w3.org/2000/svg"
   xmlns:svg="http://www.w3.org/2000/svg">
  <sodipodi:namedview
     id="namedview46"
     pagecolor="#ffffff"
     bordercolor="#666666"
     borderopacity="1.0"
     inkscape:pageshadow="2"
     inkscape:pageopacity="0.0"
     inkscape:pagecheckerboard="0"
     inkscape:document-units="pt"
     showgrid="false"
     inkscape:zoom="2.5323262"
     inkscape:cx="290.83931"
     inkscape:cy="99.710695"
     inkscape:window-width="1920"
     inkscape:window-height="1017"
     inkscape:window-x="-8"
     inkscape:window-y="-8"
     inkscape:window-maximized="1"
     inkscape:current-layer="svg44" />
  <defs
     id="defs39">
    <filter
       x="0"
       y="0"
       width="1"
       xlink:type="simple"
       filterUnits="objectBoundingBox"
       xlink:actuate="onLoad"
       id="alpha"
       height="1"
       xlink:show="other"
       xml:id="alpha">
      <feColorMatrix
         values="0 0 0 0 1 0 0 0 0 1 0 0 0 0 1 0 0 0 1 0"
         type="matrix"
         in="SourceGraphic"
         id="feColorMatrix2" />
    </filter>
    <mask
       xml:id="mask0"
       id="mask0">
      <g
         filter="url(#alpha)"
         id="g7">
        <rect
           x="0"
           width="960"
           y="0"
           height="599.999999"
           style="fill:rgb(0%,0%,0%);fill-opacity:0.498;stroke:none;"
           id="rect5" />
      </g>
    </mask>
    <g
       xml:id="surface5"
       id="surface5">
      <g
         clip-rule="nonzero"
         id="g12">
        <path
           style=" stroke:none;fill-rule:nonzero;fill:rgb(100%,87.059021%,34.899902%);fill-opacity:1;"
           d="M 313.082031 -43.796875 L 313.082031 -37.84375 L 205.75 -37.84375 L 188.65625 -20.753906 L 172.261719 -20.753906 L 160.511719 -9.007812 L 138.769531 -9.007812 L 101.410156 28.335938 L 87.429688 28.335938 L 48.800781 66.949219 L 48.800781 85.4375 L 21.835938 112.394531 L -50.542969 112.394531 L -72.972656 89.976562 L -72.972656 57.167969 L -82.425781 47.714844 L -100.351562 47.714844 L -111.511719 58.875 L -131.453125 58.875 L -144.847656 72.261719 L -193.113281 72.261719 L -193.113281 66.3125 L -147.3125 66.3125 L -133.917969 52.921875 L -113.976562 52.921875 L -102.816406 41.765625 L -79.960938 41.765625 L -67.019531 54.703125 L -67.019531 87.511719 L -48.078125 106.445312 L 19.367188 106.445312 L 42.847656 82.96875 L 42.847656 64.484375 L 84.960938 22.386719 L 98.945312 22.386719 L 136.304688 -14.960938 L 158.046875 -14.960938 L 169.792969 -26.703125 L 186.191406 -26.703125 L 203.285156 -43.796875 L 313.082031 -43.796875 "
           id="path10" />
      </g>
      <g
         clip-rule="nonzero"
         id="g16">
        <path
           style=" stroke:none;fill-rule:nonzero;fill:rgb(100%,87.059021%,34.899902%);fill-opacity:1;"
           d="M 313.082031 15.722656 L 313.082031 21.675781 L 245.816406 21.675781 L 203.390625 64.085938 L 101.722656 64.085938 L 38.300781 127.488281 L -59.570312 127.488281 L -83.378906 103.683594 L -83.378906 72.101562 L -119.648438 72.101562 L -132.351562 84.792969 L -193.105469 84.792969 L -193.105469 78.839844 L -134.816406 78.839844 L -122.113281 66.148438 L -77.425781 66.148438 L -77.425781 101.21875 L -57.097656 121.535156 L 35.835938 121.535156 L 99.25 58.132812 L 200.925781 58.132812 L 243.351562 15.722656 L 313.082031 15.722656 "
           id="path14" />
      </g>
      <g
         clip-rule="nonzero"
         id="g20">
        <path
           style=" stroke:none;fill-rule:nonzero;fill:rgb(100%,87.059021%,34.899902%);fill-opacity:1;"
           d="M 313.121094 -55.191406 L 313.121094 -49.238281 L 154.242188 -49.238281 L 104.175781 0.808594 L 87.628906 0.808594 L 33.9375 54.484375 L 33.9375 65.046875 L 22.421875 76.554688 L -14.554688 76.554688 L -29 62.113281 L -29 40.59375 L -52.273438 17.328125 L -97.011719 17.328125 L -110.125 30.4375 L -127.1875 30.4375 L -156.164062 59.402344 L -193.113281 59.402344 L -193.113281 53.453125 L -158.628906 53.453125 L -129.660156 24.488281 L -112.589844 24.488281 L -99.476562 11.378906 L -49.800781 11.378906 L -23.046875 38.125 L -23.046875 59.648438 L -12.089844 70.601562 L 19.957031 70.601562 L 27.984375 62.578125 L 27.984375 52.019531 L 85.164062 -5.140625 L 101.710938 -5.140625 L 151.777344 -55.191406 L 313.121094 -55.191406 "
           id="path18" />
      </g>
      <path
         style=" stroke:none;fill-rule:nonzero;fill:rgb(100%,87.059021%,34.899902%);fill-opacity:1;"
         d="M 182.609375 -5.566406 L 167.332031 9.707031 L 132.898438 9.707031 L 107.402344 35.195312 L 90.046875 35.195312 L 64.148438 61.085938 L 51.648438 61.085938 L 51.648438 58.707031 L 63.164062 58.707031 L 89.0625 32.816406 L 106.417969 32.816406 L 131.914062 7.328125 L 166.347656 7.328125 L 180.925781 -7.246094 L 182.609375 -5.566406 "
         id="path22" />
      <path
         style=" stroke:none;fill-rule:nonzero;fill:rgb(100%,87.059021%,34.899902%);fill-opacity:1;"
         d="M 118.085938 -18.496094 L 118.085938 -16.113281 L 101.851562 -16.113281 L 94.734375 -9 L 64.542969 -9 L 9.796875 45.730469 L -6.285156 45.730469 L -48.359375 3.667969 L -107.089844 3.667969 L -136.65625 -25.890625 L -193.113281 -25.890625 L -193.113281 -28.269531 L -135.671875 -28.269531 L -106.101562 1.289062 L -47.375 1.289062 L -5.300781 43.351562 L 8.808594 43.351562 L 63.558594 -11.382812 L 93.75 -11.382812 L 100.863281 -18.496094 L 118.085938 -18.496094 "
         id="path24" />
      <g
         clip-rule="nonzero"
         id="g28">
        <path
           style=" stroke:none;fill-rule:nonzero;fill:rgb(100%,87.059021%,34.899902%);fill-opacity:1;"
           d="M 313.082031 36.589844 L 313.082031 38.96875 L 274.882812 38.96875 L 263.117188 27.207031 L 247.910156 27.207031 L 196.589844 78.507812 L 151.660156 78.507812 L 141.710938 68.558594 L 116.933594 68.558594 L 91.246094 94.234375 L 80.019531 94.234375 L 37.941406 136.296875 L -67.015625 136.296875 L -73.765625 143.046875 L -97.167969 143.046875 L -120.058594 120.164062 L -193.105469 120.164062 L -193.105469 117.785156 L -119.074219 117.785156 L -96.183594 140.667969 L -74.753906 140.667969 L -68 133.917969 L 36.957031 133.917969 L 79.035156 91.855469 L 90.261719 91.855469 L 115.945312 66.175781 L 142.699219 66.175781 L 152.644531 76.125 L 195.605469 76.125 L 246.921875 24.828125 L 264.097656 24.828125 L 275.871094 36.589844 L 313.082031 36.589844 "
           id="path26" />
      </g>
      <path
         style=" stroke:none;fill-rule:nonzero;fill:rgb(100%,87.059021%,34.899902%);fill-opacity:1;"
         d="M 85.480469 -33.074219 L 85.480469 -30.695312 L 71.351562 -30.695312 L 64.570312 -23.914062 L 64.570312 -16.253906 L 8.585938 39.714844 L -7.425781 39.714844 L -14.523438 32.621094 L -14.523438 16.210938 L -31.984375 -1.242188 L -91.765625 -1.242188 L -110.859375 -20.332031 L -121.191406 -20.332031 L -131.386719 -30.53125 L -156.816406 -30.53125 L -165.925781 -39.628906 L -193.105469 -39.628906 L -193.105469 -42.011719 L -164.9375 -42.011719 L -155.832031 -32.910156 L -130.402344 -32.910156 L -120.203125 -22.710938 L -109.875 -22.710938 L -90.777344 -3.621094 L -31 -3.621094 L -12.140625 15.226562 L -12.140625 31.632812 L -6.445312 37.332031 L 7.601562 37.332031 L 62.191406 -17.238281 L 62.191406 -24.902344 L 70.367188 -33.074219 L 85.480469 -33.074219 "
         id="path30" />
      <path
         style=" stroke:none;fill-rule:nonzero;fill:rgb(100%,87.059021%,34.899902%);fill-opacity:1;"
         d="M 226.476562 35.609375 L 226.476562 37.988281 L 213.664062 37.988281 L 201.566406 50.085938 L 185.683594 50.085938 L 180.085938 55.6875 L 90.734375 55.6875 L 73.796875 72.621094 L 73.796875 80.824219 L 58.257812 96.359375 L 34.855469 96.359375 L 34.855469 93.980469 L 57.269531 93.980469 L 71.417969 79.835938 L 71.417969 71.636719 L 89.75 53.308594 L 179.097656 53.308594 L 184.699219 47.707031 L 200.578125 47.707031 L 212.675781 35.609375 L 226.476562 35.609375 "
         id="path32" />
      <path
         style=" stroke:none;fill-rule:nonzero;fill:rgb(100%,87.059021%,34.899902%);fill-opacity:1;"
         d="M 15.511719 75.679688 L -1.785156 92.972656 L -18.492188 92.972656 L -18.492188 87.019531 L -4.25 87.019531 L 11.304688 71.472656 L 15.511719 75.679688 "
         id="path34" />
      <path
         style=" stroke:none;fill-rule:nonzero;fill:rgb(100%,87.059021%,34.899902%);fill-opacity:1;"
         d="M 296.820312 -4.851562 L 296.820312 6.882812 L 282.890625 20.804688 L 278.683594 16.597656 L 290.867188 4.414062 L 290.867188 -4.851562 L 296.820312 -4.851562 "
         id="path36" />
    </g>
    <clipPath
       clipPathUnits="userSpaceOnUse"
       id="clipPath152">
      <rect
         style="fill:#152f75;stroke-width:0.83697"
         id="rect154"
         width="459.54654"
         height="200.86678"
         x="0.19730254"
         y="40.199261" />
    </clipPath>
  </defs>
  <g
     xml:id="surface1"
     id="surface1"
     clip-path="url(#clipPath152)"
     transform="translate(0,-39.983001)">
    <use
       xlink:href="#surface5"
       xlink:type="simple"
       mask="url(#mask0)"
       xlink:actuate="onLoad"
       xlink:show="embed"
       id="use41"
       x="0"
       y="0"
       width="100%"
       height="100%" />
  </g>
</svg>
