<?xml version="1.0" encoding="UTF-8"?>
<svg xmlns="http://www.w3.org/2000/svg" xmlns:xlink="http://www.w3.org/1999/xlink" width="75pt" height="74.999997pt" viewBox="0 0 75 74.999997" version="1.2">
<defs>
<clipPath id="clip1">
  <path d="M 8.363281 16 L 66.863281 16 L 66.863281 60.523438 L 8.363281 60.523438 Z M 8.363281 16 "/>
</clipPath>
</defs>
<g id="surface1">
<g clip-path="url(#clip1)" clip-rule="nonzero">
<path style=" stroke:none;fill-rule:nonzero;fill:rgb(81.17981%,39.219666%,60.389709%);fill-opacity:1;" d="M 58.8125 41.421875 C 56.777344 41.433594 55.019531 41.921875 53.539062 42.652344 C 52.996094 41.566406 52.449219 40.621094 52.359375 39.914062 C 52.257812 39.089844 52.132812 38.585938 52.257812 37.605469 C 52.378906 36.621094 52.949219 35.230469 52.949219 35.113281 C 52.9375 35.011719 52.824219 34.507812 51.65625 34.496094 C 50.484375 34.488281 49.472656 34.726562 49.359375 35.035156 C 49.15625 35.605469 48.992188 36.1875 48.871094 36.78125 C 48.664062 37.855469 46.53125 41.660156 45.3125 43.660156 C 44.914062 42.882812 44.574219 42.199219 44.507812 41.648438 C 44.402344 40.828125 44.277344 40.324219 44.402344 39.34375 C 44.527344 38.359375 45.097656 36.96875 45.097656 36.851562 C 45.085938 36.75 44.972656 36.246094 43.800781 36.234375 C 42.632812 36.226562 41.621094 36.464844 41.507812 36.773438 C 41.394531 37.082031 41.269531 37.8125 41.019531 38.519531 C 40.777344 39.230469 37.9375 45.582031 37.199219 47.238281 C 36.824219 48.082031 36.496094 48.757812 36.257812 49.214844 C 36.019531 49.671875 36.246094 49.25 36.222656 49.292969 L 35.90625 49.898438 L 35.90625 49.910156 C 35.746094 50.195312 35.574219 50.472656 35.496094 50.472656 C 35.441406 50.472656 35.324219 49.707031 35.519531 48.65625 C 35.941406 46.449219 36.960938 43.011719 36.949219 42.886719 C 36.949219 42.828125 37.144531 42.222656 36.292969 41.914062 C 35.460938 41.605469 35.164062 42.121094 35.097656 42.121094 C 35.03125 42.121094 34.972656 42.300781 34.972656 42.300781 C 34.972656 42.300781 35.894531 38.429688 33.210938 38.429688 C 31.527344 38.429688 29.210938 40.269531 28.0625 41.949219 L 22.269531 45.136719 L 22.140625 45 C 18.894531 41.511719 12.882812 39.042969 13.132812 34.359375 C 13.222656 32.65625 13.816406 28.167969 24.675781 22.730469 C 33.574219 18.277344 40.699219 19.5 41.9375 22.21875 C 43.699219 26.101562 38.132812 33.320312 28.882812 34.363281 C 25.359375 34.761719 23.507812 33.390625 23.042969 32.875 C 22.550781 32.339844 22.484375 32.316406 22.300781 32.417969 C 22.007812 32.578125 22.1875 33.058594 22.300781 33.34375 C 22.574219 34.066406 23.710938 35.34375 25.644531 35.984375 C 27.335938 36.542969 31.472656 36.851562 36.472656 34.910156 C 42.074219 32.730469 46.449219 26.675781 45.164062 21.613281 C 43.859375 16.460938 35.359375 14.773438 27.324219 17.640625 C 22.542969 19.351562 17.371094 22.023438 13.644531 25.53125 C 9.203125 29.6875 8.496094 33.320312 8.792969 34.828125 C 9.828125 40.210938 17.199219 43.71875 20.15625 46.3125 L 19.746094 46.539062 C 18.269531 47.269531 12.644531 50.230469 11.234375 53.359375 C 9.644531 56.898438 11.484375 59.449219 12.710938 59.789062 C 16.507812 60.851562 20.394531 58.945312 22.496094 55.804688 C 24.585938 52.660156 24.335938 48.585938 23.371094 46.722656 L 23.335938 46.652344 L 24.496094 45.96875 C 25.246094 45.523438 25.984375 45.109375 26.628906 44.757812 C 26.265625 45.75 26.003906 46.925781 25.867188 48.640625 C 25.710938 50.652344 26.527344 53.253906 27.609375 54.285156 C 28.085938 54.730469 28.652344 54.742188 29.007812 54.742188 C 30.253906 54.742188 30.824219 53.703125 31.449219 52.457031 C 32.222656 50.9375 32.902344 49.179688 32.902344 49.179688 C 32.902344 49.179688 32.050781 53.941406 34.378906 53.941406 C 35.234375 53.941406 36.085938 52.832031 36.472656 52.261719 L 36.472656 52.273438 C 36.472656 52.273438 36.492188 52.238281 36.539062 52.160156 C 36.628906 52.023438 36.675781 51.941406 36.675781 51.941406 L 36.675781 51.917969 C 37.015625 51.324219 37.777344 49.964844 38.914062 47.714844 C 40.378906 44.8125 41.789062 41.179688 41.789062 41.179688 C 41.789062 41.179688 41.925781 42.074219 42.347656 43.535156 C 42.597656 44.402344 43.140625 45.351562 43.5625 46.277344 L 43.019531 47.03125 L 43.027344 47.042969 C 42.738281 47.429688 42.4375 47.808594 42.128906 48.183594 C 40.972656 49.578125 39.585938 51.164062 39.402344 51.621094 C 39.1875 52.160156 39.234375 52.558594 39.652344 52.878906 C 39.960938 53.109375 40.507812 53.152344 41.085938 53.109375 C 42.128906 53.039062 42.859375 52.777344 43.222656 52.617188 C 43.878906 52.378906 44.492188 52.054688 45.0625 51.644531 C 46.199219 50.800781 46.890625 49.597656 46.824219 48 C 46.789062 47.121094 46.503906 46.253906 46.152344 45.429688 L 46.460938 44.972656 C 48.253906 42.332031 49.640625 39.433594 49.640625 39.433594 C 49.640625 39.433594 49.777344 40.324219 50.199219 41.785156 C 50.414062 42.527344 50.847656 43.339844 51.234375 44.136719 C 49.550781 45.519531 48.492188 47.121094 48.128906 48.171875 C 47.460938 50.113281 47.980469 50.992188 48.972656 51.199219 C 49.414062 51.289062 50.050781 51.085938 50.527344 50.878906 C 51.121094 50.683594 51.835938 50.351562 52.496094 49.863281 C 53.628906 49.015625 54.722656 47.839844 54.664062 46.253906 C 54.628906 45.519531 54.4375 44.800781 54.175781 44.117188 C 55.609375 43.523438 57.460938 43.179688 59.8125 43.464844 C 64.867188 44.058594 65.867188 47.234375 65.675781 48.558594 C 65.480469 49.882812 64.425781 50.613281 64.070312 50.84375 C 63.71875 51.0625 63.605469 51.140625 63.640625 51.300781 C 63.6875 51.539062 63.84375 51.527344 64.152344 51.484375 C 64.574219 51.414062 66.8125 50.398438 66.902344 47.953125 C 67.039062 44.8125 64.070312 41.382812 58.8125 41.417969 Z M 19.816406 54.636719 C 18.144531 56.476562 15.792969 57.175781 14.792969 56.582031 C 13.710938 55.953125 14.132812 53.246094 16.191406 51.292969 C 17.441406 50.101562 19.066406 49.007812 20.132812 48.332031 L 21.167969 47.703125 C 21.234375 47.65625 21.28125 47.636719 21.28125 47.636719 C 21.363281 47.589844 21.453125 47.53125 21.542969 47.476562 C 22.304688 50.261719 21.578125 52.707031 19.816406 54.636719 Z M 32.03125 46.289062 C 31.449219 47.714844 30.222656 51.382812 29.484375 51.175781 C 28.847656 51.003906 28.464844 48.230469 29.359375 45.488281 C 29.816406 44.105469 30.78125 42.460938 31.347656 41.820312 C 32.269531 40.792969 33.269531 40.449219 33.519531 40.871094 C 33.816406 41.421875 32.394531 45.394531 32.03125 46.285156 Z M 42.109375 51.132812 C 41.859375 51.257812 41.632812 51.347656 41.53125 51.28125 C 41.449219 51.234375 41.632812 51.0625 41.632812 51.0625 C 41.632812 51.0625 42.894531 49.703125 43.394531 49.074219 L 44.382812 47.808594 L 44.382812 47.945312 C 44.382812 49.589844 42.816406 50.683594 42.109375 51.132812 Z M 49.882812 49.347656 C 49.699219 49.210938 49.722656 48.789062 50.335938 47.464844 C 50.574219 46.9375 51.121094 46.058594 52.0625 45.226562 C 52.175781 45.566406 52.246094 45.898438 52.234375 46.207031 C 52.222656 48.261719 50.765625 49.03125 49.882812 49.347656 Z M 49.882812 49.347656 "/>
</g>
</g>
</svg>
