<?xml version="1.0" encoding="UTF-8" standalone="no"?>
<svg
   contentScriptType="text/ecmascript"
   width="846.96875pt"
   zoomAndPan="magnify"
   contentStyleType="text/css"
   viewBox="0 0 846.96875 341.27344"
   height="341.27344pt"
   preserveAspectRatio="xMidYMid meet"
   version="1.2"
   id="svg82"
   sodipodi:docname="ShowcaseBG.svg"
   inkscape:version="1.1 (c68e22c387, 2021-05-23)"
   xmlns:inkscape="http://www.inkscape.org/namespaces/inkscape"
   xmlns:sodipodi="http://sodipodi.sourceforge.net/DTD/sodipodi-0.dtd"
   xmlns:xlink="http://www.w3.org/1999/xlink"
   xmlns="http://www.w3.org/2000/svg"
   xmlns:svg="http://www.w3.org/2000/svg">
  <sodipodi:namedview
     id="namedview84"
     pagecolor="#ffffff"
     bordercolor="#666666"
     borderopacity="1.0"
     inkscape:pageshadow="2"
     inkscape:pageopacity="0.0"
     inkscape:pagecheckerboard="0"
     inkscape:document-units="pt"
     showgrid="false"
     fit-margin-top="0"
     fit-margin-left="0"
     fit-margin-right="0"
     fit-margin-bottom="0"
     inkscape:zoom="0.8953125"
     inkscape:cx="165.86387"
     inkscape:cy="135.70681"
     inkscape:window-width="1920"
     inkscape:window-height="1017"
     inkscape:window-x="-8"
     inkscape:window-y="-8"
     inkscape:window-maximized="1"
     inkscape:current-layer="svg82" />
  <defs
     id="defs77">
    <filter
       x="0"
       y="0"
       width="1"
       xlink:type="simple"
       filterUnits="objectBoundingBox"
       xlink:actuate="onLoad"
       id="alpha"
       height="1"
       xlink:show="other"
       xml:id="alpha">
      <feColorMatrix
         values="0 0 0 0 1 0 0 0 0 1 0 0 0 0 1 0 0 0 1 0"
         type="matrix"
         in="SourceGraphic"
         id="feColorMatrix2" />
    </filter>
    <mask
       xml:id="mask0"
       id="mask0">
      <g
         filter="url(#alpha)"
         id="g7">
        <rect
           x="0"
           width="960"
           y="0"
           height="600"
           style="fill:#000000;fill-opacity:0.498;stroke:none"
           id="rect5" />
      </g>
    </mask>
    <g
       xml:id="surface5"
       id="surface5">
      <g
         clip-rule="nonzero"
         id="g12">
        <path
           style="fill:#ffde57;fill-opacity:1;fill-rule:nonzero;stroke:none"
           d="m 2.4375,322.78906 v -9.95703 h 179.57812 l 28.60157,-28.58984 h 27.42968 l 19.66016,-19.64453 h 36.37891 l 62.5039,-62.47266 h 23.38672 l 64.62891,-64.58984 v -30.92969 l 45.11328,-45.093751 h 121.09766 l 37.52734,37.503906 v 54.882815 l 15.81641,15.8125 h 29.98828 l 18.67578,-18.66797 h 33.36328 l 22.41016,-22.39844 h 80.75 v 9.95703 H 772.71875 L 750.3125,161 h -33.36719 l -18.67187,18.66406 H 660.03516 L 638.38281,158.01953 V 103.13672 L 606.69141,71.46875 H 493.85156 l -39.28515,39.26563 v 30.92187 l -70.45704,70.42187 h -23.39843 l -62.50391,62.47657 h -36.375 l -19.65625,19.64453 h -27.43359 l -28.60157,28.58984 H 2.4375"
           id="path10" />
      </g>
      <g
         clip-rule="nonzero"
         id="g16">
        <path
           style="fill:#ffde57;fill-opacity:1;fill-rule:nonzero;stroke:none"
           d="m 2.4375,223.22266 v -9.95313 h 112.54688 l 70.98437,-70.94141 H 356.06641 L 462.17578,36.269531 h 163.74219 l 39.83594,39.820313 v 52.828126 h 60.68359 l 21.25,-21.23047 h 101.65234 v 9.95313 H 751.8125 l -21.25,21.23437 H 655.79687 V 80.210938 L 621.78516,46.222656 H 466.30078 L 360.19922,152.28125 H 190.09375 l -70.98828,70.94141 H 2.4375"
           id="path14" />
      </g>
      <g
         clip-rule="nonzero"
         id="g20">
        <path
           style="fill:#ffde57;fill-opacity:1;fill-rule:nonzero;stroke:none"
           d="m 2.378906,341.85156 v -9.95703 H 268.19531 l 83.76172,-83.72266 h 27.6875 l 89.82813,-89.78515 v -17.67188 l 19.26562,-19.24609 h 61.86719 l 24.16797,24.15625 v 36 l 38.9375,38.91797 h 74.85156 l 21.94141,-21.9336 h 28.54687 l 48.47656,-48.45312 h 61.82032 v 9.95703 h -57.69532 l -48.46875,48.44922 h -28.55468 l -21.94532,21.93359 H 609.57812 L 564.8125,185.75391 v -36.00782 l -18.33203,-18.32422 h -53.61719 l -13.42969,13.42579 v 17.66015 l -95.66797,95.6211 h -27.68359 l -83.76172,83.72265 H 2.378906"
           id="path18" />
      </g>
      <path
         style="fill:#ffde57;fill-opacity:1;fill-rule:nonzero;stroke:none"
         d="m 49.589844,274.59375 v -3.98438 h 35.023437 l 25.562499,25.55079 h 55.4375 l 9.13281,9.1289 h 19.875 v 3.98047 h -21.53125 l -9.125,-9.12891 h -55.4414 L 82.957031,274.59375 H 49.589844"
         id="path22" />
      <path
         style="fill:#ffde57;fill-opacity:1;fill-rule:nonzero;stroke:none"
         d="m 220.73437,258.83594 25.5586,-25.54688 h 57.60937 l 42.65625,-42.63672 h 29.03907 l 43.33203,-43.30859 h 20.91406 v 3.98047 h -19.26563 l -43.33203,43.3125 h -29.03906 l -42.65234,42.63281 h -57.61328 l -24.39063,24.38281 -2.81641,-2.8164"
         id="path24" />
      <g
         clip-rule="nonzero"
         id="g28">
        <path
           style="fill:#ffde57;fill-opacity:1;fill-rule:nonzero;stroke:none"
           d="m 328.6875,280.46484 v -3.98047 h 27.16016 l 11.90625,-11.90234 h 50.51562 l 91.59375,-91.55078 h 26.90625 l 70.39453,70.35937 h 98.25781 l 49.47266,49.44922 h 94.45313 v 3.98047 h -96.10157 l -49.47265,-49.44922 h -98.25782 l -70.39453,-70.35937 h -23.60547 l -91.59765,91.55469 H 369.40234 L 357.5,280.46484 h -28.8125"
           id="path26" />
      </g>
      <g
         clip-rule="nonzero"
         id="g32">
        <path
           style="fill:#ffde57;fill-opacity:1;fill-rule:nonzero;stroke:none"
           d="m 2.4375,188.32031 v -3.98047 h 63.914062 l 19.6875,19.67578 h 25.441408 l 85.86328,-85.81249 h 75.17187 l 16.64454,16.64062 h 41.45703 l 42.97265,-42.953125 h 18.78125 L 462.77344,21.53125 H 638.375 l 11.29687,-11.292969 h 39.15235 L 727.125,48.519531 H 849.33984 V 52.5 H 725.47266 L 687.17578,14.21875 H 651.32031 L 640.02344,25.511719 H 464.42578 L 394.02344,95.875 h -18.78516 l -42.97266,42.95312 h -44.75781 l -16.64062,-16.64453 h -71.875 l -85.86328,85.8125 H 84.394531 L 64.703125,188.32031 H 2.4375"
           id="path30" />
      </g>
      <path
         style="fill:#ffde57;fill-opacity:1;fill-rule:nonzero;stroke:none"
         d="m 664.32422,49.730469 2.8164,-2.816407 15.82813,15.8125 v 19.628907 l 17.14062,17.140625 H 727.125 l 19.80859,-19.800782 h 51.23047 l 28.01953,28.015628 -2.80859,2.8125 -26.85938,-26.843752 h -47.93359 l -19.80859,19.800782 h -30.3086 L 678.98437,84.003906 V 64.375 L 664.32422,49.730469"
         id="path34" />
      <path
         style="fill:#ffde57;fill-opacity:1;fill-rule:nonzero;stroke:none"
         d="m 582.89062,181.21094 v -37.51563 l 19.84766,-19.83984 2.81641,2.81641 -18.6836,18.67187 v 34.21875 l 34.23047,34.21094 h 37.26172 l 14.83984,-14.82813 v -12.45312 l 12.89063,-12.87891 2.81641,2.81641 -11.72266,11.71093 v 12.45313 l -17.17578,17.16406 h -40.5586 l -36.5625,-36.54687"
         id="path36" />
      <g
         clip-rule="nonzero"
         id="g40">
        <path
           style="fill:#ffde57;fill-opacity:1;fill-rule:nonzero;stroke:none"
           d="m 383.23828,304.85547 v -3.98438 H 406.875 l 11.34766,-11.33984 v -12.81641 l 93.66406,-93.62109 h 26.78906 l 11.875,11.86719 v 27.44531 l 29.21875,29.19531 h 100.01563 l 31.94921,31.9336 h 17.28125 l 17.0625,17.0625 H 788.625 l 15.23437,15.22265 h 45.48047 v 3.98047 h -47.1289 l -15.23438,-15.21875 h -42.54687 l -17.06641,-17.0625 H 710.08203 L 678.13672,255.58594 H 578.11719 l -31.55078,-31.53125 v -27.44532 l -9.53125,-9.53515 h -23.4961 l -91.33594,91.28906 v 12.81641 l -13.67578,13.67578 h -25.28906"
           id="path38" />
      </g>
      <path
         style="fill:#ffde57;fill-opacity:1;fill-rule:nonzero;stroke:none"
         d="m 147.34375,189.96094 v -3.98047 h 21.4375 l 20.23828,-20.23828 h 26.57031 l 9.36719,-9.3711 h 149.48828 l 28.33985,-28.32422 v -13.71874 l 26.0039,-25.992192 h 39.15235 v 3.984374 H 430.4375 l -23.67188,23.656248 v 13.71875 l -30.67187,30.66016 H 226.60937 l -9.37109,9.37109 h -26.57031 l -20.23828,20.23438 h -23.08594"
         id="path42" />
      <path
         style="fill:#ffde57;fill-opacity:1;fill-rule:nonzero;stroke:none"
         d="m 232.32031,333.35547 28.09375,-28.07422 2.82031,2.81641 -28.09765,28.07421 -2.81641,-2.8164"
         id="path44" />
      <path
         style="fill:#ffde57;fill-opacity:1;fill-rule:nonzero;stroke:none"
         d="m 579.90234,98.984375 c 0,-5.5 -4.47656,-9.976563 -9.98437,-9.976563 -5.5,0 -9.97656,4.476563 -9.97656,9.976563 0,5.500005 4.47656,9.976565 9.97656,9.976565 5.50781,0 9.98437,-4.47656 9.98437,-9.976565 z m -29.91797,0 c 0,-10.988281 8.9375,-19.933594 19.9336,-19.933594 10.99609,0 19.9414,8.945313 19.9414,19.933594 0,10.988285 -8.94531,19.933595 -19.9414,19.933595 -10.9961,0 -19.9336,-8.94531 -19.9336,-19.933595"
         id="path46" />
      <path
         style="fill:#ffde57;fill-opacity:1;fill-rule:nonzero;stroke:none"
         d="m 44.613281,272.60156 c 0,-5.5 -4.484375,-9.97656 -9.984375,-9.97656 -5.5,0 -9.984375,4.47656 -9.984375,9.97656 0,5.5 4.484375,9.97656 9.984375,9.97656 5.5,0 9.984375,-4.47656 9.984375,-9.97656 z m -29.925781,0 c 0,-10.98828 8.945312,-19.93359 19.941406,-19.93359 10.996094,0 19.941406,8.94531 19.941406,19.93359 0,10.98828 -8.945312,19.9336 -19.941406,19.9336 -10.996094,0 -19.941406,-8.94532 -19.941406,-19.9336"
         id="path48" />
      <path
         style="fill:#ffde57;fill-opacity:1;fill-rule:nonzero;stroke:none"
         d="m 277.64453,299.31641 c 0,-4.66016 -3.78906,-8.4375 -8.44531,-8.4375 -4.66016,0 -8.44141,3.77734 -8.44141,8.4375 0,4.65234 3.78125,8.42968 8.44141,8.42968 4.65625,0 8.44531,-3.77734 8.44531,-8.42968 z m -20.87109,0 c 0,-6.85157 5.57031,-12.42188 12.42578,-12.42188 6.84765,0 12.42578,5.57031 12.42578,12.42188 0,6.84375 -5.57813,12.41406 -12.42578,12.41406 -6.85547,0 -12.42578,-5.57031 -12.42578,-12.41406"
         id="path50" />
      <path
         style="fill:#ffde57;fill-opacity:1;fill-rule:nonzero;stroke:none"
         d="m 382.42187,310.48437 c 3.84375,0 6.96485,-3.10937 6.96485,-6.95312 0,-3.83984 -3.1211,-6.95313 -6.96485,-6.95313 -3.84375,0 -6.95703,3.11329 -6.95703,6.95313 0,3.84375 3.11328,6.95312 6.95703,6.95312"
         id="path52" />
      <path
         style="fill:#ffde57;fill-opacity:1;fill-rule:nonzero;stroke:none"
         d="m 222.14062,267.19531 c 3.84375,0 6.95704,-3.10937 6.95704,-6.95312 0,-3.83985 -3.11329,-6.95313 -6.95704,-6.95313 -3.84375,0 -6.95703,3.11328 -6.95703,6.95313 0,3.84375 3.11328,6.95312 6.95703,6.95312"
         id="path54" />
      <path
         style="fill:#ffde57;fill-opacity:1;fill-rule:nonzero;stroke:none"
         d="m 604.14453,132.21484 c 3.84375,0 6.96484,-3.10937 6.96484,-6.95312 0,-3.83984 -3.12109,-6.96094 -6.96484,-6.96094 -3.84375,0 -6.95312,3.1211 -6.95312,6.96094 0,3.84375 3.10937,6.95312 6.95312,6.95312"
         id="path56" />
      <path
         style="fill:#ffde57;fill-opacity:1;fill-rule:nonzero;stroke:none"
         d="m 665.73047,54.925781 c 3.85156,0 6.96484,-3.109375 6.96484,-6.953125 0,-3.839844 -3.11328,-6.960937 -6.96484,-6.960937 -3.83594,0 -6.95313,3.121093 -6.95313,6.960937 0,3.84375 3.11719,6.953125 6.95313,6.953125"
         id="path58" />
      <path
         style="fill:#ffde57;fill-opacity:1;fill-rule:nonzero;stroke:none"
         d="m 684.50781,36.160156 c 3.85156,0 6.96485,-3.109375 6.96485,-6.953125 0,-3.839843 -3.11329,-6.960937 -6.96485,-6.960937 -3.84375,0 -6.95703,3.121094 -6.95703,6.960937 0,3.84375 3.11328,6.953125 6.95703,6.953125"
         id="path60" />
      <g
         clip-rule="nonzero"
         id="g64">
        <path
           style="fill:#ffde57;fill-opacity:1;fill-rule:nonzero;stroke:none"
           d="m 706.19141,14.492188 c 3.84375,0 6.96484,-3.117188 6.96484,-6.960938 0,-3.839844 -3.12109,-6.953125 -6.96484,-6.953125 -3.84375,0 -6.95313,3.113281 -6.95313,6.953125 0,3.84375 3.10938,6.960938 6.95313,6.960938"
           id="path62" />
      </g>
      <path
         style="fill:#ffde57;fill-opacity:1;fill-rule:nonzero;stroke:none"
         d="m 500.30078,122.92969 28.9375,-28.921878 h 27.95703 v 9.953128 h -23.83203 l -26.01953,26.00781 -7.04297,-7.03906"
         id="path66" />
      <g
         clip-rule="nonzero"
         id="g70">
        <path
           style="fill:#ffde57;fill-opacity:1;fill-rule:nonzero;stroke:none"
           d="M 705.45312,9.609375 708.26953,6.792969 740.61719,39.125 h 25.4414 l 12.7461,-12.742188 h 70.53515 v 3.984376 h -68.88672 l -12.74218,12.738281 h -28.7461 L 705.45312,9.609375"
           id="path68" />
      </g>
      <path
         style="fill:#ffde57;fill-opacity:1;fill-rule:nonzero;stroke:none"
         d="m 683.09766,30.613281 2.8164,-2.8125 20.51172,20.492188 v 19.746093 l 6.83984,6.835938 h 11.09766 l 24.82813,-24.824219 2.8164,2.816407 -26.0039,25.988281 H 711.61719 L 702.44141,69.6875 V 49.941406 L 683.09766,30.613281"
         id="path72" />
      <path
         style="fill:#ffde57;fill-opacity:1;fill-rule:nonzero;stroke:none"
         d="m 29.648438,257.64453 v -19.62891 l 23.304687,-23.29296 7.042969,7.03906 -20.386719,20.38281 v 15.5 h -9.960937"
         id="path74" />
    </g>
  </defs>
  <g
     xml:id="surface1"
     id="surface1"
     transform="translate(-112.37891,-198.57812)">
    <use
       transform="translate(110,198)"
       xlink:href="#surface5"
       xlink:type="simple"
       mask="url(#mask0)"
       xlink:actuate="onLoad"
       xlink:show="embed"
       id="use79"
       x="0"
       y="0"
       width="100%"
       height="100%" />
  </g>
</svg>
