<?xml version="1.0" encoding="UTF-8"?>
<svg xmlns="http://www.w3.org/2000/svg" xmlns:xlink="http://www.w3.org/1999/xlink" width="75pt" height="74.999997pt" viewBox="0 0 75 74.999997" version="1.2">
<defs>
<clipPath id="clip1">
  <path d="M 9.1875 9.1875 L 66.1875 9.1875 L 66.1875 66.1875 L 9.1875 66.1875 Z M 9.1875 9.1875 "/>
</clipPath>
</defs>
<g id="surface1">
<g clip-path="url(#clip1)" clip-rule="nonzero">
<path style=" stroke:none;fill-rule:nonzero;fill:rgb(33.729553%,23.919678%,48.629761%);fill-opacity:1;" d="M 9.1875 59.167969 C 9.1875 63.253906 12.5 66.566406 16.585938 66.566406 L 59.167969 66.566406 C 63.253906 66.566406 66.566406 63.253906 66.566406 59.167969 L 66.566406 16.585938 C 66.566406 12.5 63.253906 9.1875 59.167969 9.1875 L 16.585938 9.1875 C 12.5 9.1875 9.1875 12.5 9.1875 16.585938 Z M 9.1875 59.167969 "/>
</g>
<path style=" stroke:none;fill-rule:nonzero;fill:rgb(100%,100%,100%);fill-opacity:1;" d="M 32.980469 34.566406 L 32.980469 26.441406 L 40.132812 26.441406 C 40.816406 26.441406 41.472656 26.5 42.101562 26.613281 C 42.734375 26.726562 43.296875 26.929688 43.78125 27.21875 C 44.269531 27.511719 44.660156 27.917969 44.949219 28.4375 C 45.242188 28.957031 45.386719 29.621094 45.386719 30.433594 C 45.386719 31.890625 44.949219 32.945312 44.074219 33.59375 C 43.199219 34.242188 42.078125 34.566406 40.714844 34.566406 Z M 25.339844 20.507812 L 25.339844 55.246094 L 42.175781 55.246094 C 43.734375 55.246094 45.25 55.050781 46.726562 54.660156 C 48.203125 54.273438 49.515625 53.671875 50.667969 52.863281 C 51.820312 52.050781 52.734375 51.003906 53.414062 49.722656 C 54.097656 48.441406 54.4375 46.925781 54.4375 45.175781 C 54.4375 43.003906 53.910156 41.144531 52.855469 39.605469 C 51.800781 38.0625 50.207031 36.984375 48.0625 36.367188 C 49.621094 35.621094 50.796875 34.664062 51.589844 33.496094 C 52.386719 32.328125 52.78125 30.871094 52.78125 29.117188 C 52.78125 27.496094 52.515625 26.132812 51.980469 25.03125 C 51.445312 23.929688 50.691406 23.042969 49.71875 22.378906 C 48.746094 21.714844 47.578125 21.234375 46.214844 20.945312 C 44.851562 20.652344 43.34375 20.507812 41.691406 20.507812 Z M 32.980469 49.3125 L 32.980469 39.773438 L 41.300781 39.773438 C 42.953125 39.773438 44.285156 40.15625 45.289062 40.917969 C 46.296875 41.679688 46.800781 42.953125 46.800781 44.738281 C 46.800781 45.644531 46.644531 46.390625 46.335938 46.976562 C 46.027344 47.558594 45.617188 48.019531 45.09375 48.359375 C 44.578125 48.703125 43.976562 48.945312 43.296875 49.089844 C 42.613281 49.238281 41.902344 49.3125 41.15625 49.3125 Z M 32.980469 49.3125 "/>
</g>
</svg>
