<?xml version="1.0" encoding="UTF-8"?>
<svg xmlns="http://www.w3.org/2000/svg" xmlns:xlink="http://www.w3.org/1999/xlink" width="75pt" height="74.999997pt" viewBox="0 0 75 74.999997" version="1.2">
<defs>
<clipPath id="clip1">
  <path d="M 11.210938 7.5 L 63.640625 7.5 L 63.640625 67.5 L 11.210938 67.5 Z M 11.210938 7.5 "/>
</clipPath>
</defs>
<g id="surface1">
<g clip-path="url(#clip1)" clip-rule="nonzero">
<path style=" stroke:none;fill-rule:nonzero;fill:rgb(89.408875%,30.198669%,14.898682%);fill-opacity:1;" d="M 15.96875 61.367188 L 11.195312 7.675781 L 63.652344 7.675781 L 58.875 61.359375 L 37.390625 67.328125 Z M 15.96875 61.367188 "/>
</g>
<path style=" stroke:none;fill-rule:nonzero;fill:rgb(94.509888%,39.608765%,16.079712%);fill-opacity:1;" d="M 54.785156 57.9375 L 58.867188 12.066406 L 37.425781 12.066406 L 37.425781 62.765625 Z M 54.785156 57.9375 "/>
<path style=" stroke:none;fill-rule:nonzero;fill:rgb(92.158508%,92.158508%,92.158508%);fill-opacity:1;" d="M 37.402344 18.648438 L 20.957031 18.648438 L 22.726562 38.5625 L 37.425781 38.5625 L 37.425781 31.976562 L 28.734375 31.976562 L 28.132812 25.234375 L 37.425781 25.234375 L 37.425781 18.648438 Z M 37.425781 49.058594 L 37.394531 49.066406 L 30.082031 47.085938 L 29.617188 41.835938 L 23.019531 41.835938 L 23.941406 52.171875 L 37.394531 55.902344 L 37.425781 55.890625 Z M 37.425781 49.058594 "/>
<path style=" stroke:none;fill-rule:nonzero;fill:rgb(100%,100%,100%);fill-opacity:1;" d="M 37.402344 38.5625 L 45.488281 38.5625 L 44.746094 47.101562 L 37.421875 49.082031 L 37.421875 55.933594 L 50.882812 52.191406 L 52.6875 31.972656 L 37.425781 31.972656 Z M 53.695312 20.417969 L 53.851562 18.648438 L 37.398438 18.648438 L 37.398438 25.234375 L 53.261719 25.234375 L 53.390625 23.753906 Z M 53.695312 20.417969 "/>
</g>
</svg>
