<?xml version="1.0" encoding="UTF-8"?>
<svg xmlns="http://www.w3.org/2000/svg" xmlns:xlink="http://www.w3.org/1999/xlink" width="75pt" height="74.999997pt" viewBox="0 0 75 74.999997" version="1.2">
<defs>
<clipPath id="clip1">
  <path d="M 10.460938 7.5 L 64.390625 7.5 L 64.390625 67.5 L 10.460938 67.5 Z M 10.460938 7.5 "/>
</clipPath>
</defs>
<g id="surface1">
<g clip-path="url(#clip1)" clip-rule="nonzero">
<path style=" stroke:none;fill-rule:nonzero;fill:rgb(36.468506%,25.099182%,21.569824%);fill-opacity:1;" d="M 64.355469 27.449219 C 64.355469 58.199219 37.425781 67.5 37.425781 67.5 C 37.425781 67.5 10.496094 58.199219 10.496094 27.449219 C 10.496094 23.699219 10.796875 20.550781 11.097656 18 C 11.542969 14.25 14.089844 11.25 17.679688 10.351562 C 22.316406 9 29.648438 7.5 37.425781 7.5 C 45.207031 7.5 52.539062 9 57.324219 10.351562 C 60.917969 11.25 63.460938 14.398438 63.910156 18 C 64.058594 20.550781 64.355469 23.851562 64.355469 27.449219 Z M 64.355469 27.449219 "/>
<path style=" stroke:none;fill-rule:nonzero;fill:rgb(29.798889%,68.629456%,31.369019%);fill-opacity:1;" d="M 37.425781 12 C 44.757812 12 51.640625 13.5 56.128906 14.699219 C 57.925781 15.148438 59.121094 16.648438 59.421875 18.601562 C 59.71875 21.449219 59.867188 24.449219 59.867188 27.449219 C 59.867188 50.851562 42.664062 60.300781 37.425781 62.550781 C 32.191406 60.148438 14.984375 50.699219 14.984375 27.449219 C 14.984375 24.449219 15.136719 21.449219 15.433594 18.601562 C 15.585938 16.648438 16.929688 15.148438 18.726562 14.699219 C 23.214844 13.5 30.097656 12 37.425781 12 M 37.425781 7.5 C 29.648438 7.5 22.316406 9 17.527344 10.351562 C 14.089844 11.25 11.394531 14.398438 11.097656 18 C 10.796875 20.550781 10.496094 23.851562 10.496094 27.449219 C 10.496094 58.199219 37.425781 67.5 37.425781 67.5 C 37.425781 67.5 64.355469 58.199219 64.355469 27.449219 C 64.355469 23.699219 64.058594 20.550781 63.757812 18 C 63.308594 14.25 60.765625 11.25 57.175781 10.351562 C 52.539062 9 45.207031 7.5 37.425781 7.5 Z M 37.425781 7.5 "/>
</g>
<path style=" stroke:none;fill-rule:nonzero;fill:rgb(86.268616%,92.939758%,78.42865%);fill-opacity:1;" d="M 35.929688 43.5 L 38.921875 43.5 L 38.921875 55.5 L 35.929688 55.5 Z M 35.929688 43.5 "/>
<path style=" stroke:none;fill-rule:nonzero;fill:rgb(29.798889%,68.629456%,31.369019%);fill-opacity:1;" d="M 37.425781 16.5 C 37.425781 16.5 28.449219 24 28.449219 36 C 28.449219 43.800781 33.386719 48.75 35.929688 51 L 37.425781 46.5 L 38.921875 51 C 41.46875 48.75 46.402344 43.800781 46.402344 36 C 46.402344 24 37.425781 16.5 37.425781 16.5 Z M 37.425781 16.5 "/>
<path style=" stroke:none;fill-rule:nonzero;fill:rgb(50.588989%,78.039551%,51.759338%);fill-opacity:1;" d="M 37.425781 16.5 C 37.425781 16.5 28.449219 24 28.449219 36 C 28.449219 43.800781 33.386719 48.75 35.929688 51 L 37.425781 46.5 Z M 37.425781 16.5 "/>
</g>
</svg>
