<?xml version="1.0" encoding="UTF-8"?>
<svg xmlns="http://www.w3.org/2000/svg" xmlns:xlink="http://www.w3.org/1999/xlink" width="75pt" height="74.999997pt" viewBox="0 0 75 74.999997" version="1.2">
<defs>
<clipPath id="clip1">
  <path d="M 10.882812 7.5 L 64.132812 7.5 L 64.132812 67.5 L 10.882812 67.5 Z M 10.882812 7.5 "/>
</clipPath>
</defs>
<g id="surface1">
<g clip-path="url(#clip1)" clip-rule="nonzero">
<path style=" stroke:none;fill-rule:nonzero;fill:rgb(32.548523%,61.959839%,26.269531%);fill-opacity:1;" d="M 37.519531 67.492188 C 36.691406 67.492188 35.921875 67.273438 35.207031 66.886719 L 27.894531 62.546875 C 26.796875 61.945312 27.34375 61.722656 27.675781 61.613281 C 29.160156 61.117188 29.433594 61.007812 30.972656 60.128906 C 31.140625 60.019531 31.359375 60.074219 31.523438 60.1875 L 37.132812 63.535156 C 37.351562 63.644531 37.628906 63.644531 37.792969 63.535156 L 59.734375 50.84375 C 59.953125 50.734375 60.0625 50.515625 60.0625 50.238281 L 60.0625 24.910156 C 60.0625 24.636719 59.953125 24.417969 59.734375 24.308594 L 37.792969 11.671875 C 37.574219 11.558594 37.296875 11.558594 37.132812 11.671875 L 15.191406 24.308594 C 14.972656 24.417969 14.863281 24.691406 14.863281 24.910156 L 14.863281 50.242188 C 14.863281 50.460938 14.972656 50.734375 15.191406 50.847656 L 21.1875 54.304688 C 24.429688 55.953125 26.464844 54.03125 26.464844 52.109375 L 26.464844 27.109375 C 26.464844 26.78125 26.738281 26.449219 27.125 26.449219 L 29.929688 26.449219 C 30.257812 26.449219 30.589844 26.726562 30.589844 27.109375 L 30.589844 52.109375 C 30.589844 56.449219 28.226562 58.976562 24.101562 58.976562 C 22.835938 58.976562 21.847656 58.976562 19.042969 57.601562 L 13.265625 54.304688 C 11.835938 53.484375 10.957031 51.945312 10.957031 50.296875 L 10.957031 24.96875 C 10.957031 23.316406 11.835938 21.78125 13.265625 20.957031 L 35.207031 8.265625 C 36.582031 7.496094 38.453125 7.496094 39.828125 8.265625 L 61.769531 20.957031 C 63.199219 21.78125 64.078125 23.316406 64.078125 24.964844 L 64.078125 50.296875 C 64.078125 51.945312 63.199219 53.480469 61.769531 54.304688 L 39.828125 66.996094 C 39.113281 67.328125 38.289062 67.492188 37.519531 67.492188 Z M 44.285156 50.078125 C 34.660156 50.078125 32.679688 45.679688 32.679688 41.941406 C 32.679688 41.613281 32.953125 41.285156 33.339844 41.285156 L 36.199219 41.285156 C 36.527344 41.285156 36.800781 41.503906 36.800781 41.832031 C 37.242188 44.746094 38.507812 46.175781 44.335938 46.175781 C 48.957031 46.175781 50.9375 45.128906 50.9375 42.660156 C 50.9375 41.230469 50.386719 40.183594 43.183594 39.472656 C 37.1875 38.867188 33.449219 37.546875 33.449219 32.769531 C 33.449219 28.316406 37.1875 25.679688 43.457031 25.679688 C 50.496094 25.679688 53.960938 28.097656 54.402344 33.371094 C 54.402344 33.539062 54.34375 33.703125 54.234375 33.867188 C 54.125 33.976562 53.960938 34.085938 53.796875 34.085938 L 50.9375 34.085938 C 50.664062 34.085938 50.386719 33.867188 50.332031 33.59375 C 49.671875 30.570312 47.964844 29.582031 43.457031 29.582031 C 38.398438 29.582031 37.792969 31.339844 37.792969 32.660156 C 37.792969 34.25 38.507812 34.746094 45.328125 35.625 C 52.09375 36.503906 55.28125 37.765625 55.28125 42.492188 C 55.226562 47.328125 51.265625 50.078125 44.285156 50.078125 Z M 44.285156 50.078125 "/>
</g>
</g>
</svg>
