<?xml version="1.0" encoding="UTF-8"?>
<svg xmlns="http://www.w3.org/2000/svg" xmlns:xlink="http://www.w3.org/1999/xlink" width="75pt" height="74.999997pt" viewBox="0 0 75 74.999997" version="1.2">
<defs>
<clipPath id="clip1">
  <path d="M 9.066406 7.5 L 65 7.5 L 65 64.5 L 9.066406 64.5 Z M 9.066406 7.5 "/>
</clipPath>
</defs>
<g id="surface1">
<g clip-path="url(#clip1)" clip-rule="nonzero">
<path style=" stroke:none;fill-rule:nonzero;fill:rgb(100%,100%,100%);fill-opacity:1;" d="M 64.105469 42.292969 C 63.867188 41.214844 62.890625 39.957031 60.921875 39.957031 C 60.519531 39.957031 60.078125 40.007812 59.578125 40.113281 C 58.660156 40.304688 57.875 40.394531 57.1875 40.425781 C 62.554688 31.285156 66.039062 18.585938 62.585938 14.175781 C 58.039062 8.367188 51.921875 7.5 48.675781 7.5 L 48.371094 7.5 C 47.164062 7.519531 45.914062 7.667969 44.652344 7.941406 L 40 8.945312 C 39.367188 8.867188 38.722656 8.808594 38.050781 8.796875 L 37.792969 8.796875 C 35.722656 8.796875 33.835938 9.234375 32.15625 10.0625 L 30.53125 9.421875 C 28.296875 8.539062 24.933594 7.492188 21.609375 7.492188 C 21.421875 7.492188 21.238281 7.496094 21.050781 7.503906 C 17.777344 7.621094 14.960938 8.863281 12.914062 11.097656 C 10.359375 13.882812 9.195312 17.960938 9.460938 23.214844 C 9.472656 23.484375 12.652344 50.355469 21.664062 50.355469 L 21.777344 50.355469 C 22.949219 50.324219 24.0625 49.855469 25.105469 48.957031 C 25.902344 49.554688 26.933594 49.90625 27.890625 50.046875 C 28.527344 50.195312 29.667969 50.40625 31.03125 50.40625 C 32.699219 50.40625 34.203125 50.066406 35.5 49.449219 C 35.5 50.59375 35.492188 52.039062 35.480469 53.886719 L 35.476562 53.984375 L 35.484375 54.082031 C 35.609375 55.925781 35.929688 57.585938 36.40625 58.890625 C 37.773438 62.601562 40.128906 64.648438 43.046875 64.648438 C 43.164062 64.648438 43.289062 64.644531 43.414062 64.636719 C 45.8125 64.488281 48.242188 63.140625 49.914062 61.035156 C 51.722656 58.757812 52.140625 56.351562 52.300781 54.507812 L 52.3125 54.394531 L 52.3125 48.984375 L 52.445312 48.996094 L 53.011719 49.046875 L 53.121094 49.054688 C 53.28125 49.0625 53.449219 49.066406 53.613281 49.066406 C 55.570312 49.066406 57.980469 48.558594 59.609375 47.800781 C 61.167969 47.078125 64.726562 45.09375 64.105469 42.292969 Z M 64.105469 42.292969 "/>
</g>
<path style=" stroke:none;fill-rule:nonzero;fill:rgb(0.779724%,46.669006%,74.119568%);fill-opacity:1;" d="M 49.714844 47.757812 C 49.714844 47.492188 49.730469 47.269531 49.738281 47.023438 C 49.722656 46.699219 49.714844 46.460938 49.714844 46.460938 C 49.714844 46.460938 49.730469 46.449219 49.753906 46.429688 C 49.949219 42.960938 50.90625 41.621094 51.929688 40.859375 C 51.789062 40.660156 51.621094 40.445312 51.46875 40.242188 C 51.035156 39.675781 50.496094 38.972656 49.921875 38.070312 L 49.8125 37.863281 C 49.726562 37.652344 49.515625 37.285156 49.25 36.800781 C 47.710938 34.019531 44.515625 28.238281 46.703125 24.585938 C 47.660156 22.988281 49.460938 22.066406 52.054688 21.839844 C 50.992188 18.820312 47.019531 11.546875 38.007812 11.394531 C 38.003906 11.394531 38 11.394531 38 11.394531 C 30.152344 11.269531 27.574219 18.398438 26.738281 22.65625 C 27.890625 22.167969 29.210938 21.871094 30.417969 21.871094 C 30.4375 21.871094 30.457031 21.871094 30.476562 21.871094 C 33.449219 21.894531 35.496094 23.480469 36.089844 26.226562 C 36.523438 28.242188 36.734375 30.003906 36.726562 31.621094 C 36.714844 35.152344 36.003906 37.007812 35.375 38.648438 L 35.175781 39.175781 C 35.015625 39.609375 34.84375 40.015625 34.683594 40.394531 C 34.519531 40.78125 34.375 41.125 34.269531 41.433594 C 34.898438 41.578125 35.390625 41.78125 35.730469 41.929688 L 35.925781 42.015625 C 35.988281 42.039062 36.050781 42.070312 36.105469 42.105469 C 37.207031 42.773438 37.890625 43.804688 38.039062 45.003906 C 38.117188 45.652344 38.105469 50.058594 38.078125 53.90625 C 38.191406 55.574219 38.472656 56.976562 38.847656 57.992188 C 39.378906 59.4375 40.707031 62.199219 43.253906 62.042969 C 45.035156 61.933594 46.746094 60.847656 47.878906 59.421875 C 49.097656 57.886719 49.546875 56.191406 49.714844 54.28125 Z M 49.714844 47.757812 "/>
<path style=" stroke:none;fill-rule:nonzero;fill:rgb(0.779724%,46.669006%,74.119568%);fill-opacity:1;" d="M 26.484375 41.15625 C 24.390625 38.972656 23.371094 36.03125 23.753906 33.292969 C 24.125 30.648438 23.914062 28.0625 23.800781 26.671875 C 23.765625 26.207031 23.738281 25.863281 23.742188 25.671875 C 23.742188 25.660156 23.742188 25.652344 23.746094 25.640625 C 23.746094 25.636719 23.742188 25.632812 23.742188 25.628906 C 23.898438 21.703125 25.410156 15.515625 29.578125 11.835938 C 27.546875 11.039062 24.246094 9.984375 21.144531 10.097656 C 16.285156 10.273438 11.578125 13.636719 12.050781 23.082031 C 12.230469 26.628906 16.238281 47.890625 21.714844 47.757812 C 22.496094 47.738281 23.3125 47.238281 24.144531 46.230469 C 25.464844 44.644531 26.75 43.203125 27.664062 42.199219 C 27.253906 41.890625 26.859375 41.546875 26.484375 41.15625 Z M 54.9375 22.734375 C 54.957031 22.933594 54.941406 23.105469 54.910156 23.265625 C 54.949219 24.460938 54.820312 25.617188 54.691406 26.742188 C 54.59375 27.566406 54.496094 28.421875 54.46875 29.277344 C 54.441406 30.113281 54.558594 30.941406 54.683594 31.816406 C 54.976562 33.867188 55.28125 36.179688 53.691406 38.875 C 53.980469 39.261719 54.238281 39.617188 54.445312 39.964844 C 60.429688 30.257812 62.84375 18.714844 60.542969 15.773438 C 57.058594 11.324219 52.234375 10.035156 48.414062 10.097656 C 47.21875 10.117188 46.128906 10.277344 45.203125 10.480469 C 51.792969 13.671875 54.730469 20.519531 54.9375 22.734375 Z M 60.101562 42.65625 C 56.640625 43.371094 54.976562 42.988281 54.167969 42.492188 C 54.039062 42.585938 53.910156 42.664062 53.789062 42.738281 C 53.304688 43.03125 52.539062 43.496094 52.355469 46.351562 C 52.460938 46.371094 52.554688 46.382812 52.671875 46.410156 L 53.238281 46.460938 C 54.953125 46.539062 57.199219 46.058594 58.515625 45.445312 C 61.351562 44.128906 62.898438 42.078125 60.101562 42.65625 Z M 35.457031 45.316406 C 35.410156 44.929688 35.199219 44.617188 34.820312 44.363281 L 34.679688 44.304688 C 34.210938 44.097656 33.679688 43.863281 32.832031 43.863281 L 32.824219 43.863281 C 32.660156 43.875 32.496094 43.886719 32.332031 43.886719 C 32.265625 43.886719 32.199219 43.878906 32.132812 43.875 C 31.515625 44.347656 30.640625 44.714844 28.472656 45.160156 C 24.605469 46.148438 26.886719 47.308594 28.371094 47.492188 C 29.808594 47.851562 33.222656 48.289062 35.492188 46.441406 C 35.484375 45.859375 35.472656 45.457031 35.457031 45.316406 Z M 35.457031 45.316406 "/>
<path style=" stroke:none;fill-rule:nonzero;fill:rgb(0.779724%,46.669006%,74.119568%);fill-opacity:1;" d="M 33.714844 27.628906 C 33.335938 28.023438 32.738281 28.367188 32.078125 28.257812 C 31 28.085938 30.175781 26.789062 30.238281 26.300781 C 30.292969 25.816406 31.210938 25.5625 32.285156 25.734375 C 32.660156 25.796875 32.996094 25.902344 33.28125 26.03125 C 32.867188 25.136719 32.117188 24.621094 30.96875 24.496094 C 28.9375 24.269531 26.78125 25.332031 26.34375 25.921875 C 26.355469 26.0625 26.371094 26.246094 26.386719 26.464844 C 26.507812 27.953125 26.734375 30.726562 26.324219 33.652344 C 26.054688 35.582031 26.832031 37.769531 28.359375 39.359375 C 29.339844 40.386719 30.488281 41.035156 31.621094 41.230469 C 31.765625 40.609375 32.023438 40.003906 32.289062 39.378906 C 32.433594 39.035156 32.589844 38.667969 32.738281 38.273438 L 32.949219 37.71875 C 33.523438 36.21875 34.117188 34.664062 34.128906 31.609375 C 34.132812 30.433594 33.988281 29.09375 33.714844 27.628906 Z M 52.113281 32.183594 C 51.976562 31.238281 51.839844 30.257812 51.871094 29.191406 C 51.902344 28.230469 52.007812 27.320312 52.109375 26.441406 C 52.191406 25.75 52.253906 25.082031 52.289062 24.429688 C 50.617188 24.566406 49.503906 25.050781 48.976562 25.867188 C 49.195312 25.792969 49.441406 25.734375 49.714844 25.699219 C 50.875 25.546875 51.71875 25.882812 51.816406 26.527344 C 51.886719 27 51.488281 27.441406 51.3125 27.613281 C 50.953125 27.960938 50.5 28.1875 50.039062 28.246094 C 49.957031 28.257812 49.871094 28.261719 49.789062 28.261719 C 49.332031 28.261719 48.894531 28.105469 48.554688 27.871094 C 48.703125 30.433594 50.589844 33.863281 51.519531 35.542969 C 51.71875 35.902344 51.875 36.191406 52 36.4375 C 52.511719 34.984375 52.324219 33.660156 52.113281 32.183594 Z M 52.113281 32.183594 "/>
</g>
</svg>
