<?xml version="1.0" encoding="UTF-8"?>
<svg xmlns="http://www.w3.org/2000/svg" xmlns:xlink="http://www.w3.org/1999/xlink" width="75pt" height="74.999997pt" viewBox="0 0 75 74.999997" version="1.2">
<defs>
<clipPath id="clip1">
  <path d="M 7.5 10 L 67.5 10 L 67.5 65 L 7.5 65 Z M 7.5 10 "/>
</clipPath>
</defs>
<g id="surface1">
<g clip-path="url(#clip1)" clip-rule="nonzero">
<path style=" stroke:none;fill-rule:nonzero;fill:rgb(0%,84.709167%,100%);fill-opacity:1;" d="M 56.789062 28.109375 C 56.171875 27.894531 55.527344 27.695312 54.863281 27.503906 C 54.972656 27.058594 55.074219 26.621094 55.164062 26.1875 C 56.621094 19.113281 55.667969 13.414062 52.410156 11.535156 C 49.285156 9.734375 44.175781 11.613281 39.019531 16.097656 C 38.523438 16.53125 38.023438 16.984375 37.527344 17.464844 C 37.195312 17.148438 36.867188 16.84375 36.535156 16.550781 C 31.128906 11.753906 25.710938 9.730469 22.457031 11.613281 C 19.335938 13.417969 18.410156 18.777344 19.722656 25.484375 C 19.851562 26.132812 20 26.792969 20.167969 27.464844 C 19.398438 27.683594 18.660156 27.914062 17.949219 28.160156 C 11.613281 30.371094 7.5625 33.832031 7.5625 37.421875 C 7.5625 41.128906 11.910156 44.847656 18.511719 47.101562 C 19.03125 47.28125 19.574219 47.449219 20.128906 47.605469 C 19.949219 48.332031 19.792969 49.046875 19.660156 49.742188 C 18.40625 56.332031 19.386719 61.566406 22.5 63.359375 C 25.710938 65.210938 31.109375 63.304688 36.359375 58.71875 C 36.777344 58.355469 37.195312 57.972656 37.609375 57.570312 C 38.152344 58.089844 38.691406 58.582031 39.226562 59.042969 C 44.316406 63.417969 49.34375 65.183594 52.453125 63.386719 C 55.664062 61.53125 56.707031 55.90625 55.351562 49.070312 C 55.25 48.546875 55.128906 48.015625 54.996094 47.472656 C 55.375 47.359375 55.746094 47.242188 56.109375 47.125 C 62.972656 44.851562 67.4375 41.179688 67.4375 37.421875 C 67.4375 33.816406 63.257812 30.332031 56.789062 28.109375 Z M 55.304688 44.699219 C 54.976562 44.804688 54.640625 44.910156 54.296875 45.011719 C 53.539062 42.617188 52.515625 40.066406 51.265625 37.433594 C 52.460938 34.863281 53.441406 32.347656 54.179688 29.964844 C 54.789062 30.140625 55.386719 30.328125 55.957031 30.527344 C 61.5 32.433594 64.878906 35.25 64.878906 37.421875 C 64.878906 39.730469 61.230469 42.734375 55.304688 44.699219 Z M 52.84375 49.566406 C 53.445312 52.589844 53.527344 55.324219 53.128906 57.460938 C 52.773438 59.382812 52.058594 60.664062 51.171875 61.175781 C 49.28125 62.265625 45.25 60.847656 40.898438 57.105469 C 40.398438 56.675781 39.894531 56.21875 39.390625 55.734375 C 41.078125 53.890625 42.765625 51.75 44.410156 49.367188 C 47.304688 49.113281 50.039062 48.691406 52.519531 48.117188 C 52.640625 48.613281 52.75 49.09375 52.84375 49.566406 Z M 27.976562 60.984375 C 26.132812 61.636719 24.664062 61.65625 23.777344 61.144531 C 21.886719 60.054688 21.101562 55.855469 22.175781 50.21875 C 22.296875 49.574219 22.441406 48.910156 22.613281 48.234375 C 25.0625 48.777344 27.777344 49.164062 30.679688 49.398438 C 32.335938 51.730469 34.070312 53.871094 35.820312 55.742188 C 35.4375 56.113281 35.058594 56.464844 34.679688 56.792969 C 32.355469 58.824219 30.027344 60.261719 27.976562 60.984375 Z M 19.339844 44.683594 C 16.421875 43.6875 14.007812 42.390625 12.355469 40.976562 C 10.871094 39.707031 10.121094 38.445312 10.121094 37.421875 C 10.121094 35.242188 13.371094 32.464844 18.792969 30.574219 C 19.449219 30.347656 20.140625 30.128906 20.855469 29.925781 C 21.605469 32.363281 22.585938 34.910156 23.773438 37.480469 C 22.570312 40.09375 21.574219 42.679688 20.816406 45.148438 C 20.308594 45 19.816406 44.84375 19.339844 44.683594 Z M 22.234375 24.992188 C 21.109375 19.246094 21.855469 14.914062 23.738281 13.824219 C 25.742188 12.667969 30.167969 14.320312 34.835938 18.460938 C 35.136719 18.726562 35.4375 19.003906 35.738281 19.289062 C 33.996094 21.15625 32.277344 23.28125 30.636719 25.59375 C 27.820312 25.855469 25.125 26.273438 22.644531 26.835938 C 22.492188 26.210938 22.351562 25.59375 22.234375 24.992188 Z M 48.058594 31.363281 C 47.46875 30.34375 46.859375 29.34375 46.242188 28.375 C 48.152344 28.613281 49.980469 28.933594 51.699219 29.328125 C 51.183594 30.980469 50.542969 32.707031 49.785156 34.480469 C 49.242188 33.449219 48.664062 32.410156 48.058594 31.363281 Z M 37.527344 21.117188 C 38.710938 22.390625 39.890625 23.816406 41.054688 25.363281 C 39.882812 25.308594 38.695312 25.28125 37.5 25.28125 C 36.316406 25.28125 35.140625 25.308594 33.976562 25.363281 C 35.136719 23.832031 36.332031 22.40625 37.527344 21.117188 Z M 26.929688 31.382812 C 26.335938 32.40625 25.773438 33.441406 25.238281 34.476562 C 24.496094 32.710938 23.855469 30.976562 23.335938 29.300781 C 25.042969 28.917969 26.867188 28.605469 28.765625 28.367188 C 28.136719 29.347656 27.523438 30.355469 26.929688 31.382812 Z M 28.820312 46.652344 C 26.859375 46.4375 25.007812 46.140625 23.300781 45.769531 C 23.832031 44.0625 24.480469 42.289062 25.242188 40.488281 C 25.777344 41.523438 26.34375 42.554688 26.9375 43.582031 L 26.941406 43.582031 C 27.546875 44.628906 28.175781 45.652344 28.820312 46.652344 Z M 37.597656 53.90625 C 36.386719 52.597656 35.179688 51.152344 33.996094 49.597656 C 35.144531 49.644531 36.3125 49.664062 37.5 49.664062 C 38.722656 49.664062 39.929688 49.636719 41.113281 49.585938 C 39.949219 51.167969 38.769531 52.617188 37.597656 53.90625 Z M 49.808594 40.394531 C 50.605469 42.21875 51.28125 43.980469 51.820312 45.660156 C 50.082031 46.054688 48.207031 46.371094 46.234375 46.609375 C 46.855469 45.625 47.46875 44.609375 48.070312 43.566406 C 48.683594 42.507812 49.261719 41.449219 49.808594 40.394531 Z M 45.855469 42.289062 C 44.917969 43.910156 43.957031 45.457031 42.980469 46.917969 C 41.207031 47.042969 39.371094 47.109375 37.5 47.109375 C 35.636719 47.109375 33.824219 47.054688 32.078125 46.9375 C 31.0625 45.460938 30.082031 43.90625 29.152344 42.300781 C 28.226562 40.703125 27.371094 39.085938 26.597656 37.480469 C 27.371094 35.875 28.222656 34.257812 29.144531 32.660156 C 30.070312 31.058594 31.042969 29.511719 32.046875 28.042969 C 33.828125 27.90625 35.65625 27.835938 37.5 27.835938 C 39.355469 27.835938 41.179688 27.90625 42.960938 28.042969 C 43.953125 29.503906 44.917969 31.042969 45.847656 32.644531 C 46.785156 34.265625 47.648438 35.871094 48.425781 37.445312 C 47.652344 39.046875 46.789062 40.667969 45.855469 42.289062 Z M 51.128906 13.75 C 53.136719 14.902344 53.917969 19.5625 52.65625 25.671875 C 52.578125 26.0625 52.484375 26.460938 52.386719 26.863281 C 49.902344 26.289062 47.207031 25.863281 44.382812 25.597656 C 42.738281 23.257812 41.03125 21.128906 39.320312 19.285156 C 39.78125 18.84375 40.242188 18.421875 40.699219 18.023438 C 45.117188 14.183594 49.25 12.664062 51.128906 13.75 Z M 37.5 32.078125 C 40.453125 32.078125 42.847656 34.46875 42.847656 37.421875 C 42.847656 40.371094 40.453125 42.761719 37.5 42.761719 C 34.546875 42.761719 32.152344 40.371094 32.152344 37.421875 C 32.152344 34.46875 34.546875 32.078125 37.5 32.078125 Z M 37.5 32.078125 "/>
</g>
</g>
</svg>
