<?xml version="1.0" encoding="UTF-8"?>
<svg xmlns="http://www.w3.org/2000/svg" xmlns:xlink="http://www.w3.org/1999/xlink" width="75pt" height="74.999997pt" viewBox="0 0 75 74.999997" version="1.2">
<defs>
<clipPath id="clip1">
  <path d="M 7.5 7.5 L 67.5 7.5 L 67.5 67.5 L 7.5 67.5 Z M 7.5 7.5 "/>
</clipPath>
</defs>
<g id="surface1">
<g clip-path="url(#clip1)" clip-rule="nonzero">
<path style=" stroke:none;fill-rule:nonzero;fill:rgb(0%,47.839355%,79.998779%);fill-opacity:1;" d="M 7.5 67.5 L 67.5 67.5 L 67.5 7.5 L 7.5 7.5 Z M 7.5 67.5 "/>
</g>
<path style=" stroke:none;fill-rule:nonzero;fill:rgb(100%,100%,100%);fill-opacity:1;" d="M 20.765625 37.695312 L 20.746094 40.15625 L 28.554688 40.15625 L 28.554688 62.347656 L 34.082031 62.347656 L 34.082031 40.15625 L 41.890625 40.15625 L 41.890625 37.746094 C 41.890625 36.414062 41.859375 35.296875 41.824219 35.269531 C 41.792969 35.230469 37.042969 35.210938 31.28125 35.222656 L 20.792969 35.25 Z M 20.765625 37.695312 "/>
<path style=" stroke:none;fill-rule:nonzero;fill:rgb(100%,100%,100%);fill-opacity:1;" d="M 55.914062 35.183594 C 57.4375 35.5625 58.601562 36.238281 59.667969 37.34375 C 60.21875 37.933594 61.039062 39.007812 61.105469 39.265625 C 61.121094 39.34375 58.515625 41.09375 56.933594 42.078125 C 56.875 42.113281 56.648438 41.867188 56.390625 41.488281 C 55.621094 40.363281 54.808594 39.875 53.570312 39.792969 C 51.753906 39.667969 50.582031 40.621094 50.589844 42.210938 C 50.589844 42.675781 50.65625 42.953125 50.847656 43.332031 C 51.25 44.164062 51.992188 44.65625 54.324219 45.667969 C 58.621094 47.515625 60.457031 48.734375 61.601562 50.46875 C 62.875 52.402344 63.160156 55.484375 62.292969 57.78125 C 61.34375 60.277344 58.980469 61.972656 55.65625 62.535156 C 54.628906 62.714844 52.191406 62.6875 51.085938 62.488281 C 48.675781 62.058594 46.390625 60.867188 44.980469 59.304688 C 44.429688 58.695312 43.351562 57.105469 43.417969 56.992188 C 43.449219 56.953125 43.695312 56.800781 43.972656 56.640625 C 44.238281 56.488281 45.25 55.90625 46.199219 55.351562 L 47.921875 54.355469 L 48.285156 54.886719 C 48.789062 55.65625 49.894531 56.714844 50.5625 57.066406 C 52.476562 58.074219 55.105469 57.933594 56.398438 56.773438 C 56.953125 56.265625 57.179688 55.742188 57.179688 54.972656 C 57.179688 54.277344 57.097656 53.972656 56.734375 53.449219 C 56.265625 52.78125 55.316406 52.21875 52.609375 51.050781 C 49.515625 49.714844 48.179688 48.886719 46.960938 47.570312 C 46.257812 46.808594 45.589844 45.589844 45.3125 44.570312 C 45.085938 43.726562 45.027344 41.601562 45.207031 40.742188 C 45.847656 37.753906 48.105469 35.667969 51.359375 35.046875 C 52.417969 34.847656 54.875 34.925781 55.914062 35.183594 Z M 55.914062 35.183594 "/>
</g>
</svg>
